# MagicaVoxel @ Ephtracy

# group
o 

# material
mtllib Middlewindowmonorail.mtl
usemtl palette

# normals
vn -1 0 0
vn 1 0 0
vn 0 0 1
vn 0 0 -1
vn 0 -1 0
vn 0 1 0

# texcoords
vt 0.650391 0.5
vt 0.927734 0.5
vt 0.951172 0.5
vt 0.982422 0.5
vt 0.990234 0.5

# verts
v -1 0.3 1
v -1 0.3 -1
v -1 0.5 1
v -1 0.5 -1
v 0.6 0.3 0.8
v 0.6 0.3 -0.8
v 0.6 0.4 0.8
v 0.6 0.4 -0.8
v 0.6 0.5 0.8
v 0.6 0.5 -0.8
v -0.2 0.3 0.8
v -0.2 0.3 -0.8
v -0.2 0.4 0.8
v -0.2 0.4 -0.8
v -0.2 0.5 0.8
v -0.2 0.5 -0.8
v 1 0.3 1
v 1 0.3 -1
v 1 0.5 1
v 1 0.5 -1
v -1 0.3 1
v -1 0.5 1
v -0.6 0.4 1
v -0.6 0.5 1
v -0.5 0.4 1
v -0.5 0.5 1
v -0.4 0.4 1
v -0.4 0.5 1
v -0.3 0.4 1
v -0.3 0.5 1
v 0.7 0.4 1
v 0.7 0.5 1
v 0.8 0.4 1
v 0.8 0.5 1
v 0.9 0.4 1
v 0.9 0.5 1
v 1 0.3 1
v 1 0.5 1
v -0.2 0.3 -0.8
v -0.2 0.4 -0.8
v -0.2 0.5 -0.8
v 0.6 0.3 -0.8
v 0.6 0.4 -0.8
v 0.6 0.5 -0.8
v -0.2 0.3 0.8
v -0.2 0.4 0.8
v -0.2 0.5 0.8
v 0.6 0.3 0.8
v 0.6 0.4 0.8
v 0.6 0.5 0.8
v -1 0.3 -1
v -1 0.5 -1
v -0.6 0.4 -1
v -0.6 0.5 -1
v -0.5 0.3 -1
v -0.5 0.4 -1
v -0.5 0.5 -1
v -0.4 0.3 -1
v -0.4 0.4 -1
v -0.4 0.5 -1
v -0.3 0.4 -1
v -0.3 0.5 -1
v 0.7 0.4 -1
v 0.7 0.5 -1
v 0.8 0.4 -1
v 0.8 0.5 -1
v 0.9 0.4 -1
v 0.9 0.5 -1
v 1 0.3 -1
v 1 0.5 -1
v -1 0.3 1
v 1 0.3 1
v -0.2 0.3 0.8
v 0.6 0.3 0.8
v -0.2 0.3 -0.8
v 0.6 0.3 -0.8
v -0.5 0.3 -0.9
v -0.4 0.3 -0.9
v -1 0.3 -1
v -0.5 0.3 -1
v -0.4 0.3 -1
v 1 0.3 -1
v -1 0.5 1
v -0.6 0.5 1
v -0.5 0.5 1
v -0.4 0.5 1
v -0.3 0.5 1
v 0.7 0.5 1
v 0.8 0.5 1
v 0.9 0.5 1
v 1 0.5 1
v -0.3 0.5 0.9
v 0.7 0.5 0.9
v -0.2 0.5 0.8
v 0.6 0.5 0.8
v -0.2 0.5 -0.8
v 0.6 0.5 -0.8
v -0.3 0.5 -0.9
v 0.7 0.5 -0.9
v -1 0.5 -1
v -0.6 0.5 -1
v -0.5 0.5 -1
v -0.4 0.5 -1
v -0.3 0.5 -1
v 0.7 0.5 -1
v 0.8 0.5 -1
v 0.9 0.5 -1
v 1 0.5 -1

# faces
f 3/4/1 2/4/1 1/4/1
f 4/4/1 2/4/1 3/4/1
f 7/4/1 6/4/1 5/4/1
f 8/4/1 6/4/1 7/4/1
f 9/3/1 8/3/1 7/3/1
f 10/3/1 8/3/1 9/3/1
f 11/4/2 12/4/2 13/4/2
f 13/4/2 12/4/2 14/4/2
f 13/3/2 14/3/2 15/3/2
f 15/3/2 14/3/2 16/3/2
f 17/4/2 18/4/2 19/4/2
f 19/4/2 18/4/2 20/4/2
f 23/4/3 22/4/3 21/4/3
f 24/4/3 22/4/3 23/4/3
f 25/4/3 23/4/3 21/4/3
f 25/5/3 24/5/3 23/5/3
f 26/5/3 24/5/3 25/5/3
f 27/4/3 25/4/3 21/4/3
f 27/1/3 26/1/3 25/1/3
f 28/1/3 26/1/3 27/1/3
f 29/4/3 27/4/3 21/4/3
f 29/2/3 28/2/3 27/2/3
f 30/2/3 28/2/3 29/2/3
f 31/4/3 29/4/3 21/4/3
f 31/4/3 30/4/3 29/4/3
f 32/4/3 30/4/3 31/4/3
f 33/4/3 31/4/3 21/4/3
f 33/2/3 32/2/3 31/2/3
f 34/2/3 32/2/3 33/2/3
f 35/4/3 33/4/3 21/4/3
f 35/1/3 34/1/3 33/1/3
f 36/1/3 34/1/3 35/1/3
f 37/4/3 35/4/3 21/4/3
f 37/4/3 36/4/3 35/4/3
f 38/4/3 36/4/3 37/4/3
f 42/4/3 40/4/3 39/4/3
f 43/3/3 41/3/3 40/3/3
f 43/4/3 40/4/3 42/4/3
f 44/3/3 41/3/3 43/3/3
f 45/4/4 46/4/4 48/4/4
f 46/3/4 47/3/4 49/3/4
f 48/4/4 46/4/4 49/4/4
f 49/3/4 47/3/4 50/3/4
f 51/4/4 52/4/4 53/4/4
f 53/4/4 52/4/4 54/4/4
f 51/4/4 53/4/4 55/4/4
f 53/5/4 54/5/4 56/5/4
f 55/4/4 53/4/4 56/4/4
f 56/5/4 54/5/4 57/5/4
f 55/1/4 56/1/4 58/1/4
f 56/1/4 57/1/4 58/1/4
f 58/1/4 57/1/4 59/1/4
f 59/1/4 57/1/4 60/1/4
f 58/4/4 59/4/4 61/4/4
f 59/2/4 60/2/4 61/2/4
f 61/2/4 60/2/4 62/2/4
f 58/4/4 61/4/4 63/4/4
f 61/4/4 62/4/4 63/4/4
f 63/4/4 62/4/4 64/4/4
f 58/4/4 63/4/4 65/4/4
f 63/2/4 64/2/4 65/2/4
f 65/2/4 64/2/4 66/2/4
f 58/4/4 65/4/4 67/4/4
f 65/1/4 66/1/4 67/1/4
f 67/1/4 66/1/4 68/1/4
f 58/4/4 67/4/4 69/4/4
f 67/4/4 68/4/4 69/4/4
f 69/4/4 68/4/4 70/4/4
f 73/4/5 72/4/5 71/4/5
f 74/4/5 72/4/5 73/4/5
f 75/4/5 73/4/5 71/4/5
f 76/4/5 72/4/5 74/4/5
f 77/4/5 75/4/5 71/4/5
f 77/4/5 76/4/5 75/4/5
f 78/4/5 76/4/5 77/4/5
f 79/4/5 77/4/5 71/4/5
f 80/1/5 78/1/5 77/1/5
f 80/4/5 77/4/5 79/4/5
f 81/4/5 76/4/5 78/4/5
f 81/1/5 78/1/5 80/1/5
f 82/4/5 72/4/5 76/4/5
f 82/4/5 76/4/5 81/4/5
f 86/2/6 87/2/6 92/2/6
f 87/4/6 88/4/6 92/4/6
f 88/2/6 89/2/6 93/2/6
f 92/4/6 88/4/6 93/4/6
f 92/3/6 93/3/6 94/3/6
f 94/3/6 93/3/6 95/3/6
f 92/3/6 94/3/6 96/3/6
f 95/3/6 93/3/6 97/3/6
f 86/2/6 92/2/6 98/2/6
f 96/3/6 97/3/6 98/3/6
f 92/3/6 96/3/6 98/3/6
f 97/3/6 93/3/6 99/3/6
f 98/3/6 97/3/6 99/3/6
f 93/2/6 89/2/6 99/2/6
f 83/4/6 84/4/6 100/4/6
f 84/5/6 85/5/6 101/5/6
f 100/4/6 84/4/6 101/4/6
f 85/1/6 86/1/6 102/1/6
f 101/5/6 85/5/6 102/5/6
f 86/2/6 98/2/6 103/2/6
f 102/1/6 86/1/6 103/1/6
f 98/4/6 99/4/6 104/4/6
f 103/2/6 98/2/6 104/2/6
f 99/2/6 89/2/6 105/2/6
f 104/4/6 99/4/6 105/4/6
f 89/1/6 90/1/6 106/1/6
f 105/2/6 89/2/6 106/2/6
f 90/4/6 91/4/6 107/4/6
f 106/1/6 90/1/6 107/1/6
f 107/4/6 91/4/6 108/4/6
