# MagicaVoxel @ Ephtracy

# group
o 

# material
mtllib Wrench.mtl
usemtl palette

# normals
vn -1 0 0
vn 1 0 0
vn 0 0 1
vn 0 0 -1
vn 0 -1 0
vn 0 1 0

# texcoords
vt 0.146484 0.5
vt 0.923828 0.5
vt 0.931641 0.5

# verts
v -1 0 0
v -1 0 -0.3
v -1 0.3 0
v -1 0.3 -0.3
v -0.7 0.1 -0.1
v -0.7 0.1 -0.2
v -0.7 0.2 -0.1
v -0.7 0.2 -0.2
v -0.2 0.1 0.2
v -0.2 0.1 0
v -0.2 0.2 0.2
v -0.2 0.2 0
v 0 0 0.1
v 0 0 0
v 0 0.1 0.1
v 0 0.1 0
v 0 0.2 0.1
v 0 0.2 0
v 0 0.3 0.1
v 0 0.3 0
v 0.1 0 0.3
v 0.1 0 0.1
v 0.1 0 -0.1
v 0.1 0 -0.2
v 0.1 0.1 0.2
v 0.1 0.1 0.1
v 0.1 0.1 -0.1
v 0.1 0.1 -0.2
v 0.1 0.2 0.2
v 0.1 0.2 0.1
v 0.1 0.2 -0.1
v 0.1 0.2 -0.2
v 0.1 0.3 0.3
v 0.1 0.3 0.1
v 0.1 0.3 -0.1
v 0.1 0.3 -0.2
v 0.8 0 0
v 0.8 0 -0.3
v 0.8 0.1 0
v 0.8 0.2 0
v 0.8 0.3 0
v 0.8 0.3 -0.3
v -0.9 0 -0.1
v -0.9 0 -0.2
v -0.9 0.3 -0.1
v -0.9 0.3 -0.2
v 0.5 0 0.3
v 0.5 0 -0.1
v 0.5 0.1 0.3
v 0.5 0.1 0
v 0.5 0.2 0.3
v 0.5 0.2 0
v 0.5 0.3 0.3
v 0.5 0.3 -0.1
v 0.6 0 -0.1
v 0.6 0 -0.3
v 0.6 0.3 -0.1
v 0.6 0.3 -0.3
v 0.9 0 0
v 0.9 0 -0.3
v 0.9 0.1 0
v 0.9 0.1 -0.3
v 0.9 0.2 0
v 0.9 0.2 -0.3
v 0.9 0.3 0
v 0.9 0.3 -0.3
v 1 0.1 0.3
v 1 0.1 -0.3
v 1 0.2 0.3
v 1 0.2 -0.3
v 0.1 0 0.3
v 0.1 0.3 0.3
v 0.3 0 0.3
v 0.3 0.3 0.3
v 0.5 0 0.3
v 0.5 0.1 0.3
v 0.5 0.2 0.3
v 0.5 0.3 0.3
v 1 0.1 0.3
v 1 0.2 0.3
v -0.2 0.1 0.2
v -0.2 0.2 0.2
v 0.1 0.1 0.2
v 0.1 0.2 0.2
v 0 0 0.1
v 0 0.1 0.1
v 0 0.2 0.1
v 0 0.3 0.1
v 0.1 0 0.1
v 0.1 0.1 0.1
v 0.1 0.2 0.1
v 0.1 0.3 0.1
v -1 0 0
v -1 0.3 0
v -0.2 0.1 0
v -0.2 0.2 0
v 0 0 0
v 0 0.1 0
v 0 0.2 0
v 0 0.3 0
v 0.8 0 0
v 0.8 0.1 0
v 0.8 0.2 0
v 0.8 0.3 0
v 0.9 0 0
v 0.9 0.1 0
v 0.9 0.2 0
v 0.9 0.3 0
v 0.5 0 -0.1
v 0.5 0.3 -0.1
v 0.6 0 -0.1
v 0.6 0.3 -0.1
v -0.9 0 -0.2
v -0.9 0.3 -0.2
v -0.7 0.1 -0.2
v -0.7 0.2 -0.2
v 0.1 0 -0.2
v 0.1 0.1 -0.2
v 0.1 0.2 -0.2
v 0.1 0.3 -0.2
v 0.5 0.1 0
v 0.5 0.2 0
v 0.8 0.1 0
v 0.8 0.2 0
v -0.9 0 -0.1
v -0.9 0.3 -0.1
v -0.7 0.1 -0.1
v -0.7 0.2 -0.1
v 0.1 0 -0.1
v 0.1 0.1 -0.1
v 0.1 0.2 -0.1
v 0.1 0.3 -0.1
v -1 0 -0.3
v -1 0.3 -0.3
v 0.5 0 -0.3
v 0.5 0.3 -0.3
v 0.6 0 -0.3
v 0.6 0.3 -0.3
v 0.8 0 -0.3
v 0.8 0.3 -0.3
v 0.9 0 -0.3
v 0.9 0.1 -0.3
v 0.9 0.2 -0.3
v 0.9 0.3 -0.3
v 1 0.1 -0.3
v 1 0.2 -0.3
v 0.1 0 0.3
v 0.3 0 0.3
v 0.5 0 0.3
v 0 0 0.1
v 0.1 0 0.1
v -1 0 0
v 0 0 0
v 0.1 0 0
v 0.3 0 0
v 0.8 0 0
v 0.9 0 0
v -0.9 0 -0.1
v 0.1 0 -0.1
v 0.5 0 -0.1
v 0.6 0 -0.1
v -0.9 0 -0.2
v 0.1 0 -0.2
v -1 0 -0.3
v 0.5 0 -0.3
v 0.6 0 -0.3
v 0.8 0 -0.3
v 0.9 0 -0.3
v 0.5 0.1 0.3
v 1 0.1 0.3
v -0.2 0.1 0.2
v 0.1 0.1 0.2
v 0 0.1 0.1
v 0.1 0.1 0.1
v -0.2 0.1 0
v 0 0.1 0
v 0.5 0.1 0
v 0.8 0.1 0
v 0.9 0.1 0
v -0.7 0.1 -0.1
v 0.1 0.1 -0.1
v -0.7 0.1 -0.2
v 0.1 0.1 -0.2
v 0.9 0.1 -0.3
v 1 0.1 -0.3
v 0.5 0.2 0.3
v 1 0.2 0.3
v -0.2 0.2 0.2
v 0.1 0.2 0.2
v 0 0.2 0.1
v 0.1 0.2 0.1
v -0.2 0.2 0
v 0 0.2 0
v 0.5 0.2 0
v 0.8 0.2 0
v 0.9 0.2 0
v -0.7 0.2 -0.1
v 0.1 0.2 -0.1
v -0.7 0.2 -0.2
v 0.1 0.2 -0.2
v 0.9 0.2 -0.3
v 1 0.2 -0.3
v 0.1 0.3 0.3
v 0.3 0.3 0.3
v 0.5 0.3 0.3
v 0 0.3 0.1
v 0.1 0.3 0.1
v -1 0.3 0
v 0 0.3 0
v 0.1 0.3 0
v 0.3 0.3 0
v 0.8 0.3 0
v 0.9 0.3 0
v -0.9 0.3 -0.1
v 0.1 0.3 -0.1
v 0.5 0.3 -0.1
v 0.6 0.3 -0.1
v -0.9 0.3 -0.2
v 0.1 0.3 -0.2
v -1 0.3 -0.3
v 0.5 0.3 -0.3
v 0.6 0.3 -0.3
v 0.8 0.3 -0.3
v 0.9 0.3 -0.3

# faces
f 3/1/1 2/1/1 1/1/1
f 4/1/1 2/1/1 3/1/1
f 7/1/1 6/1/1 5/1/1
f 8/1/1 6/1/1 7/1/1
f 11/2/1 10/2/1 9/2/1
f 12/2/1 10/2/1 11/2/1
f 15/1/1 14/1/1 13/1/1
f 16/1/1 14/1/1 15/1/1
f 19/1/1 18/1/1 17/1/1
f 20/1/1 18/1/1 19/1/1
f 25/3/1 22/3/1 21/3/1
f 26/3/1 22/3/1 25/3/1
f 27/1/1 24/1/1 23/1/1
f 28/1/1 24/1/1 27/1/1
f 29/3/1 25/3/1 21/3/1
f 33/3/1 29/3/1 21/3/1
f 33/3/1 30/3/1 29/3/1
f 34/3/1 30/3/1 33/3/1
f 35/1/1 32/1/1 31/1/1
f 36/1/1 32/1/1 35/1/1
f 39/3/1 38/3/1 37/3/1
f 40/3/1 38/3/1 39/3/1
f 41/3/1 38/3/1 40/3/1
f 42/3/1 38/3/1 41/3/1
f 43/1/2 44/1/2 45/1/2
f 45/1/2 44/1/2 46/1/2
f 47/1/2 48/1/2 49/1/2
f 49/1/2 48/1/2 50/1/2
f 50/1/2 48/1/2 52/1/2
f 51/1/2 52/1/2 53/1/2
f 52/1/2 48/1/2 54/1/2
f 53/1/2 52/1/2 54/1/2
f 55/3/2 56/3/2 57/3/2
f 57/3/2 56/3/2 58/3/2
f 59/3/2 60/3/2 61/3/2
f 61/3/2 60/3/2 62/3/2
f 63/3/2 64/3/2 65/3/2
f 65/3/2 64/3/2 66/3/2
f 67/2/2 68/2/2 69/2/2
f 69/2/2 68/2/2 70/2/2
f 73/3/3 72/3/3 71/3/3
f 74/3/3 72/3/3 73/3/3
f 75/1/3 74/1/3 73/1/3
f 76/1/3 74/1/3 75/1/3
f 77/1/3 74/1/3 76/1/3
f 78/1/3 74/1/3 77/1/3
f 79/2/3 77/2/3 76/2/3
f 80/2/3 77/2/3 79/2/3
f 83/2/3 82/2/3 81/2/3
f 84/2/3 82/2/3 83/2/3
f 89/1/3 86/1/3 85/1/3
f 90/1/3 86/1/3 89/1/3
f 91/1/3 88/1/3 87/1/3
f 92/1/3 88/1/3 91/1/3
f 95/1/3 94/1/3 93/1/3
f 96/1/3 94/1/3 95/1/3
f 97/1/3 95/1/3 93/1/3
f 98/1/3 95/1/3 97/1/3
f 99/1/3 94/1/3 96/1/3
f 100/1/3 94/1/3 99/1/3
f 105/3/3 102/3/3 101/3/3
f 106/3/3 102/3/3 105/3/3
f 107/3/3 104/3/3 103/3/3
f 108/3/3 104/3/3 107/3/3
f 111/3/3 110/3/3 109/3/3
f 112/3/3 110/3/3 111/3/3
f 115/1/3 114/1/3 113/1/3
f 116/1/3 114/1/3 115/1/3
f 117/1/3 115/1/3 113/1/3
f 118/1/3 115/1/3 117/1/3
f 119/1/3 114/1/3 116/1/3
f 120/1/3 114/1/3 119/1/3
f 121/2/4 122/2/4 123/2/4
f 123/2/4 122/2/4 124/2/4
f 125/1/4 126/1/4 127/1/4
f 127/1/4 126/1/4 128/1/4
f 125/1/4 127/1/4 129/1/4
f 129/1/4 127/1/4 130/1/4
f 128/1/4 126/1/4 131/1/4
f 131/1/4 126/1/4 132/1/4
f 133/1/4 134/1/4 135/1/4
f 135/1/4 134/1/4 136/1/4
f 135/3/4 136/3/4 137/3/4
f 137/3/4 136/3/4 138/3/4
f 139/3/4 140/3/4 141/3/4
f 141/3/4 140/3/4 142/3/4
f 142/3/4 140/3/4 143/3/4
f 143/3/4 140/3/4 144/3/4
f 142/2/4 143/2/4 145/2/4
f 145/2/4 143/2/4 146/2/4
f 151/3/5 148/3/5 147/3/5
f 153/1/5 151/1/5 150/1/5
f 154/3/5 148/3/5 151/3/5
f 154/1/5 151/1/5 153/1/5
f 155/1/5 149/1/5 148/1/5
f 155/3/5 148/3/5 154/3/5
f 158/1/5 154/1/5 153/1/5
f 158/1/5 153/1/5 152/1/5
f 158/1/5 155/1/5 154/1/5
f 159/1/5 155/1/5 158/1/5
f 160/1/5 149/1/5 155/1/5
f 160/1/5 155/1/5 159/1/5
f 162/1/5 158/1/5 152/1/5
f 163/1/5 160/1/5 159/1/5
f 164/1/5 162/1/5 152/1/5
f 164/1/5 163/1/5 162/1/5
f 165/3/5 161/3/5 160/3/5
f 165/1/5 163/1/5 164/1/5
f 165/1/5 160/1/5 163/1/5
f 166/3/5 161/3/5 165/3/5
f 167/3/5 157/3/5 156/3/5
f 168/3/5 157/3/5 167/3/5
f 173/2/5 172/2/5 171/2/5
f 174/2/5 172/2/5 173/2/5
f 175/2/5 173/2/5 171/2/5
f 176/2/5 173/2/5 175/2/5
f 177/2/5 170/2/5 169/2/5
f 178/2/5 170/2/5 177/2/5
f 179/2/5 170/2/5 178/2/5
f 182/1/5 181/1/5 180/1/5
f 183/1/5 181/1/5 182/1/5
f 184/2/5 170/2/5 179/2/5
f 185/2/5 170/2/5 184/2/5
f 188/2/6 189/2/6 190/2/6
f 190/2/6 189/2/6 191/2/6
f 188/2/6 190/2/6 192/2/6
f 192/2/6 190/2/6 193/2/6
f 186/2/6 187/2/6 194/2/6
f 194/2/6 187/2/6 195/2/6
f 195/2/6 187/2/6 196/2/6
f 197/1/6 198/1/6 199/1/6
f 199/1/6 198/1/6 200/1/6
f 196/2/6 187/2/6 201/2/6
f 201/2/6 187/2/6 202/2/6
f 203/3/6 204/3/6 207/3/6
f 206/1/6 207/1/6 209/1/6
f 207/3/6 204/3/6 210/3/6
f 209/1/6 207/1/6 210/1/6
f 204/1/6 205/1/6 211/1/6
f 210/3/6 204/3/6 211/3/6
f 209/1/6 210/1/6 214/1/6
f 208/1/6 209/1/6 214/1/6
f 210/1/6 211/1/6 214/1/6
f 214/1/6 211/1/6 215/1/6
f 211/1/6 205/1/6 216/1/6
f 215/1/6 211/1/6 216/1/6
f 208/1/6 214/1/6 218/1/6
f 215/1/6 216/1/6 219/1/6
f 208/1/6 218/1/6 220/1/6
f 218/1/6 219/1/6 220/1/6
f 216/3/6 217/3/6 221/3/6
f 220/1/6 219/1/6 221/1/6
f 219/1/6 216/1/6 221/1/6
f 221/3/6 217/3/6 222/3/6
f 212/3/6 213/3/6 223/3/6
f 223/3/6 213/3/6 224/3/6
