# MagicaVoxel @ Ephtracy

# group
o 

# material
mtllib 4.mtl
usemtl palette

# normals
vn -1 0 0
vn 1 0 0
vn 0 0 1
vn 0 0 -1
vn 0 -1 0
vn 0 1 0

# texcoords
vt 0.685547 0.5
vt 0.982422 0.5

# verts
v -1.5 1.2 0.9
v -1.5 1.2 -0.9
v -1.5 1.4 0.9
v -1.5 1.4 -0.9
v -0.8 1.1 0.8
v -0.8 1.1 -0.8
v -0.8 1.2 0.8
v -0.8 1.2 -0.8
v -0.6 0 0.5
v -0.6 0 -0.5
v -0.6 0.1 0.5
v -0.6 0.1 -0.5
v -0.2 0.1 0.2
v -0.2 0.1 -0.2
v -0.2 0.2 0.2
v -0.2 0.2 -0.2
v -0.2 1 0.2
v -0.2 1 -0.2
v -0.2 1.1 0.3
v -0.2 1.1 0.2
v -0.2 1.1 -0.2
v -0.2 1.1 -0.3
v -0.2 1.2 0.3
v -0.2 1.2 0.2
v -0.2 1.2 -0.2
v -0.2 1.2 -0.3
v -0.1 0.2 0.1
v -0.1 0.2 -0.1
v -0.1 1 0.1
v -0.1 1 -0.1
v 0.3 1.1 0.3
v 0.3 1.1 0.2
v 0.3 1.1 -0.2
v 0.3 1.1 -0.3
v 0.3 1.2 0.3
v 0.3 1.2 0.2
v 0.3 1.2 -0.2
v 0.3 1.2 -0.3
v 1.4 1.3 0.8
v 1.4 1.3 -0.8
v 1.4 1.4 0.8
v 1.4 1.4 -0.8
v -1.4 1.3 0.8
v -1.4 1.3 -0.8
v -1.4 1.4 0.8
v -1.4 1.4 -0.8
v -0.3 1.1 0.3
v -0.3 1.1 0.2
v -0.3 1.1 -0.2
v -0.3 1.1 -0.3
v -0.3 1.2 0.3
v -0.3 1.2 0.2
v -0.3 1.2 -0.2
v -0.3 1.2 -0.3
v 0.1 0.2 0.1
v 0.1 0.2 -0.1
v 0.1 1 0.1
v 0.1 1 -0.1
v 0.2 0.1 0.2
v 0.2 0.1 -0.2
v 0.2 0.2 0.2
v 0.2 0.2 -0.2
v 0.2 1 0.2
v 0.2 1 -0.2
v 0.2 1.1 0.3
v 0.2 1.1 0.2
v 0.2 1.1 -0.2
v 0.2 1.1 -0.3
v 0.2 1.2 0.3
v 0.2 1.2 0.2
v 0.2 1.2 -0.2
v 0.2 1.2 -0.3
v 0.6 0 0.5
v 0.6 0 -0.5
v 0.6 0.1 0.5
v 0.6 0.1 -0.5
v 0.8 1.1 0.8
v 0.8 1.1 -0.8
v 0.8 1.2 0.8
v 0.8 1.2 -0.8
v 1.5 1.2 0.9
v 1.5 1.2 -0.9
v 1.5 1.4 0.9
v 1.5 1.4 -0.9
v -1.5 1.2 0.9
v -1.5 1.4 0.9
v 1.5 1.2 0.9
v 1.5 1.4 0.9
v -0.8 1.1 0.8
v -0.8 1.2 0.8
v 0.8 1.1 0.8
v 0.8 1.2 0.8
v -0.6 0 0.5
v -0.6 0.1 0.5
v 0.6 0 0.5
v 0.6 0.1 0.5
v -0.3 1.1 0.2
v -0.3 1.2 0.2
v -0.2 0.1 0.2
v -0.2 0.2 0.2
v -0.2 1 0.2
v -0.2 1.1 0.2
v -0.2 1.2 0.2
v 0.2 0.1 0.2
v 0.2 0.2 0.2
v 0.2 1 0.2
v 0.2 1.1 0.2
v 0.2 1.2 0.2
v 0.3 1.1 0.2
v 0.3 1.2 0.2
v -0.1 0.2 0.1
v -0.1 1 0.1
v 0.1 0.2 0.1
v 0.1 1 0.1
v -0.3 1.1 -0.3
v -0.3 1.2 -0.3
v -0.2 1.1 -0.3
v -0.2 1.2 -0.3
v 0.2 1.1 -0.3
v 0.2 1.2 -0.3
v 0.3 1.1 -0.3
v 0.3 1.2 -0.3
v -1.4 1.3 -0.8
v -1.4 1.4 -0.8
v 1.4 1.3 -0.8
v 1.4 1.4 -0.8
v -1.4 1.3 0.8
v -1.4 1.4 0.8
v 1.4 1.3 0.8
v 1.4 1.4 0.8
v -0.3 1.1 0.3
v -0.3 1.2 0.3
v -0.2 1.1 0.3
v -0.2 1.2 0.3
v 0.2 1.1 0.3
v 0.2 1.2 0.3
v 0.3 1.1 0.3
v 0.3 1.2 0.3
v -0.1 0.2 -0.1
v -0.1 1 -0.1
v 0.1 0.2 -0.1
v 0.1 1 -0.1
v -0.3 1.1 -0.2
v -0.3 1.2 -0.2
v -0.2 0.1 -0.2
v -0.2 0.2 -0.2
v -0.2 1 -0.2
v -0.2 1.1 -0.2
v -0.2 1.2 -0.2
v 0.2 0.1 -0.2
v 0.2 0.2 -0.2
v 0.2 1 -0.2
v 0.2 1.1 -0.2
v 0.2 1.2 -0.2
v 0.3 1.1 -0.2
v 0.3 1.2 -0.2
v -0.6 0 -0.5
v -0.6 0.1 -0.5
v 0.6 0 -0.5
v 0.6 0.1 -0.5
v -0.8 1.1 -0.8
v -0.8 1.2 -0.8
v 0.8 1.1 -0.8
v 0.8 1.2 -0.8
v -1.5 1.2 -0.9
v -1.5 1.4 -0.9
v 1.5 1.2 -0.9
v 1.5 1.4 -0.9
v -0.6 0 0.5
v 0.6 0 0.5
v -0.6 0 -0.5
v 0.6 0 -0.5
v -0.2 1 0.2
v 0.2 1 0.2
v -0.1 1 0.1
v 0.1 1 0.1
v -0.1 1 -0.1
v 0.1 1 -0.1
v -0.2 1 -0.2
v 0.2 1 -0.2
v -0.8 1.1 0.8
v 0.8 1.1 0.8
v -0.3 1.1 0.3
v -0.2 1.1 0.3
v 0.2 1.1 0.3
v 0.3 1.1 0.3
v -0.3 1.1 0.2
v -0.2 1.1 0.2
v 0.2 1.1 0.2
v 0.3 1.1 0.2
v -0.3 1.1 -0.2
v -0.2 1.1 -0.2
v 0.2 1.1 -0.2
v 0.3 1.1 -0.2
v -0.3 1.1 -0.3
v -0.2 1.1 -0.3
v 0.2 1.1 -0.3
v 0.3 1.1 -0.3
v -0.8 1.1 -0.8
v 0.8 1.1 -0.8
v -1.5 1.2 0.9
v 1.5 1.2 0.9
v -0.8 1.2 0.8
v 0.8 1.2 0.8
v -0.3 1.2 0.3
v -0.2 1.2 0.3
v 0.2 1.2 0.3
v 0.3 1.2 0.3
v -0.3 1.2 0.2
v -0.2 1.2 0.2
v 0.2 1.2 0.2
v 0.3 1.2 0.2
v -0.3 1.2 -0.2
v -0.2 1.2 -0.2
v 0.2 1.2 -0.2
v 0.3 1.2 -0.2
v -0.3 1.2 -0.3
v -0.2 1.2 -0.3
v 0.2 1.2 -0.3
v 0.3 1.2 -0.3
v -0.8 1.2 -0.8
v 0.8 1.2 -0.8
v -1.5 1.2 -0.9
v 1.5 1.2 -0.9
v -0.6 0.1 0.5
v 0.6 0.1 0.5
v -0.2 0.1 0.2
v 0.2 0.1 0.2
v -0.2 0.1 -0.2
v 0.2 0.1 -0.2
v -0.6 0.1 -0.5
v 0.6 0.1 -0.5
v -0.2 0.2 0.2
v 0.2 0.2 0.2
v -0.1 0.2 0.1
v 0.1 0.2 0.1
v -0.1 0.2 -0.1
v 0.1 0.2 -0.1
v -0.2 0.2 -0.2
v 0.2 0.2 -0.2
v -1.4 1.3 0.8
v 1.4 1.3 0.8
v -1.4 1.3 -0.8
v 1.4 1.3 -0.8
v -1.5 1.4 0.9
v 1.5 1.4 0.9
v -1.4 1.4 0.8
v 1.4 1.4 0.8
v -1.4 1.4 -0.8
v 1.4 1.4 -0.8
v -1.5 1.4 -0.9
v 1.5 1.4 -0.9

# faces
f 3/1/1 2/1/1 1/1/1
f 4/1/1 2/1/1 3/1/1
f 7/2/1 6/2/1 5/2/1
f 8/2/1 6/2/1 7/2/1
f 11/2/1 10/2/1 9/2/1
f 12/2/1 10/2/1 11/2/1
f 15/2/1 14/2/1 13/2/1
f 16/2/1 14/2/1 15/2/1
f 20/2/1 18/2/1 17/2/1
f 21/2/1 18/2/1 20/2/1
f 23/2/1 20/2/1 19/2/1
f 24/2/1 20/2/1 23/2/1
f 25/2/1 22/2/1 21/2/1
f 26/2/1 22/2/1 25/2/1
f 29/2/1 28/2/1 27/2/1
f 30/2/1 28/2/1 29/2/1
f 35/2/1 32/2/1 31/2/1
f 36/2/1 32/2/1 35/2/1
f 37/2/1 34/2/1 33/2/1
f 38/2/1 34/2/1 37/2/1
f 41/1/1 40/1/1 39/1/1
f 42/1/1 40/1/1 41/1/1
f 43/1/2 44/1/2 45/1/2
f 45/1/2 44/1/2 46/1/2
f 47/2/2 48/2/2 51/2/2
f 51/2/2 48/2/2 52/2/2
f 49/2/2 50/2/2 53/2/2
f 53/2/2 50/2/2 54/2/2
f 55/2/2 56/2/2 57/2/2
f 57/2/2 56/2/2 58/2/2
f 59/2/2 60/2/2 61/2/2
f 61/2/2 60/2/2 62/2/2
f 63/2/2 64/2/2 66/2/2
f 66/2/2 64/2/2 67/2/2
f 65/2/2 66/2/2 69/2/2
f 69/2/2 66/2/2 70/2/2
f 67/2/2 68/2/2 71/2/2
f 71/2/2 68/2/2 72/2/2
f 73/2/2 74/2/2 75/2/2
f 75/2/2 74/2/2 76/2/2
f 77/2/2 78/2/2 79/2/2
f 79/2/2 78/2/2 80/2/2
f 81/1/2 82/1/2 83/1/2
f 83/1/2 82/1/2 84/1/2
f 87/1/3 86/1/3 85/1/3
f 88/1/3 86/1/3 87/1/3
f 91/2/3 90/2/3 89/2/3
f 92/2/3 90/2/3 91/2/3
f 95/2/3 94/2/3 93/2/3
f 96/2/3 94/2/3 95/2/3
f 102/2/3 98/2/3 97/2/3
f 103/2/3 98/2/3 102/2/3
f 104/2/3 100/2/3 99/2/3
f 105/2/3 100/2/3 104/2/3
f 106/2/3 102/2/3 101/2/3
f 107/2/3 102/2/3 106/2/3
f 109/2/3 108/2/3 107/2/3
f 110/2/3 108/2/3 109/2/3
f 113/2/3 112/2/3 111/2/3
f 114/2/3 112/2/3 113/2/3
f 117/2/3 116/2/3 115/2/3
f 118/2/3 116/2/3 117/2/3
f 121/2/3 120/2/3 119/2/3
f 122/2/3 120/2/3 121/2/3
f 125/1/3 124/1/3 123/1/3
f 126/1/3 124/1/3 125/1/3
f 127/1/4 128/1/4 129/1/4
f 129/1/4 128/1/4 130/1/4
f 131/2/4 132/2/4 133/2/4
f 133/2/4 132/2/4 134/2/4
f 135/2/4 136/2/4 137/2/4
f 137/2/4 136/2/4 138/2/4
f 139/2/4 140/2/4 141/2/4
f 141/2/4 140/2/4 142/2/4
f 143/2/4 144/2/4 148/2/4
f 148/2/4 144/2/4 149/2/4
f 145/2/4 146/2/4 150/2/4
f 150/2/4 146/2/4 151/2/4
f 147/2/4 148/2/4 152/2/4
f 152/2/4 148/2/4 153/2/4
f 153/2/4 154/2/4 155/2/4
f 155/2/4 154/2/4 156/2/4
f 157/2/4 158/2/4 159/2/4
f 159/2/4 158/2/4 160/2/4
f 161/2/4 162/2/4 163/2/4
f 163/2/4 162/2/4 164/2/4
f 165/1/4 166/1/4 167/1/4
f 167/1/4 166/1/4 168/1/4
f 171/2/5 170/2/5 169/2/5
f 172/2/5 170/2/5 171/2/5
f 175/2/5 174/2/5 173/2/5
f 176/2/5 174/2/5 175/2/5
f 177/2/5 175/2/5 173/2/5
f 178/2/5 174/2/5 176/2/5
f 179/2/5 177/2/5 173/2/5
f 179/2/5 178/2/5 177/2/5
f 180/2/5 174/2/5 178/2/5
f 180/2/5 178/2/5 179/2/5
f 183/2/5 182/2/5 181/2/5
f 184/2/5 182/2/5 183/2/5
f 185/2/5 182/2/5 184/2/5
f 186/2/5 182/2/5 185/2/5
f 187/2/5 183/2/5 181/2/5
f 188/2/5 185/2/5 184/2/5
f 189/2/5 185/2/5 188/2/5
f 190/2/5 182/2/5 186/2/5
f 191/2/5 187/2/5 181/2/5
f 191/2/5 188/2/5 187/2/5
f 192/2/5 188/2/5 191/2/5
f 193/2/5 190/2/5 189/2/5
f 194/2/5 182/2/5 190/2/5
f 194/2/5 190/2/5 193/2/5
f 195/2/5 191/2/5 181/2/5
f 196/2/5 193/2/5 192/2/5
f 197/2/5 193/2/5 196/2/5
f 198/2/5 182/2/5 194/2/5
f 199/2/5 197/2/5 196/2/5
f 199/2/5 198/2/5 197/2/5
f 199/2/5 195/2/5 181/2/5
f 199/2/5 196/2/5 195/2/5
f 200/2/5 182/2/5 198/2/5
f 200/2/5 198/2/5 199/2/5
f 203/1/5 202/1/5 201/1/5
f 204/1/5 202/1/5 203/1/5
f 209/1/5 206/1/5 205/1/5
f 210/1/5 206/1/5 209/1/5
f 211/1/5 208/1/5 207/1/5
f 212/1/5 208/1/5 211/1/5
f 217/1/5 214/1/5 213/1/5
f 218/1/5 214/1/5 217/1/5
f 219/1/5 216/1/5 215/1/5
f 220/1/5 216/1/5 219/1/5
f 221/1/5 203/1/5 201/1/5
f 222/1/5 202/1/5 204/1/5
f 223/1/5 221/1/5 201/1/5
f 223/1/5 222/1/5 221/1/5
f 224/1/5 202/1/5 222/1/5
f 224/1/5 222/1/5 223/1/5
f 225/2/6 226/2/6 227/2/6
f 227/2/6 226/2/6 228/2/6
f 225/2/6 227/2/6 229/2/6
f 228/2/6 226/2/6 230/2/6
f 225/2/6 229/2/6 231/2/6
f 229/2/6 230/2/6 231/2/6
f 230/2/6 226/2/6 232/2/6
f 231/2/6 230/2/6 232/2/6
f 233/2/6 234/2/6 235/2/6
f 235/2/6 234/2/6 236/2/6
f 233/2/6 235/2/6 237/2/6
f 236/2/6 234/2/6 238/2/6
f 233/2/6 237/2/6 239/2/6
f 237/2/6 238/2/6 239/2/6
f 238/2/6 234/2/6 240/2/6
f 239/2/6 238/2/6 240/2/6
f 241/1/6 242/1/6 243/1/6
f 243/1/6 242/1/6 244/1/6
f 245/1/6 246/1/6 247/1/6
f 247/1/6 246/1/6 248/1/6
f 245/1/6 247/1/6 249/1/6
f 248/1/6 246/1/6 250/1/6
f 245/1/6 249/1/6 251/1/6
f 249/1/6 250/1/6 251/1/6
f 250/1/6 246/1/6 252/1/6
f 251/1/6 250/1/6 252/1/6
