# MagicaVoxel @ Ephtracy

# group
o 

# material
mtllib Broomstick.mtl
usemtl palette

# normals
vn -1 0 0
vn 1 0 0
vn 0 0 1
vn 0 0 -1
vn 0 -1 0
vn 0 1 0

# texcoords
vt 0.294922 0.5
vt 0.310547 0.5

# verts
v -0.2 0 0
v -0.2 0 -0.1
v -0.2 0.3 0
v -0.2 0.3 -0.1
v -0.2 0.4 0
v -0.2 0.4 -0.1
v 0 0.4 0
v 0 0.4 -0.1
v 0 1.5 0
v 0 1.5 -0.1
v 0.1 0.4 0
v 0.1 0.4 -0.1
v 0.1 1.5 0
v 0.1 1.5 -0.1
v 0.3 0 0
v 0.3 0 -0.1
v 0.3 0.3 0
v 0.3 0.3 -0.1
v 0.3 0.4 0
v 0.3 0.4 -0.1
v -0.2 0 0
v -0.2 0.3 0
v -0.2 0.4 0
v 0 0.4 0
v 0 1.5 0
v 0.1 0.4 0
v 0.1 1.5 0
v 0.3 0 0
v 0.3 0.3 0
v 0.3 0.4 0
v -0.2 0 -0.1
v -0.2 0.3 -0.1
v -0.2 0.4 -0.1
v 0 0.4 -0.1
v 0 1.5 -0.1
v 0.1 0.4 -0.1
v 0.1 1.5 -0.1
v 0.3 0 -0.1
v 0.3 0.3 -0.1
v 0.3 0.4 -0.1
v -0.2 0 0
v 0.3 0 0
v -0.2 0 -0.1
v 0.3 0 -0.1
v -0.2 0.4 0
v 0 0.4 0
v 0.1 0.4 0
v 0.3 0.4 0
v -0.2 0.4 -0.1
v 0 0.4 -0.1
v 0.1 0.4 -0.1
v 0.3 0.4 -0.1
v 0 1.5 0
v 0.1 1.5 0
v 0 1.5 -0.1
v 0.1 1.5 -0.1

# faces
f 3/1/1 2/1/1 1/1/1
f 4/1/1 2/1/1 3/1/1
f 5/2/1 4/2/1 3/2/1
f 6/2/1 4/2/1 5/2/1
f 9/2/1 8/2/1 7/2/1
f 10/2/1 8/2/1 9/2/1
f 11/2/2 12/2/2 13/2/2
f 13/2/2 12/2/2 14/2/2
f 15/1/2 16/1/2 17/1/2
f 17/1/2 16/1/2 18/1/2
f 17/2/2 18/2/2 19/2/2
f 19/2/2 18/2/2 20/2/2
f 24/2/3 23/2/3 22/2/3
f 26/2/3 24/2/3 22/2/3
f 26/2/3 25/2/3 24/2/3
f 27/2/3 25/2/3 26/2/3
f 28/1/3 22/1/3 21/1/3
f 29/2/3 26/2/3 22/2/3
f 29/1/3 22/1/3 28/1/3
f 30/2/3 26/2/3 29/2/3
f 32/2/4 33/2/4 34/2/4
f 32/2/4 34/2/4 36/2/4
f 34/2/4 35/2/4 36/2/4
f 36/2/4 35/2/4 37/2/4
f 31/1/4 32/1/4 38/1/4
f 32/2/4 36/2/4 39/2/4
f 38/1/4 32/1/4 39/1/4
f 39/2/4 36/2/4 40/2/4
f 43/1/5 42/1/5 41/1/5
f 44/1/5 42/1/5 43/1/5
f 45/2/6 46/2/6 49/2/6
f 49/2/6 46/2/6 50/2/6
f 47/2/6 48/2/6 51/2/6
f 51/2/6 48/2/6 52/2/6
f 53/2/6 54/2/6 55/2/6
f 55/2/6 54/2/6 56/2/6
