# MagicaVoxel @ Ephtracy

# group
o 

# material
mtllib Suitcase.mtl
usemtl palette

# normals
vn -1 0 0
vn 1 0 0
vn 0 0 1
vn 0 0 -1
vn 0 -1 0
vn 0 1 0

# texcoords
vt 0.611328 0.5
vt 0.650391 0.5
vt 0.978516 0.5
vt 0.986328 0.5

# verts
v -0.1 0 0.3
v -0.1 0 0.2
v -0.1 0 -0.1
v -0.1 0 -0.4
v -0.1 0.1 0.3
v -0.1 0.1 0.2
v -0.1 0.1 -0.1
v -0.1 0.1 -0.2
v -0.1 0.1 -0.4
v -0.1 0.2 0.3
v -0.1 0.2 0.2
v -0.1 0.3 0.3
v -0.1 0.3 0.2
v -0.1 0.3 -0.2
v 0.1 0 0.3
v 0.1 0 0.2
v 0.1 0 -0.2
v 0.1 0 -0.3
v 0.1 0.1 0.3
v 0.1 0.1 0.2
v 0.1 0.1 -0.2
v 0.1 0.1 -0.3
v 0.1 0.2 0.3
v 0.1 0.2 0.2
v 0.1 0.3 0.3
v 0.1 0.3 0.2
v 0 0 0.3
v 0 0 0.2
v 0 0 -0.2
v 0 0 -0.3
v 0 0.1 0.3
v 0 0.1 0.2
v 0 0.1 -0.2
v 0 0.1 -0.3
v 0 0.2 0.3
v 0 0.2 0.2
v 0 0.3 0.3
v 0 0.3 0.2
v 0.2 0 0.3
v 0.2 0 0.2
v 0.2 0 -0.1
v 0.2 0 -0.4
v 0.2 0.1 0.3
v 0.2 0.1 0.2
v 0.2 0.1 -0.1
v 0.2 0.1 -0.2
v 0.2 0.1 -0.4
v 0.2 0.2 0.3
v 0.2 0.2 0.2
v 0.2 0.3 0.3
v 0.2 0.3 0.2
v 0.2 0.3 -0.2
v -0.1 0 0.3
v -0.1 0.1 0.3
v -0.1 0.2 0.3
v -0.1 0.3 0.3
v 0 0 0.3
v 0 0.1 0.3
v 0 0.2 0.3
v 0 0.3 0.3
v 0.1 0 0.3
v 0.1 0.1 0.3
v 0.1 0.2 0.3
v 0.1 0.3 0.3
v 0.2 0 0.3
v 0.2 0.1 0.3
v 0.2 0.2 0.3
v 0.2 0.3 0.3
v -0.1 0.1 0.2
v -0.1 0.2 0.2
v 0 0 0.2
v 0 0.1 0.2
v 0 0.2 0.2
v 0 0.3 0.2
v 0.1 0 0.2
v 0.1 0.1 0.2
v 0.1 0.2 0.2
v 0.1 0.3 0.2
v 0.2 0.1 0.2
v 0.2 0.2 0.2
v 0 0 -0.3
v 0 0.1 -0.3
v 0.1 0 -0.3
v 0.1 0.1 -0.3
v -0.1 0.1 -0.2
v -0.1 0.3 -0.2
v 0 0 -0.2
v 0 0.1 -0.2
v 0.1 0 -0.2
v 0.1 0.1 -0.2
v 0.2 0.1 -0.2
v 0.2 0.3 -0.2
v -0.1 0 -0.4
v -0.1 0.1 -0.4
v 0.2 0 -0.4
v 0.2 0.1 -0.4
v -0.1 0 0.3
v 0 0 0.3
v 0.1 0 0.3
v 0.2 0 0.3
v -0.1 0 0.2
v 0 0 0.2
v 0.1 0 0.2
v 0.2 0 0.2
v -0.1 0 -0.1
v 0.2 0 -0.1
v 0 0 -0.2
v 0.1 0 -0.2
v 0 0 -0.3
v 0.1 0 -0.3
v -0.1 0 -0.4
v 0.2 0 -0.4
v -0.1 0.2 0.3
v 0 0.2 0.3
v 0.1 0.2 0.3
v 0.2 0.2 0.3
v -0.1 0.2 0.2
v 0 0.2 0.2
v 0.1 0.2 0.2
v 0.2 0.2 0.2
v -0.1 0.1 0.3
v 0 0.1 0.3
v 0.1 0.1 0.3
v 0.2 0.1 0.3
v -0.1 0.1 0.2
v 0 0.1 0.2
v 0.1 0.1 0.2
v 0.2 0.1 0.2
v -0.1 0.1 -0.2
v 0 0.1 -0.2
v 0.1 0.1 -0.2
v 0.2 0.1 -0.2
v 0 0.1 -0.3
v 0.1 0.1 -0.3
v -0.1 0.1 -0.4
v 0.2 0.1 -0.4
v -0.1 0.3 0.3
v 0 0.3 0.3
v 0.1 0.3 0.3
v 0.2 0.3 0.3
v -0.1 0.3 0.2
v 0 0.3 0.2
v 0.1 0.3 0.2
v 0.2 0.3 0.2
v 0 0.3 0
v 0.1 0.3 0
v 0 0.3 -0.1
v 0.1 0.3 -0.1
v -0.1 0.3 -0.2
v 0.2 0.3 -0.2

# faces
f 5/4/1 2/4/1 1/4/1
f 6/1/1 3/1/1 2/1/1
f 6/4/1 2/4/1 5/4/1
f 7/3/1 4/3/1 3/3/1
f 7/1/1 3/1/1 6/1/1
f 8/3/1 4/3/1 7/3/1
f 9/3/1 4/3/1 8/3/1
f 11/1/1 7/1/1 6/1/1
f 11/1/1 8/1/1 7/1/1
f 12/4/1 11/4/1 10/4/1
f 13/1/1 8/1/1 11/1/1
f 13/4/1 11/4/1 12/4/1
f 14/1/1 8/1/1 13/1/1
f 19/4/1 16/4/1 15/4/1
f 20/4/1 16/4/1 19/4/1
f 21/3/1 18/3/1 17/3/1
f 22/3/1 18/3/1 21/3/1
f 25/4/1 24/4/1 23/4/1
f 26/4/1 24/4/1 25/4/1
f 27/4/2 28/4/2 31/4/2
f 31/4/2 28/4/2 32/4/2
f 29/3/2 30/3/2 33/3/2
f 33/3/2 30/3/2 34/3/2
f 35/4/2 36/4/2 37/4/2
f 37/4/2 36/4/2 38/4/2
f 39/4/2 40/4/2 43/4/2
f 40/1/2 41/1/2 44/1/2
f 43/4/2 40/4/2 44/4/2
f 41/3/2 42/3/2 45/3/2
f 44/1/2 41/1/2 45/1/2
f 45/3/2 42/3/2 46/3/2
f 46/3/2 42/3/2 47/3/2
f 44/1/2 45/1/2 49/1/2
f 45/1/2 46/1/2 49/1/2
f 48/4/2 49/4/2 50/4/2
f 49/1/2 46/1/2 51/1/2
f 50/4/2 49/4/2 51/4/2
f 51/1/2 46/1/2 52/1/2
f 57/4/3 54/4/3 53/4/3
f 58/4/3 54/4/3 57/4/3
f 59/4/3 56/4/3 55/4/3
f 60/4/3 56/4/3 59/4/3
f 65/4/3 62/4/3 61/4/3
f 66/4/3 62/4/3 65/4/3
f 67/4/3 64/4/3 63/4/3
f 68/4/3 64/4/3 67/4/3
f 72/1/3 70/1/3 69/1/3
f 73/1/3 70/1/3 72/1/3
f 75/1/3 72/1/3 71/1/3
f 75/1/3 74/1/3 73/1/3
f 75/1/3 73/1/3 72/1/3
f 76/1/3 74/1/3 75/1/3
f 77/1/3 74/1/3 76/1/3
f 78/1/3 74/1/3 77/1/3
f 79/1/3 77/1/3 76/1/3
f 80/1/3 77/1/3 79/1/3
f 83/3/3 82/3/3 81/3/3
f 84/3/3 82/3/3 83/3/3
f 85/1/4 86/1/4 88/1/4
f 87/3/4 88/3/4 89/3/4
f 88/1/4 86/1/4 90/1/4
f 89/3/4 88/3/4 90/3/4
f 90/1/4 86/1/4 91/1/4
f 91/1/4 86/1/4 92/1/4
f 93/3/4 94/3/4 95/3/4
f 95/3/4 94/3/4 96/3/4
f 101/4/5 98/4/5 97/4/5
f 102/4/5 98/4/5 101/4/5
f 103/4/5 100/4/5 99/4/5
f 104/4/5 100/4/5 103/4/5
f 105/1/5 102/1/5 101/1/5
f 105/1/5 103/1/5 102/1/5
f 105/1/5 104/1/5 103/1/5
f 106/1/5 104/1/5 105/1/5
f 107/3/5 106/3/5 105/3/5
f 108/3/5 106/3/5 107/3/5
f 109/3/5 107/3/5 105/3/5
f 110/3/5 106/3/5 108/3/5
f 111/3/5 109/3/5 105/3/5
f 111/3/5 110/3/5 109/3/5
f 112/3/5 106/3/5 110/3/5
f 112/3/5 110/3/5 111/3/5
f 117/4/5 114/4/5 113/4/5
f 118/4/5 114/4/5 117/4/5
f 119/4/5 116/4/5 115/4/5
f 120/4/5 116/4/5 119/4/5
f 121/4/6 122/4/6 125/4/6
f 125/4/6 122/4/6 126/4/6
f 123/4/6 124/4/6 127/4/6
f 127/4/6 124/4/6 128/4/6
f 129/3/6 130/3/6 133/3/6
f 131/3/6 132/3/6 134/3/6
f 129/3/6 133/3/6 135/3/6
f 133/3/6 134/3/6 135/3/6
f 134/3/6 132/3/6 136/3/6
f 135/3/6 134/3/6 136/3/6
f 137/4/6 138/4/6 141/4/6
f 141/4/6 138/4/6 142/4/6
f 139/4/6 140/4/6 143/4/6
f 143/4/6 140/4/6 144/4/6
f 141/1/6 142/1/6 145/1/6
f 142/1/6 143/1/6 145/1/6
f 143/1/6 144/1/6 145/1/6
f 145/1/6 144/1/6 146/1/6
f 141/1/6 145/1/6 147/1/6
f 145/2/6 146/2/6 147/2/6
f 146/1/6 144/1/6 148/1/6
f 147/2/6 146/2/6 148/2/6
f 141/1/6 147/1/6 149/1/6
f 147/1/6 148/1/6 149/1/6
f 148/1/6 144/1/6 150/1/6
f 149/1/6 148/1/6 150/1/6
