# MagicaVoxel @ Ephtracy

# group
o 

# material
mtllib Sink.mtl
usemtl palette

# normals
vn -1 0 0
vn 1 0 0
vn 0 0 1
vn 0 0 -1
vn 0 -1 0
vn 0 1 0

# texcoords
vt 0.146484 0.5
vt 0.650391 0.5
vt 0.775391 0.5
vt 0.986328 0.5

# verts
v -0.7 0 0.7
v -0.7 0 0.6
v -0.7 2 0.7
v -0.7 2 0.6
v -0.5 0.7 0.6
v -0.5 0.7 -0.6
v -0.5 1.2 0.6
v -0.5 1.2 -0.6
v -0.3 0.4 0.6
v -0.3 0.4 -0.1
v -0.3 0.7 0.6
v -0.3 0.7 -0.1
v -0.3 1.4 0.5
v -0.3 1.4 0.3
v -0.3 1.5 0.5
v -0.3 1.5 0.3
v -0.2 1.2 0.5
v -0.2 1.2 0.4
v -0.2 1.4 0.5
v -0.2 1.4 0.4
v 0 1.3 0.5
v 0 1.3 0.4
v 0 1.4 0.4
v 0 1.4 -0.1
v 0 1.5 0.5
v 0 1.5 -0.1
v 0.1 0.7 0.2
v 0.1 0.7 0.1
v 0.1 0.8 0.2
v 0.1 0.8 0.1
v 0.1 1 0.4
v 0.1 1 0.3
v 0.1 1.1 0.4
v 0.1 1.1 0.3
v 0.2 1.3 0.5
v 0.2 1.3 0.4
v 0.2 1.4 0.5
v 0.2 1.4 0.4
v 0.2 1.4 0.3
v 0.2 1.5 0.5
v 0.2 1.5 0.3
v 0.5 0.8 0.3
v 0.5 0.8 -0.5
v 0.5 1.2 0.3
v 0.5 1.2 -0.5
v -0.4 0.8 0.3
v -0.4 0.8 -0.5
v -0.4 1.2 0.3
v -0.4 1.2 -0.5
v -0.1 1.3 0.5
v -0.1 1.3 0.4
v -0.1 1.4 0.5
v -0.1 1.4 0.4
v -0.1 1.4 0.3
v -0.1 1.5 0.5
v -0.1 1.5 0.3
v 0 0.7 0.2
v 0 0.7 0.1
v 0 0.8 0.2
v 0 0.8 0.1
v 0 1 0.4
v 0 1 0.3
v 0 1.1 0.4
v 0 1.1 0.3
v 0.1 1.3 0.5
v 0.1 1.3 0.4
v 0.1 1.4 0.4
v 0.1 1.4 -0.1
v 0.1 1.5 0.5
v 0.1 1.5 -0.1
v 0.3 1.2 0.5
v 0.3 1.2 0.4
v 0.3 1.4 0.5
v 0.3 1.4 0.4
v 0.4 0.4 0.6
v 0.4 0.4 -0.1
v 0.4 0.7 0.6
v 0.4 0.7 -0.1
v 0.4 1.4 0.5
v 0.4 1.4 0.3
v 0.4 1.5 0.5
v 0.4 1.5 0.3
v 0.6 0.7 0.6
v 0.6 0.7 -0.6
v 0.6 1.2 0.6
v 0.6 1.2 -0.6
v 0.8 0 0.7
v 0.8 0 0.6
v 0.8 2 0.7
v 0.8 2 0.6
v -0.7 0 0.7
v -0.7 2 0.7
v 0.8 0 0.7
v 0.8 2 0.7
v -0.3 1.4 0.5
v -0.3 1.5 0.5
v -0.2 1.2 0.5
v -0.2 1.4 0.5
v -0.1 1.3 0.5
v -0.1 1.4 0.5
v -0.1 1.5 0.5
v 0 1.3 0.5
v 0 1.5 0.5
v 0.1 1.3 0.5
v 0.1 1.5 0.5
v 0.2 1.3 0.5
v 0.2 1.4 0.5
v 0.2 1.5 0.5
v 0.3 1.2 0.5
v 0.3 1.4 0.5
v 0.4 1.4 0.5
v 0.4 1.5 0.5
v 0 0.7 0.1
v 0 0.8 0.1
v 0.1 0.7 0.1
v 0.1 0.8 0.1
v -0.4 0.8 -0.5
v -0.4 1.2 -0.5
v 0.5 0.8 -0.5
v 0.5 1.2 -0.5
v -0.7 0 0.6
v -0.7 2 0.6
v -0.5 0.7 0.6
v -0.5 1.2 0.6
v -0.3 0.4 0.6
v -0.3 0.7 0.6
v 0.4 0.4 0.6
v 0.4 0.7 0.6
v 0.6 0.7 0.6
v 0.6 1.2 0.6
v 0.8 0 0.6
v 0.8 2 0.6
v -0.2 1.2 0.4
v -0.2 1.4 0.4
v -0.1 1.3 0.4
v -0.1 1.4 0.4
v 0 1 0.4
v 0 1.1 0.4
v 0 1.3 0.4
v 0 1.4 0.4
v 0.1 1 0.4
v 0.1 1.1 0.4
v 0.1 1.3 0.4
v 0.1 1.4 0.4
v 0.2 1.3 0.4
v 0.2 1.4 0.4
v 0.3 1.2 0.4
v 0.3 1.4 0.4
v -0.4 0.8 0.3
v -0.4 1.2 0.3
v -0.3 1.4 0.3
v -0.3 1.5 0.3
v -0.1 1.4 0.3
v -0.1 1.5 0.3
v 0 1 0.3
v 0 1.1 0.3
v 0.1 1 0.3
v 0.1 1.1 0.3
v 0.2 1.4 0.3
v 0.2 1.5 0.3
v 0.4 1.4 0.3
v 0.4 1.5 0.3
v 0.5 0.8 0.3
v 0.5 1.2 0.3
v 0 0.7 0.2
v 0 0.8 0.2
v 0.1 0.7 0.2
v 0.1 0.8 0.2
v -0.3 0.4 -0.1
v -0.3 0.7 -0.1
v 0 1.4 -0.1
v 0 1.5 -0.1
v 0.1 1.4 -0.1
v 0.1 1.5 -0.1
v 0.4 0.4 -0.1
v 0.4 0.7 -0.1
v -0.5 0.7 -0.6
v -0.5 1.2 -0.6
v 0.6 0.7 -0.6
v 0.6 1.2 -0.6
v -0.7 0 0.7
v 0.8 0 0.7
v -0.7 0 0.6
v 0.8 0 0.6
v -0.3 0.4 0.6
v 0.4 0.4 0.6
v -0.3 0.4 -0.1
v 0.4 0.4 -0.1
v -0.5 0.7 0.6
v -0.3 0.7 0.6
v 0.4 0.7 0.6
v 0.6 0.7 0.6
v -0.3 0.7 -0.1
v 0.4 0.7 -0.1
v -0.5 0.7 -0.6
v 0.6 0.7 -0.6
v 0 1.1 0.4
v 0.1 1.1 0.4
v 0 1.1 0.3
v 0.1 1.1 0.3
v -0.3 1.4 0.5
v -0.2 1.4 0.5
v 0.3 1.4 0.5
v 0.4 1.4 0.5
v -0.2 1.4 0.4
v -0.1 1.4 0.4
v 0 1.4 0.4
v 0.1 1.4 0.4
v 0.2 1.4 0.4
v 0.3 1.4 0.4
v -0.3 1.4 0.3
v -0.1 1.4 0.3
v 0.2 1.4 0.3
v 0.4 1.4 0.3
v 0 1.4 -0.1
v 0.1 1.4 -0.1
v 0 0.7 0.2
v 0.1 0.7 0.2
v 0 0.7 0.1
v 0.1 0.7 0.1
v -0.4 0.8 0.3
v 0.5 0.8 0.3
v 0 0.8 0.2
v 0.1 0.8 0.2
v 0 0.8 0.1
v 0.1 0.8 0.1
v -0.4 0.8 -0.5
v 0.5 0.8 -0.5
v 0 1 0.4
v 0.1 1 0.4
v 0 1 0.3
v 0.1 1 0.3
v -0.5 1.2 0.6
v 0.6 1.2 0.6
v -0.2 1.2 0.5
v 0.3 1.2 0.5
v -0.2 1.2 0.4
v 0.3 1.2 0.4
v -0.4 1.2 0.3
v 0.5 1.2 0.3
v -0.4 1.2 -0.5
v 0.5 1.2 -0.5
v -0.5 1.2 -0.6
v 0.6 1.2 -0.6
v -0.1 1.3 0.5
v 0 1.3 0.5
v 0.1 1.3 0.5
v 0.2 1.3 0.5
v -0.1 1.3 0.4
v 0 1.3 0.4
v 0.1 1.3 0.4
v 0.2 1.3 0.4
v -0.3 1.5 0.5
v -0.1 1.5 0.5
v 0 1.5 0.5
v 0.1 1.5 0.5
v 0.2 1.5 0.5
v 0.4 1.5 0.5
v -0.3 1.5 0.3
v -0.1 1.5 0.3
v 0.2 1.5 0.3
v 0.4 1.5 0.3
v 0 1.5 -0.1
v 0.1 1.5 -0.1
v -0.7 2 0.7
v 0.8 2 0.7
v -0.7 2 0.6
v 0.8 2 0.6

# faces
f 3/2/1 2/2/1 1/2/1
f 4/2/1 2/2/1 3/2/1
f 7/4/1 6/4/1 5/4/1
f 8/4/1 6/4/1 7/4/1
f 11/4/1 10/4/1 9/4/1
f 12/4/1 10/4/1 11/4/1
f 15/3/1 14/3/1 13/3/1
f 16/3/1 14/3/1 15/3/1
f 19/4/1 18/4/1 17/4/1
f 20/4/1 18/4/1 19/4/1
f 23/4/1 22/4/1 21/4/1
f 25/4/1 23/4/1 21/4/1
f 25/4/1 24/4/1 23/4/1
f 26/4/1 24/4/1 25/4/1
f 29/4/1 28/4/1 27/4/1
f 30/4/1 28/4/1 29/4/1
f 33/4/1 32/4/1 31/4/1
f 34/4/1 32/4/1 33/4/1
f 37/4/1 36/4/1 35/4/1
f 38/4/1 36/4/1 37/4/1
f 40/1/1 38/1/1 37/1/1
f 40/1/1 39/1/1 38/1/1
f 41/1/1 39/1/1 40/1/1
f 44/4/1 43/4/1 42/4/1
f 45/4/1 43/4/1 44/4/1
f 46/4/2 47/4/2 48/4/2
f 48/4/2 47/4/2 49/4/2
f 50/4/2 51/4/2 52/4/2
f 52/4/2 51/4/2 53/4/2
f 52/3/2 53/3/2 55/3/2
f 53/3/2 54/3/2 55/3/2
f 55/3/2 54/3/2 56/3/2
f 57/4/2 58/4/2 59/4/2
f 59/4/2 58/4/2 60/4/2
f 61/4/2 62/4/2 63/4/2
f 63/4/2 62/4/2 64/4/2
f 65/4/2 66/4/2 67/4/2
f 65/4/2 67/4/2 69/4/2
f 67/4/2 68/4/2 69/4/2
f 69/4/2 68/4/2 70/4/2
f 71/4/2 72/4/2 73/4/2
f 73/4/2 72/4/2 74/4/2
f 75/4/2 76/4/2 77/4/2
f 77/4/2 76/4/2 78/4/2
f 79/1/2 80/1/2 81/1/2
f 81/1/2 80/1/2 82/1/2
f 83/4/2 84/4/2 85/4/2
f 85/4/2 84/4/2 86/4/2
f 87/2/2 88/2/2 89/2/2
f 89/2/2 88/2/2 90/2/2
f 93/2/3 92/2/3 91/2/3
f 94/2/3 92/2/3 93/2/3
f 98/3/3 96/3/3 95/3/3
f 99/4/3 98/4/3 97/4/3
f 100/3/3 96/3/3 98/3/3
f 100/4/3 98/4/3 99/4/3
f 101/3/3 96/3/3 100/3/3
f 102/4/3 99/4/3 97/4/3
f 104/4/3 102/4/3 97/4/3
f 104/4/3 103/4/3 102/4/3
f 105/4/3 103/4/3 104/4/3
f 106/4/3 104/4/3 97/4/3
f 109/4/3 106/4/3 97/4/3
f 109/4/3 107/4/3 106/4/3
f 110/1/3 108/1/3 107/1/3
f 110/4/3 107/4/3 109/4/3
f 111/1/3 108/1/3 110/1/3
f 112/1/3 108/1/3 111/1/3
f 115/4/3 114/4/3 113/4/3
f 116/4/3 114/4/3 115/4/3
f 119/4/3 118/4/3 117/4/3
f 120/4/3 118/4/3 119/4/3
f 121/2/4 122/2/4 123/2/4
f 123/2/4 122/2/4 124/2/4
f 121/2/4 123/2/4 125/2/4
f 125/2/4 123/2/4 126/2/4
f 121/2/4 125/2/4 127/2/4
f 127/2/4 128/2/4 129/2/4
f 124/2/4 122/2/4 130/2/4
f 127/2/4 129/2/4 131/2/4
f 129/2/4 130/2/4 131/2/4
f 121/2/4 127/2/4 131/2/4
f 130/2/4 122/2/4 132/2/4
f 131/2/4 130/2/4 132/2/4
f 133/4/4 134/4/4 135/4/4
f 135/4/4 134/4/4 136/4/4
f 133/4/4 135/4/4 139/4/4
f 137/4/4 138/4/4 141/4/4
f 141/4/4 138/4/4 142/4/4
f 139/4/4 140/4/4 143/4/4
f 133/4/4 139/4/4 143/4/4
f 143/4/4 140/4/4 144/4/4
f 133/4/4 143/4/4 145/4/4
f 133/4/4 145/4/4 147/4/4
f 145/4/4 146/4/4 147/4/4
f 147/4/4 146/4/4 148/4/4
f 151/3/4 152/3/4 153/3/4
f 153/3/4 152/3/4 154/3/4
f 149/4/4 150/4/4 155/4/4
f 155/4/4 150/4/4 156/4/4
f 149/4/4 155/4/4 157/4/4
f 156/4/4 150/4/4 158/4/4
f 159/1/4 160/1/4 161/1/4
f 161/1/4 160/1/4 162/1/4
f 149/4/4 157/4/4 163/4/4
f 157/4/4 158/4/4 163/4/4
f 158/4/4 150/4/4 164/4/4
f 163/4/4 158/4/4 164/4/4
f 165/4/4 166/4/4 167/4/4
f 167/4/4 166/4/4 168/4/4
f 171/4/4 172/4/4 173/4/4
f 173/4/4 172/4/4 174/4/4
f 169/4/4 170/4/4 175/4/4
f 175/4/4 170/4/4 176/4/4
f 177/4/4 178/4/4 179/4/4
f 179/4/4 178/4/4 180/4/4
f 183/2/5 182/2/5 181/2/5
f 184/2/5 182/2/5 183/2/5
f 187/4/5 186/4/5 185/4/5
f 188/4/5 186/4/5 187/4/5
f 193/4/5 190/4/5 189/4/5
f 194/4/5 192/4/5 191/4/5
f 195/4/5 193/4/5 189/4/5
f 195/4/5 194/4/5 193/4/5
f 196/4/5 192/4/5 194/4/5
f 196/4/5 194/4/5 195/4/5
f 199/4/5 198/4/5 197/4/5
f 200/4/5 198/4/5 199/4/5
f 205/3/5 202/3/5 201/3/5
f 210/1/5 204/1/5 203/1/5
f 211/3/5 205/3/5 201/3/5
f 211/3/5 206/3/5 205/3/5
f 212/3/5 206/3/5 211/3/5
f 213/1/5 210/1/5 209/1/5
f 214/1/5 204/1/5 210/1/5
f 214/1/5 210/1/5 213/1/5
f 215/4/5 208/4/5 207/4/5
f 216/4/5 208/4/5 215/4/5
f 217/4/6 218/4/6 219/4/6
f 219/4/6 218/4/6 220/4/6
f 221/4/6 222/4/6 223/4/6
f 223/4/6 222/4/6 224/4/6
f 221/4/6 223/4/6 225/4/6
f 224/4/6 222/4/6 226/4/6
f 221/4/6 225/4/6 227/4/6
f 225/4/6 226/4/6 227/4/6
f 226/4/6 222/4/6 228/4/6
f 227/4/6 226/4/6 228/4/6
f 229/4/6 230/4/6 231/4/6
f 231/4/6 230/4/6 232/4/6
f 233/4/6 234/4/6 235/4/6
f 235/4/6 234/4/6 236/4/6
f 233/4/6 235/4/6 237/4/6
f 236/4/6 234/4/6 238/4/6
f 233/4/6 237/4/6 239/4/6
f 237/4/6 238/4/6 239/4/6
f 238/4/6 234/4/6 240/4/6
f 239/4/6 238/4/6 240/4/6
f 233/4/6 239/4/6 241/4/6
f 240/4/6 234/4/6 242/4/6
f 233/4/6 241/4/6 243/4/6
f 241/4/6 242/4/6 243/4/6
f 242/4/6 234/4/6 244/4/6
f 243/4/6 242/4/6 244/4/6
f 245/4/6 246/4/6 249/4/6
f 249/4/6 246/4/6 250/4/6
f 247/4/6 248/4/6 251/4/6
f 251/4/6 248/4/6 252/4/6
f 253/3/6 254/3/6 259/3/6
f 259/3/6 254/3/6 260/3/6
f 257/1/6 258/1/6 261/1/6
f 261/1/6 258/1/6 262/1/6
f 255/4/6 256/4/6 263/4/6
f 263/4/6 256/4/6 264/4/6
f 265/2/6 266/2/6 267/2/6
f 267/2/6 266/2/6 268/2/6
