# MagicaVoxel @ Ephtracy

# group
o 

# material
mtllib Tabletwo.mtl
usemtl palette

# normals
vn -1 0 0
vn 1 0 0
vn 0 0 1
vn 0 0 -1
vn 0 -1 0
vn 0 1 0

# texcoords
vt 0.650391 0.5
vt 0.982422 0.5
vt 0.986328 0.5

# verts
v -1.5 1.2 0.9
v -1.5 1.2 -0.9
v -1.5 1.4 0.9
v -1.5 1.4 -0.9
v -0.8 1.1 0.8
v -0.8 1.1 -0.8
v -0.8 1.2 0.8
v -0.8 1.2 -0.8
v -0.6 0 0.5
v -0.6 0 -0.5
v -0.6 0.1 0.5
v -0.6 0.1 -0.5
v -0.2 0.1 0.2
v -0.2 0.1 -0.2
v -0.2 0.2 0.2
v -0.2 0.2 -0.2
v -0.2 1 0.2
v -0.2 1 -0.2
v -0.2 1.1 0.3
v -0.2 1.1 0.2
v -0.2 1.1 -0.2
v -0.2 1.1 -0.3
v -0.2 1.2 0.3
v -0.2 1.2 0.2
v -0.2 1.2 -0.2
v -0.2 1.2 -0.3
v -0.1 0.2 0.1
v -0.1 0.2 -0.1
v -0.1 1 0.1
v -0.1 1 -0.1
v 0.3 1.1 0.3
v 0.3 1.1 0.2
v 0.3 1.1 -0.2
v 0.3 1.1 -0.3
v 0.3 1.2 0.3
v 0.3 1.2 0.2
v 0.3 1.2 -0.2
v 0.3 1.2 -0.3
v 1.4 1.3 0.8
v 1.4 1.3 -0.8
v 1.4 1.4 0.8
v 1.4 1.4 -0.8
v -1.4 1.3 0.8
v -1.4 1.3 -0.8
v -1.4 1.4 0.8
v -1.4 1.4 -0.8
v -0.3 1.1 0.3
v -0.3 1.1 0.2
v -0.3 1.1 -0.2
v -0.3 1.1 -0.3
v -0.3 1.2 0.3
v -0.3 1.2 0.2
v -0.3 1.2 -0.2
v -0.3 1.2 -0.3
v 0.1 0.2 0.1
v 0.1 0.2 -0.1
v 0.1 1 0.1
v 0.1 1 -0.1
v 0.2 0.1 0.2
v 0.2 0.1 -0.2
v 0.2 0.2 0.2
v 0.2 0.2 -0.2
v 0.2 1 0.2
v 0.2 1 -0.2
v 0.2 1.1 0.3
v 0.2 1.1 0.2
v 0.2 1.1 -0.2
v 0.2 1.1 -0.3
v 0.2 1.2 0.3
v 0.2 1.2 0.2
v 0.2 1.2 -0.2
v 0.2 1.2 -0.3
v 0.6 0 0.5
v 0.6 0 -0.5
v 0.6 0.1 0.5
v 0.6 0.1 -0.5
v 0.8 1.1 0.8
v 0.8 1.1 -0.8
v 0.8 1.2 0.8
v 0.8 1.2 -0.8
v 1.5 1.2 0.9
v 1.5 1.2 -0.9
v 1.5 1.4 0.9
v 1.5 1.4 -0.9
v -1.5 1.2 0.9
v -1.5 1.4 0.9
v 1.5 1.2 0.9
v 1.5 1.4 0.9
v -0.8 1.1 0.8
v -0.8 1.2 0.8
v 0.8 1.1 0.8
v 0.8 1.2 0.8
v -0.6 0 0.5
v -0.6 0.1 0.5
v 0.6 0 0.5
v 0.6 0.1 0.5
v -0.3 1.1 0.2
v -0.3 1.2 0.2
v -0.2 0.1 0.2
v -0.2 0.2 0.2
v -0.2 1 0.2
v -0.2 1.1 0.2
v -0.2 1.2 0.2
v 0.2 0.1 0.2
v 0.2 0.2 0.2
v 0.2 1 0.2
v 0.2 1.1 0.2
v 0.2 1.2 0.2
v 0.3 1.1 0.2
v 0.3 1.2 0.2
v -0.1 0.2 0.1
v -0.1 1 0.1
v 0.1 0.2 0.1
v 0.1 1 0.1
v -0.3 1.1 -0.3
v -0.3 1.2 -0.3
v -0.2 1.1 -0.3
v -0.2 1.2 -0.3
v 0.2 1.1 -0.3
v 0.2 1.2 -0.3
v 0.3 1.1 -0.3
v 0.3 1.2 -0.3
v -1.4 1.3 -0.8
v -1.4 1.4 -0.8
v 1.4 1.3 -0.8
v 1.4 1.4 -0.8
v -1.4 1.3 0.8
v -1.4 1.4 0.8
v 1.4 1.3 0.8
v 1.4 1.4 0.8
v -0.3 1.1 0.3
v -0.3 1.2 0.3
v -0.2 1.1 0.3
v -0.2 1.2 0.3
v 0.2 1.1 0.3
v 0.2 1.2 0.3
v 0.3 1.1 0.3
v 0.3 1.2 0.3
v -0.1 0.2 -0.1
v -0.1 1 -0.1
v 0.1 0.2 -0.1
v 0.1 1 -0.1
v -0.3 1.1 -0.2
v -0.3 1.2 -0.2
v -0.2 0.1 -0.2
v -0.2 0.2 -0.2
v -0.2 1 -0.2
v -0.2 1.1 -0.2
v -0.2 1.2 -0.2
v 0.2 0.1 -0.2
v 0.2 0.2 -0.2
v 0.2 1 -0.2
v 0.2 1.1 -0.2
v 0.2 1.2 -0.2
v 0.3 1.1 -0.2
v 0.3 1.2 -0.2
v -0.6 0 -0.5
v -0.6 0.1 -0.5
v 0.6 0 -0.5
v 0.6 0.1 -0.5
v -0.8 1.1 -0.8
v -0.8 1.2 -0.8
v 0.8 1.1 -0.8
v 0.8 1.2 -0.8
v -1.5 1.2 -0.9
v -1.5 1.4 -0.9
v 1.5 1.2 -0.9
v 1.5 1.4 -0.9
v -0.6 0 0.5
v 0.6 0 0.5
v -0.2 0 0.2
v 0.2 0 0.2
v -0.2 0 -0.2
v 0.2 0 -0.2
v -0.6 0 -0.5
v 0.6 0 -0.5
v -0.2 1 0.2
v 0.2 1 0.2
v -0.1 1 0.1
v 0.1 1 0.1
v -0.1 1 -0.1
v 0.1 1 -0.1
v -0.2 1 -0.2
v 0.2 1 -0.2
v -0.8 1.1 0.8
v 0.8 1.1 0.8
v -0.3 1.1 0.3
v -0.2 1.1 0.3
v 0.2 1.1 0.3
v 0.3 1.1 0.3
v -0.3 1.1 0.2
v -0.2 1.1 0.2
v 0.2 1.1 0.2
v 0.3 1.1 0.2
v -0.3 1.1 -0.2
v -0.2 1.1 -0.2
v 0.2 1.1 -0.2
v 0.3 1.1 -0.2
v -0.3 1.1 -0.3
v -0.2 1.1 -0.3
v 0.2 1.1 -0.3
v 0.3 1.1 -0.3
v -0.8 1.1 -0.8
v 0.8 1.1 -0.8
v -1.5 1.2 0.9
v 1.5 1.2 0.9
v -1.4 1.2 0.8
v -0.8 1.2 0.8
v 0.8 1.2 0.8
v 1.4 1.2 0.8
v -0.3 1.2 0.3
v -0.2 1.2 0.3
v 0.2 1.2 0.3
v 0.3 1.2 0.3
v -0.3 1.2 0.2
v -0.2 1.2 0.2
v 0.2 1.2 0.2
v 0.3 1.2 0.2
v -0.3 1.2 -0.2
v -0.2 1.2 -0.2
v 0.2 1.2 -0.2
v 0.3 1.2 -0.2
v -0.3 1.2 -0.3
v -0.2 1.2 -0.3
v 0.2 1.2 -0.3
v 0.3 1.2 -0.3
v -1.4 1.2 -0.8
v -0.8 1.2 -0.8
v 0.8 1.2 -0.8
v 1.4 1.2 -0.8
v -1.5 1.2 -0.9
v 1.5 1.2 -0.9
v -0.6 0.1 0.5
v 0.6 0.1 0.5
v -0.2 0.1 0.2
v 0.2 0.1 0.2
v -0.2 0.1 -0.2
v 0.2 0.1 -0.2
v -0.6 0.1 -0.5
v 0.6 0.1 -0.5
v -0.2 0.2 0.2
v 0.2 0.2 0.2
v -0.1 0.2 0.1
v 0.1 0.2 0.1
v -0.1 0.2 -0.1
v 0.1 0.2 -0.1
v -0.2 0.2 -0.2
v 0.2 0.2 -0.2
v -1.4 1.3 0.8
v 1.4 1.3 0.8
v -1.4 1.3 -0.8
v 1.4 1.3 -0.8
v -1.5 1.4 0.9
v 1.5 1.4 0.9
v -1.4 1.4 0.8
v 1.4 1.4 0.8
v -1.4 1.4 -0.8
v 1.4 1.4 -0.8
v -1.5 1.4 -0.9
v 1.5 1.4 -0.9

# faces
f 3/3/1 2/3/1 1/3/1
f 4/3/1 2/3/1 3/3/1
f 7/3/1 6/3/1 5/3/1
f 8/3/1 6/3/1 7/3/1
f 11/3/1 10/3/1 9/3/1
f 12/3/1 10/3/1 11/3/1
f 15/3/1 14/3/1 13/3/1
f 16/3/1 14/3/1 15/3/1
f 20/3/1 18/3/1 17/3/1
f 21/3/1 18/3/1 20/3/1
f 23/3/1 20/3/1 19/3/1
f 24/3/1 20/3/1 23/3/1
f 25/3/1 22/3/1 21/3/1
f 26/3/1 22/3/1 25/3/1
f 29/3/1 28/3/1 27/3/1
f 30/3/1 28/3/1 29/3/1
f 35/3/1 32/3/1 31/3/1
f 36/3/1 32/3/1 35/3/1
f 37/3/1 34/3/1 33/3/1
f 38/3/1 34/3/1 37/3/1
f 41/3/1 40/3/1 39/3/1
f 42/3/1 40/3/1 41/3/1
f 43/3/2 44/3/2 45/3/2
f 45/3/2 44/3/2 46/3/2
f 47/3/2 48/3/2 51/3/2
f 51/3/2 48/3/2 52/3/2
f 49/3/2 50/3/2 53/3/2
f 53/3/2 50/3/2 54/3/2
f 55/3/2 56/3/2 57/3/2
f 57/3/2 56/3/2 58/3/2
f 59/3/2 60/3/2 61/3/2
f 61/3/2 60/3/2 62/3/2
f 63/3/2 64/3/2 66/3/2
f 66/3/2 64/3/2 67/3/2
f 65/3/2 66/3/2 69/3/2
f 69/3/2 66/3/2 70/3/2
f 67/3/2 68/3/2 71/3/2
f 71/3/2 68/3/2 72/3/2
f 73/3/2 74/3/2 75/3/2
f 75/3/2 74/3/2 76/3/2
f 77/3/2 78/3/2 79/3/2
f 79/3/2 78/3/2 80/3/2
f 81/3/2 82/3/2 83/3/2
f 83/3/2 82/3/2 84/3/2
f 87/3/3 86/3/3 85/3/3
f 88/3/3 86/3/3 87/3/3
f 91/3/3 90/3/3 89/3/3
f 92/3/3 90/3/3 91/3/3
f 95/3/3 94/3/3 93/3/3
f 96/3/3 94/3/3 95/3/3
f 102/3/3 98/3/3 97/3/3
f 103/3/3 98/3/3 102/3/3
f 104/3/3 100/3/3 99/3/3
f 105/3/3 100/3/3 104/3/3
f 106/3/3 102/3/3 101/3/3
f 107/3/3 102/3/3 106/3/3
f 109/3/3 108/3/3 107/3/3
f 110/3/3 108/3/3 109/3/3
f 113/3/3 112/3/3 111/3/3
f 114/3/3 112/3/3 113/3/3
f 117/3/3 116/3/3 115/3/3
f 118/3/3 116/3/3 117/3/3
f 121/3/3 120/3/3 119/3/3
f 122/3/3 120/3/3 121/3/3
f 125/3/3 124/3/3 123/3/3
f 126/3/3 124/3/3 125/3/3
f 127/3/4 128/3/4 129/3/4
f 129/3/4 128/3/4 130/3/4
f 131/3/4 132/3/4 133/3/4
f 133/3/4 132/3/4 134/3/4
f 135/3/4 136/3/4 137/3/4
f 137/3/4 136/3/4 138/3/4
f 139/3/4 140/3/4 141/3/4
f 141/3/4 140/3/4 142/3/4
f 143/3/4 144/3/4 148/3/4
f 148/3/4 144/3/4 149/3/4
f 145/3/4 146/3/4 150/3/4
f 150/3/4 146/3/4 151/3/4
f 147/3/4 148/3/4 152/3/4
f 152/3/4 148/3/4 153/3/4
f 153/3/4 154/3/4 155/3/4
f 155/3/4 154/3/4 156/3/4
f 157/3/4 158/3/4 159/3/4
f 159/3/4 158/3/4 160/3/4
f 161/3/4 162/3/4 163/3/4
f 163/3/4 162/3/4 164/3/4
f 165/3/4 166/3/4 167/3/4
f 167/3/4 166/3/4 168/3/4
f 171/3/5 170/3/5 169/3/5
f 172/3/5 170/3/5 171/3/5
f 173/3/5 171/3/5 169/3/5
f 173/2/5 172/2/5 171/2/5
f 174/3/5 170/3/5 172/3/5
f 174/2/5 172/2/5 173/2/5
f 175/3/5 173/3/5 169/3/5
f 175/3/5 174/3/5 173/3/5
f 176/3/5 170/3/5 174/3/5
f 176/3/5 174/3/5 175/3/5
f 179/3/5 178/3/5 177/3/5
f 180/3/5 178/3/5 179/3/5
f 181/3/5 179/3/5 177/3/5
f 182/3/5 178/3/5 180/3/5
f 183/3/5 181/3/5 177/3/5
f 183/3/5 182/3/5 181/3/5
f 184/3/5 178/3/5 182/3/5
f 184/3/5 182/3/5 183/3/5
f 187/3/5 186/3/5 185/3/5
f 188/3/5 186/3/5 187/3/5
f 189/3/5 186/3/5 188/3/5
f 190/3/5 186/3/5 189/3/5
f 191/3/5 187/3/5 185/3/5
f 192/3/5 189/3/5 188/3/5
f 193/3/5 189/3/5 192/3/5
f 194/3/5 186/3/5 190/3/5
f 195/3/5 191/3/5 185/3/5
f 195/3/5 192/3/5 191/3/5
f 196/3/5 192/3/5 195/3/5
f 197/3/5 194/3/5 193/3/5
f 198/3/5 186/3/5 194/3/5
f 198/3/5 194/3/5 197/3/5
f 199/3/5 195/3/5 185/3/5
f 200/3/5 197/3/5 196/3/5
f 201/3/5 197/3/5 200/3/5
f 202/3/5 186/3/5 198/3/5
f 203/3/5 201/3/5 200/3/5
f 203/3/5 202/3/5 201/3/5
f 203/3/5 199/3/5 185/3/5
f 203/3/5 200/3/5 199/3/5
f 204/3/5 186/3/5 202/3/5
f 204/3/5 202/3/5 203/3/5
f 207/3/5 206/3/5 205/3/5
f 208/3/5 206/3/5 207/3/5
f 209/3/5 206/3/5 208/3/5
f 210/3/5 206/3/5 209/3/5
f 215/1/5 212/1/5 211/1/5
f 216/1/5 212/1/5 215/1/5
f 217/1/5 214/1/5 213/1/5
f 218/1/5 214/1/5 217/1/5
f 223/1/5 220/1/5 219/1/5
f 224/1/5 220/1/5 223/1/5
f 225/1/5 222/1/5 221/1/5
f 226/1/5 222/1/5 225/1/5
f 227/3/5 207/3/5 205/3/5
f 227/1/5 208/1/5 207/1/5
f 228/1/5 208/1/5 227/1/5
f 229/1/5 210/1/5 209/1/5
f 230/3/5 206/3/5 210/3/5
f 230/1/5 210/1/5 229/1/5
f 231/3/5 228/3/5 227/3/5
f 231/3/5 229/3/5 228/3/5
f 231/3/5 230/3/5 229/3/5
f 231/3/5 227/3/5 205/3/5
f 232/3/5 206/3/5 230/3/5
f 232/3/5 230/3/5 231/3/5
f 233/3/6 234/3/6 235/3/6
f 235/3/6 234/3/6 236/3/6
f 233/3/6 235/3/6 237/3/6
f 236/3/6 234/3/6 238/3/6
f 233/3/6 237/3/6 239/3/6
f 237/3/6 238/3/6 239/3/6
f 238/3/6 234/3/6 240/3/6
f 239/3/6 238/3/6 240/3/6
f 241/3/6 242/3/6 243/3/6
f 243/3/6 242/3/6 244/3/6
f 241/3/6 243/3/6 245/3/6
f 244/3/6 242/3/6 246/3/6
f 241/3/6 245/3/6 247/3/6
f 245/3/6 246/3/6 247/3/6
f 246/3/6 242/3/6 248/3/6
f 247/3/6 246/3/6 248/3/6
f 249/1/6 250/1/6 251/1/6
f 251/1/6 250/1/6 252/1/6
f 253/3/6 254/3/6 255/3/6
f 255/3/6 254/3/6 256/3/6
f 253/3/6 255/3/6 257/3/6
f 256/3/6 254/3/6 258/3/6
f 253/3/6 257/3/6 259/3/6
f 257/3/6 258/3/6 259/3/6
f 258/3/6 254/3/6 260/3/6
f 259/3/6 258/3/6 260/3/6
