# MagicaVoxel @ Ephtracy

# group
o 

# material
mtllib Urinal.mtl
usemtl palette

# normals
vn -1 0 0
vn 1 0 0
vn 0 0 1
vn 0 0 -1
vn 0 -1 0
vn 0 1 0

# texcoords
vt 0.373047 0.5
vt 0.650391 0.5
vt 0.986328 0.5

# verts
v -0.7 0 -0.4
v -0.7 0 -0.5
v -0.7 3 -0.4
v -0.7 3 -0.5
v -0.4 0.4 0.3
v -0.4 0.4 -0.4
v -0.4 1.2 0.3
v -0.4 1.2 0.1
v -0.4 1.3 0.1
v -0.4 1.3 -0.1
v -0.4 1.7 -0.1
v -0.4 1.7 -0.4
v 0 0.2 0
v 0 0.2 -0.4
v 0 0.3 -0.1
v 0 0.3 -0.4
v 0 0.4 0
v 0 0.4 -0.1
v 0 1.5 -0.1
v 0 1.5 -0.2
v 0 1.6 -0.1
v 0 1.6 -0.2
v 0.2 1.5 -0.1
v 0.2 1.5 -0.2
v 0.2 1.6 -0.1
v 0.2 1.6 -0.2
v 0.4 0.6 0.2
v 0.4 0.6 -0.2
v 0.4 0.7 0.3
v 0.4 0.7 0.2
v 0.4 1.2 0.3
v 0.4 1.2 0.1
v 0.4 1.3 0.1
v 0.4 1.3 -0.1
v 0.4 1.5 -0.1
v 0.4 1.5 -0.2
v -0.3 0.6 0.2
v -0.3 0.6 -0.2
v -0.3 0.7 0.3
v -0.3 0.7 0.2
v -0.3 1.2 0.3
v -0.3 1.2 0.1
v -0.3 1.3 0.1
v -0.3 1.3 -0.1
v -0.3 1.5 -0.1
v -0.3 1.5 -0.2
v -0.1 1.5 -0.1
v -0.1 1.5 -0.2
v -0.1 1.6 -0.1
v -0.1 1.6 -0.2
v 0.1 0.2 0
v 0.1 0.2 -0.4
v 0.1 0.3 -0.1
v 0.1 0.3 -0.4
v 0.1 0.4 0
v 0.1 0.4 -0.1
v 0.1 1.5 -0.1
v 0.1 1.5 -0.2
v 0.1 1.6 -0.1
v 0.1 1.6 -0.2
v 0.5 0.4 0.3
v 0.5 0.4 -0.4
v 0.5 1.2 0.3
v 0.5 1.2 0.1
v 0.5 1.3 0.1
v 0.5 1.3 -0.1
v 0.5 1.7 -0.1
v 0.5 1.7 -0.4
v 0.8 0 -0.4
v 0.8 0 -0.5
v 0.8 3 -0.4
v 0.8 3 -0.5
v -0.4 0.4 0.3
v -0.4 1.2 0.3
v -0.3 0.7 0.3
v -0.3 1.2 0.3
v 0.4 0.7 0.3
v 0.4 1.2 0.3
v 0.5 0.4 0.3
v 0.5 1.2 0.3
v -0.4 1.2 0.1
v -0.4 1.3 0.1
v -0.3 1.2 0.1
v -0.3 1.3 0.1
v 0.4 1.2 0.1
v 0.4 1.3 0.1
v 0.5 1.2 0.1
v 0.5 1.3 0.1
v 0 0.2 0
v 0 0.4 0
v 0.1 0.2 0
v 0.1 0.4 0
v -0.4 1.3 -0.1
v -0.4 1.7 -0.1
v -0.3 1.3 -0.1
v -0.3 1.5 -0.1
v -0.1 1.5 -0.1
v -0.1 1.6 -0.1
v 0 1.5 -0.1
v 0 1.6 -0.1
v 0.1 1.5 -0.1
v 0.1 1.6 -0.1
v 0.2 1.5 -0.1
v 0.2 1.6 -0.1
v 0.4 1.3 -0.1
v 0.4 1.5 -0.1
v 0.5 1.3 -0.1
v 0.5 1.7 -0.1
v -0.3 0.6 -0.2
v -0.3 1.5 -0.2
v -0.1 1.5 -0.2
v -0.1 1.6 -0.2
v 0 1.5 -0.2
v 0 1.6 -0.2
v 0.1 1.5 -0.2
v 0.1 1.6 -0.2
v 0.2 1.5 -0.2
v 0.2 1.6 -0.2
v 0.4 0.6 -0.2
v 0.4 1.5 -0.2
v -0.7 0 -0.4
v -0.7 3 -0.4
v -0.4 0.4 -0.4
v -0.4 1.7 -0.4
v 0 0.2 -0.4
v 0 0.3 -0.4
v 0.1 0.2 -0.4
v 0.1 0.3 -0.4
v 0.5 0.4 -0.4
v 0.5 1.7 -0.4
v 0.8 0 -0.4
v 0.8 3 -0.4
v -0.3 0.6 0.2
v -0.3 0.7 0.2
v 0.4 0.6 0.2
v 0.4 0.7 0.2
v 0 0.3 -0.1
v 0 0.4 -0.1
v 0.1 0.3 -0.1
v 0.1 0.4 -0.1
v -0.7 0 -0.5
v -0.7 3 -0.5
v 0.8 0 -0.5
v 0.8 3 -0.5
v -0.7 0 -0.4
v 0.8 0 -0.4
v -0.7 0 -0.5
v 0.8 0 -0.5
v 0 0.2 0
v 0.1 0.2 0
v 0 0.2 -0.4
v 0.1 0.2 -0.4
v -0.4 0.4 0.3
v 0.5 0.4 0.3
v 0 0.4 0
v 0.1 0.4 0
v 0 0.4 -0.1
v 0.1 0.4 -0.1
v -0.4 0.4 -0.4
v 0.5 0.4 -0.4
v -0.3 1.5 -0.1
v -0.1 1.5 -0.1
v 0 1.5 -0.1
v 0.1 1.5 -0.1
v 0.2 1.5 -0.1
v 0.4 1.5 -0.1
v -0.3 1.5 -0.2
v -0.1 1.5 -0.2
v 0 1.5 -0.2
v 0.1 1.5 -0.2
v 0.2 1.5 -0.2
v 0.4 1.5 -0.2
v -0.1 1.6 -0.1
v 0 1.6 -0.1
v 0.1 1.6 -0.1
v 0.2 1.6 -0.1
v -0.1 1.6 -0.2
v 0 1.6 -0.2
v 0.1 1.6 -0.2
v 0.2 1.6 -0.2
v 0 0.3 -0.1
v 0.1 0.3 -0.1
v 0 0.3 -0.4
v 0.1 0.3 -0.4
v -0.3 0.6 0.2
v 0.4 0.6 0.2
v 0 0.6 0.1
v 0.1 0.6 0.1
v 0 0.6 0
v 0.1 0.6 0
v -0.3 0.6 -0.2
v 0.4 0.6 -0.2
v -0.3 0.7 0.3
v 0.4 0.7 0.3
v -0.3 0.7 0.2
v 0.4 0.7 0.2
v -0.4 1.2 0.3
v -0.3 1.2 0.3
v 0.4 1.2 0.3
v 0.5 1.2 0.3
v -0.4 1.2 0.1
v -0.3 1.2 0.1
v 0.4 1.2 0.1
v 0.5 1.2 0.1
v -0.4 1.3 0.1
v -0.3 1.3 0.1
v 0.4 1.3 0.1
v 0.5 1.3 0.1
v -0.4 1.3 -0.1
v -0.3 1.3 -0.1
v 0.4 1.3 -0.1
v 0.5 1.3 -0.1
v -0.4 1.7 -0.1
v 0.5 1.7 -0.1
v -0.4 1.7 -0.4
v 0.5 1.7 -0.4
v -0.7 3 -0.4
v 0.8 3 -0.4
v -0.7 3 -0.5
v 0.8 3 -0.5

# faces
f 3/2/1 2/2/1 1/2/1
f 4/2/1 2/2/1 3/2/1
f 7/3/1 6/3/1 5/3/1
f 8/3/1 6/3/1 7/3/1
f 9/3/1 6/3/1 8/3/1
f 10/3/1 6/3/1 9/3/1
f 11/3/1 6/3/1 10/3/1
f 12/3/1 6/3/1 11/3/1
f 15/3/1 14/3/1 13/3/1
f 16/3/1 14/3/1 15/3/1
f 17/3/1 15/3/1 13/3/1
f 18/3/1 15/3/1 17/3/1
f 21/3/1 20/3/1 19/3/1
f 22/3/1 20/3/1 21/3/1
f 25/3/1 24/3/1 23/3/1
f 26/3/1 24/3/1 25/3/1
f 30/3/1 28/3/1 27/3/1
f 31/3/1 30/3/1 29/3/1
f 32/3/1 28/3/1 30/3/1
f 32/3/1 30/3/1 31/3/1
f 33/3/1 28/3/1 32/3/1
f 34/3/1 28/3/1 33/3/1
f 35/3/1 28/3/1 34/3/1
f 36/3/1 28/3/1 35/3/1
f 37/3/2 38/3/2 40/3/2
f 39/3/2 40/3/2 41/3/2
f 40/3/2 38/3/2 42/3/2
f 41/3/2 40/3/2 42/3/2
f 42/3/2 38/3/2 43/3/2
f 43/3/2 38/3/2 44/3/2
f 44/3/2 38/3/2 45/3/2
f 45/3/2 38/3/2 46/3/2
f 47/3/2 48/3/2 49/3/2
f 49/3/2 48/3/2 50/3/2
f 51/3/2 52/3/2 53/3/2
f 53/3/2 52/3/2 54/3/2
f 51/3/2 53/3/2 55/3/2
f 55/3/2 53/3/2 56/3/2
f 57/3/2 58/3/2 59/3/2
f 59/3/2 58/3/2 60/3/2
f 61/3/2 62/3/2 63/3/2
f 63/3/2 62/3/2 64/3/2
f 64/3/2 62/3/2 65/3/2
f 65/3/2 62/3/2 66/3/2
f 66/3/2 62/3/2 67/3/2
f 67/3/2 62/3/2 68/3/2
f 69/2/2 70/2/2 71/2/2
f 71/2/2 70/2/2 72/2/2
f 75/3/3 74/3/3 73/3/3
f 76/3/3 74/3/3 75/3/3
f 77/3/3 75/3/3 73/3/3
f 79/3/3 77/3/3 73/3/3
f 79/3/3 78/3/3 77/3/3
f 80/3/3 78/3/3 79/3/3
f 83/3/3 82/3/3 81/3/3
f 84/3/3 82/3/3 83/3/3
f 87/3/3 86/3/3 85/3/3
f 88/3/3 86/3/3 87/3/3
f 91/3/3 90/3/3 89/3/3
f 92/3/3 90/3/3 91/3/3
f 95/3/3 94/3/3 93/3/3
f 96/3/3 94/3/3 95/3/3
f 97/3/3 94/3/3 96/3/3
f 98/3/3 94/3/3 97/3/3
f 100/3/3 94/3/3 98/3/3
f 101/3/3 100/3/3 99/3/3
f 102/3/3 94/3/3 100/3/3
f 102/3/3 100/3/3 101/3/3
f 104/3/3 94/3/3 102/3/3
f 106/3/3 104/3/3 103/3/3
f 107/3/3 106/3/3 105/3/3
f 108/3/3 94/3/3 104/3/3
f 108/3/3 106/3/3 107/3/3
f 108/3/3 104/3/3 106/3/3
f 111/3/3 110/3/3 109/3/3
f 113/3/3 111/3/3 109/3/3
f 113/3/3 112/3/3 111/3/3
f 114/3/3 112/3/3 113/3/3
f 115/3/3 113/3/3 109/3/3
f 117/3/3 115/3/3 109/3/3
f 117/3/3 116/3/3 115/3/3
f 118/3/3 116/3/3 117/3/3
f 119/3/3 117/3/3 109/3/3
f 120/3/3 117/3/3 119/3/3
f 123/2/3 122/2/3 121/2/3
f 124/2/3 122/2/3 123/2/3
f 125/2/3 123/2/3 121/2/3
f 126/2/3 123/2/3 125/2/3
f 127/2/3 125/2/3 121/2/3
f 128/2/3 123/2/3 126/2/3
f 129/2/3 123/2/3 128/2/3
f 129/2/3 128/2/3 127/2/3
f 130/2/3 122/2/3 124/2/3
f 131/2/3 129/2/3 127/2/3
f 131/2/3 130/2/3 129/2/3
f 131/2/3 127/2/3 121/2/3
f 132/2/3 122/2/3 130/2/3
f 132/2/3 130/2/3 131/2/3
f 133/3/4 134/3/4 135/3/4
f 135/3/4 134/3/4 136/3/4
f 137/3/4 138/3/4 139/3/4
f 139/3/4 138/3/4 140/3/4
f 141/2/4 142/2/4 143/2/4
f 143/2/4 142/2/4 144/2/4
f 147/2/5 146/2/5 145/2/5
f 148/2/5 146/2/5 147/2/5
f 151/3/5 150/3/5 149/3/5
f 152/3/5 150/3/5 151/3/5
f 155/3/5 154/3/5 153/3/5
f 156/3/5 154/3/5 155/3/5
f 157/3/5 155/3/5 153/3/5
f 158/3/5 154/3/5 156/3/5
f 159/3/5 157/3/5 153/3/5
f 159/3/5 158/3/5 157/3/5
f 160/3/5 154/3/5 158/3/5
f 160/3/5 158/3/5 159/3/5
f 167/3/5 162/3/5 161/3/5
f 168/3/5 162/3/5 167/3/5
f 169/3/5 164/3/5 163/3/5
f 170/3/5 164/3/5 169/3/5
f 171/3/5 166/3/5 165/3/5
f 172/3/5 166/3/5 171/3/5
f 177/3/5 174/3/5 173/3/5
f 178/3/5 174/3/5 177/3/5
f 179/3/5 176/3/5 175/3/5
f 180/3/5 176/3/5 179/3/5
f 181/3/6 182/3/6 183/3/6
f 183/3/6 182/3/6 184/3/6
f 185/3/6 186/3/6 187/3/6
f 187/3/6 186/3/6 188/3/6
f 185/3/6 187/3/6 189/3/6
f 187/1/6 188/1/6 189/1/6
f 188/3/6 186/3/6 190/3/6
f 189/1/6 188/1/6 190/1/6
f 185/3/6 189/3/6 191/3/6
f 189/3/6 190/3/6 191/3/6
f 190/3/6 186/3/6 192/3/6
f 191/3/6 190/3/6 192/3/6
f 193/3/6 194/3/6 195/3/6
f 195/3/6 194/3/6 196/3/6
f 197/3/6 198/3/6 201/3/6
f 201/3/6 198/3/6 202/3/6
f 199/3/6 200/3/6 203/3/6
f 203/3/6 200/3/6 204/3/6
f 205/3/6 206/3/6 209/3/6
f 209/3/6 206/3/6 210/3/6
f 207/3/6 208/3/6 211/3/6
f 211/3/6 208/3/6 212/3/6
f 213/3/6 214/3/6 215/3/6
f 215/3/6 214/3/6 216/3/6
f 217/2/6 218/2/6 219/2/6
f 219/2/6 218/2/6 220/2/6
