# MagicaVoxel @ Ephtracy

# group
o 

# material
mtllib Bcereal.mtl
usemtl palette

# normals
vn -1 0 0
vn 1 0 0
vn 0 0 1
vn 0 0 -1
vn 0 -1 0
vn 0 1 0

# texcoords
vt 0.716797 0.5
vt 0.775391 0.5

# verts
v -0.6 0 0.4
v -0.6 0 -0.4
v -0.6 0.3 0.4
v -0.6 0.3 -0.4
v 0.6 0 0.4
v 0.6 0 -0.4
v 0.6 0.3 0.4
v 0.6 0.3 -0.4
v -0.6 0 0.4
v -0.6 0.3 0.4
v -0.5 0.1 0.4
v -0.5 0.2 0.4
v 0.1 0.1 0.4
v 0.1 0.2 0.4
v 0.3 0.1 0.4
v 0.3 0.2 0.4
v 0.5 0.1 0.4
v 0.5 0.2 0.4
v 0.6 0 0.4
v 0.6 0.3 0.4
v -0.6 0 -0.4
v -0.6 0.3 -0.4
v -0.5 0.1 -0.4
v -0.5 0.2 -0.4
v 0.1 0.1 -0.4
v 0.1 0.2 -0.4
v 0.4 0.1 -0.4
v 0.4 0.2 -0.4
v 0.5 0.1 -0.4
v 0.5 0.2 -0.4
v 0.6 0 -0.4
v 0.6 0.3 -0.4
v -0.6 0 0.4
v 0.6 0 0.4
v -0.5 0 0.3
v -5.96046e-08 0 0.3
v 0.2 0 0.3
v 0.5 0 0.3
v -0.5 0 -0.3
v -5.96046e-08 0 -0.3
v 0.2 0 -0.3
v 0.5 0 -0.3
v -0.6 0 -0.4
v 0.6 0 -0.4
v -0.6 0.3 0.4
v 0.6 0.3 0.4
v -0.5 0.3 0.3
v -0.4 0.3 0.3
v -0.1 0.3 0.3
v -5.96046e-08 0.3 0.3
v 0.3 0.3 0.3
v 0.5 0.3 0.3
v -0.2 0.3 0.2
v -0.1 0.3 0.2
v -5.96046e-08 0.3 0.2
v 0.1 0.3 0.2
v -0.3 0.3 0.1
v -0.2 0.3 0.1
v -0.1 0.3 0.1
v -5.96046e-08 0.3 0.1
v 0.1 0.3 0.1
v -0.3 0.3 -0.1
v -0.2 0.3 -0.1
v -0.1 0.3 -0.1
v -5.96046e-08 0.3 -0.1
v 0.1 0.3 -0.1
v -0.2 0.3 -0.2
v -0.1 0.3 -0.2
v -5.96046e-08 0.3 -0.2
v 0.1 0.3 -0.2
v -0.5 0.3 -0.3
v -0.4 0.3 -0.3
v -0.1 0.3 -0.3
v -5.96046e-08 0.3 -0.3
v 0.3 0.3 -0.3
v 0.5 0.3 -0.3
v -0.6 0.3 -0.4
v 0.6 0.3 -0.4

# faces
f 3/1/1 2/1/1 1/1/1
f 4/1/1 2/1/1 3/1/1
f 5/1/2 6/1/2 7/1/2
f 7/1/2 6/1/2 8/1/2
f 11/1/3 10/1/3 9/1/3
f 12/1/3 10/1/3 11/1/3
f 13/1/3 11/1/3 9/1/3
f 13/2/3 12/2/3 11/2/3
f 14/1/3 10/1/3 12/1/3
f 14/2/3 12/2/3 13/2/3
f 15/1/3 13/1/3 9/1/3
f 15/1/3 14/1/3 13/1/3
f 16/1/3 10/1/3 14/1/3
f 16/1/3 14/1/3 15/1/3
f 17/1/3 15/1/3 9/1/3
f 17/2/3 16/2/3 15/2/3
f 18/1/3 10/1/3 16/1/3
f 18/2/3 16/2/3 17/2/3
f 19/1/3 17/1/3 9/1/3
f 19/1/3 18/1/3 17/1/3
f 20/1/3 10/1/3 18/1/3
f 20/1/3 18/1/3 19/1/3
f 21/1/4 22/1/4 23/1/4
f 23/1/4 22/1/4 24/1/4
f 21/1/4 23/1/4 25/1/4
f 23/2/4 24/2/4 25/2/4
f 24/1/4 22/1/4 26/1/4
f 25/2/4 24/2/4 26/2/4
f 21/1/4 25/1/4 27/1/4
f 25/1/4 26/1/4 27/1/4
f 26/1/4 22/1/4 28/1/4
f 27/1/4 26/1/4 28/1/4
f 21/1/4 27/1/4 29/1/4
f 27/2/4 28/2/4 29/2/4
f 28/1/4 22/1/4 30/1/4
f 29/2/4 28/2/4 30/2/4
f 21/1/4 29/1/4 31/1/4
f 29/1/4 30/1/4 31/1/4
f 30/1/4 22/1/4 32/1/4
f 31/1/4 30/1/4 32/1/4
f 35/1/5 34/1/5 33/1/5
f 36/1/5 34/1/5 35/1/5
f 37/1/5 34/1/5 36/1/5
f 38/1/5 34/1/5 37/1/5
f 39/1/5 35/1/5 33/1/5
f 39/2/5 36/2/5 35/2/5
f 40/1/5 37/1/5 36/1/5
f 40/2/5 36/2/5 39/2/5
f 41/2/5 38/2/5 37/2/5
f 41/1/5 37/1/5 40/1/5
f 42/1/5 34/1/5 38/1/5
f 42/2/5 38/2/5 41/2/5
f 43/1/5 41/1/5 40/1/5
f 43/1/5 40/1/5 39/1/5
f 43/1/5 42/1/5 41/1/5
f 43/1/5 39/1/5 33/1/5
f 44/1/5 34/1/5 42/1/5
f 44/1/5 42/1/5 43/1/5
f 45/1/6 46/1/6 47/1/6
f 47/1/6 46/1/6 48/1/6
f 48/1/6 46/1/6 49/1/6
f 49/1/6 46/1/6 50/1/6
f 50/1/6 46/1/6 51/1/6
f 51/1/6 46/1/6 52/1/6
f 48/1/6 49/1/6 53/1/6
f 49/2/6 50/2/6 54/2/6
f 53/1/6 49/1/6 54/1/6
f 50/1/6 51/1/6 55/1/6
f 54/2/6 50/2/6 55/2/6
f 55/1/6 51/1/6 56/1/6
f 48/1/6 53/1/6 57/1/6
f 53/2/6 54/2/6 58/2/6
f 57/1/6 53/1/6 58/1/6
f 54/1/6 55/1/6 59/1/6
f 58/2/6 54/2/6 59/2/6
f 55/2/6 56/2/6 60/2/6
f 59/1/6 55/1/6 60/1/6
f 56/1/6 51/1/6 61/1/6
f 60/2/6 56/2/6 61/2/6
f 59/2/6 60/2/6 62/2/6
f 48/1/6 57/1/6 62/1/6
f 57/2/6 58/2/6 62/2/6
f 58/2/6 59/2/6 62/2/6
f 62/2/6 60/2/6 63/2/6
f 63/2/6 60/2/6 64/2/6
f 60/1/6 61/1/6 65/1/6
f 64/2/6 60/2/6 65/2/6
f 61/1/6 51/1/6 66/1/6
f 65/1/6 61/1/6 66/1/6
f 63/2/6 64/2/6 67/2/6
f 62/1/6 63/1/6 67/1/6
f 64/1/6 65/1/6 68/1/6
f 67/2/6 64/2/6 68/2/6
f 65/2/6 66/2/6 69/2/6
f 68/1/6 65/1/6 69/1/6
f 66/1/6 51/1/6 70/1/6
f 69/2/6 66/2/6 70/2/6
f 45/1/6 47/1/6 71/1/6
f 47/2/6 48/2/6 71/2/6
f 62/1/6 67/1/6 72/1/6
f 71/2/6 48/2/6 72/2/6
f 48/1/6 62/1/6 72/1/6
f 67/1/6 68/1/6 72/1/6
f 68/2/6 69/2/6 73/2/6
f 72/1/6 68/1/6 73/1/6
f 69/1/6 70/1/6 74/1/6
f 73/2/6 69/2/6 74/2/6
f 70/1/6 51/1/6 75/1/6
f 74/1/6 70/1/6 75/1/6
f 51/2/6 52/2/6 75/2/6
f 52/1/6 46/1/6 76/1/6
f 75/2/6 52/2/6 76/2/6
f 73/1/6 74/1/6 77/1/6
f 72/1/6 73/1/6 77/1/6
f 75/1/6 76/1/6 77/1/6
f 71/1/6 72/1/6 77/1/6
f 45/1/6 71/1/6 77/1/6
f 74/1/6 75/1/6 77/1/6
f 76/1/6 46/1/6 78/1/6
f 77/1/6 76/1/6 78/1/6
