# MagicaVoxel @ Ephtracy

# group
o 

# material
mtllib Schoolwaterfountain.mtl
usemtl palette

# normals
vn -1 0 0
vn 1 0 0
vn 0 0 1
vn 0 0 -1
vn 0 -1 0
vn 0 1 0

# texcoords
vt 0.650391 0.5
vt 0.771484 0.5
vt 0.775391 0.5
vt 0.982422 0.5
vt 0.986328 0.5

# verts
v -0.7 0 0.5
v -0.7 0 0.4
v -0.7 0 -0.5
v -0.7 0.4 0.4
v -0.7 0.4 -0.5
v -0.7 1.6 0.4
v -0.7 1.6 -0.3
v -0.7 1.7 -0.3
v -0.7 1.7 -0.5
v -0.7 2.2 0.4
v -0.7 2.2 -0.5
v -0.7 3 0.5
v -0.7 3 0.4
v -0.5 1.6 -0.3
v -0.5 1.6 -0.5
v -0.5 1.7 -0.3
v -0.5 1.7 -0.5
v -0.5 1.8 -0.3
v -0.5 1.8 -0.4
v -0.5 1.9 -0.3
v -0.5 1.9 -0.4
v -0.4 0.4 0.4
v -0.4 0.4 -0.2
v -0.4 0.8 0.4
v -0.4 0.8 -0.2
v -0.4 2.8 0.4
v -0.4 2.8 -0.1
v -0.4 3 0.4
v -0.4 3 -0.1
v -0.2 0.8 0.4
v -0.2 0.8 -0.1
v -0.2 1.6 0.4
v -0.2 1.6 -0.1
v -0.2 2.7 0.4
v -0.2 2.7 -0.1
v -0.2 2.8 0.4
v -0.2 2.8 -0.1
v -0.1 2.2 0.4
v -0.1 2.2 0.3
v -0.1 2.7 0.4
v -0.1 2.7 0.3
v 0.1 1.9 -0.2
v 0.1 1.9 -0.3
v 0.1 2 -0.2
v 0.1 2 -0.3
v 0.1 2.8 0
v 0.1 2.8 -0.1
v 0.1 2.9 0
v 0.1 2.9 -0.1
v 0.7 1.8 -0.3
v 0.7 1.8 -0.4
v 0.7 1.9 -0.3
v 0.7 1.9 -0.4
v 0.7 2 0.3
v 0.7 2 -0.4
v 0.7 2.2 0.3
v 0.7 2.2 -0.4
v -0.6 1.8 -0.3
v -0.6 1.8 -0.4
v -0.6 1.9 -0.3
v -0.6 1.9 -0.4
v -0.6 2 0.3
v -0.6 2 -0.4
v -0.6 2.2 0.3
v -0.6 2.2 -0.4
v 0 1.9 -0.2
v 0 1.9 -0.3
v 0 2 -0.2
v 0 2 -0.3
v 0 2.8 0
v 0 2.8 -0.1
v 0 2.9 0
v 0 2.9 -0.1
v 0.2 2.2 0.4
v 0.2 2.2 0.3
v 0.2 2.7 0.4
v 0.2 2.7 0.3
v 0.3 0.8 0.4
v 0.3 0.8 -0.1
v 0.3 1.6 0.4
v 0.3 1.6 -0.1
v 0.3 2.7 0.4
v 0.3 2.7 -0.1
v 0.3 2.8 0.4
v 0.3 2.8 -0.1
v 0.5 0.4 0.4
v 0.5 0.4 -0.2
v 0.5 0.8 0.4
v 0.5 0.8 -0.2
v 0.5 2.8 0.4
v 0.5 2.8 -0.1
v 0.5 3 0.4
v 0.5 3 -0.1
v 0.6 1.6 -0.3
v 0.6 1.6 -0.5
v 0.6 1.7 -0.3
v 0.6 1.7 -0.5
v 0.6 1.8 -0.3
v 0.6 1.8 -0.4
v 0.6 1.9 -0.3
v 0.6 1.9 -0.4
v 0.8 0 0.5
v 0.8 0 0.4
v 0.8 0 -0.5
v 0.8 0.4 0.4
v 0.8 0.4 -0.5
v 0.8 1.6 0.4
v 0.8 1.6 -0.3
v 0.8 1.7 -0.3
v 0.8 1.7 -0.5
v 0.8 2.2 0.4
v 0.8 2.2 -0.5
v 0.8 3 0.5
v 0.8 3 0.4
v -0.7 0 0.5
v -0.7 3 0.5
v 0.8 0 0.5
v 0.8 3 0.5
v 0 1.9 -0.3
v 0 2 -0.3
v 0.1 1.9 -0.3
v 0.1 2 -0.3
v -0.6 1.8 -0.4
v -0.6 1.9 -0.4
v -0.6 2 -0.4
v -0.6 2.2 -0.4
v -0.5 1.8 -0.4
v -0.5 1.9 -0.4
v 0.6 1.8 -0.4
v 0.6 1.9 -0.4
v 0.7 1.8 -0.4
v 0.7 1.9 -0.4
v 0.7 2 -0.4
v 0.7 2.2 -0.4
v -0.7 0.4 0.4
v -0.7 1.6 0.4
v -0.7 2.2 0.4
v -0.7 3 0.4
v -0.4 0.4 0.4
v -0.4 0.8 0.4
v -0.4 2.8 0.4
v -0.4 3 0.4
v -0.2 0.8 0.4
v -0.2 1.6 0.4
v -0.2 2.7 0.4
v -0.2 2.8 0.4
v -0.1 2.2 0.4
v -0.1 2.7 0.4
v 0.2 2.2 0.4
v 0.2 2.7 0.4
v 0.3 0.8 0.4
v 0.3 1.6 0.4
v 0.3 2.7 0.4
v 0.3 2.8 0.4
v 0.5 0.4 0.4
v 0.5 0.8 0.4
v 0.5 2.8 0.4
v 0.5 3 0.4
v 0.8 0.4 0.4
v 0.8 1.6 0.4
v 0.8 2.2 0.4
v 0.8 3 0.4
v -0.6 2 0.3
v -0.6 2.2 0.3
v -0.1 2.2 0.3
v -0.1 2.7 0.3
v 0.2 2.2 0.3
v 0.2 2.7 0.3
v 0.7 2 0.3
v 0.7 2.2 0.3
v 0 2.8 0
v 0 2.9 0
v 0.1 2.8 0
v 0.1 2.9 0
v -0.4 2.8 -0.1
v -0.4 3 -0.1
v -0.2 0.8 -0.1
v -0.2 1.6 -0.1
v -0.2 2.7 -0.1
v -0.2 2.8 -0.1
v 0 2.8 -0.1
v 0 2.9 -0.1
v 0.1 2.8 -0.1
v 0.1 2.9 -0.1
v 0.3 0.8 -0.1
v 0.3 1.6 -0.1
v 0.3 2.7 -0.1
v 0.3 2.8 -0.1
v 0.5 2.8 -0.1
v 0.5 3 -0.1
v -0.4 0.4 -0.2
v -0.4 0.8 -0.2
v 0 1.9 -0.2
v 0 2 -0.2
v 0.1 1.9 -0.2
v 0.1 2 -0.2
v 0.5 0.4 -0.2
v 0.5 0.8 -0.2
v -0.7 1.6 -0.3
v -0.7 1.7 -0.3
v -0.6 1.8 -0.3
v -0.6 1.9 -0.3
v -0.5 1.6 -0.3
v -0.5 1.7 -0.3
v -0.5 1.8 -0.3
v -0.5 1.9 -0.3
v 0.6 1.6 -0.3
v 0.6 1.7 -0.3
v 0.6 1.8 -0.3
v 0.6 1.9 -0.3
v 0.7 1.8 -0.3
v 0.7 1.9 -0.3
v 0.8 1.6 -0.3
v 0.8 1.7 -0.3
v -0.7 0 -0.5
v -0.7 0.4 -0.5
v -0.7 1.7 -0.5
v -0.7 2.2 -0.5
v -0.5 1.6 -0.5
v -0.5 1.7 -0.5
v 0.6 1.6 -0.5
v 0.6 1.7 -0.5
v 0.8 0 -0.5
v 0.8 0.4 -0.5
v 0.8 1.7 -0.5
v 0.8 2.2 -0.5
v -0.7 0 0.5
v 0.8 0 0.5
v -0.7 0 0.4
v -0.4 0 0.4
v 0.5 0 0.4
v 0.8 0 0.4
v -0.4 0 -0.2
v 0.5 0 -0.2
v -0.7 0 -0.5
v 0.8 0 -0.5
v -0.7 1.6 0.4
v -0.2 1.6 0.4
v 0.3 1.6 0.4
v 0.8 1.6 0.4
v -0.2 1.6 -0.1
v 0.3 1.6 -0.1
v -0.7 1.6 -0.3
v -0.5 1.6 -0.3
v 0.6 1.6 -0.3
v 0.8 1.6 -0.3
v -0.5 1.6 -0.5
v 0.6 1.6 -0.5
v -0.7 1.7 -0.3
v -0.5 1.7 -0.3
v 0.6 1.7 -0.3
v 0.8 1.7 -0.3
v -0.7 1.7 -0.5
v -0.5 1.7 -0.5
v 0.6 1.7 -0.5
v 0.8 1.7 -0.5
v -0.6 1.9 -0.3
v -0.5 1.9 -0.3
v 0.6 1.9 -0.3
v 0.7 1.9 -0.3
v -0.6 1.9 -0.4
v -0.5 1.9 -0.4
v 0.6 1.9 -0.4
v 0.7 1.9 -0.4
v -0.2 2.7 0.4
v -0.1 2.7 0.4
v 0.2 2.7 0.4
v 0.3 2.7 0.4
v -0.1 2.7 0.3
v 0.2 2.7 0.3
v -0.1 2.7 0.2
v 0.2 2.7 0.2
v -0.2 2.7 -0.1
v 0.3 2.7 -0.1
v -0.4 2.8 0.4
v -0.2 2.8 0.4
v 0.3 2.8 0.4
v 0.5 2.8 0.4
v -0.4 2.8 -0.1
v -0.2 2.8 -0.1
v 0.3 2.8 -0.1
v 0.5 2.8 -0.1
v 0 2.9 0
v 0.1 2.9 0
v 0 2.9 -0.1
v 0.1 2.9 -0.1
v -0.7 0.4 0.4
v -0.4 0.4 0.4
v 0.5 0.4 0.4
v 0.8 0.4 0.4
v -0.4 0.4 -0.2
v 0.5 0.4 -0.2
v -0.7 0.4 -0.5
v 0.8 0.4 -0.5
v -0.4 0.8 0.4
v -0.2 0.8 0.4
v 0.3 0.8 0.4
v 0.5 0.8 0.4
v -0.2 0.8 -0.1
v 0.3 0.8 -0.1
v -0.4 0.8 -0.2
v 0.5 0.8 -0.2
v -0.6 1.8 -0.3
v -0.5 1.8 -0.3
v 0.6 1.8 -0.3
v 0.7 1.8 -0.3
v -0.6 1.8 -0.4
v -0.5 1.8 -0.4
v 0.6 1.8 -0.4
v 0.7 1.8 -0.4
v 0 1.9 -0.2
v 0.1 1.9 -0.2
v 0 1.9 -0.3
v 0.1 1.9 -0.3
v -0.6 2 0.3
v 0.7 2 0.3
v 0 2 -0.2
v 0.1 2 -0.2
v 0 2 -0.3
v 0.1 2 -0.3
v -0.6 2 -0.4
v 0.7 2 -0.4
v -0.7 2.2 0.4
v -0.1 2.2 0.4
v 0.2 2.2 0.4
v 0.8 2.2 0.4
v -0.6 2.2 0.3
v -0.1 2.2 0.3
v 0.2 2.2 0.3
v 0.7 2.2 0.3
v -0.6 2.2 -0.4
v 0.7 2.2 -0.4
v -0.7 2.2 -0.5
v 0.8 2.2 -0.5
v 0 2.8 0
v 0.1 2.8 0
v 0 2.8 -0.1
v 0.1 2.8 -0.1
v -0.7 3 0.5
v 0.8 3 0.5
v -0.7 3 0.4
v -0.4 3 0.4
v 0.5 3 0.4
v 0.8 3 0.4
v -0.4 3 -0.1
v 0.5 3 -0.1

# faces
f 4/1/1 2/1/1 1/1/1
f 4/4/1 3/4/1 2/4/1
f 5/4/1 3/4/1 4/4/1
f 6/1/1 4/1/1 1/1/1
f 8/5/1 7/5/1 6/5/1
f 10/1/1 6/1/1 1/1/1
f 10/5/1 9/5/1 8/5/1
f 10/5/1 8/5/1 6/5/1
f 11/5/1 9/5/1 10/5/1
f 12/1/1 10/1/1 1/1/1
f 13/1/1 10/1/1 12/1/1
f 16/5/1 15/5/1 14/5/1
f 17/5/1 15/5/1 16/5/1
f 20/5/1 19/5/1 18/5/1
f 21/5/1 19/5/1 20/5/1
f 24/4/1 23/4/1 22/4/1
f 25/4/1 23/4/1 24/4/1
f 28/5/1 27/5/1 26/5/1
f 29/5/1 27/5/1 28/5/1
f 32/4/1 31/4/1 30/4/1
f 33/4/1 31/4/1 32/4/1
f 36/5/1 35/5/1 34/5/1
f 37/5/1 35/5/1 36/5/1
f 40/5/1 39/5/1 38/5/1
f 41/5/1 39/5/1 40/5/1
f 44/4/1 43/4/1 42/4/1
f 45/4/1 43/4/1 44/4/1
f 48/5/1 47/5/1 46/5/1
f 49/5/1 47/5/1 48/5/1
f 52/5/1 51/5/1 50/5/1
f 53/5/1 51/5/1 52/5/1
f 56/5/1 55/5/1 54/5/1
f 57/5/1 55/5/1 56/5/1
f 58/5/2 59/5/2 60/5/2
f 60/5/2 59/5/2 61/5/2
f 62/5/2 63/5/2 64/5/2
f 64/5/2 63/5/2 65/5/2
f 66/4/2 67/4/2 68/4/2
f 68/4/2 67/4/2 69/4/2
f 70/5/2 71/5/2 72/5/2
f 72/5/2 71/5/2 73/5/2
f 74/5/2 75/5/2 76/5/2
f 76/5/2 75/5/2 77/5/2
f 78/4/2 79/4/2 80/4/2
f 80/4/2 79/4/2 81/4/2
f 82/5/2 83/5/2 84/5/2
f 84/5/2 83/5/2 85/5/2
f 86/4/2 87/4/2 88/4/2
f 88/4/2 87/4/2 89/4/2
f 90/5/2 91/5/2 92/5/2
f 92/5/2 91/5/2 93/5/2
f 94/5/2 95/5/2 96/5/2
f 96/5/2 95/5/2 97/5/2
f 98/5/2 99/5/2 100/5/2
f 100/5/2 99/5/2 101/5/2
f 102/1/2 103/1/2 105/1/2
f 103/4/2 104/4/2 105/4/2
f 105/4/2 104/4/2 106/4/2
f 102/1/2 105/1/2 107/1/2
f 107/5/2 108/5/2 109/5/2
f 102/1/2 107/1/2 111/1/2
f 109/5/2 110/5/2 111/5/2
f 107/5/2 109/5/2 111/5/2
f 111/5/2 110/5/2 112/5/2
f 102/1/2 111/1/2 113/1/2
f 113/1/2 111/1/2 114/1/2
f 117/1/3 116/1/3 115/1/3
f 118/1/3 116/1/3 117/1/3
f 121/4/3 120/4/3 119/4/3
f 122/4/3 120/4/3 121/4/3
f 127/5/3 124/5/3 123/5/3
f 128/5/3 124/5/3 127/5/3
f 131/5/3 130/5/3 129/5/3
f 132/5/3 130/5/3 131/5/3
f 133/5/3 126/5/3 125/5/3
f 134/5/3 126/5/3 133/5/3
f 135/1/4 136/1/4 139/1/4
f 139/1/4 136/1/4 140/1/4
f 137/1/4 138/1/4 141/1/4
f 141/1/4 138/1/4 142/1/4
f 140/1/4 136/1/4 143/1/4
f 143/1/4 136/1/4 144/1/4
f 137/1/4 141/1/4 145/1/4
f 145/1/4 141/1/4 146/1/4
f 137/1/4 145/1/4 147/1/4
f 147/1/4 145/1/4 148/1/4
f 149/1/4 150/1/4 153/1/4
f 151/1/4 152/1/4 156/1/4
f 153/1/4 154/1/4 157/1/4
f 155/1/4 156/1/4 159/1/4
f 156/1/4 152/1/4 160/1/4
f 159/1/4 156/1/4 160/1/4
f 153/1/4 157/1/4 161/1/4
f 149/1/4 153/1/4 161/1/4
f 157/1/4 158/1/4 161/1/4
f 161/1/4 158/1/4 162/1/4
f 163/5/4 164/5/4 165/5/4
f 163/5/4 165/5/4 167/5/4
f 165/5/4 166/5/4 167/5/4
f 167/5/4 166/5/4 168/5/4
f 163/5/4 167/5/4 169/5/4
f 169/5/4 167/5/4 170/5/4
f 171/2/4 172/2/4 173/2/4
f 173/2/4 172/2/4 174/2/4
f 175/5/4 176/5/4 180/5/4
f 180/5/4 176/5/4 181/5/4
f 179/5/4 180/5/4 181/5/4
f 181/5/4 176/5/4 182/5/4
f 179/5/4 181/5/4 183/5/4
f 182/5/4 176/5/4 184/5/4
f 177/4/4 178/4/4 185/4/4
f 185/4/4 178/4/4 186/4/4
f 183/5/4 184/5/4 187/5/4
f 179/5/4 183/5/4 187/5/4
f 187/5/4 184/5/4 188/5/4
f 188/5/4 184/5/4 189/5/4
f 184/5/4 176/5/4 190/5/4
f 189/5/4 184/5/4 190/5/4
f 193/4/4 194/4/4 195/4/4
f 195/4/4 194/4/4 196/4/4
f 191/4/4 192/4/4 197/4/4
f 197/4/4 192/4/4 198/4/4
f 199/5/4 200/5/4 203/5/4
f 203/5/4 200/5/4 204/5/4
f 201/5/4 202/5/4 205/5/4
f 205/5/4 202/5/4 206/5/4
f 209/5/4 210/5/4 211/5/4
f 211/5/4 210/5/4 212/5/4
f 207/5/4 208/5/4 213/5/4
f 213/5/4 208/5/4 214/5/4
f 217/5/4 218/5/4 220/5/4
f 219/5/4 220/5/4 221/5/4
f 220/5/4 218/5/4 222/5/4
f 221/5/4 220/5/4 222/5/4
f 215/4/4 216/4/4 223/4/4
f 223/4/4 216/4/4 224/4/4
f 222/5/4 218/5/4 225/5/4
f 225/5/4 218/5/4 226/5/4
f 229/1/5 228/1/5 227/1/5
f 230/1/5 228/1/5 229/1/5
f 231/1/5 228/1/5 230/1/5
f 232/1/5 228/1/5 231/1/5
f 233/4/5 230/4/5 229/4/5
f 233/5/5 231/5/5 230/5/5
f 234/4/5 232/4/5 231/4/5
f 234/5/5 231/5/5 233/5/5
f 235/4/5 233/4/5 229/4/5
f 235/4/5 234/4/5 233/4/5
f 236/4/5 232/4/5 234/4/5
f 236/4/5 234/4/5 235/4/5
f 241/5/5 238/5/5 237/5/5
f 242/5/5 240/5/5 239/5/5
f 243/5/5 241/5/5 237/5/5
f 243/5/5 242/5/5 241/5/5
f 244/5/5 242/5/5 243/5/5
f 245/5/5 240/5/5 242/5/5
f 245/5/5 242/5/5 244/5/5
f 246/5/5 240/5/5 245/5/5
f 247/5/5 245/5/5 244/5/5
f 248/5/5 245/5/5 247/5/5
f 253/5/5 250/5/5 249/5/5
f 254/5/5 250/5/5 253/5/5
f 255/5/5 252/5/5 251/5/5
f 256/5/5 252/5/5 255/5/5
f 261/4/5 258/4/5 257/4/5
f 262/4/5 258/4/5 261/4/5
f 263/4/5 260/4/5 259/4/5
f 264/4/5 260/4/5 263/4/5
f 269/5/5 266/5/5 265/5/5
f 270/5/5 268/5/5 267/5/5
f 271/5/5 269/5/5 265/5/5
f 271/4/5 270/4/5 269/4/5
f 272/5/5 268/5/5 270/5/5
f 272/4/5 270/4/5 271/4/5
f 273/5/5 271/5/5 265/5/5
f 273/5/5 272/5/5 271/5/5
f 274/5/5 268/5/5 272/5/5
f 274/5/5 272/5/5 273/5/5
f 279/5/5 276/5/5 275/5/5
f 280/5/5 276/5/5 279/5/5
f 281/5/5 278/5/5 277/5/5
f 282/5/5 278/5/5 281/5/5
f 285/5/5 284/5/5 283/5/5
f 286/5/5 284/5/5 285/5/5
f 287/4/6 288/4/6 291/4/6
f 289/4/6 290/4/6 292/4/6
f 287/4/6 291/4/6 293/4/6
f 291/4/6 292/4/6 293/4/6
f 292/4/6 290/4/6 294/4/6
f 293/4/6 292/4/6 294/4/6
f 295/4/6 296/4/6 299/4/6
f 297/4/6 298/4/6 300/4/6
f 295/4/6 299/4/6 301/4/6
f 299/4/6 300/4/6 301/4/6
f 300/4/6 298/4/6 302/4/6
f 301/4/6 300/4/6 302/4/6
f 303/5/6 304/5/6 307/5/6
f 307/5/6 304/5/6 308/5/6
f 305/5/6 306/5/6 309/5/6
f 309/5/6 306/5/6 310/5/6
f 311/5/6 312/5/6 313/5/6
f 313/5/6 312/5/6 314/5/6
f 315/4/6 316/4/6 317/4/6
f 317/4/6 316/4/6 318/4/6
f 315/4/6 317/4/6 319/4/6
f 318/4/6 316/4/6 320/4/6
f 315/4/6 319/4/6 321/4/6
f 319/4/6 320/4/6 321/4/6
f 320/4/6 316/4/6 322/4/6
f 321/4/6 320/4/6 322/4/6
f 323/5/6 324/5/6 327/5/6
f 327/5/6 324/5/6 328/5/6
f 325/5/6 326/5/6 329/5/6
f 329/5/6 326/5/6 330/5/6
f 323/5/6 327/5/6 331/5/6
f 330/5/6 326/5/6 332/5/6
f 323/5/6 331/5/6 333/5/6
f 331/5/6 332/5/6 333/5/6
f 332/5/6 326/5/6 334/5/6
f 333/5/6 332/5/6 334/5/6
f 335/5/6 336/5/6 337/5/6
f 337/5/6 336/5/6 338/5/6
f 339/1/6 340/1/6 341/1/6
f 341/1/6 340/1/6 342/1/6
f 342/1/6 340/1/6 343/1/6
f 343/1/6 340/1/6 344/1/6
f 342/5/6 343/5/6 345/5/6
f 345/5/6 343/5/6 346/5/6
