# MagicaVoxel @ Ephtracy

# group
o 

# material
mtllib Frontmonorail.mtl
usemtl palette

# normals
vn -1 0 0
vn 1 0 0
vn 0 0 1
vn 0 0 -1
vn 0 -1 0
vn 0 1 0

# texcoords
vt 0.373047 0.5
vt 0.650391 0.5
vt 0.677734 0.5
vt 0.931641 0.5
vt 0.951172 0.5
vt 0.982422 0.5
vt 0.990234 0.5

# verts
v -1 0 1
v -1 0 -1
v -1 0.3 1
v -1 0.3 -1
v -0.9 0.3 1
v -0.9 0.3 -1
v -0.9 0.5 1
v -0.9 0.5 -1
v 0.2 0 0.9
v 0.2 0 0.5
v 0.2 0 -0.5
v 0.2 0 -0.9
v 0.2 0.2 0.9
v 0.2 0.2 0.5
v 0.2 0.2 -0.5
v 0.2 0.2 -0.9
v 0.2 0.3 0.9
v 0.2 0.3 0.5
v 0.2 0.3 -0.5
v 0.2 0.3 -0.9
v 0.2 0.4 0.9
v 0.2 0.4 0.5
v 0.2 0.4 -0.5
v 0.2 0.4 -0.9
v 0.3 0 0.4
v 0.3 0 -0.4
v 0.3 0.2 1
v 0.3 0.2 0.9
v 0.3 0.2 0.4
v 0.3 0.2 -0.4
v 0.3 0.3 1
v 0.3 0.3 0.9
v 0.3 0.3 0.4
v 0.3 0.3 -0.4
v 0.3 0.4 1
v 0.3 0.4 0.4
v 0.3 0.4 -0.4
v 0.3 0.4 -1
v 0.3 0.5 1
v 0.3 0.5 -1
v 0.8 0.4 0.9
v 0.8 0.4 0.5
v 0.8 0.4 -0.5
v 0.8 0.4 -0.9
v 0.8 0.5 0.9
v 0.8 0.5 0.5
v 0.8 0.5 -0.5
v 0.8 0.5 -0.9
v -0.7 0 0.4
v -0.7 0 -0.4
v -0.7 0.2 0.4
v -0.7 0.2 -0.4
v -0.7 0.3 0.4
v -0.7 0.3 -0.4
v -0.7 0.4 1
v -0.7 0.4 0.4
v -0.7 0.4 -0.4
v -0.7 0.4 -1
v -0.7 0.5 1
v -0.7 0.5 -1
v -0.6 0 0.9
v -0.6 0 0.5
v -0.6 0 -0.5
v -0.6 0 -0.9
v -0.6 0.2 0.9
v -0.6 0.2 0.5
v -0.6 0.2 -0.5
v -0.6 0.2 -0.9
v -0.6 0.3 0.9
v -0.6 0.3 0.5
v -0.6 0.3 -0.5
v -0.6 0.3 -0.9
v -0.6 0.4 0.9
v -0.6 0.4 0.5
v -0.6 0.4 -0.5
v -0.6 0.4 -0.9
v 0.2 0.2 1
v 0.2 0.2 0.9
v 0.2 0.3 1
v 0.2 0.3 0.9
v 0.5 0.4 0.4
v 0.5 0.4 -0.4
v 0.5 0.5 0.4
v 0.5 0.5 -0.4
v 0.6 0.4 0.9
v 0.6 0.4 0.5
v 0.6 0.4 -0.5
v 0.6 0.4 -0.9
v 0.6 0.5 0.9
v 0.6 0.5 0.5
v 0.6 0.5 -0.5
v 0.6 0.5 -0.9
v 0.7 0.3 0.4
v 0.7 0.3 -0.4
v 0.7 0.4 0.4
v 0.7 0.4 -0.4
v 0.9 0.3 1
v 0.9 0.3 0.4
v 0.9 0.3 -0.4
v 0.9 0.3 -1
v 0.9 0.5 1
v 0.9 0.5 0.4
v 0.9 0.5 -0.4
v 0.9 0.5 -1
v 1 0 1
v 1 0 -1
v 1 0.3 1
v 1 0.3 -1
v -1 0 1
v -1 0.3 1
v -0.9 0 1
v -0.9 0.3 1
v -0.9 0.5 1
v -0.8 0 1
v -0.8 0.5 1
v -0.7 0 1
v -0.7 0.2 1
v -0.7 0.3 1
v -0.7 0.4 1
v -0.7 0.5 1
v 0.2 0.2 1
v 0.2 0.3 1
v 0.3 0 1
v 0.3 0.2 1
v 0.3 0.3 1
v 0.3 0.4 1
v 0.3 0.5 1
v 0.4 0 1
v 0.4 0.5 1
v 0.5 0 1
v 0.5 0.5 1
v 0.6 0 1
v 0.6 0.1 1
v 0.7 0.1 1
v 0.7 0.2 1
v 0.8 0.2 1
v 0.8 0.3 1
v 0.9 0.3 1
v 0.9 0.5 1
v 1 0 1
v 1 0.3 1
v 0.2 0.2 0.9
v 0.2 0.3 0.9
v 0.3 0.2 0.9
v 0.3 0.3 0.9
v -0.6 0 0.5
v -0.6 0.2 0.5
v -0.6 0.3 0.5
v -0.6 0.4 0.5
v 0.2 0 0.5
v 0.2 0.2 0.5
v 0.2 0.3 0.5
v 0.2 0.4 0.5
v 0.6 0.4 0.5
v 0.6 0.5 0.5
v 0.8 0.4 0.5
v 0.8 0.5 0.5
v -0.7 0 -0.4
v -0.7 0.2 -0.4
v -0.7 0.3 -0.4
v -0.7 0.4 -0.4
v 0.3 0 -0.4
v 0.3 0.2 -0.4
v 0.3 0.3 -0.4
v 0.3 0.4 -0.4
v 0.5 0.4 -0.4
v 0.5 0.5 -0.4
v 0.7 0.3 -0.4
v 0.7 0.4 -0.4
v 0.9 0.3 -0.4
v 0.9 0.5 -0.4
v -0.6 0 -0.9
v -0.6 0.2 -0.9
v -0.6 0.3 -0.9
v -0.6 0.4 -0.9
v 0.2 0 -0.9
v 0.2 0.2 -0.9
v 0.2 0.3 -0.9
v 0.2 0.4 -0.9
v 0.6 0.4 -0.9
v 0.6 0.5 -0.9
v 0.8 0.4 -0.9
v 0.8 0.5 -0.9
v -0.6 0 0.9
v -0.6 0.2 0.9
v -0.6 0.3 0.9
v -0.6 0.4 0.9
v 0.2 0 0.9
v 0.2 0.2 0.9
v 0.2 0.3 0.9
v 0.2 0.4 0.9
v 0.6 0.4 0.9
v 0.6 0.5 0.9
v 0.8 0.4 0.9
v 0.8 0.5 0.9
v -0.7 0 0.4
v -0.7 0.2 0.4
v -0.7 0.3 0.4
v -0.7 0.4 0.4
v 0.3 0 0.4
v 0.3 0.2 0.4
v 0.3 0.3 0.4
v 0.3 0.4 0.4
v 0.5 0.4 0.4
v 0.5 0.5 0.4
v 0.7 0.3 0.4
v 0.7 0.4 0.4
v 0.9 0.3 0.4
v 0.9 0.5 0.4
v -0.6 0 -0.5
v -0.6 0.2 -0.5
v -0.6 0.3 -0.5
v -0.6 0.4 -0.5
v 0.2 0 -0.5
v 0.2 0.2 -0.5
v 0.2 0.3 -0.5
v 0.2 0.4 -0.5
v 0.6 0.4 -0.5
v 0.6 0.5 -0.5
v 0.8 0.4 -0.5
v 0.8 0.5 -0.5
v -1 0 -1
v -1 0.3 -1
v -0.9 0 -1
v -0.9 0.3 -1
v -0.9 0.5 -1
v -0.8 0 -1
v -0.8 0.5 -1
v -0.7 0 -1
v -0.7 0.2 -1
v -0.7 0.3 -1
v -0.7 0.4 -1
v -0.7 0.5 -1
v 0.3 0 -1
v 0.3 0.2 -1
v 0.3 0.3 -1
v 0.3 0.4 -1
v 0.3 0.5 -1
v 0.4 0 -1
v 0.4 0.5 -1
v 0.5 0 -1
v 0.5 0.5 -1
v 0.6 0 -1
v 0.6 0.1 -1
v 0.7 0.1 -1
v 0.7 0.2 -1
v 0.8 0.2 -1
v 0.8 0.3 -1
v 0.9 0.3 -1
v 0.9 0.5 -1
v 1 0 -1
v 1 0.3 -1
v -1 0 1
v -0.9 0 1
v -0.8 0 1
v -0.7 0 1
v 0.3 0 1
v 0.4 0 1
v 0.5 0 1
v 0.6 0 1
v 1 0 1
v -0.9 0 0.9
v -0.8 0 0.9
v -0.6 0 0.9
v 0.2 0 0.9
v 0.3 0 0.9
v 0.4 0 0.9
v 0.5 0 0.9
v 0.6 0 0.9
v -0.6 0 0.5
v 0.2 0 0.5
v -0.7 0 0.4
v 0.3 0 0.4
v -0.7 0 -0.4
v 0.3 0 -0.4
v -0.6 0 -0.5
v 0.2 0 -0.5
v -0.9 0 -0.9
v -0.8 0 -0.9
v -0.6 0 -0.9
v 0.2 0 -0.9
v 0.3 0 -0.9
v 0.4 0 -0.9
v 0.5 0 -0.9
v 0.6 0 -0.9
v -1 0 -1
v -0.9 0 -1
v -0.8 0 -1
v -0.7 0 -1
v 0.3 0 -1
v 0.4 0 -1
v 0.5 0 -1
v 0.6 0 -1
v 1 0 -1
v 0.2 0.3 1
v 0.3 0.3 1
v 0.2 0.3 0.9
v 0.3 0.3 0.9
v 0.2 0.2 1
v 0.3 0.2 1
v 0.2 0.2 0.9
v 0.3 0.2 0.9
v -1 0.3 1
v -0.9 0.3 1
v 0.9 0.3 1
v 1 0.3 1
v 0.7 0.3 0.4
v 0.9 0.3 0.4
v 0.7 0.3 -0.4
v 0.9 0.3 -0.4
v -1 0.3 -1
v -0.9 0.3 -1
v 0.9 0.3 -1
v 1 0.3 -1
v -0.7 0.4 1
v 0.3 0.4 1
v -0.6 0.4 0.9
v 0.2 0.4 0.9
v 0.6 0.4 0.9
v 0.8 0.4 0.9
v -0.6 0.4 0.5
v 0.2 0.4 0.5
v 0.6 0.4 0.5
v 0.8 0.4 0.5
v -0.7 0.4 0.4
v 0.3 0.4 0.4
v 0.5 0.4 0.4
v 0.7 0.4 0.4
v -0.7 0.4 -0.4
v 0.3 0.4 -0.4
v 0.5 0.4 -0.4
v 0.7 0.4 -0.4
v -0.6 0.4 -0.5
v 0.2 0.4 -0.5
v 0.6 0.4 -0.5
v 0.8 0.4 -0.5
v -0.6 0.4 -0.9
v 0.2 0.4 -0.9
v 0.6 0.4 -0.9
v 0.8 0.4 -0.9
v -0.7 0.4 -1
v 0.3 0.4 -1
v -0.9 0.5 1
v -0.8 0.5 1
v -0.7 0.5 1
v 0.3 0.5 1
v 0.4 0.5 1
v 0.5 0.5 1
v 0.9 0.5 1
v 0.6 0.5 0.9
v 0.8 0.5 0.9
v 0.6 0.5 0.5
v 0.8 0.5 0.5
v 0.5 0.5 0.4
v 0.9 0.5 0.4
v 0.5 0.5 -0.4
v 0.9 0.5 -0.4
v 0.6 0.5 -0.5
v 0.8 0.5 -0.5
v 0.6 0.5 -0.9
v 0.8 0.5 -0.9
v -0.9 0.5 -1
v -0.8 0.5 -1
v -0.7 0.5 -1
v 0.3 0.5 -1
v 0.4 0.5 -1
v 0.5 0.5 -1
v 0.9 0.5 -1

# faces
f 3/6/1 2/6/1 1/6/1
f 4/6/1 2/6/1 3/6/1
f 7/2/1 6/2/1 5/2/1
f 8/2/1 6/2/1 7/2/1
f 13/6/1 10/6/1 9/6/1
f 14/6/1 10/6/1 13/6/1
f 15/6/1 12/6/1 11/6/1
f 16/6/1 12/6/1 15/6/1
f 17/7/1 14/7/1 13/7/1
f 18/7/1 14/7/1 17/7/1
f 19/7/1 16/7/1 15/7/1
f 20/7/1 16/7/1 19/7/1
f 21/5/1 18/5/1 17/5/1
f 22/5/1 18/5/1 21/5/1
f 23/5/1 20/5/1 19/5/1
f 24/5/1 20/5/1 23/5/1
f 29/6/1 26/6/1 25/6/1
f 30/6/1 26/6/1 29/6/1
f 31/4/1 28/4/1 27/4/1
f 32/4/1 28/4/1 31/4/1
f 33/6/1 30/6/1 29/6/1
f 34/6/1 30/6/1 33/6/1
f 36/4/1 34/4/1 33/4/1
f 37/4/1 34/4/1 36/4/1
f 39/4/1 37/4/1 36/4/1
f 39/4/1 38/4/1 37/4/1
f 39/4/1 36/4/1 35/4/1
f 40/4/1 38/4/1 39/4/1
f 45/7/1 42/7/1 41/7/1
f 46/7/1 42/7/1 45/7/1
f 47/7/1 44/7/1 43/7/1
f 48/7/1 44/7/1 47/7/1
f 49/4/2 50/4/2 51/4/2
f 51/4/2 50/4/2 52/4/2
f 51/4/2 52/4/2 53/4/2
f 53/4/2 52/4/2 54/4/2
f 53/4/2 54/4/2 56/4/2
f 56/4/2 54/4/2 57/4/2
f 56/4/2 57/4/2 59/4/2
f 57/4/2 58/4/2 59/4/2
f 55/4/2 56/4/2 59/4/2
f 59/4/2 58/4/2 60/4/2
f 61/6/2 62/6/2 65/6/2
f 65/6/2 62/6/2 66/6/2
f 63/6/2 64/6/2 67/6/2
f 67/6/2 64/6/2 68/6/2
f 65/7/2 66/7/2 69/7/2
f 69/7/2 66/7/2 70/7/2
f 67/7/2 68/7/2 71/7/2
f 71/7/2 68/7/2 72/7/2
f 69/5/2 70/5/2 73/5/2
f 73/5/2 70/5/2 74/5/2
f 71/5/2 72/5/2 75/5/2
f 75/5/2 72/5/2 76/5/2
f 77/7/2 78/7/2 79/7/2
f 79/7/2 78/7/2 80/7/2
f 81/2/2 82/2/2 83/2/2
f 83/2/2 82/2/2 84/2/2
f 85/7/2 86/7/2 89/7/2
f 89/7/2 86/7/2 90/7/2
f 87/7/2 88/7/2 91/7/2
f 91/7/2 88/7/2 92/7/2
f 93/2/2 94/2/2 95/2/2
f 95/2/2 94/2/2 96/2/2
f 97/7/2 98/7/2 101/7/2
f 101/7/2 98/7/2 102/7/2
f 99/7/2 100/7/2 103/7/2
f 103/7/2 100/7/2 104/7/2
f 105/6/2 106/6/2 107/6/2
f 107/6/2 106/6/2 108/6/2
f 111/6/3 110/6/3 109/6/3
f 112/6/3 110/6/3 111/6/3
f 114/2/3 112/2/3 111/2/3
f 114/2/3 113/2/3 112/2/3
f 115/2/3 113/2/3 114/2/3
f 116/4/3 115/4/3 114/4/3
f 117/4/3 115/4/3 116/4/3
f 118/4/3 115/4/3 117/4/3
f 119/4/3 115/4/3 118/4/3
f 120/4/3 115/4/3 119/4/3
f 121/6/3 117/6/3 116/6/3
f 121/7/3 118/7/3 117/7/3
f 122/5/3 119/5/3 118/5/3
f 122/7/3 118/7/3 121/7/3
f 123/6/3 121/6/3 116/6/3
f 124/6/3 121/6/3 123/6/3
f 125/5/3 119/5/3 122/5/3
f 126/5/3 119/5/3 125/5/3
f 128/4/3 124/4/3 123/4/3
f 128/4/3 127/4/3 126/4/3
f 128/4/3 126/4/3 125/4/3
f 128/4/3 125/4/3 124/4/3
f 129/4/3 127/4/3 128/4/3
f 130/2/3 129/2/3 128/2/3
f 131/2/3 129/2/3 130/2/3
f 132/7/3 131/7/3 130/7/3
f 133/7/3 131/7/3 132/7/3
f 134/6/3 133/6/3 132/6/3
f 134/7/3 131/7/3 133/7/3
f 135/7/3 131/7/3 134/7/3
f 136/6/3 135/6/3 134/6/3
f 136/7/3 131/7/3 135/7/3
f 137/7/3 131/7/3 136/7/3
f 138/6/3 137/6/3 136/6/3
f 138/7/3 131/7/3 137/7/3
f 139/7/3 131/7/3 138/7/3
f 140/6/3 134/6/3 132/6/3
f 140/6/3 136/6/3 134/6/3
f 140/6/3 138/6/3 136/6/3
f 141/6/3 138/6/3 140/6/3
f 144/7/3 143/7/3 142/7/3
f 145/7/3 143/7/3 144/7/3
f 150/6/3 147/6/3 146/6/3
f 151/7/3 148/7/3 147/7/3
f 151/6/3 147/6/3 150/6/3
f 152/5/3 149/5/3 148/5/3
f 152/7/3 148/7/3 151/7/3
f 153/5/3 149/5/3 152/5/3
f 156/7/3 155/7/3 154/7/3
f 157/7/3 155/7/3 156/7/3
f 162/6/3 159/6/3 158/6/3
f 163/7/3 160/7/3 159/7/3
f 163/6/3 159/6/3 162/6/3
f 164/5/3 161/5/3 160/5/3
f 164/7/3 160/7/3 163/7/3
f 165/5/3 161/5/3 164/5/3
f 169/7/3 167/7/3 166/7/3
f 170/7/3 169/7/3 168/7/3
f 171/7/3 167/7/3 169/7/3
f 171/7/3 169/7/3 170/7/3
f 176/6/3 173/6/3 172/6/3
f 177/7/3 174/7/3 173/7/3
f 177/6/3 173/6/3 176/6/3
f 178/5/3 175/5/3 174/5/3
f 178/7/3 174/7/3 177/7/3
f 179/5/3 175/5/3 178/5/3
f 182/7/3 181/7/3 180/7/3
f 183/7/3 181/7/3 182/7/3
f 184/6/4 185/6/4 188/6/4
f 185/7/4 186/7/4 189/7/4
f 188/6/4 185/6/4 189/6/4
f 186/5/4 187/5/4 190/5/4
f 189/7/4 186/7/4 190/7/4
f 190/5/4 187/5/4 191/5/4
f 192/7/4 193/7/4 194/7/4
f 194/7/4 193/7/4 195/7/4
f 196/6/4 197/6/4 200/6/4
f 197/7/4 198/7/4 201/7/4
f 200/6/4 197/6/4 201/6/4
f 198/5/4 199/5/4 202/5/4
f 201/7/4 198/7/4 202/7/4
f 202/5/4 199/5/4 203/5/4
f 204/7/4 205/7/4 207/7/4
f 206/7/4 207/7/4 208/7/4
f 207/7/4 205/7/4 209/7/4
f 208/7/4 207/7/4 209/7/4
f 210/6/4 211/6/4 214/6/4
f 211/7/4 212/7/4 215/7/4
f 214/6/4 211/6/4 215/6/4
f 212/5/4 213/5/4 216/5/4
f 215/7/4 212/7/4 216/7/4
f 216/5/4 213/5/4 217/5/4
f 218/7/4 219/7/4 220/7/4
f 220/7/4 219/7/4 221/7/4
f 222/6/4 223/6/4 224/6/4
f 224/6/4 223/6/4 225/6/4
f 224/2/4 225/2/4 227/2/4
f 225/2/4 226/2/4 227/2/4
f 227/2/4 226/2/4 228/2/4
f 227/4/4 228/4/4 229/4/4
f 229/4/4 228/4/4 230/4/4
f 230/4/4 228/4/4 231/4/4
f 231/4/4 228/4/4 232/4/4
f 232/4/4 228/4/4 233/4/4
f 229/6/4 230/6/4 234/6/4
f 230/7/4 231/7/4 235/7/4
f 234/6/4 230/6/4 235/6/4
f 231/5/4 232/5/4 236/5/4
f 235/7/4 231/7/4 236/7/4
f 236/5/4 232/5/4 237/5/4
f 234/4/4 235/4/4 239/4/4
f 237/4/4 238/4/4 239/4/4
f 236/4/4 237/4/4 239/4/4
f 235/4/4 236/4/4 239/4/4
f 239/4/4 238/4/4 240/4/4
f 239/2/4 240/2/4 241/2/4
f 241/2/4 240/2/4 242/2/4
f 241/7/4 242/7/4 243/7/4
f 243/7/4 242/7/4 244/7/4
f 243/6/4 244/6/4 245/6/4
f 244/7/4 242/7/4 245/7/4
f 245/7/4 242/7/4 246/7/4
f 245/6/4 246/6/4 247/6/4
f 246/7/4 242/7/4 247/7/4
f 247/7/4 242/7/4 248/7/4
f 247/6/4 248/6/4 249/6/4
f 248/7/4 242/7/4 249/7/4
f 249/7/4 242/7/4 250/7/4
f 243/6/4 245/6/4 251/6/4
f 245/6/4 247/6/4 251/6/4
f 247/6/4 249/6/4 251/6/4
f 251/6/4 249/6/4 252/6/4
f 262/6/5 254/6/5 253/6/5
f 262/2/5 255/2/5 254/2/5
f 263/4/5 256/4/5 255/4/5
f 263/2/5 255/2/5 262/2/5
f 264/6/5 257/6/5 256/6/5
f 265/6/5 257/6/5 264/6/5
f 266/4/5 258/4/5 257/4/5
f 266/6/5 257/6/5 265/6/5
f 267/2/5 259/2/5 258/2/5
f 267/4/5 258/4/5 266/4/5
f 268/7/5 260/7/5 259/7/5
f 268/2/5 259/2/5 267/2/5
f 269/6/5 261/6/5 260/6/5
f 269/7/5 260/7/5 268/7/5
f 270/6/5 264/6/5 256/6/5
f 271/6/5 268/6/5 267/6/5
f 271/6/5 267/6/5 266/6/5
f 271/6/5 269/6/5 268/6/5
f 271/6/5 266/6/5 265/6/5
f 272/6/5 270/6/5 256/6/5
f 272/6/5 271/6/5 270/6/5
f 272/4/5 256/4/5 263/4/5
f 273/6/5 269/6/5 271/6/5
f 273/6/5 271/6/5 272/6/5
f 274/4/5 272/4/5 263/4/5
f 275/6/5 269/6/5 273/6/5
f 276/6/5 275/6/5 274/6/5
f 277/6/5 275/6/5 276/6/5
f 278/6/5 263/6/5 262/6/5
f 278/6/5 262/6/5 253/6/5
f 279/4/5 274/4/5 263/4/5
f 279/6/5 263/6/5 278/6/5
f 280/6/5 276/6/5 274/6/5
f 281/6/5 275/6/5 277/6/5
f 282/6/5 269/6/5 275/6/5
f 282/6/5 275/6/5 281/6/5
f 283/6/5 269/6/5 282/6/5
f 284/6/5 269/6/5 283/6/5
f 285/6/5 261/6/5 269/6/5
f 285/6/5 269/6/5 284/6/5
f 286/6/5 278/6/5 253/6/5
f 287/2/5 279/2/5 278/2/5
f 287/6/5 278/6/5 286/6/5
f 288/4/5 274/4/5 279/4/5
f 288/2/5 279/2/5 287/2/5
f 289/6/5 280/6/5 274/6/5
f 289/4/5 274/4/5 288/4/5
f 289/6/5 281/6/5 280/6/5
f 289/6/5 282/6/5 281/6/5
f 290/4/5 283/4/5 282/4/5
f 290/6/5 282/6/5 289/6/5
f 291/2/5 284/2/5 283/2/5
f 291/4/5 283/4/5 290/4/5
f 292/7/5 285/7/5 284/7/5
f 292/2/5 284/2/5 291/2/5
f 293/6/5 261/6/5 285/6/5
f 293/7/5 285/7/5 292/7/5
f 294/6/5 261/6/5 293/6/5
f 297/5/5 296/5/5 295/5/5
f 298/5/5 296/5/5 297/5/5
f 299/6/6 300/6/6 301/6/6
f 301/6/6 300/6/6 302/6/6
f 305/6/6 306/6/6 308/6/6
f 307/6/6 308/6/6 309/6/6
f 308/6/6 306/6/6 310/6/6
f 309/6/6 308/6/6 310/6/6
f 303/6/6 304/6/6 311/6/6
f 311/6/6 304/6/6 312/6/6
f 310/6/6 306/6/6 313/6/6
f 313/6/6 306/6/6 314/6/6
f 315/5/6 316/5/6 317/5/6
f 317/5/6 316/5/6 318/5/6
f 315/5/6 317/5/6 321/5/6
f 318/5/6 316/5/6 322/5/6
f 319/1/6 320/1/6 323/1/6
f 323/1/6 320/1/6 324/1/6
f 321/5/6 322/5/6 325/5/6
f 315/5/6 321/5/6 325/5/6
f 322/5/6 316/5/6 326/5/6
f 325/5/6 322/5/6 326/5/6
f 327/2/6 328/2/6 331/2/6
f 331/2/6 328/2/6 332/2/6
f 329/5/6 330/5/6 333/5/6
f 333/5/6 330/5/6 334/5/6
f 329/5/6 333/5/6 337/5/6
f 334/5/6 330/5/6 338/5/6
f 335/1/6 336/1/6 339/1/6
f 339/1/6 336/1/6 340/1/6
f 329/5/6 337/5/6 341/5/6
f 337/5/6 338/5/6 341/5/6
f 338/5/6 330/5/6 342/5/6
f 341/5/6 338/5/6 342/5/6
f 348/7/6 349/7/6 350/7/6
f 350/7/6 349/7/6 351/7/6
f 348/7/6 350/7/6 352/7/6
f 351/7/6 349/7/6 353/7/6
f 347/2/6 348/2/6 354/2/6
f 352/7/6 353/7/6 354/7/6
f 348/7/6 352/7/6 354/7/6
f 353/7/6 349/7/6 355/7/6
f 354/7/6 353/7/6 355/7/6
f 347/2/6 354/2/6 356/2/6
f 356/7/6 357/7/6 358/7/6
f 358/7/6 357/7/6 359/7/6
f 356/7/6 358/7/6 360/7/6
f 359/7/6 357/7/6 361/7/6
f 343/2/6 344/2/6 362/2/6
f 344/4/6 345/4/6 363/4/6
f 362/2/6 344/2/6 363/2/6
f 363/4/6 345/4/6 364/4/6
f 346/4/6 347/4/6 365/4/6
f 347/2/6 356/2/6 366/2/6
f 365/4/6 347/4/6 366/4/6
f 360/7/6 361/7/6 367/7/6
f 366/2/6 356/2/6 367/2/6
f 356/7/6 360/7/6 367/7/6
f 361/7/6 357/7/6 368/7/6
f 367/7/6 361/7/6 368/7/6
