# MagicaVoxel @ Ephtracy

# group
o 

# material
mtllib baggage.vox.mtl
usemtl palette

# normals
vn -1 0 0
vn 1 0 0
vn 0 0 1
vn 0 0 -1
vn 0 -1 0
vn 0 1 0

# texcoords
vt 0.931641 0.5
vt 0.935547 0.5
vt 0.951172 0.5
vt 0.955078 0.5

# verts
v -1.5 0 0.6
v -1.5 0 0.5
v -1.5 0 0.4
v -1.5 0 -0.4
v -1.5 0 -0.5
v -1.5 0 -0.6
v -1.5 0.1 0.6
v -1.5 0.1 0.5
v -1.5 0.1 -0.5
v -1.5 0.1 -0.6
v -1.5 0.3 0.4
v -1.5 0.3 -0.4
v -1.5 0.4 0.5
v -1.5 0.4 0.4
v -1.5 0.4 -0.4
v -1.5 0.4 -0.5
v 1.5 0 0.6
v 1.5 0 0.5
v 1.5 0 0.4
v 1.5 0 -0.4
v 1.5 0 -0.5
v 1.5 0 -0.6
v 1.5 0.1 0.6
v 1.5 0.1 0.5
v 1.5 0.1 -0.5
v 1.5 0.1 -0.6
v 1.5 0.3 0.4
v 1.5 0.3 -0.4
v 1.5 0.4 0.5
v 1.5 0.4 0.4
v 1.5 0.4 -0.4
v 1.5 0.4 -0.5
v -1.5 0 0.6
v -1.5 0.1 0.6
v 1.5 0 0.6
v 1.5 0.1 0.6
v -1.5 0.1 0.5
v -1.5 0.4 0.5
v 1.5 0.1 0.5
v 1.5 0.4 0.5
v -1.5 0.3 -0.4
v -1.5 0.4 -0.4
v -1.3 0.3 -0.4
v -1.1 0.3 -0.4
v -0.9 0.3 -0.4
v -0.7 0.3 -0.4
v -0.5 0.3 -0.4
v -0.3 0.3 -0.4
v -0.1 0.3 -0.4
v 0.1 0.3 -0.4
v 0.3 0.3 -0.4
v 0.5 0.3 -0.4
v 0.7 0.3 -0.4
v 0.9 0.3 -0.4
v 1.1 0.3 -0.4
v 1.3 0.3 -0.4
v 1.5 0.3 -0.4
v 1.5 0.4 -0.4
v -1.5 0.3 0.4
v -1.5 0.4 0.4
v -1.3 0.3 0.4
v -1.1 0.3 0.4
v -0.9 0.3 0.4
v -0.7 0.3 0.4
v -0.5 0.3 0.4
v -0.3 0.3 0.4
v -0.1 0.3 0.4
v 0.1 0.3 0.4
v 0.3 0.3 0.4
v 0.5 0.3 0.4
v 0.7 0.3 0.4
v 0.9 0.3 0.4
v 1.1 0.3 0.4
v 1.3 0.3 0.4
v 1.5 0.3 0.4
v 1.5 0.4 0.4
v -1.5 0.1 -0.5
v -1.5 0.4 -0.5
v 1.5 0.1 -0.5
v 1.5 0.4 -0.5
v -1.5 0 -0.6
v -1.5 0.1 -0.6
v 1.5 0 -0.6
v 1.5 0.1 -0.6
v -1.5 0 0.6
v 1.5 0 0.6
v -1.5 0 0.5
v 1.5 0 0.5
v -1.5 0 0.4
v 1.5 0 0.4
v -1.5 0 -0.4
v 1.5 0 -0.4
v -1.5 0 -0.5
v 1.5 0 -0.5
v -1.5 0 -0.6
v 1.5 0 -0.6
v -1.5 0.1 0.6
v 1.5 0.1 0.6
v -1.5 0.1 0.5
v 1.5 0.1 0.5
v -1.5 0.1 -0.5
v 1.5 0.1 -0.5
v -1.5 0.1 -0.6
v 1.5 0.1 -0.6
v -1.5 0.3 0.4
v -1.3 0.3 0.4
v -1.1 0.3 0.4
v -0.9 0.3 0.4
v -0.7 0.3 0.4
v -0.5 0.3 0.4
v -0.3 0.3 0.4
v -0.1 0.3 0.4
v 0.1 0.3 0.4
v 0.3 0.3 0.4
v 0.5 0.3 0.4
v 0.7 0.3 0.4
v 0.9 0.3 0.4
v 1.1 0.3 0.4
v 1.3 0.3 0.4
v 1.5 0.3 0.4
v -1.5 0.3 -0.4
v -1.3 0.3 -0.4
v -1.1 0.3 -0.4
v -0.9 0.3 -0.4
v -0.7 0.3 -0.4
v -0.5 0.3 -0.4
v -0.3 0.3 -0.4
v -0.1 0.3 -0.4
v 0.1 0.3 -0.4
v 0.3 0.3 -0.4
v 0.5 0.3 -0.4
v 0.7 0.3 -0.4
v 0.9 0.3 -0.4
v 1.1 0.3 -0.4
v 1.3 0.3 -0.4
v 1.5 0.3 -0.4
v -1.5 0.4 0.5
v 1.5 0.4 0.5
v -1.5 0.4 0.4
v 1.5 0.4 0.4
v -1.5 0.4 -0.4
v 1.5 0.4 -0.4
v -1.5 0.4 -0.5
v 1.5 0.4 -0.5

# faces
f 7/2/1 2/2/1 1/2/1
f 8/1/1 3/1/1 2/1/1
f 8/2/1 2/2/1 7/2/1
f 9/2/1 6/2/1 5/2/1
f 9/1/1 5/1/1 4/1/1
f 10/2/1 6/2/1 9/2/1
f 11/1/1 3/1/1 8/1/1
f 11/4/1 4/4/1 3/4/1
f 12/1/1 9/1/1 4/1/1
f 12/4/1 4/4/1 11/4/1
f 13/1/1 11/1/1 8/1/1
f 14/1/1 11/1/1 13/1/1
f 15/1/1 9/1/1 12/1/1
f 16/1/1 9/1/1 15/1/1
f 17/2/2 18/2/2 23/2/2
f 18/1/2 19/1/2 24/1/2
f 23/2/2 18/2/2 24/2/2
f 21/2/2 22/2/2 25/2/2
f 20/1/2 21/1/2 25/1/2
f 25/2/2 22/2/2 26/2/2
f 24/1/2 19/1/2 27/1/2
f 19/4/2 20/4/2 27/4/2
f 20/1/2 25/1/2 28/1/2
f 27/4/2 20/4/2 28/4/2
f 24/1/2 27/1/2 29/1/2
f 29/1/2 27/1/2 30/1/2
f 28/1/2 25/1/2 31/1/2
f 31/1/2 25/1/2 32/1/2
f 35/2/3 34/2/3 33/2/3
f 36/2/3 34/2/3 35/2/3
f 39/1/3 38/1/3 37/1/3
f 40/1/3 38/1/3 39/1/3
f 43/1/3 42/1/3 41/1/3
f 44/1/3 42/1/3 43/1/3
f 45/1/3 42/1/3 44/1/3
f 46/1/3 42/1/3 45/1/3
f 47/1/3 42/1/3 46/1/3
f 48/1/3 42/1/3 47/1/3
f 49/1/3 42/1/3 48/1/3
f 50/1/3 42/1/3 49/1/3
f 51/1/3 42/1/3 50/1/3
f 52/1/3 42/1/3 51/1/3
f 53/1/3 42/1/3 52/1/3
f 54/1/3 42/1/3 53/1/3
f 55/1/3 42/1/3 54/1/3
f 56/1/3 42/1/3 55/1/3
f 57/1/3 42/1/3 56/1/3
f 58/1/3 42/1/3 57/1/3
f 59/1/4 60/1/4 61/1/4
f 61/1/4 60/1/4 62/1/4
f 62/1/4 60/1/4 63/1/4
f 63/1/4 60/1/4 64/1/4
f 64/1/4 60/1/4 65/1/4
f 65/1/4 60/1/4 66/1/4
f 66/1/4 60/1/4 67/1/4
f 67/1/4 60/1/4 68/1/4
f 68/1/4 60/1/4 69/1/4
f 69/1/4 60/1/4 70/1/4
f 70/1/4 60/1/4 71/1/4
f 71/1/4 60/1/4 72/1/4
f 72/1/4 60/1/4 73/1/4
f 73/1/4 60/1/4 74/1/4
f 74/1/4 60/1/4 75/1/4
f 75/1/4 60/1/4 76/1/4
f 77/1/4 78/1/4 79/1/4
f 79/1/4 78/1/4 80/1/4
f 81/2/4 82/2/4 83/2/4
f 83/2/4 82/2/4 84/2/4
f 87/2/5 86/2/5 85/2/5
f 88/2/5 86/2/5 87/2/5
f 89/1/5 88/1/5 87/1/5
f 90/1/5 88/1/5 89/1/5
f 91/4/5 90/4/5 89/4/5
f 92/4/5 90/4/5 91/4/5
f 93/1/5 92/1/5 91/1/5
f 94/1/5 92/1/5 93/1/5
f 95/2/5 94/2/5 93/2/5
f 96/2/5 94/2/5 95/2/5
f 97/2/6 98/2/6 99/2/6
f 99/2/6 98/2/6 100/2/6
f 101/2/6 102/2/6 103/2/6
f 103/2/6 102/2/6 104/2/6
f 105/4/6 106/4/6 121/4/6
f 106/3/6 107/3/6 122/3/6
f 121/4/6 106/4/6 122/4/6
f 107/4/6 108/4/6 123/4/6
f 122/3/6 107/3/6 123/3/6
f 108/3/6 109/3/6 124/3/6
f 123/4/6 108/4/6 124/4/6
f 109/4/6 110/4/6 125/4/6
f 124/3/6 109/3/6 125/3/6
f 110/3/6 111/3/6 126/3/6
f 125/4/6 110/4/6 126/4/6
f 111/4/6 112/4/6 127/4/6
f 126/3/6 111/3/6 127/3/6
f 112/3/6 113/3/6 128/3/6
f 127/4/6 112/4/6 128/4/6
f 113/4/6 114/4/6 129/4/6
f 128/3/6 113/3/6 129/3/6
f 114/3/6 115/3/6 130/3/6
f 129/4/6 114/4/6 130/4/6
f 115/4/6 116/4/6 131/4/6
f 130/3/6 115/3/6 131/3/6
f 116/3/6 117/3/6 132/3/6
f 131/4/6 116/4/6 132/4/6
f 117/4/6 118/4/6 133/4/6
f 132/3/6 117/3/6 133/3/6
f 118/3/6 119/3/6 134/3/6
f 133/4/6 118/4/6 134/4/6
f 119/4/6 120/4/6 135/4/6
f 134/3/6 119/3/6 135/3/6
f 135/4/6 120/4/6 136/4/6
f 137/1/6 138/1/6 139/1/6
f 139/1/6 138/1/6 140/1/6
f 141/1/6 142/1/6 143/1/6
f 143/1/6 142/1/6 144/1/6
