# MagicaVoxel @ Ephtracy

# group
o 

# material
mtllib baggage corner.vox.mtl
usemtl palette

# normals
vn -1 0 0
vn 1 0 0
vn 0 0 1
vn 0 0 -1
vn 0 -1 0
vn 0 1 0

# texcoords
vt 0.931641 0.5
vt 0.935547 0.5
vt 0.951172 0.5
vt 0.955078 0.5

# verts
v -0.6 0 0.6
v -0.6 0 0.5
v -0.6 0 0.4
v -0.6 0 -0.4
v -0.6 0 -0.5
v -0.6 0 -0.6
v -0.6 0.1 0.6
v -0.6 0.1 0.5
v -0.6 0.1 -0.5
v -0.6 0.1 -0.6
v -0.6 0.3 0.4
v -0.6 0.3 -0.4
v -0.6 0.4 0.5
v -0.6 0.4 0.4
v -0.6 0.4 -0.4
v -0.6 0.4 -0.5
v -0.5 0.1 -0.5
v -0.5 0.1 -0.6
v -0.5 0.4 -0.5
v -0.5 0.4 -0.6
v 0.4 0.3 0.4
v 0.4 0.3 -0.4
v 0.4 0.3 -0.6
v 0.4 0.4 0.4
v 0.4 0.4 -0.6
v -0.4 0.3 -0.4
v -0.4 0.3 -0.6
v -0.4 0.4 -0.4
v -0.4 0.4 -0.6
v 0.5 0.1 0.5
v 0.5 0.1 -0.6
v 0.5 0.4 0.5
v 0.5 0.4 -0.6
v 0.6 0 0.6
v 0.6 0 -0.6
v 0.6 0.1 0.6
v 0.6 0.1 -0.6
v -0.6 0 0.6
v -0.6 0.1 0.6
v 0.6 0 0.6
v 0.6 0.1 0.6
v -0.6 0.1 0.5
v -0.6 0.4 0.5
v 0.5 0.1 0.5
v 0.5 0.4 0.5
v -0.6 0.3 -0.4
v -0.6 0.4 -0.4
v -0.5 0.3 -0.4
v -0.4 0.3 -0.4
v -0.4 0.4 -0.4
v -0.6 0.3 0.4
v -0.6 0.4 0.4
v -0.5 0.3 0.4
v -0.3 0.3 0.4
v -0.1 0.3 0.4
v 0.1 0.3 0.4
v 0.3 0.3 0.4
v 0.4 0.3 0.4
v 0.4 0.4 0.4
v -0.6 0.1 -0.5
v -0.6 0.4 -0.5
v -0.5 0.1 -0.5
v -0.5 0.4 -0.5
v -0.6 0 -0.6
v -0.6 0.1 -0.6
v -0.5 0 -0.6
v -0.5 0.1 -0.6
v -0.5 0.4 -0.6
v -0.4 0 -0.6
v -0.4 0.3 -0.6
v -0.4 0.4 -0.6
v 0.4 0 -0.6
v 0.4 0.3 -0.6
v 0.4 0.4 -0.6
v 0.5 0 -0.6
v 0.5 0.1 -0.6
v 0.5 0.4 -0.6
v 0.6 0 -0.6
v 0.6 0.1 -0.6
v -0.6 0 0.6
v 0.6 0 0.6
v -0.6 0 0.5
v 0.5 0 0.5
v -0.6 0 0.4
v 0.4 0 0.4
v -0.6 0 -0.4
v -0.4 0 -0.4
v -0.6 0 -0.5
v -0.5 0 -0.5
v -0.6 0 -0.6
v -0.5 0 -0.6
v -0.4 0 -0.6
v 0.4 0 -0.6
v 0.5 0 -0.6
v 0.6 0 -0.6
v -0.6 0.1 0.6
v 0.6 0.1 0.6
v -0.6 0.1 0.5
v 0.5 0.1 0.5
v -0.6 0.1 -0.5
v -0.5 0.1 -0.5
v -0.6 0.1 -0.6
v -0.5 0.1 -0.6
v 0.5 0.1 -0.6
v 0.6 0.1 -0.6
v -0.6 0.3 0.4
v -0.5 0.3 0.4
v -0.3 0.3 0.4
v -0.1 0.3 0.4
v 0.1 0.3 0.4
v 0.3 0.3 0.4
v 0.4 0.3 0.4
v -0.6 0.3 -0.4
v -0.5 0.3 -0.4
v -0.4 0.3 -0.4
v -0.3 0.3 -0.4
v -0.1 0.3 -0.4
v 0.1 0.3 -0.4
v 0.3 0.3 -0.4
v 0.4 0.3 -0.4
v -0.4 0.3 -0.6
v 0.4 0.3 -0.6
v -0.6 0.4 0.5
v 0.5 0.4 0.5
v -0.6 0.4 0.4
v 0.4 0.4 0.4
v -0.6 0.4 -0.4
v -0.4 0.4 -0.4
v -0.6 0.4 -0.5
v -0.5 0.4 -0.5
v -0.5 0.4 -0.6
v -0.4 0.4 -0.6
v 0.4 0.4 -0.6
v 0.5 0.4 -0.6

# faces
f 7/2/1 2/2/1 1/2/1
f 8/1/1 3/1/1 2/1/1
f 8/2/1 2/2/1 7/2/1
f 9/2/1 6/2/1 5/2/1
f 9/1/1 5/1/1 4/1/1
f 10/2/1 6/2/1 9/2/1
f 11/1/1 3/1/1 8/1/1
f 11/4/1 4/4/1 3/4/1
f 12/1/1 9/1/1 4/1/1
f 12/4/1 4/4/1 11/4/1
f 13/1/1 11/1/1 8/1/1
f 14/1/1 11/1/1 13/1/1
f 15/1/1 9/1/1 12/1/1
f 16/1/1 9/1/1 15/1/1
f 19/1/1 18/1/1 17/1/1
f 20/1/1 18/1/1 19/1/1
f 24/1/1 22/1/1 21/1/1
f 24/1/1 23/1/1 22/1/1
f 25/1/1 23/1/1 24/1/1
f 26/1/2 27/1/2 28/1/2
f 28/1/2 27/1/2 29/1/2
f 30/1/2 31/1/2 32/1/2
f 32/1/2 31/1/2 33/1/2
f 34/2/2 35/2/2 36/2/2
f 36/2/2 35/2/2 37/2/2
f 40/2/3 39/2/3 38/2/3
f 41/2/3 39/2/3 40/2/3
f 44/1/3 43/1/3 42/1/3
f 45/1/3 43/1/3 44/1/3
f 48/1/3 47/1/3 46/1/3
f 49/1/3 47/1/3 48/1/3
f 50/1/3 47/1/3 49/1/3
f 51/1/4 52/1/4 53/1/4
f 53/1/4 52/1/4 54/1/4
f 54/1/4 52/1/4 55/1/4
f 55/1/4 52/1/4 56/1/4
f 56/1/4 52/1/4 57/1/4
f 57/1/4 52/1/4 58/1/4
f 58/1/4 52/1/4 59/1/4
f 60/1/4 61/1/4 62/1/4
f 62/1/4 61/1/4 63/1/4
f 64/2/4 65/2/4 66/2/4
f 66/2/4 65/2/4 67/2/4
f 66/1/4 67/1/4 69/1/4
f 67/1/4 68/1/4 69/1/4
f 69/1/4 68/1/4 70/1/4
f 70/1/4 68/1/4 71/1/4
f 69/4/4 70/4/4 72/4/4
f 72/4/4 70/4/4 73/4/4
f 72/1/4 73/1/4 75/1/4
f 73/1/4 74/1/4 75/1/4
f 75/1/4 74/1/4 76/1/4
f 76/1/4 74/1/4 77/1/4
f 75/2/4 76/2/4 78/2/4
f 78/2/4 76/2/4 79/2/4
f 82/2/5 81/2/5 80/2/5
f 83/2/5 81/2/5 82/2/5
f 84/1/5 83/1/5 82/1/5
f 85/1/5 83/1/5 84/1/5
f 86/4/5 85/4/5 84/4/5
f 87/4/5 85/4/5 86/4/5
f 88/1/5 87/1/5 86/1/5
f 89/1/5 87/1/5 88/1/5
f 90/2/5 89/2/5 88/2/5
f 91/1/5 87/1/5 89/1/5
f 91/2/5 89/2/5 90/2/5
f 92/4/5 85/4/5 87/4/5
f 92/1/5 87/1/5 91/1/5
f 93/1/5 83/1/5 85/1/5
f 93/4/5 85/4/5 92/4/5
f 94/2/5 81/2/5 83/2/5
f 94/1/5 83/1/5 93/1/5
f 95/2/5 81/2/5 94/2/5
f 96/2/6 97/2/6 98/2/6
f 98/2/6 97/2/6 99/2/6
f 100/2/6 101/2/6 102/2/6
f 102/2/6 101/2/6 103/2/6
f 99/2/6 97/2/6 104/2/6
f 104/2/6 97/2/6 105/2/6
f 106/4/6 107/4/6 113/4/6
f 107/3/6 108/3/6 114/3/6
f 113/4/6 107/4/6 114/4/6
f 114/3/6 108/3/6 115/3/6
f 108/4/6 109/4/6 116/4/6
f 115/3/6 108/3/6 116/3/6
f 109/3/6 110/3/6 117/3/6
f 116/4/6 109/4/6 117/4/6
f 110/4/6 111/4/6 118/4/6
f 117/3/6 110/3/6 118/3/6
f 111/3/6 112/3/6 119/3/6
f 118/4/6 111/4/6 119/4/6
f 119/3/6 112/3/6 120/3/6
f 117/4/6 118/4/6 121/4/6
f 119/4/6 120/4/6 121/4/6
f 118/4/6 119/4/6 121/4/6
f 116/4/6 117/4/6 121/4/6
f 115/4/6 116/4/6 121/4/6
f 121/4/6 120/4/6 122/4/6
f 123/1/6 124/1/6 125/1/6
f 125/1/6 124/1/6 126/1/6
f 127/1/6 128/1/6 129/1/6
f 129/1/6 128/1/6 130/1/6
f 130/1/6 128/1/6 131/1/6
f 131/1/6 128/1/6 132/1/6
f 126/1/6 124/1/6 133/1/6
f 133/1/6 124/1/6 134/1/6
