# MagicaVoxel @ Ephtracy

# group
o 

# material
mtllib bong.mtl
usemtl palette

# normals
vn -1 0 0
vn 1 0 0
vn 0 0 1
vn 0 0 -1
vn 0 -1 0
vn 0 1 0

# texcoords
vt 0.564453 0.5
vt 0.572266 0.5
vt 0.591797 0.5

# verts
v -0.3 0 0.3
v -0.3 0 -0.2
v -0.3 0.1 0.3
v -0.3 0.1 -0.2
v -0.3 0.2 0.3
v -0.3 0.2 -0.2
v -0.3 0.7 0.3
v -0.3 0.7 -0.2
v -0.2 0.1 0.2
v -0.2 0.1 -0.1
v -0.2 0.2 0.2
v -0.2 0.2 -0.1
v -0.2 0.4 -0.2
v -0.2 0.4 -0.3
v -0.2 0.6 -0.2
v -0.2 0.6 -0.3
v -0.2 0.7 0.2
v -0.2 0.7 -0.1
v -0.2 1.4 0.2
v -0.2 1.4 -0.1
v -0.2 1.5 0.2
v -0.2 1.5 -0.1
v -0.2 1.6 0.2
v -0.2 1.6 -0.1
v 0 0.5 -0.2
v 0 0.5 -0.3
v 0 0.6 -0.2
v 0 0.6 -0.3
v 0 0.7 0.1
v 0 0.7 0
v 0 1.4 0.1
v 0 1.4 0
v 0 1.5 0.1
v 0 1.5 0
v 0 1.6 0.1
v 0 1.6 0
v -0.1 0.5 -0.2
v -0.1 0.5 -0.3
v -0.1 0.6 -0.2
v -0.1 0.6 -0.3
v -0.1 0.7 0.1
v -0.1 0.7 0
v -0.1 1.4 0.1
v -0.1 1.4 0
v -0.1 1.5 0.1
v -0.1 1.5 0
v -0.1 1.6 0.1
v -0.1 1.6 0
v 0.1 0.1 0.2
v 0.1 0.1 -0.1
v 0.1 0.2 0.2
v 0.1 0.2 -0.1
v 0.1 0.4 -0.2
v 0.1 0.4 -0.3
v 0.1 0.6 -0.2
v 0.1 0.6 -0.3
v 0.1 0.7 0.2
v 0.1 0.7 -0.1
v 0.1 1.4 0.2
v 0.1 1.4 -0.1
v 0.1 1.5 0.2
v 0.1 1.5 -0.1
v 0.1 1.6 0.2
v 0.1 1.6 -0.1
v 0.2 0 0.3
v 0.2 0 -0.2
v 0.2 0.1 0.3
v 0.2 0.1 -0.2
v 0.2 0.2 0.3
v 0.2 0.2 -0.2
v 0.2 0.7 0.3
v 0.2 0.7 -0.2
v -0.3 0 0.3
v -0.3 0.1 0.3
v -0.3 0.2 0.3
v -0.3 0.7 0.3
v 0.2 0 0.3
v 0.2 0.1 0.3
v 0.2 0.2 0.3
v 0.2 0.7 0.3
v -0.2 0.1 0.2
v -0.2 0.2 0.2
v -0.2 0.7 0.2
v -0.2 1.4 0.2
v -0.2 1.5 0.2
v -0.2 1.6 0.2
v 0.1 0.1 0.2
v 0.1 0.2 0.2
v 0.1 0.7 0.2
v 0.1 1.4 0.2
v 0.1 1.5 0.2
v 0.1 1.6 0.2
v -0.1 0.7 0
v -0.1 1.4 0
v -0.1 1.5 0
v -0.1 1.6 0
v 0 0.7 0
v 0 1.4 0
v 0 1.5 0
v 0 1.6 0
v -0.1 0.7 0.1
v -0.1 1.4 0.1
v -0.1 1.5 0.1
v -0.1 1.6 0.1
v 0 0.7 0.1
v 0 1.4 0.1
v 0 1.5 0.1
v 0 1.6 0.1
v -0.2 0.1 -0.1
v -0.2 0.2 -0.1
v -0.2 0.7 -0.1
v -0.2 1.4 -0.1
v -0.2 1.5 -0.1
v -0.2 1.6 -0.1
v 0.1 0.1 -0.1
v 0.1 0.2 -0.1
v 0.1 0.7 -0.1
v 0.1 1.4 -0.1
v 0.1 1.5 -0.1
v 0.1 1.6 -0.1
v -0.3 0 -0.2
v -0.3 0.1 -0.2
v -0.3 0.2 -0.2
v -0.3 0.7 -0.2
v -0.2 0.4 -0.2
v -0.2 0.6 -0.2
v -0.1 0.5 -0.2
v -0.1 0.6 -0.2
v 0 0.5 -0.2
v 0 0.6 -0.2
v 0.1 0.4 -0.2
v 0.1 0.6 -0.2
v 0.2 0 -0.2
v 0.2 0.1 -0.2
v 0.2 0.2 -0.2
v 0.2 0.7 -0.2
v -0.2 0.4 -0.3
v -0.2 0.6 -0.3
v -0.1 0.5 -0.3
v -0.1 0.6 -0.3
v 0 0.5 -0.3
v 0 0.6 -0.3
v 0.1 0.4 -0.3
v 0.1 0.6 -0.3
v -0.3 0 0.3
v 0.2 0 0.3
v -0.3 0 -0.2
v 0.2 0 -0.2
v -0.3 0.2 0.3
v 0.2 0.2 0.3
v -0.2 0.2 0.2
v 0.1 0.2 0.2
v -0.2 0.2 -0.1
v 0.1 0.2 -0.1
v -0.3 0.2 -0.2
v 0.2 0.2 -0.2
v -0.2 0.4 -0.2
v 0.1 0.4 -0.2
v -0.2 0.4 -0.3
v 0.1 0.4 -0.3
v -0.3 0.1 0.3
v 0.2 0.1 0.3
v -0.2 0.1 0.2
v 0.1 0.1 0.2
v -0.2 0.1 -0.1
v 0.1 0.1 -0.1
v -0.3 0.1 -0.2
v 0.2 0.1 -0.2
v -0.1 0.5 -0.2
v 0 0.5 -0.2
v -0.1 0.5 -0.3
v 0 0.5 -0.3
v -0.2 0.6 -0.2
v -0.1 0.6 -0.2
v 0 0.6 -0.2
v 0.1 0.6 -0.2
v -0.2 0.6 -0.3
v -0.1 0.6 -0.3
v 0 0.6 -0.3
v 0.1 0.6 -0.3
v -0.3 0.7 0.3
v 0.2 0.7 0.3
v -0.2 0.7 0.2
v 0.1 0.7 0.2
v -0.1 0.7 0.1
v 0 0.7 0.1
v -0.1 0.7 0
v 0 0.7 0
v -0.2 0.7 -0.1
v 0.1 0.7 -0.1
v -0.3 0.7 -0.2
v 0.2 0.7 -0.2
v -0.2 1.6 0.2
v 0.1 1.6 0.2
v -0.1 1.6 0.1
v 0 1.6 0.1
v -0.1 1.6 0
v 0 1.6 0
v -0.2 1.6 -0.1
v 0.1 1.6 -0.1

# faces
f 3/2/1 2/2/1 1/2/1
f 4/2/1 2/2/1 3/2/1
f 7/3/1 6/3/1 5/3/1
f 8/3/1 6/3/1 7/3/1
f 11/3/1 10/3/1 9/3/1
f 12/3/1 10/3/1 11/3/1
f 15/1/1 14/1/1 13/1/1
f 16/1/1 14/1/1 15/1/1
f 19/1/1 18/1/1 17/1/1
f 20/1/1 18/1/1 19/1/1
f 21/2/1 20/2/1 19/2/1
f 22/2/1 20/2/1 21/2/1
f 23/3/1 22/3/1 21/3/1
f 24/3/1 22/3/1 23/3/1
f 27/1/1 26/1/1 25/1/1
f 28/1/1 26/1/1 27/1/1
f 31/1/1 30/1/1 29/1/1
f 32/1/1 30/1/1 31/1/1
f 33/2/1 32/2/1 31/2/1
f 34/2/1 32/2/1 33/2/1
f 35/3/1 34/3/1 33/3/1
f 36/3/1 34/3/1 35/3/1
f 37/1/2 38/1/2 39/1/2
f 39/1/2 38/1/2 40/1/2
f 41/1/2 42/1/2 43/1/2
f 43/1/2 42/1/2 44/1/2
f 43/2/2 44/2/2 45/2/2
f 45/2/2 44/2/2 46/2/2
f 45/3/2 46/3/2 47/3/2
f 47/3/2 46/3/2 48/3/2
f 49/3/2 50/3/2 51/3/2
f 51/3/2 50/3/2 52/3/2
f 53/1/2 54/1/2 55/1/2
f 55/1/2 54/1/2 56/1/2
f 57/1/2 58/1/2 59/1/2
f 59/1/2 58/1/2 60/1/2
f 59/2/2 60/2/2 61/2/2
f 61/2/2 60/2/2 62/2/2
f 61/3/2 62/3/2 63/3/2
f 63/3/2 62/3/2 64/3/2
f 65/2/2 66/2/2 67/2/2
f 67/2/2 66/2/2 68/2/2
f 69/3/2 70/3/2 71/3/2
f 71/3/2 70/3/2 72/3/2
f 77/2/3 74/2/3 73/2/3
f 78/2/3 74/2/3 77/2/3
f 79/3/3 76/3/3 75/3/3
f 80/3/3 76/3/3 79/3/3
f 87/3/3 82/3/3 81/3/3
f 88/3/3 82/3/3 87/3/3
f 89/1/3 84/1/3 83/1/3
f 90/2/3 85/2/3 84/2/3
f 90/1/3 84/1/3 89/1/3
f 91/3/3 86/3/3 85/3/3
f 91/2/3 85/2/3 90/2/3
f 92/3/3 86/3/3 91/3/3
f 97/1/3 94/1/3 93/1/3
f 98/2/3 95/2/3 94/2/3
f 98/1/3 94/1/3 97/1/3
f 99/3/3 96/3/3 95/3/3
f 99/2/3 95/2/3 98/2/3
f 100/3/3 96/3/3 99/3/3
f 101/1/4 102/1/4 105/1/4
f 102/2/4 103/2/4 106/2/4
f 105/1/4 102/1/4 106/1/4
f 103/3/4 104/3/4 107/3/4
f 106/2/4 103/2/4 107/2/4
f 107/3/4 104/3/4 108/3/4
f 109/3/4 110/3/4 115/3/4
f 115/3/4 110/3/4 116/3/4
f 111/1/4 112/1/4 117/1/4
f 112/2/4 113/2/4 118/2/4
f 117/1/4 112/1/4 118/1/4
f 113/3/4 114/3/4 119/3/4
f 118/2/4 113/2/4 119/2/4
f 119/3/4 114/3/4 120/3/4
f 123/3/4 124/3/4 125/3/4
f 125/3/4 124/3/4 126/3/4
f 126/3/4 124/3/4 128/3/4
f 127/3/4 128/3/4 129/3/4
f 128/3/4 124/3/4 130/3/4
f 129/3/4 128/3/4 130/3/4
f 123/3/4 125/3/4 131/3/4
f 130/3/4 124/3/4 132/3/4
f 121/2/4 122/2/4 133/2/4
f 133/2/4 122/2/4 134/2/4
f 131/3/4 132/3/4 135/3/4
f 123/3/4 131/3/4 135/3/4
f 132/3/4 124/3/4 136/3/4
f 135/3/4 132/3/4 136/3/4
f 137/1/4 138/1/4 139/1/4
f 139/1/4 138/1/4 140/1/4
f 137/1/4 139/1/4 141/1/4
f 137/1/4 141/1/4 143/1/4
f 141/1/4 142/1/4 143/1/4
f 143/1/4 142/1/4 144/1/4
f 147/2/5 146/2/5 145/2/5
f 148/2/5 146/2/5 147/2/5
f 151/3/5 150/3/5 149/3/5
f 152/3/5 150/3/5 151/3/5
f 153/3/5 151/3/5 149/3/5
f 154/3/5 150/3/5 152/3/5
f 155/3/5 153/3/5 149/3/5
f 155/3/5 154/3/5 153/3/5
f 156/3/5 150/3/5 154/3/5
f 156/3/5 154/3/5 155/3/5
f 159/1/5 158/1/5 157/1/5
f 160/1/5 158/1/5 159/1/5
f 161/2/6 162/2/6 163/2/6
f 163/2/6 162/2/6 164/2/6
f 161/2/6 163/2/6 165/2/6
f 164/2/6 162/2/6 166/2/6
f 161/2/6 165/2/6 167/2/6
f 165/2/6 166/2/6 167/2/6
f 166/2/6 162/2/6 168/2/6
f 167/2/6 166/2/6 168/2/6
f 169/1/6 170/1/6 171/1/6
f 171/1/6 170/1/6 172/1/6
f 173/1/6 174/1/6 177/1/6
f 177/1/6 174/1/6 178/1/6
f 175/1/6 176/1/6 179/1/6
f 179/1/6 176/1/6 180/1/6
f 181/3/6 182/3/6 183/3/6
f 183/3/6 182/3/6 184/3/6
f 185/3/6 186/3/6 187/3/6
f 187/3/6 186/3/6 188/3/6
f 181/3/6 183/3/6 189/3/6
f 184/3/6 182/3/6 190/3/6
f 181/3/6 189/3/6 191/3/6
f 189/3/6 190/3/6 191/3/6
f 190/3/6 182/3/6 192/3/6
f 191/3/6 190/3/6 192/3/6
f 193/3/6 194/3/6 195/3/6
f 195/3/6 194/3/6 196/3/6
f 193/3/6 195/3/6 197/3/6
f 196/3/6 194/3/6 198/3/6
f 193/3/6 197/3/6 199/3/6
f 197/3/6 198/3/6 199/3/6
f 198/3/6 194/3/6 200/3/6
f 199/3/6 198/3/6 200/3/6
