# MagicaVoxel @ Ephtracy

# group
o 

# material
mtllib ceiling.vox.mtl
usemtl palette

# normals
vn -1 0 0
vn 1 0 0
vn 0 0 1
vn 0 0 -1
vn 0 -1 0
vn 0 1 0

# texcoords
vt 0.919922 0.5
vt 0.966797 0.5

# verts
v -0.5 0 0.5
v -0.5 0 0
v -0.5 0 -0.5
v -0.5 0.1 0.5
v -0.5 0.1 0
v -0.5 0.1 -0.5
v 0.5 0 0.5
v 0.5 0 0
v 0.5 0 -0.5
v 0.5 0.1 0.5
v 0.5 0.1 0
v 0.5 0.1 -0.5
v -0.5 0 0.5
v -0.5 0.1 0.5
v 0 0 0.5
v 0 0.1 0.5
v 0.5 0 0.5
v 0.5 0.1 0.5
v -0.5 0 -0.5
v -0.5 0.1 -0.5
v 0 0 -0.5
v 0 0.1 -0.5
v 0.5 0 -0.5
v 0.5 0.1 -0.5
v -0.5 0 0.5
v 0 0 0.5
v 0.5 0 0.5
v -0.5 0 0
v 0 0 0
v 0.5 0 0
v -0.5 0 -0.5
v 0 0 -0.5
v 0.5 0 -0.5
v -0.5 0.1 0.5
v 0 0.1 0.5
v 0.5 0.1 0.5
v -0.5 0.1 0
v 0 0.1 0
v 0.5 0.1 0
v -0.5 0.1 -0.5
v 0 0.1 -0.5
v 0.5 0.1 -0.5

# faces
f 4/2/1 2/2/1 1/2/1
f 5/1/1 3/1/1 2/1/1
f 5/2/1 2/2/1 4/2/1
f 6/1/1 3/1/1 5/1/1
f 7/1/2 8/1/2 10/1/2
f 8/2/2 9/2/2 11/2/2
f 10/1/2 8/1/2 11/1/2
f 11/2/2 9/2/2 12/2/2
f 15/2/3 14/2/3 13/2/3
f 16/2/3 14/2/3 15/2/3
f 17/1/3 16/1/3 15/1/3
f 18/1/3 16/1/3 17/1/3
f 19/1/4 20/1/4 21/1/4
f 21/1/4 20/1/4 22/1/4
f 21/2/4 22/2/4 23/2/4
f 23/2/4 22/2/4 24/2/4
f 28/2/5 26/2/5 25/2/5
f 29/1/5 27/1/5 26/1/5
f 29/2/5 26/2/5 28/2/5
f 30/1/5 27/1/5 29/1/5
f 31/1/5 29/1/5 28/1/5
f 32/2/5 30/2/5 29/2/5
f 32/1/5 29/1/5 31/1/5
f 33/2/5 30/2/5 32/2/5
f 34/2/6 35/2/6 37/2/6
f 35/1/6 36/1/6 38/1/6
f 37/2/6 35/2/6 38/2/6
f 38/1/6 36/1/6 39/1/6
f 37/1/6 38/1/6 40/1/6
f 38/2/6 39/2/6 41/2/6
f 40/1/6 38/1/6 41/1/6
f 41/2/6 39/2/6 42/2/6
