# MagicaVoxel @ Ephtracy

# group
o 

# material
mtllib check_floor.vox.mtl
usemtl palette

# normals
vn -1 0 0
vn 1 0 0
vn 0 0 1
vn 0 0 -1
vn 0 -1 0
vn 0 1 0

# texcoords
vt 0.931641 0.5
vt 0.935547 0.5

# verts
v -0.8 0 0.8
v -0.8 0 0.6
v -0.8 0 0.4
v -0.8 0 0.2
v -0.8 0 0
v -0.8 0 -0.2
v -0.8 0 -0.4
v -0.8 0 -0.6
v -0.8 0 -0.8
v -0.8 0.1 0.8
v -0.8 0.1 0.6
v -0.8 0.1 0.4
v -0.8 0.1 0.2
v -0.8 0.1 0
v -0.8 0.1 -0.2
v -0.8 0.1 -0.4
v -0.8 0.1 -0.6
v -0.8 0.1 -0.8
v 0.8 0 0.8
v 0.8 0 0.6
v 0.8 0 0.4
v 0.8 0 0.2
v 0.8 0 0
v 0.8 0 -0.2
v 0.8 0 -0.4
v 0.8 0 -0.6
v 0.8 0 -0.8
v 0.8 0.1 0.8
v 0.8 0.1 0.6
v 0.8 0.1 0.4
v 0.8 0.1 0.2
v 0.8 0.1 0
v 0.8 0.1 -0.2
v 0.8 0.1 -0.4
v 0.8 0.1 -0.6
v 0.8 0.1 -0.8
v -0.8 0 0.8
v -0.8 0.1 0.8
v -0.6 0 0.8
v -0.6 0.1 0.8
v -0.4 0 0.8
v -0.4 0.1 0.8
v -0.2 0 0.8
v -0.2 0.1 0.8
v 0 0 0.8
v 0 0.1 0.8
v 0.2 0 0.8
v 0.2 0.1 0.8
v 0.4 0 0.8
v 0.4 0.1 0.8
v 0.6 0 0.8
v 0.6 0.1 0.8
v 0.8 0 0.8
v 0.8 0.1 0.8
v -0.8 0 -0.8
v -0.8 0.1 -0.8
v -0.6 0 -0.8
v -0.6 0.1 -0.8
v -0.4 0 -0.8
v -0.4 0.1 -0.8
v -0.2 0 -0.8
v -0.2 0.1 -0.8
v 0 0 -0.8
v 0 0.1 -0.8
v 0.2 0 -0.8
v 0.2 0.1 -0.8
v 0.4 0 -0.8
v 0.4 0.1 -0.8
v 0.6 0 -0.8
v 0.6 0.1 -0.8
v 0.8 0 -0.8
v 0.8 0.1 -0.8
v -0.8 0 0.8
v -0.6 0 0.8
v -0.4 0 0.8
v -0.2 0 0.8
v 0 0 0.8
v 0.2 0 0.8
v 0.4 0 0.8
v 0.6 0 0.8
v 0.8 0 0.8
v -0.8 0 0.6
v -0.6 0 0.6
v -0.4 0 0.6
v -0.2 0 0.6
v 0 0 0.6
v 0.2 0 0.6
v 0.4 0 0.6
v 0.6 0 0.6
v 0.8 0 0.6
v -0.8 0 0.4
v -0.6 0 0.4
v -0.4 0 0.4
v -0.2 0 0.4
v 0 0 0.4
v 0.2 0 0.4
v 0.4 0 0.4
v 0.6 0 0.4
v 0.8 0 0.4
v -0.8 0 0.2
v -0.6 0 0.2
v -0.4 0 0.2
v -0.2 0 0.2
v 0 0 0.2
v 0.2 0 0.2
v 0.4 0 0.2
v 0.6 0 0.2
v 0.8 0 0.2
v -0.8 0 0
v -0.6 0 0
v -0.4 0 0
v -0.2 0 0
v 0 0 0
v 0.2 0 0
v 0.4 0 0
v 0.6 0 0
v 0.8 0 0
v -0.8 0 -0.2
v -0.6 0 -0.2
v -0.4 0 -0.2
v -0.2 0 -0.2
v 0 0 -0.2
v 0.2 0 -0.2
v 0.4 0 -0.2
v 0.6 0 -0.2
v 0.8 0 -0.2
v -0.8 0 -0.4
v -0.6 0 -0.4
v -0.4 0 -0.4
v -0.2 0 -0.4
v 0 0 -0.4
v 0.2 0 -0.4
v 0.4 0 -0.4
v 0.6 0 -0.4
v 0.8 0 -0.4
v -0.8 0 -0.6
v -0.6 0 -0.6
v -0.4 0 -0.6
v -0.2 0 -0.6
v 0 0 -0.6
v 0.2 0 -0.6
v 0.4 0 -0.6
v 0.6 0 -0.6
v 0.8 0 -0.6
v -0.8 0 -0.8
v -0.6 0 -0.8
v -0.4 0 -0.8
v -0.2 0 -0.8
v 0 0 -0.8
v 0.2 0 -0.8
v 0.4 0 -0.8
v 0.6 0 -0.8
v 0.8 0 -0.8
v -0.8 0.1 0.8
v -0.6 0.1 0.8
v -0.4 0.1 0.8
v -0.2 0.1 0.8
v 0 0.1 0.8
v 0.2 0.1 0.8
v 0.4 0.1 0.8
v 0.6 0.1 0.8
v 0.8 0.1 0.8
v -0.8 0.1 0.6
v -0.6 0.1 0.6
v -0.4 0.1 0.6
v -0.2 0.1 0.6
v 0 0.1 0.6
v 0.2 0.1 0.6
v 0.4 0.1 0.6
v 0.6 0.1 0.6
v 0.8 0.1 0.6
v -0.8 0.1 0.4
v -0.6 0.1 0.4
v -0.4 0.1 0.4
v -0.2 0.1 0.4
v 0 0.1 0.4
v 0.2 0.1 0.4
v 0.4 0.1 0.4
v 0.6 0.1 0.4
v 0.8 0.1 0.4
v -0.8 0.1 0.2
v -0.6 0.1 0.2
v -0.4 0.1 0.2
v -0.2 0.1 0.2
v 0 0.1 0.2
v 0.2 0.1 0.2
v 0.4 0.1 0.2
v 0.6 0.1 0.2
v 0.8 0.1 0.2
v -0.8 0.1 0
v -0.6 0.1 0
v -0.4 0.1 0
v -0.2 0.1 0
v 0 0.1 0
v 0.2 0.1 0
v 0.4 0.1 0
v 0.6 0.1 0
v 0.8 0.1 0
v -0.8 0.1 -0.2
v -0.6 0.1 -0.2
v -0.4 0.1 -0.2
v -0.2 0.1 -0.2
v 0 0.1 -0.2
v 0.2 0.1 -0.2
v 0.4 0.1 -0.2
v 0.6 0.1 -0.2
v 0.8 0.1 -0.2
v -0.8 0.1 -0.4
v -0.6 0.1 -0.4
v -0.4 0.1 -0.4
v -0.2 0.1 -0.4
v 0 0.1 -0.4
v 0.2 0.1 -0.4
v 0.4 0.1 -0.4
v 0.6 0.1 -0.4
v 0.8 0.1 -0.4
v -0.8 0.1 -0.6
v -0.6 0.1 -0.6
v -0.4 0.1 -0.6
v -0.2 0.1 -0.6
v 0 0.1 -0.6
v 0.2 0.1 -0.6
v 0.4 0.1 -0.6
v 0.6 0.1 -0.6
v 0.8 0.1 -0.6
v -0.8 0.1 -0.8
v -0.6 0.1 -0.8
v -0.4 0.1 -0.8
v -0.2 0.1 -0.8
v 0 0.1 -0.8
v 0.2 0.1 -0.8
v 0.4 0.1 -0.8
v 0.6 0.1 -0.8
v 0.8 0.1 -0.8

# faces
f 10/1/1 2/1/1 1/1/1
f 11/2/1 3/2/1 2/2/1
f 11/1/1 2/1/1 10/1/1
f 12/1/1 4/1/1 3/1/1
f 12/2/1 3/2/1 11/2/1
f 13/2/1 5/2/1 4/2/1
f 13/1/1 4/1/1 12/1/1
f 14/1/1 6/1/1 5/1/1
f 14/2/1 5/2/1 13/2/1
f 15/2/1 7/2/1 6/2/1
f 15/1/1 6/1/1 14/1/1
f 16/1/1 8/1/1 7/1/1
f 16/2/1 7/2/1 15/2/1
f 17/2/1 9/2/1 8/2/1
f 17/1/1 8/1/1 16/1/1
f 18/2/1 9/2/1 17/2/1
f 19/2/2 20/2/2 28/2/2
f 20/1/2 21/1/2 29/1/2
f 28/2/2 20/2/2 29/2/2
f 21/2/2 22/2/2 30/2/2
f 29/1/2 21/1/2 30/1/2
f 22/1/2 23/1/2 31/1/2
f 30/2/2 22/2/2 31/2/2
f 23/2/2 24/2/2 32/2/2
f 31/1/2 23/1/2 32/1/2
f 24/1/2 25/1/2 33/1/2
f 32/2/2 24/2/2 33/2/2
f 25/2/2 26/2/2 34/2/2
f 33/1/2 25/1/2 34/1/2
f 26/1/2 27/1/2 35/1/2
f 34/2/2 26/2/2 35/2/2
f 35/1/2 27/1/2 36/1/2
f 39/1/3 38/1/3 37/1/3
f 40/1/3 38/1/3 39/1/3
f 41/2/3 40/2/3 39/2/3
f 42/2/3 40/2/3 41/2/3
f 43/1/3 42/1/3 41/1/3
f 44/1/3 42/1/3 43/1/3
f 45/2/3 44/2/3 43/2/3
f 46/2/3 44/2/3 45/2/3
f 47/1/3 46/1/3 45/1/3
f 48/1/3 46/1/3 47/1/3
f 49/2/3 48/2/3 47/2/3
f 50/2/3 48/2/3 49/2/3
f 51/1/3 50/1/3 49/1/3
f 52/1/3 50/1/3 51/1/3
f 53/2/3 52/2/3 51/2/3
f 54/2/3 52/2/3 53/2/3
f 55/2/4 56/2/4 57/2/4
f 57/2/4 56/2/4 58/2/4
f 57/1/4 58/1/4 59/1/4
f 59/1/4 58/1/4 60/1/4
f 59/2/4 60/2/4 61/2/4
f 61/2/4 60/2/4 62/2/4
f 61/1/4 62/1/4 63/1/4
f 63/1/4 62/1/4 64/1/4
f 63/2/4 64/2/4 65/2/4
f 65/2/4 64/2/4 66/2/4
f 65/1/4 66/1/4 67/1/4
f 67/1/4 66/1/4 68/1/4
f 67/2/4 68/2/4 69/2/4
f 69/2/4 68/2/4 70/2/4
f 69/1/4 70/1/4 71/1/4
f 71/1/4 70/1/4 72/1/4
f 82/1/5 74/1/5 73/1/5
f 83/2/5 75/2/5 74/2/5
f 83/1/5 74/1/5 82/1/5
f 84/1/5 76/1/5 75/1/5
f 84/2/5 75/2/5 83/2/5
f 85/2/5 77/2/5 76/2/5
f 85/1/5 76/1/5 84/1/5
f 86/1/5 78/1/5 77/1/5
f 86/2/5 77/2/5 85/2/5
f 87/2/5 79/2/5 78/2/5
f 87/1/5 78/1/5 86/1/5
f 88/1/5 80/1/5 79/1/5
f 88/2/5 79/2/5 87/2/5
f 89/2/5 81/2/5 80/2/5
f 89/1/5 80/1/5 88/1/5
f 90/2/5 81/2/5 89/2/5
f 91/2/5 83/2/5 82/2/5
f 92/1/5 84/1/5 83/1/5
f 92/2/5 83/2/5 91/2/5
f 93/2/5 85/2/5 84/2/5
f 93/1/5 84/1/5 92/1/5
f 94/1/5 86/1/5 85/1/5
f 94/2/5 85/2/5 93/2/5
f 95/2/5 87/2/5 86/2/5
f 95/1/5 86/1/5 94/1/5
f 96/1/5 88/1/5 87/1/5
f 96/2/5 87/2/5 95/2/5
f 97/2/5 89/2/5 88/2/5
f 97/1/5 88/1/5 96/1/5
f 98/1/5 90/1/5 89/1/5
f 98/2/5 89/2/5 97/2/5
f 99/1/5 90/1/5 98/1/5
f 100/1/5 92/1/5 91/1/5
f 101/2/5 93/2/5 92/2/5
f 101/1/5 92/1/5 100/1/5
f 102/1/5 94/1/5 93/1/5
f 102/2/5 93/2/5 101/2/5
f 103/2/5 95/2/5 94/2/5
f 103/1/5 94/1/5 102/1/5
f 104/1/5 96/1/5 95/1/5
f 104/2/5 95/2/5 103/2/5
f 105/2/5 97/2/5 96/2/5
f 105/1/5 96/1/5 104/1/5
f 106/1/5 98/1/5 97/1/5
f 106/2/5 97/2/5 105/2/5
f 107/2/5 99/2/5 98/2/5
f 107/1/5 98/1/5 106/1/5
f 108/2/5 99/2/5 107/2/5
f 109/2/5 101/2/5 100/2/5
f 110/1/5 102/1/5 101/1/5
f 110/2/5 101/2/5 109/2/5
f 111/2/5 103/2/5 102/2/5
f 111/1/5 102/1/5 110/1/5
f 112/1/5 104/1/5 103/1/5
f 112/2/5 103/2/5 111/2/5
f 113/2/5 105/2/5 104/2/5
f 113/1/5 104/1/5 112/1/5
f 114/1/5 106/1/5 105/1/5
f 114/2/5 105/2/5 113/2/5
f 115/2/5 107/2/5 106/2/5
f 115/1/5 106/1/5 114/1/5
f 116/1/5 108/1/5 107/1/5
f 116/2/5 107/2/5 115/2/5
f 117/1/5 108/1/5 116/1/5
f 118/1/5 110/1/5 109/1/5
f 119/2/5 111/2/5 110/2/5
f 119/1/5 110/1/5 118/1/5
f 120/1/5 112/1/5 111/1/5
f 120/2/5 111/2/5 119/2/5
f 121/2/5 113/2/5 112/2/5
f 121/1/5 112/1/5 120/1/5
f 122/1/5 114/1/5 113/1/5
f 122/2/5 113/2/5 121/2/5
f 123/2/5 115/2/5 114/2/5
f 123/1/5 114/1/5 122/1/5
f 124/1/5 116/1/5 115/1/5
f 124/2/5 115/2/5 123/2/5
f 125/2/5 117/2/5 116/2/5
f 125/1/5 116/1/5 124/1/5
f 126/2/5 117/2/5 125/2/5
f 127/2/5 119/2/5 118/2/5
f 128/1/5 120/1/5 119/1/5
f 128/2/5 119/2/5 127/2/5
f 129/2/5 121/2/5 120/2/5
f 129/1/5 120/1/5 128/1/5
f 130/1/5 122/1/5 121/1/5
f 130/2/5 121/2/5 129/2/5
f 131/2/5 123/2/5 122/2/5
f 131/1/5 122/1/5 130/1/5
f 132/1/5 124/1/5 123/1/5
f 132/2/5 123/2/5 131/2/5
f 133/2/5 125/2/5 124/2/5
f 133/1/5 124/1/5 132/1/5
f 134/1/5 126/1/5 125/1/5
f 134/2/5 125/2/5 133/2/5
f 135/1/5 126/1/5 134/1/5
f 136/1/5 128/1/5 127/1/5
f 137/2/5 129/2/5 128/2/5
f 137/1/5 128/1/5 136/1/5
f 138/1/5 130/1/5 129/1/5
f 138/2/5 129/2/5 137/2/5
f 139/2/5 131/2/5 130/2/5
f 139/1/5 130/1/5 138/1/5
f 140/1/5 132/1/5 131/1/5
f 140/2/5 131/2/5 139/2/5
f 141/2/5 133/2/5 132/2/5
f 141/1/5 132/1/5 140/1/5
f 142/1/5 134/1/5 133/1/5
f 142/2/5 133/2/5 141/2/5
f 143/2/5 135/2/5 134/2/5
f 143/1/5 134/1/5 142/1/5
f 144/2/5 135/2/5 143/2/5
f 145/2/5 137/2/5 136/2/5
f 146/1/5 138/1/5 137/1/5
f 146/2/5 137/2/5 145/2/5
f 147/2/5 139/2/5 138/2/5
f 147/1/5 138/1/5 146/1/5
f 148/1/5 140/1/5 139/1/5
f 148/2/5 139/2/5 147/2/5
f 149/2/5 141/2/5 140/2/5
f 149/1/5 140/1/5 148/1/5
f 150/1/5 142/1/5 141/1/5
f 150/2/5 141/2/5 149/2/5
f 151/2/5 143/2/5 142/2/5
f 151/1/5 142/1/5 150/1/5
f 152/1/5 144/1/5 143/1/5
f 152/2/5 143/2/5 151/2/5
f 153/1/5 144/1/5 152/1/5
f 154/1/6 155/1/6 163/1/6
f 155/2/6 156/2/6 164/2/6
f 163/1/6 155/1/6 164/1/6
f 156/1/6 157/1/6 165/1/6
f 164/2/6 156/2/6 165/2/6
f 157/2/6 158/2/6 166/2/6
f 165/1/6 157/1/6 166/1/6
f 158/1/6 159/1/6 167/1/6
f 166/2/6 158/2/6 167/2/6
f 159/2/6 160/2/6 168/2/6
f 167/1/6 159/1/6 168/1/6
f 160/1/6 161/1/6 169/1/6
f 168/2/6 160/2/6 169/2/6
f 161/2/6 162/2/6 170/2/6
f 169/1/6 161/1/6 170/1/6
f 170/2/6 162/2/6 171/2/6
f 163/2/6 164/2/6 172/2/6
f 164/1/6 165/1/6 173/1/6
f 172/2/6 164/2/6 173/2/6
f 165/2/6 166/2/6 174/2/6
f 173/1/6 165/1/6 174/1/6
f 166/1/6 167/1/6 175/1/6
f 174/2/6 166/2/6 175/2/6
f 167/2/6 168/2/6 176/2/6
f 175/1/6 167/1/6 176/1/6
f 168/1/6 169/1/6 177/1/6
f 176/2/6 168/2/6 177/2/6
f 169/2/6 170/2/6 178/2/6
f 177/1/6 169/1/6 178/1/6
f 170/1/6 171/1/6 179/1/6
f 178/2/6 170/2/6 179/2/6
f 179/1/6 171/1/6 180/1/6
f 172/1/6 173/1/6 181/1/6
f 173/2/6 174/2/6 182/2/6
f 181/1/6 173/1/6 182/1/6
f 174/1/6 175/1/6 183/1/6
f 182/2/6 174/2/6 183/2/6
f 175/2/6 176/2/6 184/2/6
f 183/1/6 175/1/6 184/1/6
f 176/1/6 177/1/6 185/1/6
f 184/2/6 176/2/6 185/2/6
f 177/2/6 178/2/6 186/2/6
f 185/1/6 177/1/6 186/1/6
f 178/1/6 179/1/6 187/1/6
f 186/2/6 178/2/6 187/2/6
f 179/2/6 180/2/6 188/2/6
f 187/1/6 179/1/6 188/1/6
f 188/2/6 180/2/6 189/2/6
f 181/2/6 182/2/6 190/2/6
f 182/1/6 183/1/6 191/1/6
f 190/2/6 182/2/6 191/2/6
f 183/2/6 184/2/6 192/2/6
f 191/1/6 183/1/6 192/1/6
f 184/1/6 185/1/6 193/1/6
f 192/2/6 184/2/6 193/2/6
f 185/2/6 186/2/6 194/2/6
f 193/1/6 185/1/6 194/1/6
f 186/1/6 187/1/6 195/1/6
f 194/2/6 186/2/6 195/2/6
f 187/2/6 188/2/6 196/2/6
f 195/1/6 187/1/6 196/1/6
f 188/1/6 189/1/6 197/1/6
f 196/2/6 188/2/6 197/2/6
f 197/1/6 189/1/6 198/1/6
f 190/1/6 191/1/6 199/1/6
f 191/2/6 192/2/6 200/2/6
f 199/1/6 191/1/6 200/1/6
f 192/1/6 193/1/6 201/1/6
f 200/2/6 192/2/6 201/2/6
f 193/2/6 194/2/6 202/2/6
f 201/1/6 193/1/6 202/1/6
f 194/1/6 195/1/6 203/1/6
f 202/2/6 194/2/6 203/2/6
f 195/2/6 196/2/6 204/2/6
f 203/1/6 195/1/6 204/1/6
f 196/1/6 197/1/6 205/1/6
f 204/2/6 196/2/6 205/2/6
f 197/2/6 198/2/6 206/2/6
f 205/1/6 197/1/6 206/1/6
f 206/2/6 198/2/6 207/2/6
f 199/2/6 200/2/6 208/2/6
f 200/1/6 201/1/6 209/1/6
f 208/2/6 200/2/6 209/2/6
f 201/2/6 202/2/6 210/2/6
f 209/1/6 201/1/6 210/1/6
f 202/1/6 203/1/6 211/1/6
f 210/2/6 202/2/6 211/2/6
f 203/2/6 204/2/6 212/2/6
f 211/1/6 203/1/6 212/1/6
f 204/1/6 205/1/6 213/1/6
f 212/2/6 204/2/6 213/2/6
f 205/2/6 206/2/6 214/2/6
f 213/1/6 205/1/6 214/1/6
f 206/1/6 207/1/6 215/1/6
f 214/2/6 206/2/6 215/2/6
f 215/1/6 207/1/6 216/1/6
f 208/1/6 209/1/6 217/1/6
f 209/2/6 210/2/6 218/2/6
f 217/1/6 209/1/6 218/1/6
f 210/1/6 211/1/6 219/1/6
f 218/2/6 210/2/6 219/2/6
f 211/2/6 212/2/6 220/2/6
f 219/1/6 211/1/6 220/1/6
f 212/1/6 213/1/6 221/1/6
f 220/2/6 212/2/6 221/2/6
f 213/2/6 214/2/6 222/2/6
f 221/1/6 213/1/6 222/1/6
f 214/1/6 215/1/6 223/1/6
f 222/2/6 214/2/6 223/2/6
f 215/2/6 216/2/6 224/2/6
f 223/1/6 215/1/6 224/1/6
f 224/2/6 216/2/6 225/2/6
f 217/2/6 218/2/6 226/2/6
f 218/1/6 219/1/6 227/1/6
f 226/2/6 218/2/6 227/2/6
f 219/2/6 220/2/6 228/2/6
f 227/1/6 219/1/6 228/1/6
f 220/1/6 221/1/6 229/1/6
f 228/2/6 220/2/6 229/2/6
f 221/2/6 222/2/6 230/2/6
f 229/1/6 221/1/6 230/1/6
f 222/1/6 223/1/6 231/1/6
f 230/2/6 222/2/6 231/2/6
f 223/2/6 224/2/6 232/2/6
f 231/1/6 223/1/6 232/1/6
f 224/1/6 225/1/6 233/1/6
f 232/2/6 224/2/6 233/2/6
f 233/1/6 225/1/6 234/1/6
