# MagicaVoxel @ Ephtracy

# group
o 

# material
mtllib cubicle.vox.mtl
usemtl palette

# normals
vn -1 0 0
vn 1 0 0
vn 0 0 1
vn 0 0 -1
vn 0 -1 0
vn 0 1 0

# texcoords
vt 0.650391 0.5
vt 0.931641 0.5

# verts
v -0.5 0 1
v -0.5 0 0.9
v -0.5 0 -0.2
v -0.5 0 -0.3
v -0.5 0.1 1
v -0.5 0.1 0.9
v -0.5 0.1 -0.2
v -0.5 0.1 -0.3
v -0.5 0.9 1
v -0.5 0.9 -0.3
v -0.5 1 1
v -0.5 1 -0.3
v 0.4 0 1
v 0.4 0 0.9
v 0.4 0 -0.1
v 0.4 0 -0.2
v 0.4 0.1 1
v 0.4 0.1 0.9
v 0.4 0.1 -0.1
v 0.4 0.1 -0.2
v 0.4 0.9 1
v 0.4 0.9 -0.2
v 0.4 1 1
v 0.4 1 -0.2
v -0.4 0 1
v -0.4 0 0.9
v -0.4 0 -0.2
v -0.4 0 -0.3
v -0.4 0.1 1
v -0.4 0.1 0.9
v -0.4 0.1 -0.2
v -0.4 0.1 -0.3
v -0.4 0.9 1
v -0.4 0.9 -0.3
v -0.4 1 1
v -0.4 1 -0.3
v 0.5 0 1
v 0.5 0 0.9
v 0.5 0 -0.1
v 0.5 0 -0.2
v 0.5 0.1 1
v 0.5 0.1 0.9
v 0.5 0.1 -0.1
v 0.5 0.1 -0.2
v 0.5 0.9 1
v 0.5 0.9 -0.2
v 0.5 1 1
v 0.5 1 -0.2
v -0.5 0 1
v -0.5 0.1 1
v -0.5 0.9 1
v -0.5 1 1
v -0.4 0 1
v -0.4 0.1 1
v -0.4 0.9 1
v -0.4 1 1
v 0.4 0 1
v 0.4 0.1 1
v 0.4 0.9 1
v 0.4 1 1
v 0.5 0 1
v 0.5 0.1 1
v 0.5 0.9 1
v 0.5 1 1
v 0.4 0 -0.1
v 0.4 0.1 -0.1
v 0.5 0 -0.1
v 0.5 0.1 -0.1
v -0.5 0 -0.2
v -0.5 0.1 -0.2
v -0.4 0 -0.2
v -0.4 0.1 -0.2
v -0.5 0 0.9
v -0.5 0.1 0.9
v -0.4 0 0.9
v -0.4 0.1 0.9
v 0.4 0 0.9
v 0.4 0.1 0.9
v 0.5 0 0.9
v 0.5 0.1 0.9
v 0.4 0 -0.2
v 0.4 0.1 -0.2
v 0.4 0.9 -0.2
v 0.4 1 -0.2
v 0.5 0 -0.2
v 0.5 0.1 -0.2
v 0.5 0.9 -0.2
v 0.5 1 -0.2
v -0.5 0 -0.3
v -0.5 0.1 -0.3
v -0.5 0.9 -0.3
v -0.5 1 -0.3
v -0.4 0 -0.3
v -0.4 0.1 -0.3
v -0.4 0.9 -0.3
v -0.4 1 -0.3
v -0.5 0 1
v -0.4 0 1
v 0.4 0 1
v 0.5 0 1
v -0.5 0 0.9
v -0.4 0 0.9
v 0.4 0 0.9
v 0.5 0 0.9
v 0.4 0 -0.1
v 0.5 0 -0.1
v -0.5 0 -0.2
v -0.4 0 -0.2
v 0.4 0 -0.2
v 0.5 0 -0.2
v -0.5 0 -0.3
v -0.4 0 -0.3
v -0.5 0.1 0.9
v -0.4 0.1 0.9
v 0.4 0.1 0.9
v 0.5 0.1 0.9
v 0.4 0.1 -0.1
v 0.5 0.1 -0.1
v -0.5 0.1 -0.2
v -0.4 0.1 -0.2
v -0.5 1 1
v -0.4 1 1
v 0.4 1 1
v 0.5 1 1
v 0.4 1 -0.2
v 0.5 1 -0.2
v -0.5 1 -0.3
v -0.4 1 -0.3

# faces
f 5/2/1 2/2/1 1/2/1
f 6/2/1 2/2/1 5/2/1
f 7/2/1 4/2/1 3/2/1
f 8/2/1 4/2/1 7/2/1
f 9/1/1 6/1/1 5/1/1
f 9/1/1 7/1/1 6/1/1
f 9/1/1 8/1/1 7/1/1
f 10/1/1 8/1/1 9/1/1
f 11/2/1 10/2/1 9/2/1
f 12/2/1 10/2/1 11/2/1
f 17/2/1 14/2/1 13/2/1
f 18/2/1 14/2/1 17/2/1
f 19/2/1 16/2/1 15/2/1
f 20/2/1 16/2/1 19/2/1
f 21/1/1 18/1/1 17/1/1
f 21/1/1 19/1/1 18/1/1
f 21/1/1 20/1/1 19/1/1
f 22/1/1 20/1/1 21/1/1
f 23/2/1 22/2/1 21/2/1
f 24/2/1 22/2/1 23/2/1
f 25/2/2 26/2/2 29/2/2
f 29/2/2 26/2/2 30/2/2
f 27/2/2 28/2/2 31/2/2
f 31/2/2 28/2/2 32/2/2
f 29/1/2 30/1/2 33/1/2
f 30/1/2 31/1/2 33/1/2
f 31/1/2 32/1/2 33/1/2
f 33/1/2 32/1/2 34/1/2
f 33/2/2 34/2/2 35/2/2
f 35/2/2 34/2/2 36/2/2
f 37/2/2 38/2/2 41/2/2
f 41/2/2 38/2/2 42/2/2
f 39/2/2 40/2/2 43/2/2
f 43/2/2 40/2/2 44/2/2
f 41/1/2 42/1/2 45/1/2
f 42/1/2 43/1/2 45/1/2
f 43/1/2 44/1/2 45/1/2
f 45/1/2 44/1/2 46/1/2
f 45/2/2 46/2/2 47/2/2
f 47/2/2 46/2/2 48/2/2
f 53/2/3 50/2/3 49/2/3
f 54/1/3 51/1/3 50/1/3
f 54/2/3 50/2/3 53/2/3
f 55/2/3 52/2/3 51/2/3
f 55/1/3 51/1/3 54/1/3
f 56/2/3 52/2/3 55/2/3
f 61/2/3 58/2/3 57/2/3
f 62/1/3 59/1/3 58/1/3
f 62/2/3 58/2/3 61/2/3
f 63/2/3 60/2/3 59/2/3
f 63/1/3 59/1/3 62/1/3
f 64/2/3 60/2/3 63/2/3
f 67/2/3 66/2/3 65/2/3
f 68/2/3 66/2/3 67/2/3
f 71/2/3 70/2/3 69/2/3
f 72/2/3 70/2/3 71/2/3
f 73/2/4 74/2/4 75/2/4
f 75/2/4 74/2/4 76/2/4
f 77/2/4 78/2/4 79/2/4
f 79/2/4 78/2/4 80/2/4
f 81/2/4 82/2/4 85/2/4
f 82/1/4 83/1/4 86/1/4
f 85/2/4 82/2/4 86/2/4
f 83/2/4 84/2/4 87/2/4
f 86/1/4 83/1/4 87/1/4
f 87/2/4 84/2/4 88/2/4
f 89/2/4 90/2/4 93/2/4
f 90/1/4 91/1/4 94/1/4
f 93/2/4 90/2/4 94/2/4
f 91/2/4 92/2/4 95/2/4
f 94/1/4 91/1/4 95/1/4
f 95/2/4 92/2/4 96/2/4
f 101/2/5 98/2/5 97/2/5
f 102/2/5 98/2/5 101/2/5
f 103/2/5 100/2/5 99/2/5
f 104/2/5 100/2/5 103/2/5
f 109/2/5 106/2/5 105/2/5
f 110/2/5 106/2/5 109/2/5
f 111/2/5 108/2/5 107/2/5
f 112/2/5 108/2/5 111/2/5
f 117/1/5 116/1/5 115/1/5
f 118/1/5 116/1/5 117/1/5
f 119/1/5 114/1/5 113/1/5
f 120/1/5 114/1/5 119/1/5
f 123/2/6 124/2/6 125/2/6
f 125/2/6 124/2/6 126/2/6
f 121/2/6 122/2/6 127/2/6
f 127/2/6 122/2/6 128/2/6
