# MagicaVoxel @ Ephtracy

# group
o 

# material
mtllib doorway.vox.mtl
usemtl palette

# normals
vn -1 0 0
vn 1 0 0
vn 0 0 1
vn 0 0 -1
vn 0 -1 0
vn 0 1 0

# texcoords
vt 0.931641 0.5
vt 0.935547 0.5

# verts
v 0.3 0 0.5
v 0.3 0 0.4
v 0.3 0 -0.4
v 0.3 0 -0.5
v 0.3 0.9 0.4
v 0.3 0.9 -0.4
v 0.3 1 0.5
v 0.3 1 -0.5
v 0.5 0 0.5
v 0.5 0 0.4
v 0.5 0 -0.4
v 0.5 0 -0.5
v 0.5 0.9 0.4
v 0.5 0.9 -0.4
v 0.5 1 0.5
v 0.5 1 -0.5
v 0.3 0 0.5
v 0.3 1 0.5
v 0.4 0 0.5
v 0.4 1 0.5
v 0.5 0 0.5
v 0.5 1 0.5
v 0.3 0 -0.4
v 0.3 0.9 -0.4
v 0.4 0 -0.4
v 0.4 0.9 -0.4
v 0.5 0 -0.4
v 0.5 0.9 -0.4
v 0.3 0 0.4
v 0.3 0.9 0.4
v 0.4 0 0.4
v 0.4 0.9 0.4
v 0.5 0 0.4
v 0.5 0.9 0.4
v 0.3 0 -0.5
v 0.3 1 -0.5
v 0.4 0 -0.5
v 0.4 1 -0.5
v 0.5 0 -0.5
v 0.5 1 -0.5
v 0.3 0 0.5
v 0.4 0 0.5
v 0.5 0 0.5
v 0.3 0 0.4
v 0.4 0 0.4
v 0.5 0 0.4
v 0.3 0 -0.4
v 0.4 0 -0.4
v 0.5 0 -0.4
v 0.3 0 -0.5
v 0.4 0 -0.5
v 0.5 0 -0.5
v 0.3 0.9 0.4
v 0.4 0.9 0.4
v 0.5 0.9 0.4
v 0.3 0.9 -0.4
v 0.4 0.9 -0.4
v 0.5 0.9 -0.4
v 0.3 1 0.5
v 0.4 1 0.5
v 0.5 1 0.5
v 0.3 1 -0.5
v 0.4 1 -0.5
v 0.5 1 -0.5

# faces
f 5/2/1 2/2/1 1/2/1
f 6/2/1 4/2/1 3/2/1
f 7/2/1 5/2/1 1/2/1
f 7/2/1 6/2/1 5/2/1
f 8/2/1 4/2/1 6/2/1
f 8/2/1 6/2/1 7/2/1
f 9/1/2 10/1/2 13/1/2
f 11/1/2 12/1/2 14/1/2
f 9/1/2 13/1/2 15/1/2
f 13/1/2 14/1/2 15/1/2
f 14/1/2 12/1/2 16/1/2
f 15/1/2 14/1/2 16/1/2
f 19/2/3 18/2/3 17/2/3
f 20/2/3 18/2/3 19/2/3
f 21/1/3 20/1/3 19/1/3
f 22/1/3 20/1/3 21/1/3
f 25/2/3 24/2/3 23/2/3
f 26/2/3 24/2/3 25/2/3
f 27/1/3 26/1/3 25/1/3
f 28/1/3 26/1/3 27/1/3
f 29/2/4 30/2/4 31/2/4
f 31/2/4 30/2/4 32/2/4
f 31/1/4 32/1/4 33/1/4
f 33/1/4 32/1/4 34/1/4
f 35/2/4 36/2/4 37/2/4
f 37/2/4 36/2/4 38/2/4
f 37/1/4 38/1/4 39/1/4
f 39/1/4 38/1/4 40/1/4
f 44/2/5 42/2/5 41/2/5
f 45/1/5 43/1/5 42/1/5
f 45/2/5 42/2/5 44/2/5
f 46/1/5 43/1/5 45/1/5
f 50/2/5 48/2/5 47/2/5
f 51/1/5 49/1/5 48/1/5
f 51/2/5 48/2/5 50/2/5
f 52/1/5 49/1/5 51/1/5
f 56/2/5 54/2/5 53/2/5
f 57/1/5 55/1/5 54/1/5
f 57/2/5 54/2/5 56/2/5
f 58/1/5 55/1/5 57/1/5
f 59/2/6 60/2/6 62/2/6
f 60/1/6 61/1/6 63/1/6
f 62/2/6 60/2/6 63/2/6
f 63/1/6 61/1/6 64/1/6
