# MagicaVoxel @ Ephtracy

# group
o 

# material
mtllib floor_model.vox.mtl
usemtl palette

# normals
vn -1 0 0
vn 1 0 0
vn 0 0 1
vn 0 0 -1
vn 0 -1 0
vn 0 1 0

# texcoords
vt 0.763672 0.5
vt 0.767578 0.5
vt 0.787109 0.5

# verts
v -0.5 0 0.5
v -0.5 0 0.3
v -0.5 0 0.1
v -0.5 0 -0.1
v -0.5 0 -0.5
v -0.5 0.1 0.5
v -0.5 0.1 0.3
v -0.5 0.1 0.1
v -0.5 0.1 -0.1
v -0.5 0.1 -0.5
v 0.5 0 0.5
v 0.5 0 0.1
v 0.5 0 -0.1
v 0.5 0 -0.3
v 0.5 0 -0.5
v 0.5 0.1 0.5
v 0.5 0.1 0.1
v 0.5 0.1 -0.1
v 0.5 0.1 -0.3
v 0.5 0.1 -0.5
v -0.5 0 0.5
v -0.5 0.1 0.5
v -0.3 0 0.5
v -0.3 0.1 0.5
v -0.1 0 0.5
v -0.1 0.1 0.5
v 0.1 0 0.5
v 0.1 0.1 0.5
v 0.5 0 0.5
v 0.5 0.1 0.5
v -0.5 0 -0.5
v -0.5 0.1 -0.5
v -0.1 0 -0.5
v -0.1 0.1 -0.5
v 0.1 0 -0.5
v 0.1 0.1 -0.5
v 0.3 0 -0.5
v 0.3 0.1 -0.5
v 0.5 0 -0.5
v 0.5 0.1 -0.5
v -0.5 0 0.5
v -0.3 0 0.5
v -0.1 0 0.5
v 0.1 0 0.5
v 0.5 0 0.5
v -0.5 0 0.3
v -0.3 0 0.3
v -0.1 0 0.3
v 0.1 0 0.3
v 0.3 0 0.3
v -0.5 0 0.1
v -0.3 0 0.1
v -0.1 0 0.1
v 0.1 0 0.1
v 0.3 0 0.1
v 0.5 0 0.1
v -0.5 0 -0.1
v -0.3 0 -0.1
v -0.1 0 -0.1
v 0.1 0 -0.1
v 0.3 0 -0.1
v 0.5 0 -0.1
v -0.3 0 -0.3
v -0.1 0 -0.3
v 0.1 0 -0.3
v 0.3 0 -0.3
v 0.5 0 -0.3
v -0.5 0 -0.5
v -0.1 0 -0.5
v 0.1 0 -0.5
v 0.3 0 -0.5
v 0.5 0 -0.5
v -0.5 0.1 0.5
v -0.3 0.1 0.5
v -0.1 0.1 0.5
v 0.1 0.1 0.5
v 0.5 0.1 0.5
v -0.5 0.1 0.3
v -0.3 0.1 0.3
v -0.1 0.1 0.3
v 0.1 0.1 0.3
v 0.3 0.1 0.3
v -0.5 0.1 0.1
v -0.3 0.1 0.1
v -0.1 0.1 0.1
v 0.1 0.1 0.1
v 0.3 0.1 0.1
v 0.5 0.1 0.1
v -0.5 0.1 -0.1
v -0.3 0.1 -0.1
v -0.1 0.1 -0.1
v 0.1 0.1 -0.1
v 0.3 0.1 -0.1
v 0.5 0.1 -0.1
v -0.3 0.1 -0.3
v -0.1 0.1 -0.3
v 0.1 0.1 -0.3
v 0.3 0.1 -0.3
v 0.5 0.1 -0.3
v -0.5 0.1 -0.5
v -0.1 0.1 -0.5
v 0.1 0.1 -0.5
v 0.3 0.1 -0.5
v 0.5 0.1 -0.5

# faces
f 6/1/1 2/1/1 1/1/1
f 7/2/1 3/2/1 2/2/1
f 7/1/1 2/1/1 6/1/1
f 8/1/1 4/1/1 3/1/1
f 8/2/1 3/2/1 7/2/1
f 9/2/1 5/2/1 4/2/1
f 9/1/1 4/1/1 8/1/1
f 10/2/1 5/2/1 9/2/1
f 11/2/2 12/2/2 16/2/2
f 12/1/2 13/1/2 17/1/2
f 16/2/2 12/2/2 17/2/2
f 13/2/2 14/2/2 18/2/2
f 17/1/2 13/1/2 18/1/2
f 14/1/2 15/1/2 19/1/2
f 18/2/2 14/2/2 19/2/2
f 19/1/2 15/1/2 20/1/2
f 23/1/3 22/1/3 21/1/3
f 24/1/3 22/1/3 23/1/3
f 25/2/3 24/2/3 23/2/3
f 26/2/3 24/2/3 25/2/3
f 27/1/3 26/1/3 25/1/3
f 28/1/3 26/1/3 27/1/3
f 29/2/3 28/2/3 27/2/3
f 30/2/3 28/2/3 29/2/3
f 31/2/4 32/2/4 33/2/4
f 33/2/4 32/2/4 34/2/4
f 33/1/4 34/1/4 35/1/4
f 35/1/4 34/1/4 36/1/4
f 35/2/4 36/2/4 37/2/4
f 37/2/4 36/2/4 38/2/4
f 37/1/4 38/1/4 39/1/4
f 39/1/4 38/1/4 40/1/4
f 46/1/5 42/1/5 41/1/5
f 47/2/5 43/2/5 42/2/5
f 47/1/5 42/1/5 46/1/5
f 48/1/5 44/1/5 43/1/5
f 48/2/5 43/2/5 47/2/5
f 49/2/5 45/2/5 44/2/5
f 49/1/5 44/1/5 48/1/5
f 50/2/5 45/2/5 49/2/5
f 51/2/5 47/2/5 46/2/5
f 52/3/5 48/3/5 47/3/5
f 52/2/5 47/2/5 51/2/5
f 53/2/5 49/2/5 48/2/5
f 53/3/5 48/3/5 52/3/5
f 54/1/5 50/1/5 49/1/5
f 54/2/5 49/2/5 53/2/5
f 55/2/5 45/2/5 50/2/5
f 55/1/5 50/1/5 54/1/5
f 56/2/5 45/2/5 55/2/5
f 57/1/5 52/1/5 51/1/5
f 58/2/5 53/2/5 52/2/5
f 58/1/5 52/1/5 57/1/5
f 59/1/5 54/1/5 53/1/5
f 59/2/5 53/2/5 58/2/5
f 60/2/5 55/2/5 54/2/5
f 60/1/5 54/1/5 59/1/5
f 61/1/5 56/1/5 55/1/5
f 61/2/5 55/2/5 60/2/5
f 62/1/5 56/1/5 61/1/5
f 63/2/5 58/2/5 57/2/5
f 63/1/5 59/1/5 58/1/5
f 64/2/5 60/2/5 59/2/5
f 64/1/5 59/1/5 63/1/5
f 65/3/5 61/3/5 60/3/5
f 65/2/5 60/2/5 64/2/5
f 66/2/5 62/2/5 61/2/5
f 66/3/5 61/3/5 65/3/5
f 67/2/5 62/2/5 66/2/5
f 68/2/5 63/2/5 57/2/5
f 68/2/5 64/2/5 63/2/5
f 69/1/5 65/1/5 64/1/5
f 69/2/5 64/2/5 68/2/5
f 70/2/5 66/2/5 65/2/5
f 70/1/5 65/1/5 69/1/5
f 71/1/5 67/1/5 66/1/5
f 71/2/5 66/2/5 70/2/5
f 72/1/5 67/1/5 71/1/5
f 73/1/6 74/1/6 78/1/6
f 74/2/6 75/2/6 79/2/6
f 78/1/6 74/1/6 79/1/6
f 75/1/6 76/1/6 80/1/6
f 79/2/6 75/2/6 80/2/6
f 76/2/6 77/2/6 81/2/6
f 80/1/6 76/1/6 81/1/6
f 81/2/6 77/2/6 82/2/6
f 78/2/6 79/2/6 83/2/6
f 79/3/6 80/3/6 84/3/6
f 83/2/6 79/2/6 84/2/6
f 80/2/6 81/2/6 85/2/6
f 84/3/6 80/3/6 85/3/6
f 81/1/6 82/1/6 86/1/6
f 85/2/6 81/2/6 86/2/6
f 82/2/6 77/2/6 87/2/6
f 86/1/6 82/1/6 87/1/6
f 87/2/6 77/2/6 88/2/6
f 83/1/6 84/1/6 89/1/6
f 84/2/6 85/2/6 90/2/6
f 89/1/6 84/1/6 90/1/6
f 85/1/6 86/1/6 91/1/6
f 90/2/6 85/2/6 91/2/6
f 86/2/6 87/2/6 92/2/6
f 91/1/6 86/1/6 92/1/6
f 87/1/6 88/1/6 93/1/6
f 92/2/6 87/2/6 93/2/6
f 93/1/6 88/1/6 94/1/6
f 89/2/6 90/2/6 95/2/6
f 90/1/6 91/1/6 95/1/6
f 91/2/6 92/2/6 96/2/6
f 95/1/6 91/1/6 96/1/6
f 92/3/6 93/3/6 97/3/6
f 96/2/6 92/2/6 97/2/6
f 93/2/6 94/2/6 98/2/6
f 97/3/6 93/3/6 98/3/6
f 98/2/6 94/2/6 99/2/6
f 89/2/6 95/2/6 100/2/6
f 95/2/6 96/2/6 100/2/6
f 96/1/6 97/1/6 101/1/6
f 100/2/6 96/2/6 101/2/6
f 97/2/6 98/2/6 102/2/6
f 101/1/6 97/1/6 102/1/6
f 98/1/6 99/1/6 103/1/6
f 102/2/6 98/2/6 103/2/6
f 103/1/6 99/1/6 104/1/6
