# MagicaVoxel @ Ephtracy

# group
o 

# material
mtllib greenfloor.vox.mtl
usemtl palette

# normals
vn -1 0 0
vn 1 0 0
vn 0 0 1
vn 0 0 -1
vn 0 -1 0
vn 0 1 0

# texcoords
vt 0.537109 0.5
vt 0.552734 0.5

# verts
v -0.5 0 0.5
v -0.5 0 0.3
v -0.5 0 0.2
v -0.5 0 0.1
v -0.5 0 -0.5
v -0.5 0.1 0.5
v -0.5 0.1 0.3
v -0.5 0.1 0.2
v -0.5 0.1 0.1
v -0.5 0.1 -0.5
v 0.5 0 0.5
v 0.5 0 -0.1
v 0.5 0 -0.2
v 0.5 0 -0.3
v 0.5 0 -0.5
v 0.5 0.1 0.5
v 0.5 0.1 -0.1
v 0.5 0.1 -0.2
v 0.5 0.1 -0.3
v 0.5 0.1 -0.5
v -0.5 0 0.5
v -0.5 0.1 0.5
v -0.3 0 0.5
v -0.3 0.1 0.5
v -0.2 0 0.5
v -0.2 0.1 0.5
v -0.1 0 0.5
v -0.1 0.1 0.5
v 0.5 0 0.5
v 0.5 0.1 0.5
v -0.5 0 -0.5
v -0.5 0.1 -0.5
v 0.1 0 -0.5
v 0.1 0.1 -0.5
v 0.2 0 -0.5
v 0.2 0.1 -0.5
v 0.3 0 -0.5
v 0.3 0.1 -0.5
v 0.5 0 -0.5
v 0.5 0.1 -0.5
v -0.5 0 0.5
v -0.3 0 0.5
v -0.2 0 0.5
v -0.1 0 0.5
v 0.5 0 0.5
v -0.2 0 0.4
v -0.1 0 0.4
v 0 0 0.4
v -0.5 0 0.3
v -0.3 0 0.3
v -0.1 0 0.3
v 0 0 0.3
v 0.1 0 0.3
v -0.5 0 0.2
v -0.4 0 0.2
v 0 0 0.2
v 0.1 0 0.2
v 0.2 0 0.2
v -0.5 0 0.1
v -0.4 0 0.1
v -0.3 0 0.1
v -0.1 0 0.1
v 0.1 0 0.1
v 0.2 0 0.1
v 0.3 0 0.1
v -0.4 0 0
v -0.3 0 0
v -0.2 0 0
v 0.2 0 0
v 0.3 0 0
v 0.4 0 0
v -0.3 0 -0.1
v -0.2 0 -0.1
v -0.1 0 -0.1
v 0.1 0 -0.1
v 0.3 0 -0.1
v 0.4 0 -0.1
v 0.5 0 -0.1
v -0.2 0 -0.2
v -0.1 0 -0.2
v 0 0 -0.2
v 0.4 0 -0.2
v 0.5 0 -0.2
v -0.1 0 -0.3
v 0 0 -0.3
v 0.1 0 -0.3
v 0.3 0 -0.3
v 0.5 0 -0.3
v 0 0 -0.4
v 0.1 0 -0.4
v 0.2 0 -0.4
v -0.5 0 -0.5
v 0.1 0 -0.5
v 0.2 0 -0.5
v 0.3 0 -0.5
v 0.5 0 -0.5
v -0.5 0.1 0.5
v -0.3 0.1 0.5
v -0.2 0.1 0.5
v -0.1 0.1 0.5
v 0.5 0.1 0.5
v -0.2 0.1 0.4
v -0.1 0.1 0.4
v 0 0.1 0.4
v -0.5 0.1 0.3
v -0.3 0.1 0.3
v -0.1 0.1 0.3
v 0 0.1 0.3
v 0.1 0.1 0.3
v -0.5 0.1 0.2
v -0.4 0.1 0.2
v 0 0.1 0.2
v 0.1 0.1 0.2
v 0.2 0.1 0.2
v -0.5 0.1 0.1
v -0.4 0.1 0.1
v -0.3 0.1 0.1
v -0.1 0.1 0.1
v 0.1 0.1 0.1
v 0.2 0.1 0.1
v 0.3 0.1 0.1
v -0.4 0.1 0
v -0.3 0.1 0
v -0.2 0.1 0
v 0.2 0.1 0
v 0.3 0.1 0
v 0.4 0.1 0
v -0.3 0.1 -0.1
v -0.2 0.1 -0.1
v -0.1 0.1 -0.1
v 0.1 0.1 -0.1
v 0.3 0.1 -0.1
v 0.4 0.1 -0.1
v 0.5 0.1 -0.1
v -0.2 0.1 -0.2
v -0.1 0.1 -0.2
v 0 0.1 -0.2
v 0.4 0.1 -0.2
v 0.5 0.1 -0.2
v -0.1 0.1 -0.3
v 0 0.1 -0.3
v 0.1 0.1 -0.3
v 0.3 0.1 -0.3
v 0.5 0.1 -0.3
v 0 0.1 -0.4
v 0.1 0.1 -0.4
v 0.2 0.1 -0.4
v -0.5 0.1 -0.5
v 0.1 0.1 -0.5
v 0.2 0.1 -0.5
v 0.3 0.1 -0.5
v 0.5 0.1 -0.5

# faces
f 6/1/1 2/1/1 1/1/1
f 7/2/1 3/2/1 2/2/1
f 7/1/1 2/1/1 6/1/1
f 8/1/1 4/1/1 3/1/1
f 8/2/1 3/2/1 7/2/1
f 9/2/1 5/2/1 4/2/1
f 9/1/1 4/1/1 8/1/1
f 10/2/1 5/2/1 9/2/1
f 11/2/2 12/2/2 16/2/2
f 12/1/2 13/1/2 17/1/2
f 16/2/2 12/2/2 17/2/2
f 13/2/2 14/2/2 18/2/2
f 17/1/2 13/1/2 18/1/2
f 14/1/2 15/1/2 19/1/2
f 18/2/2 14/2/2 19/2/2
f 19/1/2 15/1/2 20/1/2
f 23/1/3 22/1/3 21/1/3
f 24/1/3 22/1/3 23/1/3
f 25/2/3 24/2/3 23/2/3
f 26/2/3 24/2/3 25/2/3
f 27/1/3 26/1/3 25/1/3
f 28/1/3 26/1/3 27/1/3
f 29/2/3 28/2/3 27/2/3
f 30/2/3 28/2/3 29/2/3
f 31/2/4 32/2/4 33/2/4
f 33/2/4 32/2/4 34/2/4
f 33/1/4 34/1/4 35/1/4
f 35/1/4 34/1/4 36/1/4
f 35/2/4 36/2/4 37/2/4
f 37/2/4 36/2/4 38/2/4
f 37/1/4 38/1/4 39/1/4
f 39/1/4 38/1/4 40/1/4
f 46/2/5 43/2/5 42/2/5
f 46/1/5 44/1/5 43/1/5
f 47/2/5 45/2/5 44/2/5
f 47/1/5 44/1/5 46/1/5
f 48/2/5 45/2/5 47/2/5
f 49/1/5 42/1/5 41/1/5
f 50/2/5 46/2/5 42/2/5
f 50/1/5 42/1/5 49/1/5
f 50/2/5 47/2/5 46/2/5
f 51/1/5 48/1/5 47/1/5
f 51/2/5 47/2/5 50/2/5
f 52/2/5 45/2/5 48/2/5
f 52/1/5 48/1/5 51/1/5
f 53/2/5 45/2/5 52/2/5
f 54/2/5 50/2/5 49/2/5
f 55/2/5 50/2/5 54/2/5
f 56/2/5 52/2/5 51/2/5
f 56/1/5 53/1/5 52/1/5
f 57/2/5 45/2/5 53/2/5
f 57/1/5 53/1/5 56/1/5
f 58/2/5 45/2/5 57/2/5
f 59/1/5 55/1/5 54/1/5
f 60/2/5 50/2/5 55/2/5
f 60/1/5 55/1/5 59/1/5
f 61/1/5 51/1/5 50/1/5
f 61/2/5 50/2/5 60/2/5
f 62/2/5 56/2/5 51/2/5
f 62/1/5 51/1/5 61/1/5
f 62/2/5 57/2/5 56/2/5
f 63/1/5 58/1/5 57/1/5
f 63/2/5 57/2/5 62/2/5
f 64/2/5 45/2/5 58/2/5
f 64/1/5 58/1/5 63/1/5
f 65/2/5 45/2/5 64/2/5
f 66/2/5 60/2/5 59/2/5
f 66/1/5 61/1/5 60/1/5
f 67/2/5 62/2/5 61/2/5
f 67/1/5 61/1/5 66/1/5
f 68/2/5 62/2/5 67/2/5
f 69/1/5 65/1/5 64/1/5
f 69/2/5 64/2/5 63/2/5
f 70/2/5 45/2/5 65/2/5
f 70/1/5 65/1/5 69/1/5
f 71/2/5 45/2/5 70/2/5
f 72/1/5 68/1/5 67/1/5
f 72/2/5 67/2/5 66/2/5
f 73/2/5 62/2/5 68/2/5
f 73/1/5 68/1/5 72/1/5
f 74/1/5 63/1/5 62/1/5
f 74/2/5 62/2/5 73/2/5
f 75/2/5 69/2/5 63/2/5
f 75/1/5 63/1/5 74/1/5
f 75/2/5 70/2/5 69/2/5
f 76/1/5 71/1/5 70/1/5
f 76/2/5 70/2/5 75/2/5
f 77/2/5 45/2/5 71/2/5
f 77/1/5 71/1/5 76/1/5
f 78/2/5 45/2/5 77/2/5
f 79/1/5 74/1/5 73/1/5
f 79/2/5 73/2/5 72/2/5
f 80/2/5 75/2/5 74/2/5
f 80/1/5 74/1/5 79/1/5
f 81/2/5 75/2/5 80/2/5
f 82/1/5 78/1/5 77/1/5
f 82/2/5 77/2/5 76/2/5
f 83/1/5 78/1/5 82/1/5
f 84/1/5 81/1/5 80/1/5
f 84/2/5 80/2/5 79/2/5
f 85/2/5 75/2/5 81/2/5
f 85/1/5 81/1/5 84/1/5
f 86/1/5 76/1/5 75/1/5
f 86/2/5 75/2/5 85/2/5
f 87/2/5 83/2/5 82/2/5
f 87/1/5 76/1/5 86/1/5
f 87/2/5 82/2/5 76/2/5
f 88/2/5 83/2/5 87/2/5
f 89/2/5 85/2/5 84/2/5
f 89/1/5 86/1/5 85/1/5
f 90/2/5 87/2/5 86/2/5
f 90/1/5 86/1/5 89/1/5
f 91/2/5 87/2/5 90/2/5
f 92/2/5 72/2/5 66/2/5
f 92/2/5 84/2/5 79/2/5
f 92/2/5 66/2/5 59/2/5
f 92/2/5 90/2/5 89/2/5
f 92/2/5 89/2/5 84/2/5
f 92/2/5 79/2/5 72/2/5
f 93/1/5 91/1/5 90/1/5
f 93/2/5 90/2/5 92/2/5
f 94/2/5 87/2/5 91/2/5
f 94/1/5 91/1/5 93/1/5
f 95/1/5 88/1/5 87/1/5
f 95/2/5 87/2/5 94/2/5
f 96/1/5 88/1/5 95/1/5
f 98/2/6 99/2/6 102/2/6
f 99/1/6 100/1/6 102/1/6
f 100/2/6 101/2/6 103/2/6
f 102/1/6 100/1/6 103/1/6
f 103/2/6 101/2/6 104/2/6
f 97/1/6 98/1/6 105/1/6
f 98/2/6 102/2/6 106/2/6
f 105/1/6 98/1/6 106/1/6
f 102/2/6 103/2/6 106/2/6
f 103/1/6 104/1/6 107/1/6
f 106/2/6 103/2/6 107/2/6
f 104/2/6 101/2/6 108/2/6
f 107/1/6 104/1/6 108/1/6
f 108/2/6 101/2/6 109/2/6
f 105/2/6 106/2/6 110/2/6
f 110/2/6 106/2/6 111/2/6
f 107/2/6 108/2/6 112/2/6
f 108/1/6 109/1/6 112/1/6
f 109/2/6 101/2/6 113/2/6
f 112/1/6 109/1/6 113/1/6
f 113/2/6 101/2/6 114/2/6
f 110/1/6 111/1/6 115/1/6
f 111/2/6 106/2/6 116/2/6
f 115/1/6 111/1/6 116/1/6
f 106/1/6 107/1/6 117/1/6
f 116/2/6 106/2/6 117/2/6
f 107/2/6 112/2/6 118/2/6
f 117/1/6 107/1/6 118/1/6
f 112/2/6 113/2/6 118/2/6
f 113/1/6 114/1/6 119/1/6
f 118/2/6 113/2/6 119/2/6
f 114/2/6 101/2/6 120/2/6
f 119/1/6 114/1/6 120/1/6
f 120/2/6 101/2/6 121/2/6
f 115/2/6 116/2/6 122/2/6
f 116/1/6 117/1/6 122/1/6
f 117/2/6 118/2/6 123/2/6
f 122/1/6 117/1/6 123/1/6
f 123/2/6 118/2/6 124/2/6
f 120/1/6 121/1/6 125/1/6
f 119/2/6 120/2/6 125/2/6
f 121/2/6 101/2/6 126/2/6
f 125/1/6 121/1/6 126/1/6
f 126/2/6 101/2/6 127/2/6
f 123/1/6 124/1/6 128/1/6
f 122/2/6 123/2/6 128/2/6
f 124/2/6 118/2/6 129/2/6
f 128/1/6 124/1/6 129/1/6
f 118/1/6 119/1/6 130/1/6
f 129/2/6 118/2/6 130/2/6
f 119/2/6 125/2/6 131/2/6
f 130/1/6 119/1/6 131/1/6
f 125/2/6 126/2/6 131/2/6
f 126/1/6 127/1/6 132/1/6
f 131/2/6 126/2/6 132/2/6
f 127/2/6 101/2/6 133/2/6
f 132/1/6 127/1/6 133/1/6
f 133/2/6 101/2/6 134/2/6
f 129/1/6 130/1/6 135/1/6
f 128/2/6 129/2/6 135/2/6
f 130/2/6 131/2/6 136/2/6
f 135/1/6 130/1/6 136/1/6
f 136/2/6 131/2/6 137/2/6
f 133/1/6 134/1/6 138/1/6
f 132/2/6 133/2/6 138/2/6
f 138/1/6 134/1/6 139/1/6
f 136/1/6 137/1/6 140/1/6
f 135/2/6 136/2/6 140/2/6
f 137/2/6 131/2/6 141/2/6
f 140/1/6 137/1/6 141/1/6
f 131/1/6 132/1/6 142/1/6
f 141/2/6 131/2/6 142/2/6
f 138/2/6 139/2/6 143/2/6
f 142/1/6 132/1/6 143/1/6
f 132/2/6 138/2/6 143/2/6
f 143/2/6 139/2/6 144/2/6
f 140/2/6 141/2/6 145/2/6
f 141/1/6 142/1/6 145/1/6
f 142/2/6 143/2/6 146/2/6
f 145/1/6 142/1/6 146/1/6
f 146/2/6 143/2/6 147/2/6
f 122/2/6 128/2/6 148/2/6
f 135/2/6 140/2/6 148/2/6
f 115/2/6 122/2/6 148/2/6
f 145/2/6 146/2/6 148/2/6
f 140/2/6 145/2/6 148/2/6
f 128/2/6 135/2/6 148/2/6
f 146/1/6 147/1/6 149/1/6
f 148/2/6 146/2/6 149/2/6
f 147/2/6 143/2/6 150/2/6
f 149/1/6 147/1/6 150/1/6
f 143/1/6 144/1/6 151/1/6
f 150/2/6 143/2/6 151/2/6
f 151/1/6 144/1/6 152/1/6
