# MagicaVoxel @ Ephtracy

# group
o 

# material
mtllib monrail_rail.vox.mtl
usemtl palette

# normals
vn -1 0 0
vn 1 0 0
vn 0 0 1
vn 0 0 -1
vn 0 -1 0
vn 0 1 0

# texcoords
vt 0.939453 0.5
vt 0.943359 0.5
vt 0.951172 0.5

# verts
v -5 0 0.5
v -5 0 0.1
v -5 0 -0.1
v -5 0 -0.5
v -5 0.1 0.2
v -5 0.1 0.1
v -5 0.1 -0.1
v -5 0.1 -0.2
v -5 0.2 0.5
v -5 0.2 0.3
v -5 0.2 0.2
v -5 0.2 -0.2
v -5 0.2 -0.3
v -5 0.2 -0.5
v -5 0.8 0.5
v -5 0.8 0.3
v -5 0.8 0.2
v -5 0.8 -0.2
v -5 0.8 -0.3
v -5 0.8 -0.5
v -5 0.9 0.2
v -5 0.9 0.1
v -5 0.9 -0.1
v -5 0.9 -0.2
v -5 1 0.5
v -5 1 0.1
v -5 1 -0.1
v -5 1 -0.5
v 5 0 0.5
v 5 0 0.4
v 5 0 0.1
v 5 0 -0.1
v 5 0 -0.3
v 5 0 -0.5
v 5 0.1 0.5
v 5 0.1 0.4
v 5 0.1 0.2
v 5 0.1 0.1
v 5 0.1 -0.1
v 5 0.1 -0.2
v 5 0.1 -0.3
v 5 0.1 -0.5
v 5 0.2 0.5
v 5 0.2 0.3
v 5 0.2 0.2
v 5 0.2 -0.2
v 5 0.2 -0.3
v 5 0.2 -0.5
v 5 0.8 0.5
v 5 0.8 0.3
v 5 0.8 0.2
v 5 0.8 -0.2
v 5 0.8 -0.3
v 5 0.8 -0.5
v 5 0.9 0.2
v 5 0.9 0.1
v 5 0.9 -0.1
v 5 0.9 -0.2
v 5 1 0.5
v 5 1 0.1
v 5 1 -0.1
v 5 1 -0.5
v -5 0 0.5
v -5 0.2 0.5
v -5 0.8 0.5
v -5 1 0.5
v -4.2 0 0.5
v -4.2 0.2 0.5
v -3.4 0 0.5
v -3.4 0.2 0.5
v -2.3 0 0.5
v -2.3 0.1 0.5
v -0.4 0 0.5
v -0.4 0.1 0.5
v 0.2 0 0.5
v 0.2 0.1 0.5
v 1.5 0 0.5
v 1.5 0.1 0.5
v 2.5 0 0.5
v 2.5 0.1 0.5
v 3.4 0 0.5
v 3.4 0.1 0.5
v 4.1 0 0.5
v 4.1 0.1 0.5
v 5 0 0.5
v 5 0.1 0.5
v 5 0.2 0.5
v 5 0.8 0.5
v 5 1 0.5
v -5 0.2 0.3
v -5 0.8 0.3
v 5 0.2 0.3
v 5 0.8 0.3
v -5 0 -0.1
v -5 0.1 -0.1
v -5 0.9 -0.1
v -5 1 -0.1
v -4.9 0 -0.1
v -4.9 0.1 -0.1
v -3.7 0 -0.1
v -3.7 0.1 -0.1
v 2.3 0 -0.1
v 2.3 0.1 -0.1
v 4.4 0 -0.1
v 4.4 0.1 -0.1
v 5 0 -0.1
v 5 0.1 -0.1
v 5 0.9 -0.1
v 5 1 -0.1
v -5 0 0.1
v -5 0.1 0.1
v -5 0.9 0.1
v -5 1 0.1
v -4.3 0 0.1
v -4.3 0.1 0.1
v -1.4 0 0.1
v -1.4 0.1 0.1
v 1.6 0 0.1
v 1.6 0.1 0.1
v 2.9 0 0.1
v 2.9 0.1 0.1
v 5 0 0.1
v 5 0.1 0.1
v 5 0.9 0.1
v 5 1 0.1
v -5 0.2 -0.3
v -5 0.8 -0.3
v 5 0.2 -0.3
v 5 0.8 -0.3
v -5 0 -0.5
v -5 0.2 -0.5
v -5 0.8 -0.5
v -5 1 -0.5
v -4.6 0 -0.5
v -4.6 0.1 -0.5
v -3 0 -0.5
v -3 0.1 -0.5
v -2.1 0.1 -0.5
v -2.1 0.2 -0.5
v -1 0.1 -0.5
v -1 0.2 -0.5
v -0.9 0 -0.5
v -0.9 0.1 -0.5
v -0.4 0 -0.5
v -0.4 0.1 -0.5
v 0.9 0.1 -0.5
v 0.9 0.2 -0.5
v 1.5 0.1 -0.5
v 1.5 0.2 -0.5
v 1.8 0 -0.5
v 1.8 0.1 -0.5
v 2.8 0 -0.5
v 2.8 0.1 -0.5
v 3.1 0 -0.5
v 3.1 0.1 -0.5
v 3.3 0 -0.5
v 3.3 0.1 -0.5
v 3.6 0 -0.5
v 3.6 0.1 -0.5
v 4.7 0 -0.5
v 4.7 0.1 -0.5
v 4.9 0 -0.5
v 4.9 0.1 -0.5
v 5 0 -0.5
v 5 0.1 -0.5
v 5 0.2 -0.5
v 5 0.8 -0.5
v 5 1 -0.5
v -5 0 0.5
v -4.2 0 0.5
v -3.4 0 0.5
v -2.3 0 0.5
v -0.4 0 0.5
v 0.2 0 0.5
v 1.5 0 0.5
v 2.5 0 0.5
v 3.4 0 0.5
v 4.1 0 0.5
v 5 0 0.5
v -4.2 0 0.4
v -3.4 0 0.4
v -2.3 0 0.4
v -0.4 0 0.4
v 0.2 0 0.4
v 1.5 0 0.4
v 2.5 0 0.4
v 3.4 0 0.4
v 4.1 0 0.4
v 5 0 0.4
v -1.6 0 0.3
v 0.4 0 0.3
v 3.1 0 0.3
v 4.2 0 0.3
v -4.3 0 0.2
v -1.6 0 0.2
v -1.4 0 0.2
v 0.4 0 0.2
v 1.6 0 0.2
v 2.9 0 0.2
v 3.1 0 0.2
v 4.2 0 0.2
v -5 0 0.1
v -4.3 0 0.1
v -1.4 0 0.1
v 1.6 0 0.1
v 2.9 0 0.1
v 5 0 0.1
v -5 0 -0.1
v -4.9 0 -0.1
v -3.7 0 -0.1
v 2.3 0 -0.1
v 4.4 0 -0.1
v 5 0 -0.1
v -4.9 0 -0.2
v -3.7 0 -0.2
v -3.2 0 -0.2
v -0.9 0 -0.2
v 1.1 0 -0.2
v 2.3 0 -0.2
v 3.5 0 -0.2
v 4.4 0 -0.2
v -3.2 0 -0.3
v -2.5 0 -0.3
v -0.9 0 -0.3
v 0.3 0 -0.3
v 1.1 0 -0.3
v 3.5 0 -0.3
v 4.9 0 -0.3
v 5 0 -0.3
v -4.6 0 -0.4
v -3 0 -0.4
v -2.5 0 -0.4
v -0.9 0 -0.4
v -0.4 0 -0.4
v 0.3 0 -0.4
v 1.8 0 -0.4
v 2.8 0 -0.4
v 3.1 0 -0.4
v 3.3 0 -0.4
v 3.6 0 -0.4
v 4.7 0 -0.4
v -5 0 -0.5
v -4.6 0 -0.5
v -3 0 -0.5
v -0.9 0 -0.5
v -0.4 0 -0.5
v 1.8 0 -0.5
v 2.8 0 -0.5
v 3.1 0 -0.5
v 3.3 0 -0.5
v 3.6 0 -0.5
v 4.7 0 -0.5
v 4.9 0 -0.5
v 5 0 -0.5
v -5 0.1 0.1
v -4.3 0.1 0.1
v -1.4 0.1 0.1
v 1.6 0.1 0.1
v 2.9 0.1 0.1
v 5 0.1 0.1
v -5 0.1 -0.1
v -4.9 0.1 -0.1
v -3.7 0.1 -0.1
v 2.3 0.1 -0.1
v 4.4 0.1 -0.1
v 5 0.1 -0.1
v -5 0.8 0.5
v 5 0.8 0.5
v -5 0.8 0.3
v 5 0.8 0.3
v -5 0.8 -0.3
v 5 0.8 -0.3
v -5 0.8 -0.5
v 5 0.8 -0.5
v -5 0.2 0.5
v -4.2 0.2 0.5
v -3.4 0.2 0.5
v 5 0.2 0.5
v -4.2 0.2 0.4
v -3.4 0.2 0.4
v -5 0.2 0.3
v 5 0.2 0.3
v -5 0.2 -0.3
v 5 0.2 -0.3
v -2.1 0.2 -0.4
v -1 0.2 -0.4
v 0.9 0.2 -0.4
v 1.5 0.2 -0.4
v -5 0.2 -0.5
v -2.1 0.2 -0.5
v -1 0.2 -0.5
v 0.9 0.2 -0.5
v 1.5 0.2 -0.5
v 5 0.2 -0.5
v -5 0.9 0.1
v 5 0.9 0.1
v -5 0.9 -0.1
v 5 0.9 -0.1
v -5 1 0.5
v 5 1 0.5
v -5 1 0.1
v 5 1 0.1
v -5 1 -0.1
v 5 1 -0.1
v -5 1 -0.5
v 5 1 -0.5

# faces
f 5/2/1 2/2/1 1/2/1
f 6/2/1 2/2/1 5/2/1
f 7/2/1 4/2/1 3/2/1
f 8/2/1 4/2/1 7/2/1
f 9/2/1 5/2/1 1/2/1
f 10/2/1 5/2/1 9/2/1
f 11/3/1 6/3/1 5/3/1
f 11/2/1 5/2/1 10/2/1
f 11/3/1 7/3/1 6/3/1
f 11/3/1 8/3/1 7/3/1
f 12/2/1 4/2/1 8/2/1
f 12/3/1 8/3/1 11/3/1
f 13/2/1 4/2/1 12/2/1
f 14/2/1 4/2/1 13/2/1
f 16/3/1 11/3/1 10/3/1
f 16/3/1 13/3/1 12/3/1
f 16/3/1 12/3/1 11/3/1
f 17/3/1 13/3/1 16/3/1
f 18/3/1 13/3/1 17/3/1
f 19/3/1 13/3/1 18/3/1
f 21/2/1 16/2/1 15/2/1
f 21/2/1 17/2/1 16/2/1
f 21/3/1 18/3/1 17/3/1
f 22/3/1 18/3/1 21/3/1
f 23/3/1 18/3/1 22/3/1
f 24/2/1 20/2/1 19/2/1
f 24/3/1 18/3/1 23/3/1
f 24/2/1 19/2/1 18/2/1
f 25/2/1 22/2/1 21/2/1
f 25/2/1 21/2/1 15/2/1
f 26/2/1 22/2/1 25/2/1
f 27/2/1 24/2/1 23/2/1
f 28/2/1 20/2/1 24/2/1
f 28/2/1 24/2/1 27/2/1
f 29/1/2 30/1/2 35/1/2
f 30/2/2 31/2/2 36/2/2
f 35/1/2 30/1/2 36/1/2
f 36/2/2 31/2/2 37/2/2
f 37/2/2 31/2/2 38/2/2
f 32/2/2 33/2/2 39/2/2
f 39/2/2 33/2/2 40/2/2
f 33/1/2 34/1/2 41/1/2
f 40/2/2 33/2/2 41/2/2
f 41/1/2 34/1/2 42/1/2
f 35/2/2 36/2/2 43/2/2
f 36/2/2 37/2/2 43/2/2
f 43/2/2 37/2/2 44/2/2
f 39/3/2 40/3/2 45/3/2
f 44/2/2 37/2/2 45/2/2
f 37/3/2 38/3/2 45/3/2
f 38/3/2 39/3/2 45/3/2
f 41/2/2 42/2/2 46/2/2
f 45/3/2 40/3/2 46/3/2
f 40/2/2 41/2/2 46/2/2
f 46/2/2 42/2/2 47/2/2
f 47/2/2 42/2/2 48/2/2
f 44/3/2 45/3/2 50/3/2
f 46/3/2 47/3/2 50/3/2
f 45/3/2 46/3/2 50/3/2
f 50/3/2 47/3/2 51/3/2
f 51/3/2 47/3/2 52/3/2
f 52/3/2 47/3/2 53/3/2
f 49/2/2 50/2/2 55/2/2
f 50/2/2 51/2/2 55/2/2
f 51/3/2 52/3/2 55/3/2
f 55/3/2 52/3/2 56/3/2
f 56/3/2 52/3/2 57/3/2
f 53/2/2 54/2/2 58/2/2
f 57/3/2 52/3/2 58/3/2
f 52/2/2 53/2/2 58/2/2
f 55/2/2 56/2/2 59/2/2
f 49/2/2 55/2/2 59/2/2
f 59/2/2 56/2/2 60/2/2
f 57/2/2 58/2/2 61/2/2
f 58/2/2 54/2/2 62/2/2
f 61/2/2 58/2/2 62/2/2
f 67/2/3 64/2/3 63/2/3
f 68/2/3 64/2/3 67/2/3
f 69/1/3 68/1/3 67/1/3
f 70/1/3 68/1/3 69/1/3
f 71/2/3 70/2/3 69/2/3
f 72/2/3 70/2/3 71/2/3
f 73/1/3 72/1/3 71/1/3
f 74/2/3 70/2/3 72/2/3
f 74/1/3 72/1/3 73/1/3
f 75/2/3 74/2/3 73/2/3
f 76/2/3 70/2/3 74/2/3
f 76/2/3 74/2/3 75/2/3
f 77/1/3 76/1/3 75/1/3
f 78/2/3 70/2/3 76/2/3
f 78/1/3 76/1/3 77/1/3
f 79/2/3 78/2/3 77/2/3
f 80/2/3 70/2/3 78/2/3
f 80/2/3 78/2/3 79/2/3
f 81/1/3 80/1/3 79/1/3
f 82/2/3 70/2/3 80/2/3
f 82/1/3 80/1/3 81/1/3
f 83/2/3 82/2/3 81/2/3
f 84/2/3 70/2/3 82/2/3
f 84/2/3 82/2/3 83/2/3
f 85/1/3 84/1/3 83/1/3
f 86/2/3 70/2/3 84/2/3
f 86/1/3 84/1/3 85/1/3
f 87/2/3 70/2/3 86/2/3
f 88/2/3 66/2/3 65/2/3
f 89/2/3 66/2/3 88/2/3
f 92/3/3 91/3/3 90/3/3
f 93/3/3 91/3/3 92/3/3
f 98/2/3 95/2/3 94/2/3
f 99/2/3 95/2/3 98/2/3
f 100/1/3 99/1/3 98/1/3
f 101/1/3 99/1/3 100/1/3
f 102/2/3 101/2/3 100/2/3
f 103/2/3 101/2/3 102/2/3
f 104/1/3 103/1/3 102/1/3
f 105/1/3 103/1/3 104/1/3
f 106/2/3 105/2/3 104/2/3
f 107/2/3 105/2/3 106/2/3
f 108/2/3 97/2/3 96/2/3
f 109/2/3 97/2/3 108/2/3
f 110/2/4 111/2/4 114/2/4
f 114/2/4 111/2/4 115/2/4
f 114/1/4 115/1/4 116/1/4
f 116/1/4 115/1/4 117/1/4
f 116/2/4 117/2/4 118/2/4
f 118/2/4 117/2/4 119/2/4
f 118/1/4 119/1/4 120/1/4
f 120/1/4 119/1/4 121/1/4
f 120/2/4 121/2/4 122/2/4
f 122/2/4 121/2/4 123/2/4
f 112/2/4 113/2/4 124/2/4
f 124/2/4 113/2/4 125/2/4
f 126/3/4 127/3/4 128/3/4
f 128/3/4 127/3/4 129/3/4
f 130/2/4 131/2/4 134/2/4
f 134/2/4 131/2/4 135/2/4
f 134/1/4 135/1/4 136/1/4
f 135/2/4 131/2/4 137/2/4
f 136/1/4 135/1/4 137/1/4
f 136/2/4 137/2/4 138/2/4
f 137/2/4 131/2/4 138/2/4
f 138/2/4 131/2/4 139/2/4
f 136/2/4 138/2/4 140/2/4
f 138/1/4 139/1/4 140/1/4
f 140/1/4 139/1/4 141/1/4
f 136/2/4 140/2/4 142/2/4
f 140/2/4 141/2/4 142/2/4
f 142/2/4 141/2/4 143/2/4
f 142/1/4 143/1/4 144/1/4
f 143/2/4 141/2/4 145/2/4
f 144/1/4 143/1/4 145/1/4
f 144/2/4 145/2/4 146/2/4
f 145/2/4 141/2/4 146/2/4
f 146/2/4 141/2/4 147/2/4
f 144/2/4 146/2/4 148/2/4
f 146/1/4 147/1/4 148/1/4
f 148/1/4 147/1/4 149/1/4
f 144/2/4 148/2/4 150/2/4
f 148/2/4 149/2/4 150/2/4
f 150/2/4 149/2/4 151/2/4
f 150/1/4 151/1/4 152/1/4
f 151/2/4 149/2/4 153/2/4
f 152/1/4 151/1/4 153/1/4
f 152/2/4 153/2/4 154/2/4
f 153/2/4 149/2/4 155/2/4
f 154/2/4 153/2/4 155/2/4
f 154/1/4 155/1/4 156/1/4
f 155/2/4 149/2/4 157/2/4
f 156/1/4 155/1/4 157/1/4
f 156/2/4 157/2/4 158/2/4
f 157/2/4 149/2/4 159/2/4
f 158/2/4 157/2/4 159/2/4
f 158/1/4 159/1/4 160/1/4
f 159/2/4 149/2/4 161/2/4
f 160/1/4 159/1/4 161/1/4
f 160/2/4 161/2/4 162/2/4
f 161/2/4 149/2/4 163/2/4
f 162/2/4 161/2/4 163/2/4
f 162/1/4 163/1/4 164/1/4
f 163/2/4 149/2/4 165/2/4
f 164/1/4 163/1/4 165/1/4
f 165/2/4 149/2/4 166/2/4
f 132/2/4 133/2/4 167/2/4
f 167/2/4 133/2/4 168/2/4
f 180/2/5 170/2/5 169/2/5
f 180/1/5 171/1/5 170/1/5
f 181/2/5 172/2/5 171/2/5
f 181/1/5 171/1/5 180/1/5
f 182/1/5 173/1/5 172/1/5
f 182/2/5 172/2/5 181/2/5
f 183/2/5 174/2/5 173/2/5
f 183/1/5 173/1/5 182/1/5
f 184/1/5 175/1/5 174/1/5
f 184/2/5 174/2/5 183/2/5
f 185/2/5 176/2/5 175/2/5
f 185/1/5 175/1/5 184/1/5
f 186/1/5 177/1/5 176/1/5
f 186/2/5 176/2/5 185/2/5
f 187/2/5 178/2/5 177/2/5
f 187/1/5 177/1/5 186/1/5
f 188/1/5 179/1/5 178/1/5
f 188/2/5 178/2/5 187/2/5
f 189/1/5 179/1/5 188/1/5
f 190/2/5 187/2/5 186/2/5
f 190/2/5 186/2/5 185/2/5
f 190/2/5 189/2/5 188/2/5
f 190/2/5 188/2/5 187/2/5
f 190/2/5 185/2/5 184/2/5
f 190/2/5 184/2/5 183/2/5
f 190/2/5 183/2/5 182/2/5
f 190/2/5 182/2/5 181/2/5
f 190/2/5 181/2/5 180/2/5
f 191/2/5 189/2/5 190/2/5
f 192/2/5 189/2/5 191/2/5
f 193/2/5 189/2/5 192/2/5
f 194/2/5 180/2/5 169/2/5
f 194/2/5 190/2/5 180/2/5
f 195/1/5 191/1/5 190/1/5
f 195/2/5 190/2/5 194/2/5
f 196/1/5 191/1/5 195/1/5
f 197/2/5 192/2/5 191/2/5
f 197/1/5 191/1/5 196/1/5
f 198/2/5 192/2/5 197/2/5
f 199/2/5 192/2/5 198/2/5
f 200/1/5 193/1/5 192/1/5
f 200/2/5 192/2/5 199/2/5
f 201/2/5 189/2/5 193/2/5
f 201/1/5 193/1/5 200/1/5
f 202/2/5 194/2/5 169/2/5
f 203/1/5 196/1/5 195/1/5
f 203/2/5 194/2/5 202/2/5
f 203/1/5 195/1/5 194/1/5
f 204/2/5 197/2/5 196/2/5
f 204/1/5 196/1/5 203/1/5
f 204/2/5 198/2/5 197/2/5
f 205/1/5 199/1/5 198/1/5
f 205/2/5 198/2/5 204/2/5
f 206/2/5 200/2/5 199/2/5
f 206/1/5 199/1/5 205/1/5
f 206/2/5 201/2/5 200/2/5
f 207/2/5 189/2/5 201/2/5
f 207/2/5 201/2/5 206/2/5
f 214/2/5 209/2/5 208/2/5
f 214/1/5 210/1/5 209/1/5
f 215/2/5 211/2/5 210/2/5
f 215/1/5 210/1/5 214/1/5
f 216/2/5 211/2/5 215/2/5
f 217/2/5 211/2/5 216/2/5
f 218/2/5 211/2/5 217/2/5
f 219/1/5 212/1/5 211/1/5
f 219/2/5 211/2/5 218/2/5
f 220/1/5 212/1/5 219/1/5
f 221/2/5 213/2/5 212/2/5
f 221/1/5 212/1/5 220/1/5
f 222/2/5 215/2/5 214/2/5
f 222/2/5 216/2/5 215/2/5
f 222/1/5 217/1/5 216/1/5
f 223/1/5 217/1/5 222/1/5
f 224/2/5 218/2/5 217/2/5
f 224/1/5 217/1/5 223/1/5
f 225/2/5 218/2/5 224/2/5
f 226/1/5 220/1/5 219/1/5
f 226/2/5 218/2/5 225/2/5
f 226/1/5 219/1/5 218/1/5
f 227/2/5 221/2/5 220/2/5
f 227/1/5 220/1/5 226/1/5
f 228/2/5 213/2/5 221/2/5
f 228/2/5 221/2/5 227/2/5
f 229/2/5 213/2/5 228/2/5
f 230/2/5 223/2/5 222/2/5
f 230/2/5 222/2/5 214/2/5
f 231/2/5 223/2/5 230/2/5
f 232/1/5 225/1/5 224/1/5
f 232/2/5 223/2/5 231/2/5
f 232/1/5 224/1/5 223/1/5
f 233/1/5 225/1/5 232/1/5
f 234/1/5 225/1/5 233/1/5
f 235/2/5 227/2/5 226/2/5
f 235/1/5 225/1/5 234/1/5
f 235/2/5 226/2/5 225/2/5
f 235/2/5 228/2/5 227/2/5
f 236/2/5 228/2/5 235/2/5
f 237/2/5 228/2/5 236/2/5
f 238/2/5 228/2/5 237/2/5
f 239/2/5 228/2/5 238/2/5
f 240/2/5 228/2/5 239/2/5
f 241/2/5 228/2/5 240/2/5
f 242/2/5 214/2/5 208/2/5
f 242/2/5 230/2/5 214/2/5
f 243/1/5 231/1/5 230/1/5
f 243/2/5 230/2/5 242/2/5
f 244/2/5 233/2/5 232/2/5
f 244/1/5 231/1/5 243/1/5
f 244/2/5 232/2/5 231/2/5
f 245/1/5 234/1/5 233/1/5
f 245/2/5 233/2/5 244/2/5
f 246/2/5 235/2/5 234/2/5
f 246/1/5 234/1/5 245/1/5
f 246/2/5 236/2/5 235/2/5
f 247/1/5 237/1/5 236/1/5
f 247/2/5 236/2/5 246/2/5
f 248/2/5 238/2/5 237/2/5
f 248/1/5 237/1/5 247/1/5
f 249/1/5 239/1/5 238/1/5
f 249/2/5 238/2/5 248/2/5
f 250/2/5 240/2/5 239/2/5
f 250/1/5 239/1/5 249/1/5
f 251/1/5 241/1/5 240/1/5
f 251/2/5 240/2/5 250/2/5
f 252/2/5 228/2/5 241/2/5
f 252/1/5 241/1/5 251/1/5
f 253/1/5 229/1/5 228/1/5
f 253/2/5 228/2/5 252/2/5
f 254/1/5 229/1/5 253/1/5
f 261/3/5 256/3/5 255/3/5
f 261/3/5 260/3/5 259/3/5
f 261/3/5 259/3/5 258/3/5
f 261/3/5 258/3/5 257/3/5
f 261/3/5 257/3/5 256/3/5
f 262/3/5 260/3/5 261/3/5
f 263/3/5 260/3/5 262/3/5
f 264/3/5 260/3/5 263/3/5
f 265/3/5 260/3/5 264/3/5
f 266/3/5 260/3/5 265/3/5
f 269/2/5 268/2/5 267/2/5
f 270/2/5 268/2/5 269/2/5
f 273/2/5 272/2/5 271/2/5
f 274/2/5 272/2/5 273/2/5
f 275/2/6 276/2/6 279/2/6
f 276/1/6 277/1/6 279/1/6
f 277/2/6 278/2/6 280/2/6
f 279/1/6 277/1/6 280/1/6
f 275/2/6 279/2/6 281/2/6
f 279/2/6 280/2/6 281/2/6
f 280/2/6 278/2/6 282/2/6
f 281/2/6 280/2/6 282/2/6
f 283/2/6 284/2/6 285/2/6
f 285/2/6 284/2/6 286/2/6
f 286/2/6 284/2/6 287/2/6
f 287/2/6 284/2/6 288/2/6
f 283/2/6 285/2/6 289/2/6
f 285/1/6 286/1/6 290/1/6
f 289/2/6 285/2/6 290/2/6
f 286/2/6 287/2/6 291/2/6
f 290/1/6 286/1/6 291/1/6
f 287/1/6 288/1/6 292/1/6
f 291/2/6 287/2/6 292/2/6
f 288/2/6 284/2/6 293/2/6
f 292/1/6 288/1/6 293/1/6
f 293/2/6 284/2/6 294/2/6
f 295/3/6 296/3/6 297/3/6
f 297/3/6 296/3/6 298/3/6
f 299/2/6 300/2/6 301/2/6
f 301/2/6 300/2/6 302/2/6
f 303/2/6 304/2/6 305/2/6
f 305/2/6 304/2/6 306/2/6
