# MagicaVoxel @ Ephtracy

# group
o 

# material
mtllib passportbooth.vox.mtl
usemtl palette

# normals
vn -1 0 0
vn 1 0 0
vn 0 0 1
vn 0 0 -1
vn 0 -1 0
vn 0 1 0

# texcoords
vt 0.650391 0.5
vt 0.935547 0.5
vt 0.986328 0.5

# verts
v -1.1 0 1.1
v -1.1 0 -1.1
v -1.1 0.2 1.1
v -1.1 0.2 -1.1
v -1 0.2 1
v -1 0.2 -1
v -1 0.8 1
v -1 0.8 -0.6
v -1 1.7 1
v -1 1.7 -0.6
v -1 2.1 1
v -1 2.1 -1
v -0.9 0.8 1
v -0.9 0.8 0.9
v -0.9 1.6 1.1
v -0.9 1.6 1
v -0.9 1.7 1
v -0.9 1.7 0.9
v -0.9 2 1.1
v -0.9 2 1
v -0.8 0.6 1.1
v -0.8 0.6 1
v -0.8 0.6 0.9
v -0.8 0.6 0.8
v -0.8 0.8 1.1
v -0.8 0.8 1
v -0.8 0.8 0.9
v -0.8 0.8 0.8
v 0.8 0.8 1
v 0.8 0.8 0.9
v 0.8 1.6 1
v 0.8 1.9 1
v 0.8 1.9 0.9
v 0.9 0.2 0.9
v 0.9 0.2 -0.9
v 0.9 0.8 0.9
v 0.9 0.8 -0.5
v 0.9 1.7 0.9
v 0.9 1.7 -0.5
v 0.9 2 0.9
v 0.9 2 -0.9
v -0.9 0.2 0.9
v -0.9 0.2 -0.9
v -0.9 0.8 0.9
v -0.9 0.8 -0.6
v -0.9 1.7 0.9
v -0.9 1.7 -0.6
v -0.9 2 0.9
v -0.9 2 -0.9
v -0.8 0.8 1
v -0.8 0.8 0.9
v -0.8 1.6 1
v -0.8 1.9 1
v -0.8 1.9 0.9
v 0.8 0.6 1.1
v 0.8 0.6 1
v 0.8 0.6 0.9
v 0.8 0.6 0.8
v 0.8 0.8 1.1
v 0.8 0.8 1
v 0.8 0.8 0.9
v 0.8 0.8 0.8
v 0.9 0.8 1
v 0.9 0.8 0.9
v 0.9 1.6 1.1
v 0.9 1.6 1
v 0.9 1.7 1
v 0.9 1.7 0.9
v 0.9 2 1.1
v 0.9 2 1
v 1 0.2 1
v 1 0.2 -1
v 1 0.8 1
v 1 0.8 -0.5
v 1 1.7 1
v 1 1.7 -0.5
v 1 2.1 1
v 1 2.1 -1
v 1.1 0 1.1
v 1.1 0 -1.1
v 1.1 0.2 1.1
v 1.1 0.2 -1.1
v -1.1 0 1.1
v -1.1 0.2 1.1
v -0.9 1.6 1.1
v -0.9 2 1.1
v -0.8 0.6 1.1
v -0.8 0.8 1.1
v 0.8 0.6 1.1
v 0.8 0.8 1.1
v 0.9 1.6 1.1
v 0.9 2 1.1
v 1.1 0 1.1
v 1.1 0.2 1.1
v -1 0.2 1
v -1 0.8 1
v -1 1.7 1
v -1 2.1 1
v -0.9 0.8 1
v -0.9 1.6 1
v -0.9 1.7 1
v -0.9 2 1
v -0.8 0.6 1
v -0.8 0.8 1
v -0.8 1.6 1
v 0.8 0.6 1
v 0.8 0.8 1
v 0.8 1.6 1
v 0.9 0.8 1
v 0.9 1.6 1
v 0.9 1.7 1
v 0.9 2 1
v 1 0.2 1
v 1 0.8 1
v 1 1.7 1
v 1 2.1 1
v 0.9 0.8 -0.5
v 0.9 1.7 -0.5
v 1 0.8 -0.5
v 1 1.7 -0.5
v -1 0.8 -0.6
v -1 1.7 -0.6
v -0.9 0.8 -0.6
v -0.9 1.7 -0.6
v -0.9 0.2 -0.9
v -0.9 2 -0.9
v 0.9 0.2 -0.9
v 0.9 2 -0.9
v -0.8 1.6 1
v -0.8 1.9 1
v 0.8 1.6 1
v 0.8 1.9 1
v -0.9 0.2 0.9
v -0.9 0.8 0.9
v -0.9 1.7 0.9
v -0.9 2 0.9
v -0.8 0.6 0.9
v -0.8 0.8 0.9
v -0.8 1.9 0.9
v 0.8 0.6 0.9
v 0.8 0.8 0.9
v 0.8 1.9 0.9
v 0.9 0.2 0.9
v 0.9 0.8 0.9
v 0.9 1.7 0.9
v 0.9 2 0.9
v -0.8 0.6 0.8
v -0.8 0.8 0.8
v 0.8 0.6 0.8
v 0.8 0.8 0.8
v -1 0.2 -1
v -1 2.1 -1
v 1 0.2 -1
v 1 2.1 -1
v -1.1 0 -1.1
v -1.1 0.2 -1.1
v 1.1 0 -1.1
v 1.1 0.2 -1.1
v -1.1 0 1.1
v 1.1 0 1.1
v -1.1 0 -1.1
v 1.1 0 -1.1
v -0.8 0.6 1.1
v 0.8 0.6 1.1
v -0.8 0.6 1
v 0.8 0.6 1
v -0.8 0.6 0.9
v 0.8 0.6 0.9
v -0.8 0.6 0.8
v 0.8 0.6 0.8
v -0.9 1.6 1.1
v 0.9 1.6 1.1
v -0.9 1.6 1
v -0.8 1.6 1
v 0.8 1.6 1
v 0.9 1.6 1
v -1 1.7 1
v -0.9 1.7 1
v 0.9 1.7 1
v 1 1.7 1
v -0.9 1.7 0.9
v 0.9 1.7 0.9
v 0.9 1.7 -0.5
v 1 1.7 -0.5
v -1 1.7 -0.6
v -0.9 1.7 -0.6
v -0.8 1.9 1
v 0.8 1.9 1
v -0.8 1.9 0.9
v 0.8 1.9 0.9
v -0.9 2 0.9
v 0.9 2 0.9
v -0.9 2 -0.9
v 0.9 2 -0.9
v -1.1 0.2 1.1
v 1.1 0.2 1.1
v -1 0.2 1
v 1 0.2 1
v -0.9 0.2 0.9
v 0.9 0.2 0.9
v -0.9 0.2 -0.9
v 0.9 0.2 -0.9
v -1 0.2 -1
v 1 0.2 -1
v -1.1 0.2 -1.1
v 1.1 0.2 -1.1
v -0.8 0.8 1.1
v 0.8 0.8 1.1
v -1 0.8 1
v -0.9 0.8 1
v -0.8 0.8 1
v 0.8 0.8 1
v 0.9 0.8 1
v 1 0.8 1
v -0.9 0.8 0.9
v -0.8 0.8 0.9
v 0.8 0.8 0.9
v 0.9 0.8 0.9
v -0.8 0.8 0.8
v 0.8 0.8 0.8
v 0.9 0.8 -0.5
v 1 0.8 -0.5
v -1 0.8 -0.6
v -0.9 0.8 -0.6
v -0.9 2 1.1
v 0.9 2 1.1
v -0.9 2 1
v 0.9 2 1
v -1 2.1 1
v 1 2.1 1
v -1 2.1 -1
v 1 2.1 -1

# faces
f 3/2/1 2/2/1 1/2/1
f 4/2/1 2/2/1 3/2/1
f 7/1/1 6/1/1 5/1/1
f 8/1/1 6/1/1 7/1/1
f 10/1/1 6/1/1 8/1/1
f 11/1/1 10/1/1 9/1/1
f 12/1/1 6/1/1 10/1/1
f 12/1/1 10/1/1 11/1/1
f 16/1/1 14/1/1 13/1/1
f 17/1/1 14/1/1 16/1/1
f 17/2/1 16/2/1 15/2/1
f 18/1/1 14/1/1 17/1/1
f 19/2/1 17/2/1 15/2/1
f 20/2/1 17/2/1 19/2/1
f 25/3/1 22/3/1 21/3/1
f 26/3/1 22/3/1 25/3/1
f 27/3/1 24/3/1 23/3/1
f 28/3/1 24/3/1 27/3/1
f 31/1/1 30/1/1 29/1/1
f 32/1/1 30/1/1 31/1/1
f 33/1/1 30/1/1 32/1/1
f 36/1/1 35/1/1 34/1/1
f 37/1/1 35/1/1 36/1/1
f 39/1/1 35/1/1 37/1/1
f 40/1/1 39/1/1 38/1/1
f 41/1/1 35/1/1 39/1/1
f 41/1/1 39/1/1 40/1/1
f 42/1/2 43/1/2 44/1/2
f 44/1/2 43/1/2 45/1/2
f 45/1/2 43/1/2 47/1/2
f 46/1/2 47/1/2 48/1/2
f 47/1/2 43/1/2 49/1/2
f 48/1/2 47/1/2 49/1/2
f 50/1/2 51/1/2 52/1/2
f 52/1/2 51/1/2 53/1/2
f 53/1/2 51/1/2 54/1/2
f 55/3/2 56/3/2 59/3/2
f 59/3/2 56/3/2 60/3/2
f 57/3/2 58/3/2 61/3/2
f 61/3/2 58/3/2 62/3/2
f 63/1/2 64/1/2 66/1/2
f 66/1/2 64/1/2 67/1/2
f 65/2/2 66/2/2 67/2/2
f 67/1/2 64/1/2 68/1/2
f 65/2/2 67/2/2 69/2/2
f 69/2/2 67/2/2 70/2/2
f 71/1/2 72/1/2 73/1/2
f 73/1/2 72/1/2 74/1/2
f 74/1/2 72/1/2 76/1/2
f 75/1/2 76/1/2 77/1/2
f 76/1/2 72/1/2 78/1/2
f 77/1/2 76/1/2 78/1/2
f 79/2/2 80/2/2 81/2/2
f 81/2/2 80/2/2 82/2/2
f 89/3/3 88/3/3 87/3/3
f 90/3/3 88/3/3 89/3/3
f 91/2/3 86/2/3 85/2/3
f 92/2/3 86/2/3 91/2/3
f 93/2/3 84/2/3 83/2/3
f 94/2/3 84/2/3 93/2/3
f 99/1/3 96/1/3 95/1/3
f 101/1/3 98/1/3 97/1/3
f 102/1/3 98/1/3 101/1/3
f 103/1/3 100/1/3 99/1/3
f 103/1/3 99/1/3 95/1/3
f 104/1/3 100/1/3 103/1/3
f 105/1/3 100/1/3 104/1/3
f 106/1/3 103/1/3 95/1/3
f 109/1/3 107/1/3 106/1/3
f 109/1/3 108/1/3 107/1/3
f 110/1/3 108/1/3 109/1/3
f 112/1/3 98/1/3 102/1/3
f 113/1/3 109/1/3 106/1/3
f 113/1/3 106/1/3 95/1/3
f 114/1/3 109/1/3 113/1/3
f 115/1/3 112/1/3 111/1/3
f 116/1/3 98/1/3 112/1/3
f 116/1/3 112/1/3 115/1/3
f 119/1/3 118/1/3 117/1/3
f 120/1/3 118/1/3 119/1/3
f 123/1/3 122/1/3 121/1/3
f 124/1/3 122/1/3 123/1/3
f 127/1/3 126/1/3 125/1/3
f 128/1/3 126/1/3 127/1/3
f 129/2/4 130/2/4 131/2/4
f 131/2/4 130/2/4 132/2/4
f 133/1/4 134/1/4 137/1/4
f 135/1/4 136/1/4 137/1/4
f 134/1/4 135/1/4 137/1/4
f 137/1/4 136/1/4 138/1/4
f 138/1/4 136/1/4 139/1/4
f 133/1/4 137/1/4 140/1/4
f 139/1/4 136/1/4 142/1/4
f 140/1/4 141/1/4 143/1/4
f 141/1/4 142/1/4 143/1/4
f 133/1/4 140/1/4 143/1/4
f 143/1/4 142/1/4 144/1/4
f 144/1/4 142/1/4 145/1/4
f 142/1/4 136/1/4 146/1/4
f 145/1/4 142/1/4 146/1/4
f 147/3/4 148/3/4 149/3/4
f 149/3/4 148/3/4 150/3/4
f 151/1/4 152/1/4 153/1/4
f 153/1/4 152/1/4 154/1/4
f 155/2/4 156/2/4 157/2/4
f 157/2/4 156/2/4 158/2/4
f 161/2/5 160/2/5 159/2/5
f 162/2/5 160/2/5 161/2/5
f 165/3/5 164/3/5 163/3/5
f 166/3/5 164/3/5 165/3/5
f 169/3/5 168/3/5 167/3/5
f 170/3/5 168/3/5 169/3/5
f 173/2/5 172/2/5 171/2/5
f 174/2/5 172/2/5 173/2/5
f 175/2/5 172/2/5 174/2/5
f 176/2/5 172/2/5 175/2/5
f 181/1/5 178/1/5 177/1/5
f 182/1/5 180/1/5 179/1/5
f 183/1/5 180/1/5 182/1/5
f 184/1/5 180/1/5 183/1/5
f 185/1/5 181/1/5 177/1/5
f 186/1/5 181/1/5 185/1/5
f 189/1/5 188/1/5 187/1/5
f 190/1/5 188/1/5 189/1/5
f 193/1/5 192/1/5 191/1/5
f 194/1/5 192/1/5 193/1/5
f 195/2/6 196/2/6 197/2/6
f 197/2/6 196/2/6 198/2/6
f 199/2/6 200/2/6 201/2/6
f 201/2/6 200/2/6 202/2/6
f 195/2/6 197/2/6 203/2/6
f 198/2/6 196/2/6 204/2/6
f 195/2/6 203/2/6 205/2/6
f 203/2/6 204/2/6 205/2/6
f 204/2/6 196/2/6 206/2/6
f 205/2/6 204/2/6 206/2/6
f 207/3/6 208/3/6 211/3/6
f 211/3/6 208/3/6 212/3/6
f 209/1/6 210/1/6 215/1/6
f 211/3/6 212/3/6 216/3/6
f 216/3/6 212/3/6 217/3/6
f 213/1/6 214/1/6 218/1/6
f 216/3/6 217/3/6 219/3/6
f 219/3/6 217/3/6 220/3/6
f 218/1/6 214/1/6 221/1/6
f 221/1/6 214/1/6 222/1/6
f 209/1/6 215/1/6 223/1/6
f 223/1/6 215/1/6 224/1/6
f 225/2/6 226/2/6 227/2/6
f 227/2/6 226/2/6 228/2/6
f 229/1/6 230/1/6 231/1/6
f 231/1/6 230/1/6 232/1/6
