# MagicaVoxel @ Ephtracy

# group
o 

# material
mtllib rust_patch_two.vox.mtl
usemtl palette

# normals
vn -1 0 0
vn 1 0 0
vn 0 0 1
vn 0 0 -1
vn 0 -1 0
vn 0 1 0

# texcoords
vt 0.123047 0.5
vt 0.158203 0.5
vt 0.181641 0.5
vt 0.185547 0.5
vt 0.244141 0.5

# verts
v -0.7 0 0.1
v -0.7 0 0
v -0.7 0.1 0.1
v -0.7 0.1 0
v -0.6 0 0.2
v -0.6 0 0.1
v -0.6 0 0
v -0.6 0 -0.1
v -0.6 0.1 0.2
v -0.6 0.1 0.1
v -0.6 0.1 0
v -0.6 0.1 -0.1
v -0.3 0 -0.1
v -0.3 0 -0.2
v -0.3 0.1 -0.1
v -0.3 0.1 -0.2
v 0 0 0.3
v 0 0 0.2
v 0 0.1 0.3
v 0 0.1 0.2
v 0.3 0 -0.1
v 0.3 0 -0.2
v 0.3 0.1 -0.1
v 0.3 0.1 -0.2
v 0.5 0 0
v 0.5 0 -0.1
v 0.5 0.1 0
v 0.5 0.1 -0.1
v 0.6 0 0.3
v 0.6 0 0.2
v 0.6 0.1 0.3
v 0.6 0.1 0.2
v 0.7 0 0.2
v 0.7 0 0.1
v 0.7 0 0
v 0.7 0.1 0.2
v 0.7 0.1 0.1
v 0.7 0.1 0
v 0 0 0.3
v 0 0.1 0.3
v 0.2 0 0.3
v 0.2 0.1 0.3
v 0.3 0 0.3
v 0.3 0.1 0.3
v 0.4 0 0.3
v 0.4 0.1 0.3
v 0.6 0 0.3
v 0.6 0.1 0.3
v -0.6 0 0.2
v -0.6 0.1 0.2
v -0.4 0 0.2
v -0.4 0.1 0.2
v -0.2 0 0.2
v -0.2 0.1 0.2
v -0.1 0 0.2
v -0.1 0.1 0.2
v 0 0 0.2
v 0 0.1 0.2
v 0.6 0 0.2
v 0.6 0.1 0.2
v 0.7 0 0.2
v 0.7 0.1 0.2
v -0.7 0 0.1
v -0.7 0.1 0.1
v -0.6 0 0.1
v -0.6 0.1 0.1
v -0.7 0 0
v -0.7 0.1 0
v -0.6 0 0
v -0.6 0.1 0
v 0.5 0 0
v 0.5 0.1 0
v 0.6 0 0
v 0.6 0.1 0
v 0.7 0 0
v 0.7 0.1 0
v -0.6 0 -0.1
v -0.6 0.1 -0.1
v -0.5 0 -0.1
v -0.5 0.1 -0.1
v -0.4 0 -0.1
v -0.4 0.1 -0.1
v -0.3 0 -0.1
v -0.3 0.1 -0.1
v 0.3 0 -0.1
v 0.3 0.1 -0.1
v 0.4 0 -0.1
v 0.4 0.1 -0.1
v 0.5 0 -0.1
v 0.5 0.1 -0.1
v -0.3 0 -0.2
v -0.3 0.1 -0.2
v -0.2 0 -0.2
v -0.2 0.1 -0.2
v -0.1 0 -0.2
v -0.1 0.1 -0.2
v 0 0 -0.2
v 0 0.1 -0.2
v 0.2 0 -0.2
v 0.2 0.1 -0.2
v 0.3 0 -0.2
v 0.3 0.1 -0.2
v 0 0 0.3
v 0.2 0 0.3
v 0.3 0 0.3
v 0.4 0 0.3
v 0.6 0 0.3
v -0.6 0 0.2
v -0.4 0 0.2
v -0.2 0 0.2
v -0.1 0 0.2
v 0 0 0.2
v 0.2 0 0.2
v 0.3 0 0.2
v 0.4 0 0.2
v 0.5 0 0.2
v 0.6 0 0.2
v 0.7 0 0.2
v -0.7 0 0.1
v -0.6 0 0.1
v -0.5 0 0.1
v -0.4 0 0.1
v -0.3 0 0.1
v -0.2 0 0.1
v -0.1 0 0.1
v 0 0 0.1
v 0.2 0 0.1
v 0.5 0 0.1
v 0.6 0 0.1
v 0.7 0 0.1
v -0.7 0 0
v -0.6 0 0
v -0.5 0 0
v -0.4 0 0
v -0.3 0 0
v -0.2 0 0
v -0.1 0 0
v 0 0 0
v 0.2 0 0
v 0.3 0 0
v 0.4 0 0
v 0.5 0 0
v 0.6 0 0
v 0.7 0 0
v -0.6 0 -0.1
v -0.5 0 -0.1
v -0.4 0 -0.1
v -0.3 0 -0.1
v -0.2 0 -0.1
v 0.3 0 -0.1
v 0.4 0 -0.1
v 0.5 0 -0.1
v -0.3 0 -0.2
v -0.2 0 -0.2
v -0.1 0 -0.2
v 0 0 -0.2
v 0.2 0 -0.2
v 0.3 0 -0.2
v 0 0.1 0.3
v 0.2 0.1 0.3
v 0.3 0.1 0.3
v 0.4 0.1 0.3
v 0.6 0.1 0.3
v -0.6 0.1 0.2
v -0.4 0.1 0.2
v -0.2 0.1 0.2
v -0.1 0.1 0.2
v 0 0.1 0.2
v 0.2 0.1 0.2
v 0.3 0.1 0.2
v 0.4 0.1 0.2
v 0.5 0.1 0.2
v 0.6 0.1 0.2
v 0.7 0.1 0.2
v -0.7 0.1 0.1
v -0.6 0.1 0.1
v -0.5 0.1 0.1
v -0.4 0.1 0.1
v -0.3 0.1 0.1
v -0.2 0.1 0.1
v -0.1 0.1 0.1
v 0 0.1 0.1
v 0.2 0.1 0.1
v 0.5 0.1 0.1
v 0.6 0.1 0.1
v 0.7 0.1 0.1
v -0.7 0.1 0
v -0.6 0.1 0
v -0.5 0.1 0
v -0.4 0.1 0
v -0.3 0.1 0
v -0.2 0.1 0
v -0.1 0.1 0
v 0 0.1 0
v 0.2 0.1 0
v 0.3 0.1 0
v 0.4 0.1 0
v 0.5 0.1 0
v 0.6 0.1 0
v 0.7 0.1 0
v -0.6 0.1 -0.1
v -0.5 0.1 -0.1
v -0.4 0.1 -0.1
v -0.3 0.1 -0.1
v -0.2 0.1 -0.1
v 0.3 0.1 -0.1
v 0.4 0.1 -0.1
v 0.5 0.1 -0.1
v -0.3 0.1 -0.2
v -0.2 0.1 -0.2
v -0.1 0.1 -0.2
v 0 0.1 -0.2
v 0.2 0.1 -0.2
v 0.3 0.1 -0.2

# faces
f 3/3/1 2/3/1 1/3/1
f 4/3/1 2/3/1 3/3/1
f 9/1/1 6/1/1 5/1/1
f 10/1/1 6/1/1 9/1/1
f 11/3/1 8/3/1 7/3/1
f 12/3/1 8/3/1 11/3/1
f 15/1/1 14/1/1 13/1/1
f 16/1/1 14/1/1 15/1/1
f 19/3/1 18/3/1 17/3/1
f 20/3/1 18/3/1 19/3/1
f 21/1/2 22/1/2 23/1/2
f 23/1/2 22/1/2 24/1/2
f 25/3/2 26/3/2 27/3/2
f 27/3/2 26/3/2 28/3/2
f 29/3/2 30/3/2 31/3/2
f 31/3/2 30/3/2 32/3/2
f 33/5/2 34/5/2 36/5/2
f 34/3/2 35/3/2 37/3/2
f 36/5/2 34/5/2 37/5/2
f 37/3/2 35/3/2 38/3/2
f 41/3/3 40/3/3 39/3/3
f 42/3/3 40/3/3 41/3/3
f 43/1/3 42/1/3 41/1/3
f 44/1/3 42/1/3 43/1/3
f 45/4/3 44/4/3 43/4/3
f 46/4/3 44/4/3 45/4/3
f 47/3/3 46/3/3 45/3/3
f 48/3/3 46/3/3 47/3/3
f 51/1/3 50/1/3 49/1/3
f 52/1/3 50/1/3 51/1/3
f 53/3/3 52/3/3 51/3/3
f 54/3/3 52/3/3 53/3/3
f 55/4/3 54/4/3 53/4/3
f 56/4/3 54/4/3 55/4/3
f 57/3/3 56/3/3 55/3/3
f 58/3/3 56/3/3 57/3/3
f 61/5/3 60/5/3 59/5/3
f 62/5/3 60/5/3 61/5/3
f 65/3/3 64/3/3 63/3/3
f 66/3/3 64/3/3 65/3/3
f 67/3/4 68/3/4 69/3/4
f 69/3/4 68/3/4 70/3/4
f 71/1/4 72/1/4 73/1/4
f 73/1/4 72/1/4 74/1/4
f 73/3/4 74/3/4 75/3/4
f 75/3/4 74/3/4 76/3/4
f 77/3/4 78/3/4 79/3/4
f 79/3/4 78/3/4 80/3/4
f 79/2/4 80/2/4 81/2/4
f 81/2/4 80/2/4 82/2/4
f 81/4/4 82/4/4 83/4/4
f 83/4/4 82/4/4 84/4/4
f 85/5/4 86/5/4 87/5/4
f 87/5/4 86/5/4 88/5/4
f 87/3/4 88/3/4 89/3/4
f 89/3/4 88/3/4 90/3/4
f 91/1/4 92/1/4 93/1/4
f 93/1/4 92/1/4 94/1/4
f 93/3/4 94/3/4 95/3/4
f 95/3/4 94/3/4 96/3/4
f 95/1/4 96/1/4 97/1/4
f 97/1/4 96/1/4 98/1/4
f 97/2/4 98/2/4 99/2/4
f 99/2/4 98/2/4 100/2/4
f 99/1/4 100/1/4 101/1/4
f 101/1/4 100/1/4 102/1/4
f 112/3/5 104/3/5 103/3/5
f 113/1/5 105/1/5 104/1/5
f 113/3/5 104/3/5 112/3/5
f 114/4/5 106/4/5 105/4/5
f 114/1/5 105/1/5 113/1/5
f 115/3/5 107/3/5 106/3/5
f 115/4/5 106/4/5 114/4/5
f 116/3/5 107/3/5 115/3/5
f 117/3/5 107/3/5 116/3/5
f 120/1/5 109/1/5 108/1/5
f 121/1/5 109/1/5 120/1/5
f 122/3/5 110/3/5 109/3/5
f 122/1/5 109/1/5 121/1/5
f 123/3/5 110/3/5 122/3/5
f 124/4/5 111/4/5 110/4/5
f 124/3/5 110/3/5 123/3/5
f 125/3/5 112/3/5 111/3/5
f 125/4/5 111/4/5 124/4/5
f 126/4/5 113/4/5 112/4/5
f 126/3/5 112/3/5 125/3/5
f 127/3/5 114/3/5 113/3/5
f 127/4/5 113/4/5 126/4/5
f 127/3/5 115/3/5 114/3/5
f 127/3/5 116/3/5 115/3/5
f 128/5/5 118/5/5 117/5/5
f 128/3/5 116/3/5 127/3/5
f 128/5/5 117/5/5 116/5/5
f 129/5/5 118/5/5 128/5/5
f 130/5/5 118/5/5 129/5/5
f 131/3/5 120/3/5 119/3/5
f 132/5/5 121/5/5 120/5/5
f 132/3/5 120/3/5 131/3/5
f 133/2/5 122/2/5 121/2/5
f 133/5/5 121/5/5 132/5/5
f 134/5/5 123/5/5 122/5/5
f 134/2/5 122/2/5 133/2/5
f 135/1/5 124/1/5 123/1/5
f 135/5/5 123/5/5 134/5/5
f 135/1/5 125/1/5 124/1/5
f 135/1/5 126/1/5 125/1/5
f 135/1/5 127/1/5 126/1/5
f 136/1/5 127/1/5 135/1/5
f 137/1/5 127/1/5 136/1/5
f 138/1/5 127/1/5 137/1/5
f 139/3/5 128/3/5 127/3/5
f 139/1/5 127/1/5 138/1/5
f 140/3/5 128/3/5 139/3/5
f 141/3/5 128/3/5 140/3/5
f 142/1/5 129/1/5 128/1/5
f 142/3/5 128/3/5 141/3/5
f 143/3/5 130/3/5 129/3/5
f 143/1/5 129/1/5 142/1/5
f 144/3/5 130/3/5 143/3/5
f 145/3/5 133/3/5 132/3/5
f 146/2/5 134/2/5 133/2/5
f 146/3/5 133/3/5 145/3/5
f 147/4/5 135/4/5 134/4/5
f 147/2/5 134/2/5 146/2/5
f 148/2/5 136/2/5 135/2/5
f 148/4/5 135/4/5 147/4/5
f 149/3/5 137/3/5 136/3/5
f 149/2/5 136/2/5 148/2/5
f 150/5/5 141/5/5 140/5/5
f 150/1/5 140/1/5 139/1/5
f 151/3/5 142/3/5 141/3/5
f 151/5/5 141/5/5 150/5/5
f 152/3/5 142/3/5 151/3/5
f 153/1/5 149/1/5 148/1/5
f 154/3/5 137/3/5 149/3/5
f 154/1/5 149/1/5 153/1/5
f 155/1/5 138/1/5 137/1/5
f 155/3/5 137/3/5 154/3/5
f 156/2/5 139/2/5 138/2/5
f 156/1/5 138/1/5 155/1/5
f 157/1/5 150/1/5 139/1/5
f 157/2/5 139/2/5 156/2/5
f 158/1/5 150/1/5 157/1/5
f 159/3/6 160/3/6 168/3/6
f 160/1/6 161/1/6 169/1/6
f 168/3/6 160/3/6 169/3/6
f 161/4/6 162/4/6 170/4/6
f 169/1/6 161/1/6 170/1/6
f 162/3/6 163/3/6 171/3/6
f 170/4/6 162/4/6 171/4/6
f 171/3/6 163/3/6 172/3/6
f 172/3/6 163/3/6 173/3/6
f 164/1/6 165/1/6 176/1/6
f 176/1/6 165/1/6 177/1/6
f 165/3/6 166/3/6 178/3/6
f 177/1/6 165/1/6 178/1/6
f 178/3/6 166/3/6 179/3/6
f 166/4/6 167/4/6 180/4/6
f 179/3/6 166/3/6 180/3/6
f 167/3/6 168/3/6 181/3/6
f 180/4/6 167/4/6 181/4/6
f 168/4/6 169/4/6 182/4/6
f 181/3/6 168/3/6 182/3/6
f 169/3/6 170/3/6 183/3/6
f 182/4/6 169/4/6 183/4/6
f 170/3/6 171/3/6 183/3/6
f 171/3/6 172/3/6 183/3/6
f 173/5/6 174/5/6 184/5/6
f 183/3/6 172/3/6 184/3/6
f 172/5/6 173/5/6 184/5/6
f 184/5/6 174/5/6 185/5/6
f 185/5/6 174/5/6 186/5/6
f 175/3/6 176/3/6 187/3/6
f 176/5/6 177/5/6 188/5/6
f 187/3/6 176/3/6 188/3/6
f 177/2/6 178/2/6 189/2/6
f 188/5/6 177/5/6 189/5/6
f 178/5/6 179/5/6 190/5/6
f 189/2/6 178/2/6 190/2/6
f 179/1/6 180/1/6 191/1/6
f 190/5/6 179/5/6 191/5/6
f 180/1/6 181/1/6 191/1/6
f 181/1/6 182/1/6 191/1/6
f 182/1/6 183/1/6 191/1/6
f 191/1/6 183/1/6 192/1/6
f 192/1/6 183/1/6 193/1/6
f 193/1/6 183/1/6 194/1/6
f 183/3/6 184/3/6 195/3/6
f 194/1/6 183/1/6 195/1/6
f 195/3/6 184/3/6 196/3/6
f 196/3/6 184/3/6 197/3/6
f 184/1/6 185/1/6 198/1/6
f 197/3/6 184/3/6 198/3/6
f 185/3/6 186/3/6 199/3/6
f 198/1/6 185/1/6 199/1/6
f 199/3/6 186/3/6 200/3/6
f 188/3/6 189/3/6 201/3/6
f 189/2/6 190/2/6 202/2/6
f 201/3/6 189/3/6 202/3/6
f 190/4/6 191/4/6 203/4/6
f 202/2/6 190/2/6 203/2/6
f 191/2/6 192/2/6 204/2/6
f 203/4/6 191/4/6 204/4/6
f 192/3/6 193/3/6 205/3/6
f 204/2/6 192/2/6 205/2/6
f 196/5/6 197/5/6 206/5/6
f 195/1/6 196/1/6 206/1/6
f 197/3/6 198/3/6 207/3/6
f 206/5/6 197/5/6 207/5/6
f 207/3/6 198/3/6 208/3/6
f 204/1/6 205/1/6 209/1/6
f 205/3/6 193/3/6 210/3/6
f 209/1/6 205/1/6 210/1/6
f 193/1/6 194/1/6 211/1/6
f 210/3/6 193/3/6 211/3/6
f 194/2/6 195/2/6 212/2/6
f 211/1/6 194/1/6 212/1/6
f 195/1/6 206/1/6 213/1/6
f 212/2/6 195/2/6 213/2/6
f 213/1/6 206/1/6 214/1/6
