# MagicaVoxel @ Ephtracy

# group
o 

# material
mtllib rust_patch_one.vox.mtl
usemtl palette

# normals
vn -1 0 0
vn 1 0 0
vn 0 0 1
vn 0 0 -1
vn 0 -1 0
vn 0 1 0

# texcoords
vt 0.181641 0.5
vt 0.185547 0.5
vt 0.216797 0.5

# verts
v -0.5 0.1 0.1
v -0.5 0.1 0
v -0.5 0.1 -0.1
v -0.5 0.2 0.1
v -0.5 0.2 0
v -0.5 0.2 -0.1
v -0.4 0.1 0.2
v -0.4 0.1 0.1
v -0.4 0.1 -0.1
v -0.4 0.1 -0.2
v -0.4 0.2 0.2
v -0.4 0.2 0.1
v -0.4 0.2 -0.1
v -0.4 0.2 -0.2
v -0.3 0 -0.1
v -0.3 0 -0.2
v -0.3 0.1 0.3
v -0.3 0.1 0.2
v -0.3 0.1 -0.1
v -0.3 0.1 -0.2
v -0.3 0.2 0.3
v -0.3 0.2 0.2
v -0.1 0.1 0.3
v -0.1 0.1 0.2
v -0.1 0.2 0.3
v -0.1 0.2 0.2
v 0.1 0 -0.1
v 0.1 0 -0.2
v 0.1 0.1 -0.1
v 0.1 0.1 -0.2
v 0.3 0.1 -0.1
v 0.3 0.1 -0.2
v 0.3 0.2 -0.1
v 0.3 0.2 -0.2
v 0.4 0.1 0.2
v 0.4 0.1 0.1
v 0.4 0.1 0
v 0.4 0.1 -0.1
v 0.4 0.2 0.2
v 0.4 0.2 0.1
v 0.4 0.2 0
v 0.4 0.2 -0.1
v 0.5 0.1 0.1
v 0.5 0.1 0
v 0.5 0.2 0.1
v 0.5 0.2 0
v -0.3 0.1 0.3
v -0.3 0.2 0.3
v -0.1 0.1 0.3
v -0.1 0.2 0.3
v -0.4 0.1 0.2
v -0.4 0.2 0.2
v -0.3 0.1 0.2
v -0.3 0.2 0.2
v -0.1 0.1 0.2
v -0.1 0.2 0.2
v 0.2 0.1 0.2
v 0.2 0.2 0.2
v 0.4 0.1 0.2
v 0.4 0.2 0.2
v -0.5 0.1 0.1
v -0.5 0.2 0.1
v -0.4 0.1 0.1
v -0.4 0.2 0.1
v 0.4 0.1 0.1
v 0.4 0.2 0.1
v 0.5 0.1 0.1
v 0.5 0.2 0.1
v -0.3 0 -0.1
v -0.3 0.1 -0.1
v -0.1 0 -0.1
v -0.1 0.1 -0.1
v 0 0 -0.1
v 0 0.1 -0.1
v 0.1 0 -0.1
v 0.1 0.1 -0.1
v 0.4 0.1 0
v 0.4 0.2 0
v 0.5 0.1 0
v 0.5 0.2 0
v -0.5 0.1 -0.1
v -0.5 0.2 -0.1
v -0.4 0.1 -0.1
v -0.4 0.2 -0.1
v 0.3 0.1 -0.1
v 0.3 0.2 -0.1
v 0.4 0.1 -0.1
v 0.4 0.2 -0.1
v -0.4 0.1 -0.2
v -0.4 0.2 -0.2
v -0.3 0 -0.2
v -0.3 0.1 -0.2
v -0.1 0 -0.2
v -0.1 0.1 -0.2
v -0.1 0.2 -0.2
v 0 0 -0.2
v 0 0.1 -0.2
v 0 0.2 -0.2
v 0.1 0 -0.2
v 0.1 0.1 -0.2
v 0.1 0.2 -0.2
v 0.2 0.1 -0.2
v 0.2 0.2 -0.2
v 0.3 0.1 -0.2
v 0.3 0.2 -0.2
v -0.3 0 -0.1
v -0.1 0 -0.1
v 0 0 -0.1
v 0.1 0 -0.1
v -0.3 0 -0.2
v -0.1 0 -0.2
v 0 0 -0.2
v 0.1 0 -0.2
v -0.3 0.1 0.3
v -0.1 0.1 0.3
v -0.4 0.1 0.2
v -0.3 0.1 0.2
v -0.1 0.1 0.2
v 0.2 0.1 0.2
v 0.4 0.1 0.2
v -0.5 0.1 0.1
v -0.4 0.1 0.1
v -0.3 0.1 0.1
v 0.1 0.1 0.1
v 0.4 0.1 0.1
v 0.5 0.1 0.1
v -0.5 0.1 0
v -0.4 0.1 0
v 0 0.1 0
v 0.1 0.1 0
v 0.2 0.1 0
v 0.3 0.1 0
v 0.4 0.1 0
v 0.5 0.1 0
v -0.5 0.1 -0.1
v -0.4 0.1 -0.1
v -0.3 0.1 -0.1
v -0.1 0.1 -0.1
v 0 0.1 -0.1
v 0.1 0.1 -0.1
v 0.2 0.1 -0.1
v 0.3 0.1 -0.1
v 0.4 0.1 -0.1
v -0.4 0.1 -0.2
v -0.3 0.1 -0.2
v 0.1 0.1 -0.2
v 0.2 0.1 -0.2
v 0.3 0.1 -0.2
v -0.3 0.2 0.3
v -0.1 0.2 0.3
v -0.4 0.2 0.2
v -0.3 0.2 0.2
v -0.1 0.2 0.2
v 0.2 0.2 0.2
v 0.4 0.2 0.2
v -0.5 0.2 0.1
v -0.4 0.2 0.1
v -0.3 0.2 0.1
v 0.1 0.2 0.1
v 0.4 0.2 0.1
v 0.5 0.2 0.1
v -0.5 0.2 0
v -0.4 0.2 0
v 0 0.2 0
v 0.1 0.2 0
v 0.2 0.2 0
v 0.3 0.2 0
v 0.4 0.2 0
v 0.5 0.2 0
v -0.5 0.2 -0.1
v -0.4 0.2 -0.1
v -0.1 0.2 -0.1
v 0 0.2 -0.1
v 0.1 0.2 -0.1
v 0.2 0.2 -0.1
v 0.3 0.2 -0.1
v 0.4 0.2 -0.1
v -0.4 0.2 -0.2
v -0.1 0.2 -0.2
v 0 0.2 -0.2
v 0.1 0.2 -0.2
v 0.2 0.2 -0.2
v 0.3 0.2 -0.2

# faces
f 4/3/1 2/3/1 1/3/1
f 5/2/1 3/2/1 2/2/1
f 5/3/1 2/3/1 4/3/1
f 6/2/1 3/2/1 5/2/1
f 11/2/1 8/2/1 7/2/1
f 12/2/1 8/2/1 11/2/1
f 13/1/1 10/1/1 9/1/1
f 14/1/1 10/1/1 13/1/1
f 19/1/1 16/1/1 15/1/1
f 20/1/1 16/1/1 19/1/1
f 21/3/1 18/3/1 17/3/1
f 22/3/1 18/3/1 21/3/1
f 23/3/2 24/3/2 25/3/2
f 25/3/2 24/3/2 26/3/2
f 27/2/2 28/2/2 29/2/2
f 29/2/2 28/2/2 30/2/2
f 31/1/2 32/1/2 33/1/2
f 33/1/2 32/1/2 34/1/2
f 35/2/2 36/2/2 39/2/2
f 39/2/2 36/2/2 40/2/2
f 37/2/2 38/2/2 41/2/2
f 41/2/2 38/2/2 42/2/2
f 43/2/2 44/2/2 45/2/2
f 45/2/2 44/2/2 46/2/2
f 49/3/3 48/3/3 47/3/3
f 50/3/3 48/3/3 49/3/3
f 53/2/3 52/2/3 51/2/3
f 54/2/3 52/2/3 53/2/3
f 57/3/3 56/3/3 55/3/3
f 58/3/3 56/3/3 57/3/3
f 59/2/3 58/2/3 57/2/3
f 60/2/3 58/2/3 59/2/3
f 63/3/3 62/3/3 61/3/3
f 64/3/3 62/3/3 63/3/3
f 67/2/3 66/2/3 65/2/3
f 68/2/3 66/2/3 67/2/3
f 71/1/3 70/1/3 69/1/3
f 72/1/3 70/1/3 71/1/3
f 73/3/3 72/3/3 71/3/3
f 74/3/3 72/3/3 73/3/3
f 75/2/3 74/2/3 73/2/3
f 76/2/3 74/2/3 75/2/3
f 77/2/4 78/2/4 79/2/4
f 79/2/4 78/2/4 80/2/4
f 81/2/4 82/2/4 83/2/4
f 83/2/4 82/2/4 84/2/4
f 85/2/4 86/2/4 87/2/4
f 87/2/4 86/2/4 88/2/4
f 89/1/4 90/1/4 92/1/4
f 91/1/4 92/1/4 93/1/4
f 92/1/4 90/1/4 94/1/4
f 93/1/4 92/1/4 94/1/4
f 94/1/4 90/1/4 95/1/4
f 93/3/4 94/3/4 96/3/4
f 94/2/4 95/2/4 97/2/4
f 96/3/4 94/3/4 97/3/4
f 97/2/4 95/2/4 98/2/4
f 96/2/4 97/2/4 99/2/4
f 97/1/4 98/1/4 100/1/4
f 99/2/4 97/2/4 100/2/4
f 100/1/4 98/1/4 101/1/4
f 100/2/4 101/2/4 102/2/4
f 102/2/4 101/2/4 103/2/4
f 102/1/4 103/1/4 104/1/4
f 104/1/4 103/1/4 105/1/4
f 110/1/5 107/1/5 106/1/5
f 111/3/5 108/3/5 107/3/5
f 111/1/5 107/1/5 110/1/5
f 112/2/5 109/2/5 108/2/5
f 112/3/5 108/3/5 111/3/5
f 113/2/5 109/2/5 112/2/5
f 117/3/5 115/3/5 114/3/5
f 118/3/5 115/3/5 117/3/5
f 122/2/5 117/2/5 116/2/5
f 123/3/5 118/3/5 117/3/5
f 123/3/5 119/3/5 118/3/5
f 123/2/5 117/2/5 122/2/5
f 124/3/5 119/3/5 123/3/5
f 125/2/5 120/2/5 119/2/5
f 127/3/5 122/3/5 121/3/5
f 128/2/5 123/2/5 122/2/5
f 128/3/5 122/3/5 127/3/5
f 128/2/5 124/2/5 123/2/5
f 129/2/5 124/2/5 128/2/5
f 130/3/5 119/3/5 124/3/5
f 130/2/5 124/2/5 129/2/5
f 131/2/5 126/2/5 125/2/5
f 131/3/5 119/3/5 130/3/5
f 131/2/5 125/2/5 119/2/5
f 132/2/5 126/2/5 131/2/5
f 133/2/5 126/2/5 132/2/5
f 134/2/5 126/2/5 133/2/5
f 135/2/5 128/2/5 127/2/5
f 136/1/5 129/1/5 128/1/5
f 136/2/5 128/2/5 135/2/5
f 137/1/5 129/1/5 136/1/5
f 138/1/5 129/1/5 137/1/5
f 139/2/5 130/2/5 129/2/5
f 139/1/5 129/1/5 138/1/5
f 139/2/5 131/2/5 130/2/5
f 140/2/5 131/2/5 139/2/5
f 141/3/5 132/3/5 131/3/5
f 141/2/5 131/2/5 140/2/5
f 142/2/5 133/2/5 132/2/5
f 142/3/5 132/3/5 141/3/5
f 143/2/5 133/2/5 142/2/5
f 144/1/5 137/1/5 136/1/5
f 145/1/5 137/1/5 144/1/5
f 146/2/5 141/2/5 140/2/5
f 147/1/5 142/1/5 141/1/5
f 147/2/5 141/2/5 146/2/5
f 148/1/5 142/1/5 147/1/5
f 149/3/6 150/3/6 152/3/6
f 152/3/6 150/3/6 153/3/6
f 151/2/6 152/2/6 157/2/6
f 152/3/6 153/3/6 158/3/6
f 153/3/6 154/3/6 158/3/6
f 157/2/6 152/2/6 158/2/6
f 158/3/6 154/3/6 159/3/6
f 154/2/6 155/2/6 160/2/6
f 156/3/6 157/3/6 162/3/6
f 157/2/6 158/2/6 163/2/6
f 162/3/6 157/3/6 163/3/6
f 158/2/6 159/2/6 163/2/6
f 163/2/6 159/2/6 164/2/6
f 159/3/6 154/3/6 165/3/6
f 164/2/6 159/2/6 165/2/6
f 160/2/6 161/2/6 166/2/6
f 165/3/6 154/3/6 166/3/6
f 154/2/6 160/2/6 166/2/6
f 166/2/6 161/2/6 167/2/6
f 167/2/6 161/2/6 168/2/6
f 168/2/6 161/2/6 169/2/6
f 162/2/6 163/2/6 170/2/6
f 163/1/6 164/1/6 171/1/6
f 170/2/6 163/2/6 171/2/6
f 171/1/6 164/1/6 172/1/6
f 164/2/6 165/2/6 173/2/6
f 172/1/6 164/1/6 173/1/6
f 165/2/6 166/2/6 173/2/6
f 173/2/6 166/2/6 174/2/6
f 166/3/6 167/3/6 175/3/6
f 174/2/6 166/2/6 175/2/6
f 167/2/6 168/2/6 176/2/6
f 175/3/6 167/3/6 176/3/6
f 176/2/6 168/2/6 177/2/6
f 171/1/6 172/1/6 178/1/6
f 172/2/6 173/2/6 179/2/6
f 178/1/6 172/1/6 179/1/6
f 173/1/6 174/1/6 180/1/6
f 179/2/6 173/2/6 180/2/6
f 174/2/6 175/2/6 181/2/6
f 180/1/6 174/1/6 181/1/6
f 175/1/6 176/1/6 182/1/6
f 181/2/6 175/2/6 182/2/6
f 182/1/6 176/1/6 183/1/6
