# MagicaVoxel @ Ephtracy

# group
o 

# material
mtllib trainside_close.vox.mtl
usemtl palette

# normals
vn -1 0 0
vn 1 0 0
vn 0 0 1
vn 0 0 -1
vn 0 -1 0
vn 0 1 0

# texcoords
vt 0.943359 0.5
vt 0.951172 0.5
vt 0.955078 0.5

# verts
v -1.6 0 0.8
v -1.6 0 0.5
v -1.6 0 0.4
v -1.6 0 0.1
v -1.6 0 0
v -1.6 0 -0.3
v -1.6 0 -0.4
v -1.6 0 -0.7
v -1.6 0 -0.8
v -1.6 0.1 0.8
v -1.6 0.1 0.5
v -1.6 0.1 0.4
v -1.6 0.1 0.1
v -1.6 0.1 0
v -1.6 0.1 -0.3
v -1.6 0.1 -0.4
v -1.6 0.1 -0.7
v -1.6 0.1 -0.8
v 1.6 0 0.8
v 1.6 0 0.7
v 1.6 0 0.5
v 1.6 0 0.4
v 1.6 0 0.1
v 1.6 0 0
v 1.6 0 -0.3
v 1.6 0 -0.4
v 1.6 0 -0.7
v 1.6 0 -0.8
v 1.6 0.1 0.8
v 1.6 0.1 0.7
v 1.6 0.1 0.5
v 1.6 0.1 0.4
v 1.6 0.1 0.1
v 1.6 0.1 0
v 1.6 0.1 -0.3
v 1.6 0.1 -0.4
v 1.6 0.1 -0.7
v 1.6 0.1 -0.8
v -1.6 0 0.8
v -1.6 0.1 0.8
v 1.2 0 0.8
v 1.2 0.1 0.8
v 1.6 0 0.8
v 1.6 0.1 0.8
v -1.6 0 -0.8
v -1.6 0.1 -0.8
v 1.6 0 -0.8
v 1.6 0.1 -0.8
v -1.6 0 0.8
v 1.2 0 0.8
v 1.6 0 0.8
v 1.2 0 0.7
v 1.6 0 0.7
v -0.2 0 0.6
v 0.7 0 0.6
v -1.6 0 0.5
v -0.2 0 0.5
v 0.7 0 0.5
v 1.6 0 0.5
v -1.6 0 0.4
v -1.5 0 0.4
v -0.7 0 0.4
v 1.6 0 0.4
v -1.5 0 0.3
v -0.7 0 0.3
v -0.4 0 0.2
v 0.3 0 0.2
v -1.6 0 0.1
v -0.4 0 0.1
v 0.3 0 0.1
v 1.6 0 0.1
v -1.6 0 0
v 0.4 0 0
v 1.1 0 0
v 1.6 0 0
v -0.9 0 -0.1
v -0.4 0 -0.1
v 0.4 0 -0.1
v 1.1 0 -0.1
v -0.9 0 -0.2
v -0.4 0 -0.2
v -1.6 0 -0.3
v 1.6 0 -0.3
v -1.6 0 -0.4
v 0.7 0 -0.4
v 1.1 0 -0.4
v 1.6 0 -0.4
v -1.3 0 -0.5
v -0.8 0 -0.5
v 0.7 0 -0.5
v 1.1 0 -0.5
v -1.3 0 -0.6
v -0.8 0 -0.6
v -1.6 0 -0.7
v 1.6 0 -0.7
v -1.6 0 -0.8
v 1.6 0 -0.8
v -1.6 0.1 0.8
v 1.2 0.1 0.8
v 1.6 0.1 0.8
v 1.2 0.1 0.7
v 1.6 0.1 0.7
v -0.2 0.1 0.6
v 0.7 0.1 0.6
v -1.6 0.1 0.5
v -0.2 0.1 0.5
v 0.7 0.1 0.5
v 1.6 0.1 0.5
v -1.6 0.1 0.4
v -1.5 0.1 0.4
v -0.7 0.1 0.4
v 1.6 0.1 0.4
v -1.5 0.1 0.3
v -0.7 0.1 0.3
v -0.4 0.1 0.2
v 0.3 0.1 0.2
v -1.6 0.1 0.1
v -0.4 0.1 0.1
v 0.3 0.1 0.1
v 1.6 0.1 0.1
v -1.6 0.1 0
v 0.4 0.1 0
v 1.1 0.1 0
v 1.6 0.1 0
v -0.9 0.1 -0.1
v -0.4 0.1 -0.1
v 0.4 0.1 -0.1
v 1.1 0.1 -0.1
v -0.9 0.1 -0.2
v -0.4 0.1 -0.2
v -1.6 0.1 -0.3
v 1.6 0.1 -0.3
v -1.6 0.1 -0.4
v 0.7 0.1 -0.4
v 1.1 0.1 -0.4
v 1.6 0.1 -0.4
v -1.3 0.1 -0.5
v -0.8 0.1 -0.5
v 0.7 0.1 -0.5
v 1.1 0.1 -0.5
v -1.3 0.1 -0.6
v -0.8 0.1 -0.6
v -1.6 0.1 -0.7
v 1.6 0.1 -0.7
v -1.6 0.1 -0.8
v 1.6 0.1 -0.8

# faces
f 10/2/1 2/2/1 1/2/1
f 11/1/1 3/1/1 2/1/1
f 11/2/1 2/2/1 10/2/1
f 12/2/1 4/2/1 3/2/1
f 12/1/1 3/1/1 11/1/1
f 13/1/1 5/1/1 4/1/1
f 13/2/1 4/2/1 12/2/1
f 14/2/1 6/2/1 5/2/1
f 14/1/1 5/1/1 13/1/1
f 15/1/1 7/1/1 6/1/1
f 15/2/1 6/2/1 14/2/1
f 16/2/1 8/2/1 7/2/1
f 16/1/1 7/1/1 15/1/1
f 17/1/1 9/1/1 8/1/1
f 17/2/1 8/2/1 16/2/1
f 18/1/1 9/1/1 17/1/1
f 19/3/2 20/3/2 29/3/2
f 20/2/2 21/2/2 30/2/2
f 29/3/2 20/3/2 30/3/2
f 21/1/2 22/1/2 31/1/2
f 30/2/2 21/2/2 31/2/2
f 22/2/2 23/2/2 32/2/2
f 31/1/2 22/1/2 32/1/2
f 23/1/2 24/1/2 33/1/2
f 32/2/2 23/2/2 33/2/2
f 24/2/2 25/2/2 34/2/2
f 33/1/2 24/1/2 34/1/2
f 25/1/2 26/1/2 35/1/2
f 34/2/2 25/2/2 35/2/2
f 26/2/2 27/2/2 36/2/2
f 35/1/2 26/1/2 36/1/2
f 27/1/2 28/1/2 37/1/2
f 36/2/2 27/2/2 37/2/2
f 37/1/2 28/1/2 38/1/2
f 41/2/3 40/2/3 39/2/3
f 42/2/3 40/2/3 41/2/3
f 43/3/3 42/3/3 41/3/3
f 44/3/3 42/3/3 43/3/3
f 45/1/4 46/1/4 47/1/4
f 47/1/4 46/1/4 48/1/4
f 52/2/5 50/2/5 49/2/5
f 52/3/5 51/3/5 50/3/5
f 53/3/5 51/3/5 52/3/5
f 54/2/5 52/2/5 49/2/5
f 54/2/5 53/2/5 52/2/5
f 55/2/5 53/2/5 54/2/5
f 56/2/5 54/2/5 49/2/5
f 57/3/5 55/3/5 54/3/5
f 57/2/5 54/2/5 56/2/5
f 58/2/5 53/2/5 55/2/5
f 58/3/5 55/3/5 57/3/5
f 59/2/5 53/2/5 58/2/5
f 60/1/5 57/1/5 56/1/5
f 60/1/5 58/1/5 57/1/5
f 60/1/5 59/1/5 58/1/5
f 61/1/5 59/1/5 60/1/5
f 62/1/5 59/1/5 61/1/5
f 63/1/5 59/1/5 62/1/5
f 64/2/5 61/2/5 60/2/5
f 64/3/5 62/3/5 61/3/5
f 65/2/5 63/2/5 62/2/5
f 65/3/5 62/3/5 64/3/5
f 66/2/5 65/2/5 64/2/5
f 66/2/5 63/2/5 65/2/5
f 67/2/5 63/2/5 66/2/5
f 68/2/5 64/2/5 60/2/5
f 68/2/5 66/2/5 64/2/5
f 69/3/5 67/3/5 66/3/5
f 69/2/5 66/2/5 68/2/5
f 70/2/5 63/2/5 67/2/5
f 70/3/5 67/3/5 69/3/5
f 71/2/5 63/2/5 70/2/5
f 72/1/5 69/1/5 68/1/5
f 72/1/5 70/1/5 69/1/5
f 72/1/5 71/1/5 70/1/5
f 73/1/5 71/1/5 72/1/5
f 74/1/5 71/1/5 73/1/5
f 75/1/5 71/1/5 74/1/5
f 76/2/5 73/2/5 72/2/5
f 77/2/5 73/2/5 76/2/5
f 78/3/5 74/3/5 73/3/5
f 78/2/5 73/2/5 77/2/5
f 79/2/5 75/2/5 74/2/5
f 79/3/5 74/3/5 78/3/5
f 80/3/5 77/3/5 76/3/5
f 80/2/5 76/2/5 72/2/5
f 81/2/5 78/2/5 77/2/5
f 81/3/5 77/3/5 80/3/5
f 81/2/5 79/2/5 78/2/5
f 82/2/5 80/2/5 72/2/5
f 82/2/5 81/2/5 80/2/5
f 83/2/5 75/2/5 79/2/5
f 83/2/5 81/2/5 82/2/5
f 83/2/5 79/2/5 81/2/5
f 84/1/5 83/1/5 82/1/5
f 85/1/5 83/1/5 84/1/5
f 86/1/5 83/1/5 85/1/5
f 87/1/5 83/1/5 86/1/5
f 88/2/5 85/2/5 84/2/5
f 89/2/5 85/2/5 88/2/5
f 90/3/5 86/3/5 85/3/5
f 90/2/5 85/2/5 89/2/5
f 91/2/5 87/2/5 86/2/5
f 91/3/5 86/3/5 90/3/5
f 92/3/5 89/3/5 88/3/5
f 92/2/5 88/2/5 84/2/5
f 93/2/5 90/2/5 89/2/5
f 93/3/5 89/3/5 92/3/5
f 93/2/5 91/2/5 90/2/5
f 94/2/5 92/2/5 84/2/5
f 94/2/5 93/2/5 92/2/5
f 95/2/5 87/2/5 91/2/5
f 95/2/5 93/2/5 94/2/5
f 95/2/5 91/2/5 93/2/5
f 96/1/5 95/1/5 94/1/5
f 97/1/5 95/1/5 96/1/5
f 98/2/6 99/2/6 101/2/6
f 99/3/6 100/3/6 101/3/6
f 101/3/6 100/3/6 102/3/6
f 98/2/6 101/2/6 103/2/6
f 101/2/6 102/2/6 103/2/6
f 103/2/6 102/2/6 104/2/6
f 98/2/6 103/2/6 105/2/6
f 103/3/6 104/3/6 106/3/6
f 105/2/6 103/2/6 106/2/6
f 104/2/6 102/2/6 107/2/6
f 106/3/6 104/3/6 107/3/6
f 107/2/6 102/2/6 108/2/6
f 105/1/6 106/1/6 109/1/6
f 106/1/6 107/1/6 109/1/6
f 107/1/6 108/1/6 109/1/6
f 109/1/6 108/1/6 110/1/6
f 110/1/6 108/1/6 111/1/6
f 111/1/6 108/1/6 112/1/6
f 109/2/6 110/2/6 113/2/6
f 110/3/6 111/3/6 113/3/6
f 111/2/6 112/2/6 114/2/6
f 113/3/6 111/3/6 114/3/6
f 113/2/6 114/2/6 115/2/6
f 114/2/6 112/2/6 115/2/6
f 115/2/6 112/2/6 116/2/6
f 109/2/6 113/2/6 117/2/6
f 113/2/6 115/2/6 117/2/6
f 115/3/6 116/3/6 118/3/6
f 117/2/6 115/2/6 118/2/6
f 116/2/6 112/2/6 119/2/6
f 118/3/6 116/3/6 119/3/6
f 119/2/6 112/2/6 120/2/6
f 117/1/6 118/1/6 121/1/6
f 118/1/6 119/1/6 121/1/6
f 119/1/6 120/1/6 121/1/6
f 121/1/6 120/1/6 122/1/6
f 122/1/6 120/1/6 123/1/6
f 123/1/6 120/1/6 124/1/6
f 121/2/6 122/2/6 125/2/6
f 125/2/6 122/2/6 126/2/6
f 122/3/6 123/3/6 127/3/6
f 126/2/6 122/2/6 127/2/6
f 123/2/6 124/2/6 128/2/6
f 127/3/6 123/3/6 128/3/6
f 125/3/6 126/3/6 129/3/6
f 121/2/6 125/2/6 129/2/6
f 126/2/6 127/2/6 130/2/6
f 129/3/6 126/3/6 130/3/6
f 127/2/6 128/2/6 130/2/6
f 121/2/6 129/2/6 131/2/6
f 129/2/6 130/2/6 131/2/6
f 128/2/6 124/2/6 132/2/6
f 131/2/6 130/2/6 132/2/6
f 130/2/6 128/2/6 132/2/6
f 131/1/6 132/1/6 133/1/6
f 133/1/6 132/1/6 134/1/6
f 134/1/6 132/1/6 135/1/6
f 135/1/6 132/1/6 136/1/6
f 133/2/6 134/2/6 137/2/6
f 137/2/6 134/2/6 138/2/6
f 134/3/6 135/3/6 139/3/6
f 138/2/6 134/2/6 139/2/6
f 135/2/6 136/2/6 140/2/6
f 139/3/6 135/3/6 140/3/6
f 137/3/6 138/3/6 141/3/6
f 133/2/6 137/2/6 141/2/6
f 138/2/6 139/2/6 142/2/6
f 141/3/6 138/3/6 142/3/6
f 139/2/6 140/2/6 142/2/6
f 133/2/6 141/2/6 143/2/6
f 141/2/6 142/2/6 143/2/6
f 140/2/6 136/2/6 144/2/6
f 143/2/6 142/2/6 144/2/6
f 142/2/6 140/2/6 144/2/6
f 143/1/6 144/1/6 145/1/6
f 145/1/6 144/1/6 146/1/6
