# MagicaVoxel @ Ephtracy

# group
o 

# material
mtllib trainside_closer.vox.mtl
usemtl palette

# normals
vn -1 0 0
vn 1 0 0
vn 0 0 1
vn 0 0 -1
vn 0 -1 0
vn 0 1 0

# texcoords
vt 0.666016 0.5
vt 0.701172 0.5
vt 0.712891 0.5
vt 0.943359 0.5
vt 0.951172 0.5
vt 0.955078 0.5
vt 0.986328 0.5

# verts
v -1.6 0 0.8
v -1.6 0 0.5
v -1.6 0 0.4
v -1.6 0 0.1
v -1.6 0 0
v -1.6 0 -0.1
v -1.6 0 -0.2
v -1.6 0 -0.3
v -1.6 0 -0.4
v -1.6 0 -0.5
v -1.6 0 -0.7
v -1.6 0 -0.8
v -1.6 0.1 0.8
v -1.6 0.1 0.5
v -1.6 0.1 0.4
v -1.6 0.1 0.1
v -1.6 0.1 0
v -1.6 0.1 -0.1
v -1.6 0.1 -0.2
v -1.6 0.1 -0.3
v -1.6 0.1 -0.4
v -1.6 0.1 -0.5
v -1.6 0.1 -0.7
v -1.6 0.1 -0.8
v 1.6 0 0.8
v 1.6 0 0.7
v 1.6 0 0.5
v 1.6 0 0.4
v 1.6 0 0.1
v 1.6 0 0
v 1.6 0 -0.1
v 1.6 0 -0.2
v 1.6 0 -0.4
v 1.6 0 -0.5
v 1.6 0 -0.7
v 1.6 0 -0.8
v 1.6 0.1 0.8
v 1.6 0.1 0.7
v 1.6 0.1 0.5
v 1.6 0.1 0.4
v 1.6 0.1 0.1
v 1.6 0.1 0
v 1.6 0.1 -0.1
v 1.6 0.1 -0.2
v 1.6 0.1 -0.4
v 1.6 0.1 -0.5
v 1.6 0.1 -0.7
v 1.6 0.1 -0.8
v -1.6 0 0.8
v -1.6 0.1 0.8
v 1.2 0 0.8
v 1.2 0.1 0.8
v 1.6 0 0.8
v 1.6 0.1 0.8
v -1.6 0 -0.8
v -1.6 0.1 -0.8
v 1.6 0 -0.8
v 1.6 0.1 -0.8
v -1.6 0 0.8
v 1.2 0 0.8
v 1.6 0 0.8
v -1.2 0 0.7
v -0.8 0 0.7
v 1.2 0 0.7
v 1.6 0 0.7
v -1.2 0 0.6
v -0.8 0 0.6
v -0.2 0 0.6
v 0.7 0 0.6
v -1.6 0 0.5
v -0.2 0 0.5
v 0.7 0 0.5
v 1.6 0 0.5
v -1.6 0 0.4
v -1.5 0 0.4
v -0.7 0 0.4
v 1.6 0 0.4
v -1.5 0 0.3
v -0.7 0 0.3
v 1 0 0.3
v 1.3 0 0.3
v -0.4 0 0.2
v 0.3 0 0.2
v 1 0 0.2
v 1.3 0 0.2
v -1.6 0 0.1
v -0.4 0 0.1
v 0.3 0 0.1
v 1.6 0 0.1
v -1.6 0 0
v -1.4 0 0
v -0.8 0 0
v 0.4 0 0
v 1.1 0 0
v 1.6 0 0
v -1.6 0 -0.1
v -1.4 0 -0.1
v -0.8 0 -0.1
v 0.4 0 -0.1
v 1.1 0 -0.1
v 1.6 0 -0.1
v -1.6 0 -0.2
v -1 0 -0.2
v -0.7 0 -0.2
v -0.5 0 -0.2
v 0.3 0 -0.2
v 0.7 0 -0.2
v 1 0 -0.2
v 1.3 0 -0.2
v 1.4 0 -0.2
v 1.6 0 -0.2
v -1.6 0 -0.3
v -1 0 -0.3
v -0.8 0 -0.3
v -0.7 0 -0.3
v -0.5 0 -0.3
v 0 0 -0.3
v 0.3 0 -0.3
v 0.7 0 -0.3
v 0.8 0 -0.3
v 1 0 -0.3
v 1.3 0 -0.3
v 1.4 0 -0.3
v -1.6 0 -0.4
v -0.8 0 -0.4
v 0 0 -0.4
v 0.8 0 -0.4
v 1.6 0 -0.4
v -1.6 0 -0.5
v -1.3 0 -0.5
v -1.1 0 -0.5
v -0.5 0 -0.5
v -0.3 0 -0.5
v 0.2 0 -0.5
v 0.4 0 -0.5
v 0.9 0 -0.5
v 1.5 0 -0.5
v 1.6 0 -0.5
v -1.3 0 -0.6
v -1.1 0 -0.6
v -1 0 -0.6
v -0.9 0 -0.6
v -0.4 0 -0.6
v -0.3 0 -0.6
v -0.2 0 -0.6
v 0.2 0 -0.6
v 0.4 0 -0.6
v 0.8 0 -0.6
v 0.9 0 -0.6
v 1 0 -0.6
v 1.5 0 -0.6
v -1.6 0 -0.7
v -1 0 -0.7
v -0.9 0 -0.7
v -0.5 0 -0.7
v -0.4 0 -0.7
v -0.2 0 -0.7
v 0.8 0 -0.7
v 1 0 -0.7
v 1.6 0 -0.7
v -1.6 0 -0.8
v 1.6 0 -0.8
v -1.6 0.1 0.8
v 1.2 0.1 0.8
v 1.6 0.1 0.8
v -1.2 0.1 0.7
v -0.8 0.1 0.7
v 1.2 0.1 0.7
v 1.6 0.1 0.7
v -1.2 0.1 0.6
v -0.8 0.1 0.6
v -0.2 0.1 0.6
v 0.7 0.1 0.6
v -1.6 0.1 0.5
v -0.2 0.1 0.5
v 0.7 0.1 0.5
v 1.6 0.1 0.5
v -1.6 0.1 0.4
v -1.5 0.1 0.4
v -0.7 0.1 0.4
v 1.6 0.1 0.4
v -1.5 0.1 0.3
v -0.7 0.1 0.3
v 1 0.1 0.3
v 1.3 0.1 0.3
v -0.4 0.1 0.2
v 0.3 0.1 0.2
v 1 0.1 0.2
v 1.3 0.1 0.2
v -1.6 0.1 0.1
v -0.4 0.1 0.1
v 0.3 0.1 0.1
v 1.6 0.1 0.1
v -1.6 0.1 0
v -1.4 0.1 0
v -0.8 0.1 0
v 0.4 0.1 0
v 1.1 0.1 0
v 1.6 0.1 0
v -1.6 0.1 -0.1
v -1.4 0.1 -0.1
v -0.8 0.1 -0.1
v 0.4 0.1 -0.1
v 1.1 0.1 -0.1
v 1.6 0.1 -0.1
v -1.6 0.1 -0.2
v -1 0.1 -0.2
v -0.7 0.1 -0.2
v -0.5 0.1 -0.2
v 0.3 0.1 -0.2
v 0.7 0.1 -0.2
v 1 0.1 -0.2
v 1.3 0.1 -0.2
v 1.4 0.1 -0.2
v 1.6 0.1 -0.2
v -1.6 0.1 -0.3
v -1 0.1 -0.3
v -0.8 0.1 -0.3
v -0.7 0.1 -0.3
v -0.5 0.1 -0.3
v 0 0.1 -0.3
v 0.3 0.1 -0.3
v 0.7 0.1 -0.3
v 0.8 0.1 -0.3
v 1 0.1 -0.3
v 1.3 0.1 -0.3
v 1.4 0.1 -0.3
v -1.6 0.1 -0.4
v -0.8 0.1 -0.4
v 0 0.1 -0.4
v 0.8 0.1 -0.4
v 1.6 0.1 -0.4
v -1.6 0.1 -0.5
v -1.3 0.1 -0.5
v -1.1 0.1 -0.5
v -0.5 0.1 -0.5
v -0.3 0.1 -0.5
v 0.2 0.1 -0.5
v 0.4 0.1 -0.5
v 0.9 0.1 -0.5
v 1.5 0.1 -0.5
v 1.6 0.1 -0.5
v -1.3 0.1 -0.6
v -1.1 0.1 -0.6
v -1 0.1 -0.6
v -0.9 0.1 -0.6
v -0.4 0.1 -0.6
v -0.3 0.1 -0.6
v -0.2 0.1 -0.6
v 0.2 0.1 -0.6
v 0.4 0.1 -0.6
v 0.8 0.1 -0.6
v 0.9 0.1 -0.6
v 1 0.1 -0.6
v 1.5 0.1 -0.6
v -1.6 0.1 -0.7
v -1 0.1 -0.7
v -0.9 0.1 -0.7
v -0.5 0.1 -0.7
v -0.4 0.1 -0.7
v -0.2 0.1 -0.7
v 0.8 0.1 -0.7
v 1 0.1 -0.7
v 1.6 0.1 -0.7
v -1.6 0.1 -0.8
v 1.6 0.1 -0.8

# faces
f 13/5/1 2/5/1 1/5/1
f 14/4/1 3/4/1 2/4/1
f 14/5/1 2/5/1 13/5/1
f 15/5/1 4/5/1 3/5/1
f 15/4/1 3/4/1 14/4/1
f 16/4/1 5/4/1 4/4/1
f 16/5/1 4/5/1 15/5/1
f 17/5/1 6/5/1 5/5/1
f 17/4/1 5/4/1 16/4/1
f 18/7/1 7/7/1 6/7/1
f 18/5/1 6/5/1 17/5/1
f 19/3/1 8/3/1 7/3/1
f 19/7/1 7/7/1 18/7/1
f 20/2/1 9/2/1 8/2/1
f 20/3/1 8/3/1 19/3/1
f 21/7/1 10/7/1 9/7/1
f 21/2/1 9/2/1 20/2/1
f 22/3/1 11/3/1 10/3/1
f 22/7/1 10/7/1 21/7/1
f 23/7/1 12/7/1 11/7/1
f 23/3/1 11/3/1 22/3/1
f 24/7/1 12/7/1 23/7/1
f 25/6/2 26/6/2 37/6/2
f 26/5/2 27/5/2 38/5/2
f 37/6/2 26/6/2 38/6/2
f 27/4/2 28/4/2 39/4/2
f 38/5/2 27/5/2 39/5/2
f 28/5/2 29/5/2 40/5/2
f 39/4/2 28/4/2 40/4/2
f 29/4/2 30/4/2 41/4/2
f 40/5/2 29/5/2 41/5/2
f 30/5/2 31/5/2 42/5/2
f 41/4/2 30/4/2 42/4/2
f 31/7/2 32/7/2 43/7/2
f 42/5/2 31/5/2 43/5/2
f 32/3/2 33/3/2 44/3/2
f 43/7/2 32/7/2 44/7/2
f 33/7/2 34/7/2 45/7/2
f 44/3/2 33/3/2 45/3/2
f 34/3/2 35/3/2 46/3/2
f 45/7/2 34/7/2 46/7/2
f 35/7/2 36/7/2 47/7/2
f 46/3/2 35/3/2 47/3/2
f 47/7/2 36/7/2 48/7/2
f 51/5/3 50/5/3 49/5/3
f 52/5/3 50/5/3 51/5/3
f 53/6/3 52/6/3 51/6/3
f 54/6/3 52/6/3 53/6/3
f 55/7/4 56/7/4 57/7/4
f 57/7/4 56/7/4 58/7/4
f 62/5/5 60/5/5 59/5/5
f 63/5/5 60/5/5 62/5/5
f 64/6/5 61/6/5 60/6/5
f 64/5/5 60/5/5 63/5/5
f 65/6/5 61/6/5 64/6/5
f 66/6/5 63/6/5 62/6/5
f 66/5/5 62/5/5 59/5/5
f 67/5/5 65/5/5 64/5/5
f 67/6/5 63/6/5 66/6/5
f 67/5/5 64/5/5 63/5/5
f 68/5/5 65/5/5 67/5/5
f 69/5/5 65/5/5 68/5/5
f 70/5/5 66/5/5 59/5/5
f 70/5/5 67/5/5 66/5/5
f 70/5/5 68/5/5 67/5/5
f 71/6/5 69/6/5 68/6/5
f 71/5/5 68/5/5 70/5/5
f 72/5/5 65/5/5 69/5/5
f 72/6/5 69/6/5 71/6/5
f 73/5/5 65/5/5 72/5/5
f 74/4/5 71/4/5 70/4/5
f 74/4/5 72/4/5 71/4/5
f 74/4/5 73/4/5 72/4/5
f 75/4/5 73/4/5 74/4/5
f 76/4/5 73/4/5 75/4/5
f 77/4/5 73/4/5 76/4/5
f 78/5/5 75/5/5 74/5/5
f 78/6/5 76/6/5 75/6/5
f 79/5/5 77/5/5 76/5/5
f 79/6/5 76/6/5 78/6/5
f 80/5/5 77/5/5 79/5/5
f 81/5/5 77/5/5 80/5/5
f 82/5/5 79/5/5 78/5/5
f 82/5/5 80/5/5 79/5/5
f 83/5/5 80/5/5 82/5/5
f 84/6/5 81/6/5 80/6/5
f 84/5/5 80/5/5 83/5/5
f 85/5/5 77/5/5 81/5/5
f 85/6/5 81/6/5 84/6/5
f 86/5/5 78/5/5 74/5/5
f 86/5/5 82/5/5 78/5/5
f 87/6/5 83/6/5 82/6/5
f 87/5/5 82/5/5 86/5/5
f 88/5/5 84/5/5 83/5/5
f 88/6/5 83/6/5 87/6/5
f 88/5/5 85/5/5 84/5/5
f 89/5/5 77/5/5 85/5/5
f 89/5/5 85/5/5 88/5/5
f 90/4/5 88/4/5 87/4/5
f 90/4/5 87/4/5 86/4/5
f 90/4/5 89/4/5 88/4/5
f 91/4/5 89/4/5 90/4/5
f 92/4/5 89/4/5 91/4/5
f 93/4/5 89/4/5 92/4/5
f 94/4/5 89/4/5 93/4/5
f 95/4/5 89/4/5 94/4/5
f 96/5/5 91/5/5 90/5/5
f 97/6/5 92/6/5 91/6/5
f 97/5/5 91/5/5 96/5/5
f 98/5/5 93/5/5 92/5/5
f 98/6/5 92/6/5 97/6/5
f 99/6/5 94/6/5 93/6/5
f 99/5/5 93/5/5 98/5/5
f 100/5/5 95/5/5 94/5/5
f 100/6/5 94/6/5 99/6/5
f 101/5/5 95/5/5 100/5/5
f 102/7/5 97/7/5 96/7/5
f 102/7/5 98/7/5 97/7/5
f 102/7/5 101/7/5 100/7/5
f 102/7/5 100/7/5 99/7/5
f 102/7/5 99/7/5 98/7/5
f 103/7/5 101/7/5 102/7/5
f 104/7/5 101/7/5 103/7/5
f 105/7/5 101/7/5 104/7/5
f 106/7/5 101/7/5 105/7/5
f 107/7/5 101/7/5 106/7/5
f 108/7/5 101/7/5 107/7/5
f 109/7/5 101/7/5 108/7/5
f 110/7/5 101/7/5 109/7/5
f 111/7/5 101/7/5 110/7/5
f 112/3/5 103/3/5 102/3/5
f 113/1/5 104/1/5 103/1/5
f 113/3/5 103/3/5 112/3/5
f 114/1/5 104/1/5 113/1/5
f 115/3/5 105/3/5 104/3/5
f 115/1/5 104/1/5 114/1/5
f 116/2/5 106/2/5 105/2/5
f 116/3/5 105/3/5 115/3/5
f 117/2/5 106/2/5 116/2/5
f 118/3/5 107/3/5 106/3/5
f 118/2/5 106/2/5 117/2/5
f 119/2/5 108/2/5 107/2/5
f 119/3/5 107/3/5 118/3/5
f 120/2/5 108/2/5 119/2/5
f 121/3/5 109/3/5 108/3/5
f 121/2/5 108/2/5 120/2/5
f 122/1/5 110/1/5 109/1/5
f 122/3/5 109/3/5 121/3/5
f 123/3/5 111/3/5 110/3/5
f 123/1/5 110/1/5 122/1/5
f 124/2/5 114/2/5 113/2/5
f 124/2/5 113/2/5 112/2/5
f 125/3/5 115/3/5 114/3/5
f 125/2/5 114/2/5 124/2/5
f 125/3/5 117/3/5 116/3/5
f 125/3/5 116/3/5 115/3/5
f 126/1/5 119/1/5 118/1/5
f 126/3/5 117/3/5 125/3/5
f 126/1/5 118/1/5 117/1/5
f 126/1/5 120/1/5 119/1/5
f 127/3/5 123/3/5 122/3/5
f 127/1/5 120/1/5 126/1/5
f 127/3/5 122/3/5 121/3/5
f 127/3/5 121/3/5 120/3/5
f 128/3/5 111/3/5 123/3/5
f 128/3/5 123/3/5 127/3/5
f 129/7/5 127/7/5 126/7/5
f 129/7/5 125/7/5 124/7/5
f 129/7/5 128/7/5 127/7/5
f 129/7/5 126/7/5 125/7/5
f 130/7/5 128/7/5 129/7/5
f 131/7/5 128/7/5 130/7/5
f 132/7/5 128/7/5 131/7/5
f 133/7/5 128/7/5 132/7/5
f 134/7/5 128/7/5 133/7/5
f 135/7/5 128/7/5 134/7/5
f 136/7/5 128/7/5 135/7/5
f 137/7/5 128/7/5 136/7/5
f 138/7/5 128/7/5 137/7/5
f 139/3/5 130/3/5 129/3/5
f 139/1/5 131/1/5 130/1/5
f 140/3/5 132/3/5 131/3/5
f 140/1/5 131/1/5 139/1/5
f 141/3/5 132/3/5 140/3/5
f 142/3/5 132/3/5 141/3/5
f 143/2/5 133/2/5 132/2/5
f 144/3/5 134/3/5 133/3/5
f 144/2/5 133/2/5 143/2/5
f 145/3/5 134/3/5 144/3/5
f 146/1/5 135/1/5 134/1/5
f 146/3/5 134/3/5 145/3/5
f 147/3/5 136/3/5 135/3/5
f 147/1/5 135/1/5 146/1/5
f 148/3/5 136/3/5 147/3/5
f 149/1/5 137/1/5 136/1/5
f 149/3/5 136/3/5 148/3/5
f 150/1/5 137/1/5 149/1/5
f 151/3/5 138/3/5 137/3/5
f 151/1/5 137/1/5 150/1/5
f 152/3/5 139/3/5 129/3/5
f 152/3/5 140/3/5 139/3/5
f 152/3/5 141/3/5 140/3/5
f 153/1/5 142/1/5 141/1/5
f 153/3/5 141/3/5 152/3/5
f 154/3/5 132/3/5 142/3/5
f 154/1/5 142/1/5 153/1/5
f 155/2/5 143/2/5 132/2/5
f 155/3/5 132/3/5 154/3/5
f 156/1/5 145/1/5 144/1/5
f 156/2/5 143/2/5 155/2/5
f 156/1/5 144/1/5 143/1/5
f 157/3/5 146/3/5 145/3/5
f 157/1/5 145/1/5 156/1/5
f 157/3/5 148/3/5 147/3/5
f 157/3/5 147/3/5 146/3/5
f 158/2/5 150/2/5 149/2/5
f 158/3/5 148/3/5 157/3/5
f 158/2/5 149/2/5 148/2/5
f 159/3/5 151/3/5 150/3/5
f 159/2/5 150/2/5 158/2/5
f 160/3/5 138/3/5 151/3/5
f 160/3/5 151/3/5 159/3/5
f 161/7/5 157/7/5 156/7/5
f 161/7/5 159/7/5 158/7/5
f 161/7/5 160/7/5 159/7/5
f 161/7/5 158/7/5 157/7/5
f 161/7/5 153/7/5 152/7/5
f 161/7/5 156/7/5 155/7/5
f 161/7/5 155/7/5 154/7/5
f 161/7/5 154/7/5 153/7/5
f 162/7/5 160/7/5 161/7/5
f 163/5/6 164/5/6 166/5/6
f 166/5/6 164/5/6 167/5/6
f 164/6/6 165/6/6 168/6/6
f 167/5/6 164/5/6 168/5/6
f 168/6/6 165/6/6 169/6/6
f 166/6/6 167/6/6 170/6/6
f 163/5/6 166/5/6 170/5/6
f 168/5/6 169/5/6 171/5/6
f 170/6/6 167/6/6 171/6/6
f 167/5/6 168/5/6 171/5/6
f 171/5/6 169/5/6 172/5/6
f 172/5/6 169/5/6 173/5/6
f 163/5/6 170/5/6 174/5/6
f 170/5/6 171/5/6 174/5/6
f 171/5/6 172/5/6 174/5/6
f 172/6/6 173/6/6 175/6/6
f 174/5/6 172/5/6 175/5/6
f 173/5/6 169/5/6 176/5/6
f 175/6/6 173/6/6 176/6/6
f 176/5/6 169/5/6 177/5/6
f 174/4/6 175/4/6 178/4/6
f 175/4/6 176/4/6 178/4/6
f 176/4/6 177/4/6 178/4/6
f 178/4/6 177/4/6 179/4/6
f 179/4/6 177/4/6 180/4/6
f 180/4/6 177/4/6 181/4/6
f 178/5/6 179/5/6 182/5/6
f 179/6/6 180/6/6 182/6/6
f 180/5/6 181/5/6 183/5/6
f 182/6/6 180/6/6 183/6/6
f 183/5/6 181/5/6 184/5/6
f 184/5/6 181/5/6 185/5/6
f 182/5/6 183/5/6 186/5/6
f 183/5/6 184/5/6 186/5/6
f 186/5/6 184/5/6 187/5/6
f 184/6/6 185/6/6 188/6/6
f 187/5/6 184/5/6 188/5/6
f 185/5/6 181/5/6 189/5/6
f 188/6/6 185/6/6 189/6/6
f 178/5/6 182/5/6 190/5/6
f 182/5/6 186/5/6 190/5/6
f 186/6/6 187/6/6 191/6/6
f 190/5/6 186/5/6 191/5/6
f 187/5/6 188/5/6 192/5/6
f 191/6/6 187/6/6 192/6/6
f 188/5/6 189/5/6 192/5/6
f 189/5/6 181/5/6 193/5/6
f 192/5/6 189/5/6 193/5/6
f 191/4/6 192/4/6 194/4/6
f 190/4/6 191/4/6 194/4/6
f 192/4/6 193/4/6 194/4/6
f 194/4/6 193/4/6 195/4/6
f 195/4/6 193/4/6 196/4/6
f 196/4/6 193/4/6 197/4/6
f 197/4/6 193/4/6 198/4/6
f 198/4/6 193/4/6 199/4/6
f 194/5/6 195/5/6 200/5/6
f 195/6/6 196/6/6 201/6/6
f 200/5/6 195/5/6 201/5/6
f 196/5/6 197/5/6 202/5/6
f 201/6/6 196/6/6 202/6/6
f 197/6/6 198/6/6 203/6/6
f 202/5/6 197/5/6 203/5/6
f 198/5/6 199/5/6 204/5/6
f 203/6/6 198/6/6 204/6/6
f 204/5/6 199/5/6 205/5/6
f 200/7/6 201/7/6 206/7/6
f 201/7/6 202/7/6 206/7/6
f 204/7/6 205/7/6 206/7/6
f 203/7/6 204/7/6 206/7/6
f 202/7/6 203/7/6 206/7/6
f 206/7/6 205/7/6 207/7/6
f 207/7/6 205/7/6 208/7/6
f 208/7/6 205/7/6 209/7/6
f 209/7/6 205/7/6 210/7/6
f 210/7/6 205/7/6 211/7/6
f 211/7/6 205/7/6 212/7/6
f 212/7/6 205/7/6 213/7/6
f 213/7/6 205/7/6 214/7/6
f 214/7/6 205/7/6 215/7/6
f 206/3/6 207/3/6 216/3/6
f 207/1/6 208/1/6 217/1/6
f 216/3/6 207/3/6 217/3/6
f 217/1/6 208/1/6 218/1/6
f 208/3/6 209/3/6 219/3/6
f 218/1/6 208/1/6 219/1/6
f 209/2/6 210/2/6 220/2/6
f 219/3/6 209/3/6 220/3/6
f 220/2/6 210/2/6 221/2/6
f 210/3/6 211/3/6 222/3/6
f 221/2/6 210/2/6 222/2/6
f 211/2/6 212/2/6 223/2/6
f 222/3/6 211/3/6 223/3/6
f 223/2/6 212/2/6 224/2/6
f 212/3/6 213/3/6 225/3/6
f 224/2/6 212/2/6 225/2/6
f 213/1/6 214/1/6 226/1/6
f 225/3/6 213/3/6 226/3/6
f 214/3/6 215/3/6 227/3/6
f 226/1/6 214/1/6 227/1/6
f 217/2/6 218/2/6 228/2/6
f 216/2/6 217/2/6 228/2/6
f 218/3/6 219/3/6 229/3/6
f 228/2/6 218/2/6 229/2/6
f 220/3/6 221/3/6 229/3/6
f 219/3/6 220/3/6 229/3/6
f 222/1/6 223/1/6 230/1/6
f 229/3/6 221/3/6 230/3/6
f 221/1/6 222/1/6 230/1/6
f 223/1/6 224/1/6 230/1/6
f 226/3/6 227/3/6 231/3/6
f 230/1/6 224/1/6 231/1/6
f 225/3/6 226/3/6 231/3/6
f 224/3/6 225/3/6 231/3/6
f 227/3/6 215/3/6 232/3/6
f 231/3/6 227/3/6 232/3/6
f 230/7/6 231/7/6 233/7/6
f 228/7/6 229/7/6 233/7/6
f 231/7/6 232/7/6 233/7/6
f 229/7/6 230/7/6 233/7/6
f 233/7/6 232/7/6 234/7/6
f 234/7/6 232/7/6 235/7/6
f 235/7/6 232/7/6 236/7/6
f 236/7/6 232/7/6 237/7/6
f 237/7/6 232/7/6 238/7/6
f 238/7/6 232/7/6 239/7/6
f 239/7/6 232/7/6 240/7/6
f 240/7/6 232/7/6 241/7/6
f 241/7/6 232/7/6 242/7/6
f 233/3/6 234/3/6 243/3/6
f 234/1/6 235/1/6 243/1/6
f 235/3/6 236/3/6 244/3/6
f 243/1/6 235/1/6 244/1/6
f 244/3/6 236/3/6 245/3/6
f 245/3/6 236/3/6 246/3/6
f 236/2/6 237/2/6 247/2/6
f 237/3/6 238/3/6 248/3/6
f 247/2/6 237/2/6 248/2/6
f 248/3/6 238/3/6 249/3/6
f 238/1/6 239/1/6 250/1/6
f 249/3/6 238/3/6 250/3/6
f 239/3/6 240/3/6 251/3/6
f 250/1/6 239/1/6 251/1/6
f 251/3/6 240/3/6 252/3/6
f 240/1/6 241/1/6 253/1/6
f 252/3/6 240/3/6 253/3/6
f 253/1/6 241/1/6 254/1/6
f 241/3/6 242/3/6 255/3/6
f 254/1/6 241/1/6 255/1/6
f 233/3/6 243/3/6 256/3/6
f 243/3/6 244/3/6 256/3/6
f 244/3/6 245/3/6 256/3/6
f 245/1/6 246/1/6 257/1/6
f 256/3/6 245/3/6 257/3/6
f 246/3/6 236/3/6 258/3/6
f 257/1/6 246/1/6 258/1/6
f 236/2/6 247/2/6 259/2/6
f 258/3/6 236/3/6 259/3/6
f 248/1/6 249/1/6 260/1/6
f 259/2/6 247/2/6 260/2/6
f 247/1/6 248/1/6 260/1/6
f 249/3/6 250/3/6 261/3/6
f 260/1/6 249/1/6 261/1/6
f 251/3/6 252/3/6 261/3/6
f 250/3/6 251/3/6 261/3/6
f 253/2/6 254/2/6 262/2/6
f 261/3/6 252/3/6 262/3/6
f 252/2/6 253/2/6 262/2/6
f 254/3/6 255/3/6 263/3/6
f 262/2/6 254/2/6 263/2/6
f 255/3/6 242/3/6 264/3/6
f 263/3/6 255/3/6 264/3/6
f 260/7/6 261/7/6 265/7/6
f 262/7/6 263/7/6 265/7/6
f 263/7/6 264/7/6 265/7/6
f 261/7/6 262/7/6 265/7/6
f 256/7/6 257/7/6 265/7/6
f 259/7/6 260/7/6 265/7/6
f 258/7/6 259/7/6 265/7/6
f 257/7/6 258/7/6 265/7/6
f 265/7/6 264/7/6 266/7/6
