# MagicaVoxel @ Ephtracy

# group
o 

# material
mtllib window.vox.mtl
usemtl palette

# normals
vn -1 0 0
vn 1 0 0
vn 0 0 1
vn 0 0 -1
vn 0 -1 0
vn 0 1 0

# texcoords
vt 0.787109 0.5
vt 0.931641 0.5
vt 0.962891 0.5

# verts
v 0.2 0 0.5
v 0.2 0 -0.5
v 0.2 0.4 0.4
v 0.2 0.4 -0.4
v 0.2 3.6 0.4
v 0.2 3.6 -0.4
v 0.2 4 0.5
v 0.2 4 -0.5
v 0.4 0.3 0.5
v 0.4 0.3 -0.5
v 0.4 0.4 0.4
v 0.4 0.4 -0.4
v 0.4 3.6 0.4
v 0.4 3.6 -0.4
v 0.4 3.7 0.5
v 0.4 3.7 -0.5
v 0.5 0 0.5
v 0.5 0 -0.5
v 0.5 0.3 0.5
v 0.5 0.3 -0.5
v 0.5 3.7 0.5
v 0.5 3.7 -0.5
v 0.5 4 0.5
v 0.5 4 -0.5
v 0.2 0 0.5
v 0.2 4 0.5
v 0.3 0 0.5
v 0.3 4 0.5
v 0.4 0 0.5
v 0.4 0.3 0.5
v 0.4 3.7 0.5
v 0.4 4 0.5
v 0.5 0 0.5
v 0.5 0.3 0.5
v 0.5 3.7 0.5
v 0.5 4 0.5
v 0.2 0.4 -0.4
v 0.2 3.6 -0.4
v 0.3 0.4 -0.4
v 0.3 3.6 -0.4
v 0.4 0.4 -0.4
v 0.4 3.6 -0.4
v 0.2 0.4 0.4
v 0.2 3.6 0.4
v 0.3 0.4 0.4
v 0.3 3.6 0.4
v 0.4 0.4 0.4
v 0.4 3.6 0.4
v 0.2 0 -0.5
v 0.2 4 -0.5
v 0.3 0 -0.5
v 0.3 4 -0.5
v 0.4 0 -0.5
v 0.4 0.3 -0.5
v 0.4 3.7 -0.5
v 0.4 4 -0.5
v 0.5 0 -0.5
v 0.5 0.3 -0.5
v 0.5 3.7 -0.5
v 0.5 4 -0.5
v 0.2 0 0.5
v 0.3 0 0.5
v 0.4 0 0.5
v 0.5 0 0.5
v 0.2 0 -0.5
v 0.3 0 -0.5
v 0.4 0 -0.5
v 0.5 0 -0.5
v 0.2 3.6 0.4
v 0.3 3.6 0.4
v 0.4 3.6 0.4
v 0.2 3.6 -0.4
v 0.3 3.6 -0.4
v 0.4 3.6 -0.4
v 0.4 3.7 0.5
v 0.5 3.7 0.5
v 0.4 3.7 -0.5
v 0.5 3.7 -0.5
v 0.4 0.3 0.5
v 0.5 0.3 0.5
v 0.4 0.3 -0.5
v 0.5 0.3 -0.5
v 0.2 0.4 0.4
v 0.3 0.4 0.4
v 0.4 0.4 0.4
v 0.2 0.4 -0.4
v 0.3 0.4 -0.4
v 0.4 0.4 -0.4
v 0.2 4 0.5
v 0.3 4 0.5
v 0.4 4 0.5
v 0.5 4 0.5
v 0.2 4 -0.5
v 0.3 4 -0.5
v 0.4 4 -0.5
v 0.5 4 -0.5

# faces
f 3/1/1 2/1/1 1/1/1
f 4/1/1 2/1/1 3/1/1
f 5/1/1 3/1/1 1/1/1
f 6/1/1 2/1/1 4/1/1
f 7/1/1 5/1/1 1/1/1
f 7/1/1 6/1/1 5/1/1
f 8/1/1 2/1/1 6/1/1
f 8/1/1 6/1/1 7/1/1
f 9/3/2 10/3/2 11/3/2
f 11/3/2 10/3/2 12/3/2
f 9/3/2 11/3/2 13/3/2
f 12/3/2 10/3/2 14/3/2
f 9/3/2 13/3/2 15/3/2
f 13/3/2 14/3/2 15/3/2
f 14/3/2 10/3/2 16/3/2
f 15/3/2 14/3/2 16/3/2
f 17/2/2 18/2/2 19/2/2
f 19/2/2 18/2/2 20/2/2
f 21/2/2 22/2/2 23/2/2
f 23/2/2 22/2/2 24/2/2
f 27/1/3 26/1/3 25/1/3
f 28/1/3 26/1/3 27/1/3
f 29/3/3 28/3/3 27/3/3
f 30/3/3 28/3/3 29/3/3
f 31/3/3 28/3/3 30/3/3
f 32/3/3 28/3/3 31/3/3
f 33/2/3 30/2/3 29/2/3
f 34/2/3 30/2/3 33/2/3
f 35/2/3 32/2/3 31/2/3
f 36/2/3 32/2/3 35/2/3
f 39/1/3 38/1/3 37/1/3
f 40/1/3 38/1/3 39/1/3
f 41/3/3 40/3/3 39/3/3
f 42/3/3 40/3/3 41/3/3
f 43/1/4 44/1/4 45/1/4
f 45/1/4 44/1/4 46/1/4
f 45/3/4 46/3/4 47/3/4
f 47/3/4 46/3/4 48/3/4
f 49/1/4 50/1/4 51/1/4
f 51/1/4 50/1/4 52/1/4
f 51/3/4 52/3/4 53/3/4
f 53/3/4 52/3/4 54/3/4
f 54/3/4 52/3/4 55/3/4
f 55/3/4 52/3/4 56/3/4
f 53/2/4 54/2/4 57/2/4
f 57/2/4 54/2/4 58/2/4
f 55/2/4 56/2/4 59/2/4
f 59/2/4 56/2/4 60/2/4
f 65/1/5 62/1/5 61/1/5
f 66/3/5 63/3/5 62/3/5
f 66/1/5 62/1/5 65/1/5
f 67/2/5 64/2/5 63/2/5
f 67/3/5 63/3/5 66/3/5
f 68/2/5 64/2/5 67/2/5
f 72/1/5 70/1/5 69/1/5
f 73/3/5 71/3/5 70/3/5
f 73/1/5 70/1/5 72/1/5
f 74/3/5 71/3/5 73/3/5
f 77/2/5 76/2/5 75/2/5
f 78/2/5 76/2/5 77/2/5
f 79/2/6 80/2/6 81/2/6
f 81/2/6 80/2/6 82/2/6
f 83/1/6 84/1/6 86/1/6
f 84/3/6 85/3/6 87/3/6
f 86/1/6 84/1/6 87/1/6
f 87/3/6 85/3/6 88/3/6
f 89/1/6 90/1/6 93/1/6
f 90/3/6 91/3/6 94/3/6
f 93/1/6 90/1/6 94/1/6
f 91/2/6 92/2/6 95/2/6
f 94/3/6 91/3/6 95/3/6
f 95/2/6 92/2/6 96/2/6
