# MagicaVoxel @ Ephtracy

# group
o 

# material
mtllib Camera.mtl
usemtl palette

# normals
vn -1 0 0
vn 1 0 0
vn 0 0 1
vn 0 0 -1
vn 0 -1 0
vn 0 1 0

# texcoords
vt 0.931641 0.5
vt 0.939453 0.5
vt 0.994141 0.5

# verts
v -1.9 2 0.6
v -1.9 2 0.5
v -1.9 2 -0.5
v -1.9 2 -0.6
v -1.9 2.2 0.5
v -1.9 2.2 -0.5
v -1.9 2.3 0.6
v -1.9 2.3 -0.6
v -1.8 1.9 0.6
v -1.8 1.9 0.5
v -1.8 1.9 -0.5
v -1.8 1.9 -0.6
v -1.8 2 0.6
v -1.8 2 0.5
v -1.8 2 -0.5
v -1.8 2 -0.6
v -1.7 1.8 0.6
v -1.7 1.8 0.5
v -1.7 1.8 -0.5
v -1.7 1.8 -0.6
v -1.7 1.9 0.6
v -1.7 1.9 0.5
v -1.7 1.9 -0.5
v -1.7 1.9 -0.6
v -1.6 1.4 0.4
v -1.6 1.4 -0.4
v -1.6 1.5 0.5
v -1.6 1.5 0.4
v -1.6 1.5 -0.4
v -1.6 1.5 -0.5
v -1.6 1.6 0.3
v -1.6 1.6 -0.3
v -1.6 1.8 0.5
v -1.6 1.8 -0.5
v -1.6 2.1 0.3
v -1.6 2.1 -0.3
v -1.6 2.2 0.5
v -1.6 2.2 -0.5
v -0.4 0.5 0.3
v -0.4 0.5 -0.3
v -0.4 0.7 0.3
v -0.4 0.7 -0.3
v -0.4 1.3 0.4
v -0.4 1.3 -0.4
v -0.4 1.4 0.4
v -0.4 1.4 -0.4
v -0.3 0.5 0.4
v -0.3 0.5 0.3
v -0.3 0.5 -0.3
v -0.3 0.5 -0.4
v -0.3 0.7 0.4
v -0.3 0.7 0.3
v -0.3 0.7 -0.3
v -0.3 0.7 -0.4
v -0.3 1.2 0.4
v -0.3 1.2 -0.4
v -0.3 1.3 0.4
v -0.3 1.3 -0.4
v -0.2 0.5 0.5
v -0.2 0.5 0.4
v -0.2 0.5 -0.4
v -0.2 0.5 -0.5
v -0.2 0.7 0.5
v -0.2 0.7 0.4
v -0.2 0.7 0.3
v -0.2 0.7 -0.3
v -0.2 0.7 -0.4
v -0.2 0.7 -0.5
v -0.2 1 0.4
v -0.2 1 0.3
v -0.2 1 -0.3
v -0.2 1 -0.4
v -0.2 1.2 0.4
v -0.2 1.2 -0.4
v -0.1 0.9 0.4
v -0.1 0.9 0.3
v -0.1 0.9 -0.3
v -0.1 0.9 -0.4
v -0.1 1 0.4
v -0.1 1 0.3
v -0.1 1 -0.3
v -0.1 1 -0.4
v 0 0.4 0.3
v 0 0.4 0.2
v 0 0.4 -0.2
v 0 0.4 -0.3
v 0 0.5 0.3
v 0 0.5 0.2
v 0 0.5 -0.2
v 0 0.5 -0.3
v 0.8 0.3 0.3
v 0.8 0.3 0.2
v 0.8 0.3 -0.2
v 0.8 0.3 -0.3
v 0.8 0.4 0.3
v 0.8 0.4 0.2
v 0.8 0.4 -0.2
v 0.8 0.4 -0.3
v 1.8 0 0.2
v 1.8 0 -0.2
v 1.8 0.1 0.3
v 1.8 0.1 0.2
v 1.8 0.1 -0.2
v 1.8 0.1 -0.3
v 1.8 0.3 0.4
v 1.8 0.3 0.3
v 1.8 0.3 0.2
v 1.8 0.3 -0.2
v 1.8 0.3 -0.3
v 1.8 0.3 -0.4
v 1.8 0.5 0.2
v 1.8 0.5 -0.2
v 1.8 0.6 0.3
v 1.8 0.6 -0.3
v 1.8 0.7 0.4
v 1.8 0.7 -0.4
v 0.2 0.9 0.4
v 0.2 0.9 0.3
v 0.2 0.9 -0.3
v 0.2 0.9 -0.4
v 0.2 1 0.4
v 0.2 1 0.3
v 0.2 1 -0.3
v 0.2 1 -0.4
v 0.3 0.5 0.5
v 0.3 0.5 0.4
v 0.3 0.5 -0.4
v 0.3 0.5 -0.5
v 0.3 0.7 0.5
v 0.3 0.7 0.4
v 0.3 0.7 0.3
v 0.3 0.7 -0.3
v 0.3 0.7 -0.4
v 0.3 0.7 -0.5
v 0.3 1 0.4
v 0.3 1 0.3
v 0.3 1 -0.3
v 0.3 1 -0.4
v 0.3 1.2 0.4
v 0.3 1.2 -0.4
v 0.4 0.5 0.4
v 0.4 0.5 0.3
v 0.4 0.5 -0.3
v 0.4 0.5 -0.4
v 0.4 0.7 0.4
v 0.4 0.7 0.3
v 0.4 0.7 -0.3
v 0.4 0.7 -0.4
v 0.4 1.2 0.4
v 0.4 1.2 -0.4
v 0.4 1.3 0.4
v 0.4 1.3 -0.4
v 0.5 0.6 0.3
v 0.5 0.6 -0.3
v 0.5 0.7 0.3
v 0.5 0.7 -0.3
v 0.5 1.3 0.4
v 0.5 1.3 -0.4
v 0.5 1.4 0.4
v 0.5 1.4 -0.4
v 1.2 1.4 0.4
v 1.2 1.4 -0.4
v 1.2 1.5 0.5
v 1.2 1.5 0.4
v 1.2 1.5 -0.4
v 1.2 1.5 -0.5
v 1.2 1.8 0.6
v 1.2 1.8 0.5
v 1.2 1.8 0.4
v 1.2 1.8 -0.4
v 1.2 1.8 -0.5
v 1.2 1.8 -0.6
v 1.2 2.2 0.5
v 1.2 2.2 -0.5
v 1.2 2.3 0.6
v 1.2 2.3 -0.6
v 1.9 0 0.2
v 1.9 0 -0.2
v 1.9 0.1 0.3
v 1.9 0.1 0.2
v 1.9 0.1 -0.2
v 1.9 0.1 -0.3
v 1.9 0.3 0.4
v 1.9 0.3 0.3
v 1.9 0.3 -0.3
v 1.9 0.3 -0.4
v 1.9 0.7 0.4
v 1.9 0.7 -0.4
v -1.9 2 0.6
v -1.9 2.3 0.6
v -1.8 1.9 0.6
v -1.8 2 0.6
v -1.7 1.8 0.6
v -1.7 1.9 0.6
v -1.4 1.8 0.6
v -1.4 2.3 0.6
v -1.2 1.8 0.6
v -1.2 2.3 0.6
v 1 1.8 0.6
v 1 2.3 0.6
v 1.2 1.8 0.6
v 1.2 2.3 0.6
v -1.6 1.5 0.5
v -1.6 1.8 0.5
v -1.4 1.5 0.5
v -1.4 1.8 0.5
v -1.2 1.5 0.5
v -1.2 1.8 0.5
v -0.2 0.5 0.5
v -0.2 0.7 0.5
v 0.3 0.5 0.5
v 0.3 0.7 0.5
v 1 1.5 0.5
v 1 1.8 0.5
v 1.2 1.5 0.5
v 1.2 1.8 0.5
v -1.6 1.4 0.4
v -1.6 1.5 0.4
v -1.4 1.4 0.4
v -1.4 1.5 0.4
v -1.2 1.4 0.4
v -1.2 1.5 0.4
v -0.4 1.3 0.4
v -0.4 1.4 0.4
v -0.4 1.5 0.4
v -0.3 0.5 0.4
v -0.3 0.7 0.4
v -0.3 1.2 0.4
v -0.3 1.3 0.4
v -0.2 0.5 0.4
v -0.2 0.7 0.4
v -0.2 1 0.4
v -0.2 1.2 0.4
v -0.1 0.9 0.4
v -0.1 1 0.4
v 0.2 0.9 0.4
v 0.2 1 0.4
v 0.3 0.5 0.4
v 0.3 0.7 0.4
v 0.3 1 0.4
v 0.3 1.2 0.4
v 0.4 0.5 0.4
v 0.4 0.7 0.4
v 0.4 1.2 0.4
v 0.4 1.3 0.4
v 0.5 1.3 0.4
v 0.5 1.4 0.4
v 0.5 1.5 0.4
v 1 1.4 0.4
v 1 1.5 0.4
v 1.2 1.4 0.4
v 1.2 1.5 0.4
v 1.8 0.3 0.4
v 1.8 0.7 0.4
v 1.9 0.3 0.4
v 1.9 0.7 0.4
v -0.4 0.5 0.3
v -0.4 0.7 0.3
v -0.3 0.5 0.3
v -0.3 0.7 0.3
v -0.2 0.7 0.3
v -0.2 1 0.3
v -0.1 0.9 0.3
v -0.1 1 0.3
v 0 0.4 0.3
v 0 0.5 0.3
v 0.2 0.9 0.3
v 0.2 1 0.3
v 0.3 0.7 0.3
v 0.3 1 0.3
v 0.4 0.5 0.3
v 0.4 0.7 0.3
v 0.5 0.6 0.3
v 0.5 0.7 0.3
v 0.8 0.3 0.3
v 0.8 0.4 0.3
v 1.8 0.1 0.3
v 1.8 0.3 0.3
v 1.8 0.6 0.3
v 1.9 0.1 0.3
v 1.9 0.3 0.3
v 1.8 0 0.2
v 1.8 0.1 0.2
v 1.9 0 0.2
v 1.9 0.1 0.2
v 0 0.4 -0.2
v 0 0.5 -0.2
v 0.8 0.3 -0.2
v 0.8 0.4 -0.2
v 1.8 0.3 -0.2
v 1.8 0.5 -0.2
v -1.9 2 -0.5
v -1.9 2.2 -0.5
v -1.8 1.9 -0.5
v -1.8 2 -0.5
v -1.7 1.8 -0.5
v -1.7 1.9 -0.5
v -1.6 1.8 -0.5
v -1.6 2.2 -0.5
v -1.9 2 0.5
v -1.9 2.2 0.5
v -1.8 1.9 0.5
v -1.8 2 0.5
v -1.7 1.8 0.5
v -1.7 1.9 0.5
v -1.6 1.8 0.5
v -1.6 2.2 0.5
v 0 0.4 0.2
v 0 0.5 0.2
v 0.8 0.3 0.2
v 0.8 0.4 0.2
v 1.8 0.3 0.2
v 1.8 0.5 0.2
v 1.8 0 -0.2
v 1.8 0.1 -0.2
v 1.9 0 -0.2
v 1.9 0.1 -0.2
v -0.4 0.5 -0.3
v -0.4 0.7 -0.3
v -0.3 0.5 -0.3
v -0.3 0.7 -0.3
v -0.2 0.7 -0.3
v -0.2 1 -0.3
v -0.1 0.9 -0.3
v -0.1 1 -0.3
v 0 0.4 -0.3
v 0 0.5 -0.3
v 0.2 0.9 -0.3
v 0.2 1 -0.3
v 0.3 0.7 -0.3
v 0.3 1 -0.3
v 0.4 0.5 -0.3
v 0.4 0.7 -0.3
v 0.5 0.6 -0.3
v 0.5 0.7 -0.3
v 0.8 0.3 -0.3
v 0.8 0.4 -0.3
v 1.8 0.1 -0.3
v 1.8 0.3 -0.3
v 1.8 0.6 -0.3
v 1.9 0.1 -0.3
v 1.9 0.3 -0.3
v -1.6 1.4 -0.4
v -1.6 1.5 -0.4
v -1.4 1.4 -0.4
v -1.4 1.5 -0.4
v -1.2 1.4 -0.4
v -1.2 1.5 -0.4
v -0.4 1.3 -0.4
v -0.4 1.4 -0.4
v -0.4 1.5 -0.4
v -0.3 0.5 -0.4
v -0.3 0.7 -0.4
v -0.3 1.2 -0.4
v -0.3 1.3 -0.4
v -0.2 0.5 -0.4
v -0.2 0.7 -0.4
v -0.2 1 -0.4
v -0.2 1.2 -0.4
v -0.1 0.9 -0.4
v -0.1 1 -0.4
v 0.2 0.9 -0.4
v 0.2 1 -0.4
v 0.3 0.5 -0.4
v 0.3 0.7 -0.4
v 0.3 1 -0.4
v 0.3 1.2 -0.4
v 0.4 0.5 -0.4
v 0.4 0.7 -0.4
v 0.4 1.2 -0.4
v 0.4 1.3 -0.4
v 0.5 1.3 -0.4
v 0.5 1.4 -0.4
v 0.5 1.5 -0.4
v 1 1.4 -0.4
v 1 1.5 -0.4
v 1.2 1.4 -0.4
v 1.2 1.5 -0.4
v 1.8 0.3 -0.4
v 1.8 0.7 -0.4
v 1.9 0.3 -0.4
v 1.9 0.7 -0.4
v -1.6 1.5 -0.5
v -1.6 1.8 -0.5
v -1.4 1.5 -0.5
v -1.4 1.8 -0.5
v -1.2 1.5 -0.5
v -1.2 1.8 -0.5
v -0.2 0.5 -0.5
v -0.2 0.7 -0.5
v 0.3 0.5 -0.5
v 0.3 0.7 -0.5
v 1 1.5 -0.5
v 1 1.8 -0.5
v 1.2 1.5 -0.5
v 1.2 1.8 -0.5
v -1.9 2 -0.6
v -1.9 2.3 -0.6
v -1.8 1.9 -0.6
v -1.8 2 -0.6
v -1.7 1.8 -0.6
v -1.7 1.9 -0.6
v -1.4 1.8 -0.6
v -1.4 2.3 -0.6
v -1.2 1.8 -0.6
v -1.2 2.3 -0.6
v 1 1.8 -0.6
v 1 2.3 -0.6
v 1.2 1.8 -0.6
v 1.2 2.3 -0.6
v 1.8 0 0.2
v 1.9 0 0.2
v 1.8 0 -0.2
v 1.9 0 -0.2
v 1.8 0.1 0.3
v 1.9 0.1 0.3
v 1.8 0.1 0.2
v 1.9 0.1 0.2
v 1.8 0.1 -0.2
v 1.9 0.1 -0.2
v 1.8 0.1 -0.3
v 1.9 0.1 -0.3
v 1.8 0.3 0.4
v 1.9 0.3 0.4
v 0.8 0.3 0.3
v 1.8 0.3 0.3
v 1.9 0.3 0.3
v 0.8 0.3 0.2
v 1.8 0.3 0.2
v 0.8 0.3 -0.2
v 1.8 0.3 -0.2
v 0.8 0.3 -0.3
v 1.8 0.3 -0.3
v 1.9 0.3 -0.3
v 1.8 0.3 -0.4
v 1.9 0.3 -0.4
v 0 0.4 0.3
v 0.8 0.4 0.3
v 0 0.4 0.2
v 0.8 0.4 0.2
v 0 0.4 -0.2
v 0.8 0.4 -0.2
v 0 0.4 -0.3
v 0.8 0.4 -0.3
v -0.2 0.5 0.5
v 0.3 0.5 0.5
v -0.3 0.5 0.4
v -0.2 0.5 0.4
v 0.3 0.5 0.4
v 0.4 0.5 0.4
v -0.4 0.5 0.3
v -0.3 0.5 0.3
v 0 0.5 0.3
v 0.4 0.5 0.3
v 0 0.5 0.2
v 1.8 0.5 0.2
v 0 0.5 -0.2
v 1.8 0.5 -0.2
v -0.4 0.5 -0.3
v -0.3 0.5 -0.3
v 0 0.5 -0.3
v 0.4 0.5 -0.3
v -0.3 0.5 -0.4
v -0.2 0.5 -0.4
v 0.3 0.5 -0.4
v 0.4 0.5 -0.4
v -0.2 0.5 -0.5
v 0.3 0.5 -0.5
v -0.1 0.9 0.4
v 0.2 0.9 0.4
v -0.1 0.9 0.3
v 0.2 0.9 0.3
v -0.1 0.9 -0.3
v 0.2 0.9 -0.3
v -0.1 0.9 -0.4
v 0.2 0.9 -0.4
v -0.2 1 0.4
v -0.1 1 0.4
v 0.2 1 0.4
v 0.3 1 0.4
v -0.2 1 0.3
v -0.1 1 0.3
v 0.2 1 0.3
v 0.3 1 0.3
v -0.2 1 -0.3
v -0.1 1 -0.3
v 0.2 1 -0.3
v 0.3 1 -0.3
v -0.2 1 -0.4
v -0.1 1 -0.4
v 0.2 1 -0.4
v 0.3 1 -0.4
v -0.3 1.2 0.4
v -0.2 1.2 0.4
v 0.3 1.2 0.4
v 0.4 1.2 0.4
v -0.3 1.2 -0.4
v -0.2 1.2 -0.4
v 0.3 1.2 -0.4
v 0.4 1.2 -0.4
v -0.4 1.3 0.4
v -0.3 1.3 0.4
v 0.4 1.3 0.4
v 0.5 1.3 0.4
v -0.4 1.3 -0.4
v -0.3 1.3 -0.4
v 0.4 1.3 -0.4
v 0.5 1.3 -0.4
v -1.6 1.4 0.4
v -1.4 1.4 0.4
v -1.2 1.4 0.4
v -0.4 1.4 0.4
v 0.5 1.4 0.4
v 1 1.4 0.4
v 1.2 1.4 0.4
v -1.6 1.4 -0.4
v -1.4 1.4 -0.4
v -1.2 1.4 -0.4
v -0.4 1.4 -0.4
v 0.5 1.4 -0.4
v 1 1.4 -0.4
v 1.2 1.4 -0.4
v -1.6 1.5 0.5
v -1.4 1.5 0.5
v -1.2 1.5 0.5
v 1 1.5 0.5
v 1.2 1.5 0.5
v -1.6 1.5 0.4
v -1.4 1.5 0.4
v -1.2 1.5 0.4
v -0.4 1.5 0.4
v 0.5 1.5 0.4
v 1 1.5 0.4
v 1.2 1.5 0.4
v -1.6 1.5 -0.4
v -1.4 1.5 -0.4
v -1.2 1.5 -0.4
v -0.4 1.5 -0.4
v 0.5 1.5 -0.4
v 1 1.5 -0.4
v 1.2 1.5 -0.4
v -1.6 1.5 -0.5
v -1.4 1.5 -0.5
v -1.2 1.5 -0.5
v 1 1.5 -0.5
v 1.2 1.5 -0.5
v -1.7 1.8 0.6
v -1.4 1.8 0.6
v -1.2 1.8 0.6
v 1 1.8 0.6
v 1.2 1.8 0.6
v -1.7 1.8 0.5
v -1.6 1.8 0.5
v -1.4 1.8 0.5
v -1.2 1.8 0.5
v 1 1.8 0.5
v 1.2 1.8 0.5
v -1.7 1.8 -0.5
v -1.6 1.8 -0.5
v -1.4 1.8 -0.5
v -1.2 1.8 -0.5
v 1 1.8 -0.5
v 1.2 1.8 -0.5
v -1.7 1.8 -0.6
v -1.4 1.8 -0.6
v -1.2 1.8 -0.6
v 1 1.8 -0.6
v 1.2 1.8 -0.6
v -1.8 1.9 0.6
v -1.7 1.9 0.6
v -1.8 1.9 0.5
v -1.7 1.9 0.5
v -1.8 1.9 -0.5
v -1.7 1.9 -0.5
v -1.8 1.9 -0.6
v -1.7 1.9 -0.6
v -1.9 2 0.6
v -1.8 2 0.6
v -1.9 2 0.5
v -1.8 2 0.5
v -1.9 2 -0.5
v -1.8 2 -0.5
v -1.9 2 -0.6
v -1.8 2 -0.6
v -1.9 2.2 0.5
v -1.6 2.2 0.5
v -1.9 2.2 -0.5
v -1.6 2.2 -0.5
v 0.5 0.6 0.3
v 1.8 0.6 0.3
v 0.5 0.6 -0.3
v 1.8 0.6 -0.3
v -0.2 0.7 0.5
v 0.3 0.7 0.5
v -0.3 0.7 0.4
v -0.2 0.7 0.4
v 0.3 0.7 0.4
v 0.4 0.7 0.4
v 1.8 0.7 0.4
v 1.9 0.7 0.4
v -0.4 0.7 0.3
v -0.3 0.7 0.3
v -0.2 0.7 0.3
v 0.3 0.7 0.3
v 0.4 0.7 0.3
v 0.5 0.7 0.3
v -0.4 0.7 -0.3
v -0.3 0.7 -0.3
v -0.2 0.7 -0.3
v 0.3 0.7 -0.3
v 0.4 0.7 -0.3
v 0.5 0.7 -0.3
v -0.3 0.7 -0.4
v -0.2 0.7 -0.4
v 0.3 0.7 -0.4
v 0.4 0.7 -0.4
v 1.8 0.7 -0.4
v 1.9 0.7 -0.4
v -0.2 0.7 -0.5
v 0.3 0.7 -0.5
v -1.9 2.3 0.6
v -1.4 2.3 0.6
v -1.2 2.3 0.6
v 1 2.3 0.6
v 1.2 2.3 0.6
v -1.9 2.3 -0.6
v -1.4 2.3 -0.6
v -1.2 2.3 -0.6
v 1 2.3 -0.6
v 1.2 2.3 -0.6

# faces
f 5/1/1 2/1/1 1/1/1
f 6/1/1 4/1/1 3/1/1
f 7/1/1 5/1/1 1/1/1
f 7/1/1 6/1/1 5/1/1
f 8/1/1 4/1/1 6/1/1
f 8/1/1 6/1/1 7/1/1
f 13/1/1 10/1/1 9/1/1
f 14/1/1 10/1/1 13/1/1
f 15/1/1 12/1/1 11/1/1
f 16/1/1 12/1/1 15/1/1
f 21/1/1 18/1/1 17/1/1
f 22/1/1 18/1/1 21/1/1
f 23/1/1 20/1/1 19/1/1
f 24/1/1 20/1/1 23/1/1
f 28/1/1 26/1/1 25/1/1
f 29/1/1 26/1/1 28/1/1
f 31/1/1 28/1/1 27/1/1
f 31/1/1 30/1/1 29/1/1
f 31/1/1 29/1/1 28/1/1
f 32/1/1 30/1/1 31/1/1
f 33/1/1 31/1/1 27/1/1
f 34/1/1 30/1/1 32/1/1
f 35/1/1 31/1/1 33/1/1
f 35/3/1 32/3/1 31/3/1
f 36/1/1 34/1/1 32/1/1
f 36/3/1 32/3/1 35/3/1
f 37/1/1 35/1/1 33/1/1
f 37/1/1 36/1/1 35/1/1
f 38/1/1 34/1/1 36/1/1
f 38/1/1 36/1/1 37/1/1
f 41/1/1 40/1/1 39/1/1
f 42/1/1 40/1/1 41/1/1
f 45/2/1 44/2/1 43/2/1
f 46/2/1 44/2/1 45/2/1
f 51/1/1 48/1/1 47/1/1
f 52/1/1 48/1/1 51/1/1
f 53/1/1 50/1/1 49/1/1
f 54/1/1 50/1/1 53/1/1
f 57/2/1 56/2/1 55/2/1
f 58/2/1 56/2/1 57/2/1
f 63/1/1 60/1/1 59/1/1
f 64/1/1 60/1/1 63/1/1
f 67/1/1 62/1/1 61/1/1
f 68/1/1 62/1/1 67/1/1
f 70/1/1 66/1/1 65/1/1
f 71/1/1 66/1/1 70/1/1
f 73/1/1 70/1/1 69/1/1
f 73/1/1 72/1/1 71/1/1
f 73/1/1 71/1/1 70/1/1
f 74/1/1 72/1/1 73/1/1
f 79/1/1 76/1/1 75/1/1
f 80/1/1 76/1/1 79/1/1
f 81/1/1 78/1/1 77/1/1
f 82/1/1 78/1/1 81/1/1
f 87/1/1 84/1/1 83/1/1
f 88/1/1 84/1/1 87/1/1
f 89/1/1 86/1/1 85/1/1
f 90/1/1 86/1/1 89/1/1
f 95/1/1 92/1/1 91/1/1
f 96/1/1 92/1/1 95/1/1
f 97/1/1 94/1/1 93/1/1
f 98/1/1 94/1/1 97/1/1
f 102/1/1 100/1/1 99/1/1
f 103/1/1 100/1/1 102/1/1
f 106/1/1 102/1/1 101/1/1
f 106/1/1 104/1/1 103/1/1
f 106/1/1 103/1/1 102/1/1
f 107/1/1 104/1/1 106/1/1
f 108/1/1 104/1/1 107/1/1
f 109/1/1 104/1/1 108/1/1
f 111/1/1 108/1/1 107/1/1
f 112/1/1 108/1/1 111/1/1
f 113/1/1 106/1/1 105/1/1
f 114/1/1 110/1/1 109/1/1
f 115/1/1 113/1/1 105/1/1
f 115/1/1 114/1/1 113/1/1
f 116/1/1 110/1/1 114/1/1
f 116/1/1 114/1/1 115/1/1
f 117/1/2 118/1/2 121/1/2
f 121/1/2 118/1/2 122/1/2
f 119/1/2 120/1/2 123/1/2
f 123/1/2 120/1/2 124/1/2
f 125/1/2 126/1/2 129/1/2
f 129/1/2 126/1/2 130/1/2
f 127/1/2 128/1/2 133/1/2
f 133/1/2 128/1/2 134/1/2
f 131/1/2 132/1/2 136/1/2
f 136/1/2 132/1/2 137/1/2
f 135/1/2 136/1/2 139/1/2
f 137/1/2 138/1/2 139/1/2
f 136/1/2 137/1/2 139/1/2
f 139/1/2 138/1/2 140/1/2
f 141/1/2 142/1/2 145/1/2
f 145/1/2 142/1/2 146/1/2
f 143/1/2 144/1/2 147/1/2
f 147/1/2 144/1/2 148/1/2
f 149/2/2 150/2/2 151/2/2
f 151/2/2 150/2/2 152/2/2
f 153/1/2 154/1/2 155/1/2
f 155/1/2 154/1/2 156/1/2
f 157/2/2 158/2/2 159/2/2
f 159/2/2 158/2/2 160/2/2
f 161/2/2 162/2/2 164/2/2
f 164/2/2 162/2/2 165/2/2
f 163/2/2 164/2/2 168/2/2
f 164/1/2 165/1/2 169/1/2
f 168/2/2 164/2/2 169/2/2
f 165/2/2 166/2/2 170/2/2
f 169/1/2 165/1/2 170/1/2
f 170/2/2 166/2/2 171/2/2
f 168/1/2 169/1/2 173/1/2
f 167/2/2 168/2/2 173/2/2
f 170/1/2 171/1/2 173/1/2
f 169/1/2 170/1/2 173/1/2
f 171/2/2 172/2/2 174/2/2
f 173/1/2 171/1/2 174/1/2
f 167/2/2 173/2/2 175/2/2
f 173/2/2 174/2/2 175/2/2
f 174/2/2 172/2/2 176/2/2
f 175/2/2 174/2/2 176/2/2
f 177/1/2 178/1/2 180/1/2
f 180/1/2 178/1/2 181/1/2
f 179/1/2 180/1/2 184/1/2
f 181/1/2 182/1/2 184/1/2
f 180/1/2 181/1/2 184/1/2
f 184/1/2 182/1/2 185/1/2
f 183/1/2 184/1/2 187/1/2
f 185/1/2 186/1/2 187/1/2
f 184/1/2 185/1/2 187/1/2
f 187/1/2 186/1/2 188/1/2
f 192/1/3 190/1/3 189/1/3
f 194/1/3 192/1/3 191/1/3
f 195/1/3 194/1/3 193/1/3
f 196/1/3 190/1/3 192/1/3
f 196/1/3 194/1/3 195/1/3
f 196/1/3 192/1/3 194/1/3
f 197/2/3 196/2/3 195/2/3
f 198/2/3 196/2/3 197/2/3
f 199/1/3 198/1/3 197/1/3
f 200/1/3 198/1/3 199/1/3
f 201/2/3 200/2/3 199/2/3
f 202/2/3 200/2/3 201/2/3
f 205/1/3 204/1/3 203/1/3
f 206/1/3 204/1/3 205/1/3
f 207/2/3 206/2/3 205/2/3
f 208/2/3 206/2/3 207/2/3
f 211/1/3 210/1/3 209/1/3
f 212/1/3 210/1/3 211/1/3
f 213/1/3 208/1/3 207/1/3
f 214/1/3 208/1/3 213/1/3
f 215/2/3 214/2/3 213/2/3
f 216/2/3 214/2/3 215/2/3
f 219/1/3 218/1/3 217/1/3
f 220/1/3 218/1/3 219/1/3
f 221/2/3 220/2/3 219/2/3
f 222/2/3 220/2/3 221/2/3
f 224/1/3 222/1/3 221/1/3
f 225/1/3 222/1/3 224/1/3
f 229/2/3 224/2/3 223/2/3
f 229/2/3 225/2/3 224/2/3
f 230/1/3 227/1/3 226/1/3
f 231/1/3 227/1/3 230/1/3
f 233/2/3 229/2/3 228/2/3
f 235/1/3 233/1/3 232/1/3
f 236/1/3 235/1/3 234/1/3
f 237/1/3 233/1/3 235/1/3
f 237/1/3 235/1/3 236/1/3
f 240/1/3 233/1/3 237/1/3
f 241/2/3 229/2/3 233/2/3
f 241/1/3 233/1/3 240/1/3
f 242/1/3 239/1/3 238/1/3
f 243/1/3 239/1/3 242/1/3
f 244/2/3 229/2/3 241/2/3
f 245/2/3 225/2/3 229/2/3
f 245/2/3 229/2/3 244/2/3
f 246/2/3 225/2/3 245/2/3
f 247/2/3 225/2/3 246/2/3
f 248/2/3 225/2/3 247/2/3
f 249/1/3 248/1/3 247/1/3
f 250/1/3 248/1/3 249/1/3
f 251/2/3 250/2/3 249/2/3
f 252/2/3 250/2/3 251/2/3
f 255/1/3 254/1/3 253/1/3
f 256/1/3 254/1/3 255/1/3
f 259/1/3 258/1/3 257/1/3
f 260/1/3 258/1/3 259/1/3
f 263/1/3 262/1/3 261/1/3
f 264/1/3 262/1/3 263/1/3
f 267/1/3 263/1/3 261/1/3
f 269/1/3 267/1/3 261/1/3
f 269/1/3 268/1/3 267/1/3
f 270/1/3 268/1/3 269/1/3
f 271/1/3 266/1/3 265/1/3
f 273/1/3 272/1/3 271/1/3
f 274/1/3 272/1/3 273/1/3
f 276/1/3 271/1/3 265/1/3
f 276/1/3 273/1/3 271/1/3
f 278/1/3 276/1/3 275/1/3
f 279/1/3 273/1/3 276/1/3
f 279/1/3 276/1/3 278/1/3
f 280/1/3 278/1/3 277/1/3
f 281/1/3 278/1/3 280/1/3
f 284/1/3 283/1/3 282/1/3
f 285/1/3 283/1/3 284/1/3
f 289/1/3 287/1/3 286/1/3
f 290/1/3 289/1/3 288/1/3
f 291/1/3 287/1/3 289/1/3
f 291/1/3 289/1/3 290/1/3
f 295/1/3 293/1/3 292/1/3
f 297/1/3 295/1/3 294/1/3
f 298/1/3 297/1/3 296/1/3
f 299/1/3 293/1/3 295/1/3
f 299/1/3 297/1/3 298/1/3
f 299/1/3 295/1/3 297/1/3
f 300/1/4 301/1/4 303/1/4
f 302/1/4 303/1/4 305/1/4
f 304/1/4 305/1/4 306/1/4
f 303/1/4 301/1/4 307/1/4
f 306/1/4 305/1/4 307/1/4
f 305/1/4 303/1/4 307/1/4
f 308/1/4 309/1/4 311/1/4
f 310/1/4 311/1/4 312/1/4
f 311/1/4 309/1/4 313/1/4
f 312/1/4 311/1/4 313/1/4
f 314/1/4 315/1/4 316/1/4
f 316/1/4 315/1/4 317/1/4
f 318/1/4 319/1/4 320/1/4
f 320/1/4 319/1/4 321/1/4
f 322/1/4 323/1/4 324/1/4
f 324/1/4 323/1/4 325/1/4
f 322/1/4 324/1/4 328/1/4
f 322/1/4 328/1/4 330/1/4
f 328/1/4 329/1/4 330/1/4
f 330/1/4 329/1/4 331/1/4
f 326/1/4 327/1/4 332/1/4
f 332/1/4 333/1/4 334/1/4
f 334/1/4 333/1/4 335/1/4
f 326/1/4 332/1/4 337/1/4
f 332/1/4 334/1/4 337/1/4
f 336/1/4 337/1/4 339/1/4
f 337/1/4 334/1/4 340/1/4
f 339/1/4 337/1/4 340/1/4
f 338/1/4 339/1/4 341/1/4
f 341/1/4 339/1/4 342/1/4
f 343/1/4 344/1/4 345/1/4
f 345/1/4 344/1/4 346/1/4
f 345/2/4 346/2/4 347/2/4
f 347/2/4 346/2/4 348/2/4
f 347/1/4 348/1/4 350/1/4
f 350/1/4 348/1/4 351/1/4
f 349/2/4 350/2/4 355/2/4
f 350/2/4 351/2/4 355/2/4
f 352/1/4 353/1/4 356/1/4
f 356/1/4 353/1/4 357/1/4
f 354/2/4 355/2/4 359/2/4
f 358/1/4 359/1/4 361/1/4
f 360/1/4 361/1/4 362/1/4
f 361/1/4 359/1/4 363/1/4
f 362/1/4 361/1/4 363/1/4
f 363/1/4 359/1/4 366/1/4
f 359/2/4 355/2/4 367/2/4
f 366/1/4 359/1/4 367/1/4
f 364/1/4 365/1/4 368/1/4
f 368/1/4 365/1/4 369/1/4
f 367/2/4 355/2/4 370/2/4
f 355/2/4 351/2/4 371/2/4
f 370/2/4 355/2/4 371/2/4
f 371/2/4 351/2/4 372/2/4
f 372/2/4 351/2/4 373/2/4
f 373/2/4 351/2/4 374/2/4
f 373/1/4 374/1/4 375/1/4
f 375/1/4 374/1/4 376/1/4
f 375/2/4 376/2/4 377/2/4
f 377/2/4 376/2/4 378/2/4
f 379/1/4 380/1/4 381/1/4
f 381/1/4 380/1/4 382/1/4
f 383/1/4 384/1/4 385/1/4
f 385/1/4 384/1/4 386/1/4
f 385/2/4 386/2/4 387/2/4
f 387/2/4 386/2/4 388/2/4
f 389/1/4 390/1/4 391/1/4
f 391/1/4 390/1/4 392/1/4
f 387/1/4 388/1/4 393/1/4
f 393/1/4 388/1/4 394/1/4
f 393/2/4 394/2/4 395/2/4
f 395/2/4 394/2/4 396/2/4
f 397/1/4 398/1/4 400/1/4
f 399/1/4 400/1/4 402/1/4
f 401/1/4 402/1/4 403/1/4
f 400/1/4 398/1/4 404/1/4
f 403/1/4 402/1/4 404/1/4
f 402/1/4 400/1/4 404/1/4
f 403/2/4 404/2/4 405/2/4
f 405/2/4 404/2/4 406/2/4
f 405/1/4 406/1/4 407/1/4
f 407/1/4 406/1/4 408/1/4
f 407/2/4 408/2/4 409/2/4
f 409/2/4 408/2/4 410/2/4
f 413/1/5 412/1/5 411/1/5
f 414/1/5 412/1/5 413/1/5
f 417/1/5 416/1/5 415/1/5
f 418/1/5 416/1/5 417/1/5
f 421/1/5 420/1/5 419/1/5
f 422/1/5 420/1/5 421/1/5
f 426/1/5 424/1/5 423/1/5
f 427/1/5 424/1/5 426/1/5
f 428/1/5 426/1/5 425/1/5
f 429/1/5 426/1/5 428/1/5
f 432/1/5 431/1/5 430/1/5
f 433/1/5 431/1/5 432/1/5
f 435/1/5 434/1/5 433/1/5
f 436/1/5 434/1/5 435/1/5
f 439/1/5 438/1/5 437/1/5
f 440/1/5 438/1/5 439/1/5
f 443/1/5 442/1/5 441/1/5
f 444/1/5 442/1/5 443/1/5
f 448/1/5 446/1/5 445/1/5
f 449/1/5 446/1/5 448/1/5
f 452/1/5 448/1/5 447/1/5
f 452/1/5 450/1/5 449/1/5
f 452/1/5 449/1/5 448/1/5
f 453/1/5 450/1/5 452/1/5
f 454/1/5 450/1/5 453/1/5
f 455/1/5 452/1/5 451/1/5
f 455/1/5 453/1/5 452/1/5
f 457/1/5 455/1/5 451/1/5
f 457/1/5 456/1/5 455/1/5
f 458/1/5 456/1/5 457/1/5
f 459/1/5 457/1/5 451/1/5
f 460/1/5 457/1/5 459/1/5
f 461/1/5 457/1/5 460/1/5
f 463/1/5 462/1/5 461/1/5
f 463/1/5 461/1/5 460/1/5
f 464/1/5 462/1/5 463/1/5
f 465/1/5 462/1/5 464/1/5
f 466/1/5 462/1/5 465/1/5
f 467/1/5 465/1/5 464/1/5
f 468/1/5 465/1/5 467/1/5
f 471/1/5 470/1/5 469/1/5
f 472/1/5 470/1/5 471/1/5
f 475/1/5 474/1/5 473/1/5
f 476/1/5 474/1/5 475/1/5
f 481/1/5 478/1/5 477/1/5
f 482/1/5 478/1/5 481/1/5
f 483/1/5 480/1/5 479/1/5
f 484/1/5 480/1/5 483/1/5
f 489/1/5 486/1/5 485/1/5
f 490/1/5 486/1/5 489/1/5
f 491/1/5 488/1/5 487/1/5
f 492/1/5 488/1/5 491/1/5
f 497/2/5 494/2/5 493/2/5
f 498/2/5 494/2/5 497/2/5
f 499/2/5 496/2/5 495/2/5
f 500/2/5 496/2/5 499/2/5
f 505/2/5 502/2/5 501/2/5
f 506/2/5 502/2/5 505/2/5
f 507/2/5 504/2/5 503/2/5
f 508/2/5 504/2/5 507/2/5
f 516/1/5 510/1/5 509/1/5
f 517/2/5 511/2/5 510/2/5
f 517/1/5 510/1/5 516/1/5
f 518/1/5 512/1/5 511/1/5
f 518/2/5 511/2/5 517/2/5
f 519/1/5 512/1/5 518/1/5
f 520/1/5 514/1/5 513/1/5
f 521/2/5 515/2/5 514/2/5
f 521/1/5 514/1/5 520/1/5
f 522/2/5 515/2/5 521/2/5
f 528/1/5 524/1/5 523/1/5
f 529/2/5 525/2/5 524/2/5
f 529/1/5 524/1/5 528/1/5
f 530/1/5 526/1/5 525/1/5
f 530/2/5 525/2/5 529/2/5
f 531/1/5 526/1/5 530/1/5
f 532/1/5 526/1/5 531/1/5
f 533/2/5 527/2/5 526/2/5
f 533/1/5 526/1/5 532/1/5
f 534/2/5 527/2/5 533/2/5
f 542/1/5 536/1/5 535/1/5
f 543/2/5 537/2/5 536/2/5
f 543/1/5 536/1/5 542/1/5
f 544/1/5 538/1/5 537/1/5
f 544/2/5 537/2/5 543/2/5
f 544/1/5 539/1/5 538/1/5
f 544/1/5 540/1/5 539/1/5
f 545/2/5 541/2/5 540/2/5
f 545/1/5 540/1/5 544/1/5
f 546/2/5 541/2/5 545/2/5
f 552/1/5 548/1/5 547/1/5
f 553/1/5 548/1/5 552/1/5
f 554/2/5 549/2/5 548/2/5
f 554/1/5 548/1/5 553/1/5
f 555/1/5 550/1/5 549/1/5
f 555/2/5 549/2/5 554/2/5
f 556/2/5 551/2/5 550/2/5
f 556/1/5 550/1/5 555/1/5
f 557/2/5 551/2/5 556/2/5
f 564/1/5 559/1/5 558/1/5
f 564/1/5 560/1/5 559/1/5
f 565/2/5 561/2/5 560/2/5
f 565/1/5 560/1/5 564/1/5
f 566/1/5 562/1/5 561/1/5
f 566/2/5 561/2/5 565/2/5
f 567/2/5 563/2/5 562/2/5
f 567/1/5 562/1/5 566/1/5
f 568/2/5 563/2/5 567/2/5
f 571/1/5 570/1/5 569/1/5
f 572/1/5 570/1/5 571/1/5
f 575/1/5 574/1/5 573/1/5
f 576/1/5 574/1/5 575/1/5
f 579/1/5 578/1/5 577/1/5
f 580/1/5 578/1/5 579/1/5
f 583/1/5 582/1/5 581/1/5
f 584/1/5 582/1/5 583/1/5
f 587/1/5 586/1/5 585/1/5
f 588/1/5 586/1/5 587/1/5
f 589/1/6 590/1/6 591/1/6
f 591/1/6 590/1/6 592/1/6
f 593/1/6 594/1/6 596/1/6
f 596/1/6 594/1/6 597/1/6
f 595/1/6 596/1/6 602/1/6
f 596/1/6 597/1/6 602/1/6
f 597/1/6 598/1/6 602/1/6
f 602/1/6 598/1/6 603/1/6
f 603/1/6 598/1/6 604/1/6
f 604/1/6 598/1/6 605/1/6
f 601/1/6 602/1/6 607/1/6
f 602/1/6 603/1/6 607/1/6
f 607/1/6 603/1/6 608/1/6
f 608/1/6 603/1/6 609/1/6
f 605/1/6 606/1/6 610/1/6
f 604/1/6 605/1/6 610/1/6
f 610/1/6 606/1/6 611/1/6
f 611/1/6 606/1/6 612/1/6
f 608/1/6 609/1/6 613/1/6
f 610/1/6 611/1/6 613/1/6
f 609/1/6 610/1/6 613/1/6
f 613/1/6 611/1/6 614/1/6
f 614/1/6 611/1/6 615/1/6
f 615/1/6 611/1/6 616/1/6
f 599/1/6 600/1/6 617/1/6
f 617/1/6 600/1/6 618/1/6
f 614/1/6 615/1/6 619/1/6
f 619/1/6 615/1/6 620/1/6
f 621/1/6 622/1/6 626/1/6
f 622/2/6 623/2/6 627/2/6
f 626/1/6 622/1/6 627/1/6
f 623/1/6 624/1/6 628/1/6
f 627/2/6 623/2/6 628/2/6
f 624/2/6 625/2/6 629/2/6
f 628/1/6 624/1/6 629/1/6
f 629/2/6 625/2/6 630/2/6
