# MagicaVoxel @ Ephtracy

# group
o 

# material
mtllib Airdryer.mtl
usemtl palette

# normals
vn -1 0 0
vn 1 0 0
vn 0 0 1
vn 0 0 -1
vn 0 -1 0
vn 0 1 0

# texcoords
vt 0.650391 0.5
vt 0.974609 0.5

# verts
v -0.7 0 -0.7
v -0.7 0 -0.8
v -0.7 3 -0.7
v -0.7 3 -0.8
v -0.6 0.6 0.2
v -0.6 0.6 -0.7
v -0.6 0.7 0.3
v -0.6 0.7 0.2
v -0.6 0.9 -0.1
v -0.6 0.9 -0.3
v -0.6 1.6 0.3
v -0.6 1.6 -0.1
v -0.6 1.6 -0.3
v -0.6 1.6 -0.7
v 0.6 0.9 -2.98023e-08
v 0.6 0.9 -0.1
v 0.6 0.9 -0.3
v 0.6 0.9 -0.4
v 0.6 1.5 -2.98023e-08
v 0.6 1.5 -0.1
v 0.6 1.5 -0.3
v 0.6 1.5 -0.4
v -0.5 0.9 -2.98023e-08
v -0.5 0.9 -0.1
v -0.5 0.9 -0.3
v -0.5 0.9 -0.4
v -0.5 1.5 -2.98023e-08
v -0.5 1.5 -0.1
v -0.5 1.5 -0.3
v -0.5 1.5 -0.4
v 0.7 0.6 0.2
v 0.7 0.6 -0.7
v 0.7 0.7 0.3
v 0.7 0.7 0.2
v 0.7 0.9 -0.1
v 0.7 0.9 -0.3
v 0.7 1.6 0.3
v 0.7 1.6 -0.1
v 0.7 1.6 -0.3
v 0.7 1.6 -0.7
v 0.8 0 -0.7
v 0.8 0 -0.8
v 0.8 3 -0.7
v 0.8 3 -0.8
v -0.6 0.7 0.3
v -0.6 1.6 0.3
v 0.7 0.7 0.3
v 0.7 1.6 0.3
v -0.6 0.6 0.2
v -0.6 0.7 0.2
v 0.7 0.6 0.2
v 0.7 0.7 0.2
v -0.6 0.9 -0.3
v -0.6 1.6 -0.3
v -0.5 0.9 -0.3
v -0.5 1.5 -0.3
v 0.6 0.9 -0.3
v 0.6 1.5 -0.3
v 0.7 0.9 -0.3
v 0.7 1.6 -0.3
v -0.5 0.9 -0.4
v -0.5 1.5 -0.4
v 0.6 0.9 -0.4
v 0.6 1.5 -0.4
v -0.7 0 -0.7
v -0.7 3 -0.7
v -0.6 0.6 -0.7
v -0.6 1.6 -0.7
v -0.2 2.5 -0.7
v -0.2 2.6 -0.7
v -0.1 2.4 -0.7
v -0.1 2.5 -0.7
v 0 2.3 -0.7
v 0 2.4 -0.7
v 0 2.6 -0.7
v 0 2.9 -0.7
v 0.1 2.3 -0.7
v 0.1 2.4 -0.7
v 0.1 2.6 -0.7
v 0.1 2.9 -0.7
v 0.2 2.4 -0.7
v 0.2 2.5 -0.7
v 0.3 2.5 -0.7
v 0.3 2.6 -0.7
v 0.7 0.6 -0.7
v 0.7 1.6 -0.7
v 0.8 0 -0.7
v 0.8 3 -0.7
v -0.5 0.9 -2.98023e-08
v -0.5 1.5 -2.98023e-08
v 0.6 0.9 -2.98023e-08
v 0.6 1.5 -2.98023e-08
v -0.6 0.9 -0.1
v -0.6 1.6 -0.1
v -0.5 0.9 -0.1
v -0.5 1.5 -0.1
v 0.6 0.9 -0.1
v 0.6 1.5 -0.1
v 0.7 0.9 -0.1
v 0.7 1.6 -0.1
v -0.7 0 -0.8
v -0.7 3 -0.8
v -0.2 2.5 -0.8
v -0.2 2.6 -0.8
v -0.1 2.4 -0.8
v -0.1 2.5 -0.8
v 0 2.3 -0.8
v 0 2.4 -0.8
v 0 2.6 -0.8
v 0 2.9 -0.8
v 0.1 2.3 -0.8
v 0.1 2.4 -0.8
v 0.1 2.6 -0.8
v 0.1 2.9 -0.8
v 0.2 2.4 -0.8
v 0.2 2.5 -0.8
v 0.3 2.5 -0.8
v 0.3 2.6 -0.8
v 0.8 0 -0.8
v 0.8 3 -0.8
v -0.7 0 -0.7
v 0.8 0 -0.7
v -0.7 0 -0.8
v 0.8 0 -0.8
v -0.6 0.6 0.2
v 0.7 0.6 0.2
v -0.6 0.6 -0.7
v 0.7 0.6 -0.7
v -0.6 0.7 0.3
v 0.7 0.7 0.3
v -0.6 0.7 0.2
v 0.7 0.7 0.2
v -0.5 1.5 -2.98023e-08
v 0.6 1.5 -2.98023e-08
v -0.5 1.5 -0.1
v 0.6 1.5 -0.1
v -0.5 1.5 -0.3
v 0.6 1.5 -0.3
v -0.5 1.5 -0.4
v 0.6 1.5 -0.4
v -0.5 0.9 -2.98023e-08
v 0.6 0.9 -2.98023e-08
v -0.6 0.9 -0.1
v -0.5 0.9 -0.1
v 0.6 0.9 -0.1
v 0.7 0.9 -0.1
v -0.6 0.9 -0.3
v -0.5 0.9 -0.3
v 0.6 0.9 -0.3
v 0.7 0.9 -0.3
v -0.5 0.9 -0.4
v 0.6 0.9 -0.4
v -0.6 1.6 0.3
v 0.7 1.6 0.3
v -0.6 1.6 -0.1
v 0.7 1.6 -0.1
v -0.6 1.6 -0.3
v 0.7 1.6 -0.3
v -0.6 1.6 -0.7
v 0.7 1.6 -0.7
v -0.7 3 -0.7
v 0.8 3 -0.7
v -0.7 3 -0.8
v 0.8 3 -0.8

# faces
f 3/1/1 2/1/1 1/1/1
f 4/1/1 2/1/1 3/1/1
f 8/2/1 6/2/1 5/2/1
f 9/2/1 6/2/1 8/2/1
f 9/2/1 8/2/1 7/2/1
f 10/2/1 6/2/1 9/2/1
f 11/2/1 9/2/1 7/2/1
f 12/2/1 9/2/1 11/2/1
f 13/2/1 6/2/1 10/2/1
f 14/2/1 6/2/1 13/2/1
f 19/2/1 16/2/1 15/2/1
f 20/2/1 16/2/1 19/2/1
f 21/2/1 18/2/1 17/2/1
f 22/2/1 18/2/1 21/2/1
f 23/2/2 24/2/2 27/2/2
f 27/2/2 24/2/2 28/2/2
f 25/2/2 26/2/2 29/2/2
f 29/2/2 26/2/2 30/2/2
f 31/2/2 32/2/2 34/2/2
f 34/2/2 32/2/2 35/2/2
f 33/2/2 34/2/2 35/2/2
f 35/2/2 32/2/2 36/2/2
f 33/2/2 35/2/2 37/2/2
f 37/2/2 35/2/2 38/2/2
f 36/2/2 32/2/2 39/2/2
f 39/2/2 32/2/2 40/2/2
f 41/1/2 42/1/2 43/1/2
f 43/1/2 42/1/2 44/1/2
f 47/2/3 46/2/3 45/2/3
f 48/2/3 46/2/3 47/2/3
f 51/2/3 50/2/3 49/2/3
f 52/2/3 50/2/3 51/2/3
f 55/2/3 54/2/3 53/2/3
f 56/2/3 54/2/3 55/2/3
f 58/2/3 54/2/3 56/2/3
f 59/2/3 58/2/3 57/2/3
f 60/2/3 54/2/3 58/2/3
f 60/2/3 58/2/3 59/2/3
f 63/2/3 62/2/3 61/2/3
f 64/2/3 62/2/3 63/2/3
f 67/1/3 66/1/3 65/1/3
f 68/1/3 66/1/3 67/1/3
f 69/1/3 66/1/3 68/1/3
f 70/1/3 66/1/3 69/1/3
f 71/1/3 69/1/3 68/1/3
f 72/2/3 70/2/3 69/2/3
f 72/1/3 69/1/3 71/1/3
f 73/1/3 71/1/3 68/1/3
f 74/2/3 72/2/3 71/2/3
f 74/1/3 71/1/3 73/1/3
f 75/1/3 66/1/3 70/1/3
f 75/2/3 72/2/3 74/2/3
f 75/2/3 70/2/3 72/2/3
f 76/1/3 66/1/3 75/1/3
f 77/2/3 74/2/3 73/2/3
f 77/1/3 73/1/3 68/1/3
f 77/2/3 76/2/3 75/2/3
f 77/2/3 75/2/3 74/2/3
f 78/2/3 76/2/3 77/2/3
f 79/2/3 76/2/3 78/2/3
f 80/1/3 66/1/3 76/1/3
f 80/2/3 76/2/3 79/2/3
f 81/2/3 79/2/3 78/2/3
f 81/1/3 78/1/3 77/1/3
f 82/2/3 79/2/3 81/2/3
f 83/1/3 82/1/3 81/1/3
f 83/2/3 79/2/3 82/2/3
f 84/1/3 80/1/3 79/1/3
f 84/2/3 79/2/3 83/2/3
f 85/1/3 67/1/3 65/1/3
f 86/1/3 77/1/3 68/1/3
f 86/1/3 83/1/3 81/1/3
f 86/1/3 84/1/3 83/1/3
f 86/1/3 81/1/3 77/1/3
f 87/1/3 85/1/3 65/1/3
f 87/1/3 86/1/3 85/1/3
f 88/1/3 80/1/3 84/1/3
f 88/1/3 86/1/3 87/1/3
f 88/1/3 66/1/3 80/1/3
f 88/1/3 84/1/3 86/1/3
f 89/2/4 90/2/4 91/2/4
f 91/2/4 90/2/4 92/2/4
f 93/2/4 94/2/4 95/2/4
f 95/2/4 94/2/4 96/2/4
f 96/2/4 94/2/4 98/2/4
f 97/2/4 98/2/4 99/2/4
f 98/2/4 94/2/4 100/2/4
f 99/2/4 98/2/4 100/2/4
f 101/1/4 102/1/4 103/1/4
f 103/1/4 102/1/4 104/1/4
f 101/1/4 103/1/4 105/1/4
f 103/2/4 104/2/4 106/2/4
f 105/1/4 103/1/4 106/1/4
f 101/1/4 105/1/4 107/1/4
f 105/2/4 106/2/4 108/2/4
f 107/1/4 105/1/4 108/1/4
f 104/1/4 102/1/4 109/1/4
f 108/2/4 106/2/4 109/2/4
f 106/2/4 104/2/4 109/2/4
f 109/1/4 102/1/4 110/1/4
f 107/2/4 108/2/4 111/2/4
f 101/1/4 107/1/4 111/1/4
f 109/2/4 110/2/4 111/2/4
f 108/2/4 109/2/4 111/2/4
f 111/2/4 110/2/4 112/2/4
f 112/2/4 110/2/4 113/2/4
f 110/1/4 102/1/4 114/1/4
f 113/2/4 110/2/4 114/2/4
f 112/2/4 113/2/4 115/2/4
f 111/1/4 112/1/4 115/1/4
f 115/2/4 113/2/4 116/2/4
f 115/1/4 116/1/4 117/1/4
f 116/2/4 113/2/4 117/2/4
f 113/1/4 114/1/4 118/1/4
f 117/2/4 113/2/4 118/2/4
f 101/1/4 111/1/4 119/1/4
f 115/1/4 117/1/4 119/1/4
f 117/1/4 118/1/4 119/1/4
f 111/1/4 115/1/4 119/1/4
f 114/1/4 102/1/4 120/1/4
f 119/1/4 118/1/4 120/1/4
f 118/1/4 114/1/4 120/1/4
f 123/1/5 122/1/5 121/1/5
f 124/1/5 122/1/5 123/1/5
f 127/2/5 126/2/5 125/2/5
f 128/2/5 126/2/5 127/2/5
f 131/2/5 130/2/5 129/2/5
f 132/2/5 130/2/5 131/2/5
f 135/2/5 134/2/5 133/2/5
f 136/2/5 134/2/5 135/2/5
f 139/2/5 138/2/5 137/2/5
f 140/2/5 138/2/5 139/2/5
f 141/2/6 142/2/6 144/2/6
f 144/2/6 142/2/6 145/2/6
f 143/2/6 144/2/6 147/2/6
f 145/2/6 146/2/6 147/2/6
f 144/2/6 145/2/6 147/2/6
f 147/2/6 146/2/6 148/2/6
f 148/2/6 146/2/6 149/2/6
f 149/2/6 146/2/6 150/2/6
f 148/2/6 149/2/6 151/2/6
f 151/2/6 149/2/6 152/2/6
f 153/2/6 154/2/6 155/2/6
f 155/2/6 154/2/6 156/2/6
f 157/2/6 158/2/6 159/2/6
f 159/2/6 158/2/6 160/2/6
f 161/1/6 162/1/6 163/1/6
f 163/1/6 162/1/6 164/1/6
