# MagicaVoxel @ Ephtracy

# group
o 

# material
mtllib CRTmonitorHD.mtl
usemtl palette

# normals
vn -1 0 0
vn 1 0 0
vn 0 0 1
vn 0 0 -1
vn 0 -1 0
vn 0 1 0

# texcoords
vt 0.345703 0.5
vt 0.994141 0.5

# verts
v -0.9 0.8 1.1
v -0.9 0.8 0.6
v -0.9 0.9 0.6
v -0.9 0.9 0
v -0.9 2.2 0.6
v -0.9 2.2 0
v -0.9 2.3 1.1
v -0.9 2.3 0.6
v -0.8 0.3 0.8
v -0.8 0.3 -0.8
v -0.8 0.6 0.8
v -0.8 0.6 -0.8
v -0.8 0.8 0.6
v -0.8 0.8 0
v -0.8 0.9 0.6
v -0.8 0.9 0
v -0.8 2.2 0.6
v -0.8 2.2 0.1
v -0.8 2.3 0.6
v -0.8 2.3 0.1
v -0.7 0.9 0
v -0.7 0.9 -0.5
v -0.7 1 -0.5
v -0.7 1 -0.8
v -0.7 2 -0.5
v -0.7 2 -0.8
v -0.7 2.1 0
v -0.7 2.1 -0.5
v -0.7 2.2 0.1
v -0.7 2.2 0
v -0.7 2.3 0.1
v -0.7 2.3 0
v -0.6 0.6 0.6
v -0.6 0.6 -0.6
v -0.6 0.8 0.6
v -0.6 0.8 0
v -0.6 0.9 0
v -0.6 0.9 -0.5
v -0.6 0.9 -0.6
v -0.6 0.9 -0.8
v -0.6 1 -0.5
v -0.6 1 -0.8
v -0.6 2 -0.5
v -0.6 2 -0.8
v -0.6 2.1 -0.5
v -0.6 2.1 -0.8
v 0.7 1 1.1
v 0.7 1 1
v 0.7 2.1 1.1
v 0.7 2.1 1
v -0.7 1 1.1
v -0.7 1 1
v -0.7 2.1 1.1
v -0.7 2.1 1
v 0.6 0.6 0.6
v 0.6 0.6 -0.6
v 0.6 0.8 0.6
v 0.6 0.8 0
v 0.6 0.9 0
v 0.6 0.9 -0.5
v 0.6 0.9 -0.6
v 0.6 0.9 -0.8
v 0.6 1 -0.5
v 0.6 1 -0.8
v 0.6 2 -0.5
v 0.6 2 -0.8
v 0.6 2.1 -0.5
v 0.6 2.1 -0.8
v 0.7 0.9 0
v 0.7 0.9 -0.5
v 0.7 1 -0.5
v 0.7 1 -0.8
v 0.7 2 -0.5
v 0.7 2 -0.8
v 0.7 2.1 0
v 0.7 2.1 -0.5
v 0.7 2.2 0.1
v 0.7 2.2 0
v 0.7 2.3 0.1
v 0.7 2.3 0
v 0.8 0.3 0.8
v 0.8 0.3 -0.8
v 0.8 0.6 0.8
v 0.8 0.6 -0.8
v 0.8 0.8 0.6
v 0.8 0.8 0
v 0.8 0.9 0.6
v 0.8 0.9 0
v 0.8 2.2 0.6
v 0.8 2.2 0.1
v 0.8 2.3 0.6
v 0.8 2.3 0.1
v 0.9 0.8 1.1
v 0.9 0.8 0.6
v 0.9 0.9 0.6
v 0.9 0.9 0
v 0.9 2.2 0.6
v 0.9 2.2 0
v 0.9 2.3 1.1
v 0.9 2.3 0.6
v -0.9 0.8 1.1
v -0.9 2.3 1.1
v -0.7 1 1.1
v -0.7 2.1 1.1
v 0.7 1 1.1
v 0.7 2.1 1.1
v 0.9 0.8 1.1
v 0.9 2.3 1.1
v -0.7 1 1
v -0.7 2.1 1
v 0.7 1 1
v 0.7 2.1 1
v -0.8 0.3 0.8
v -0.8 0.6 0.8
v 0.8 0.3 0.8
v 0.8 0.6 0.8
v -0.6 0.6 0.6
v -0.6 0.8 0.6
v 0.6 0.6 0.6
v 0.6 0.8 0.6
v -0.9 0.8 0.6
v -0.9 0.9 0.6
v -0.9 2.2 0.6
v -0.9 2.3 0.6
v -0.8 0.8 0.6
v -0.8 0.9 0.6
v -0.8 2.2 0.6
v -0.8 2.3 0.6
v 0.8 0.8 0.6
v 0.8 0.9 0.6
v 0.8 2.2 0.6
v 0.8 2.3 0.6
v 0.9 0.8 0.6
v 0.9 0.9 0.6
v 0.9 2.2 0.6
v 0.9 2.3 0.6
v -0.8 2.2 0.1
v -0.8 2.3 0.1
v -0.7 2.2 0.1
v -0.7 2.3 0.1
v 0.7 2.2 0.1
v 0.7 2.3 0.1
v 0.8 2.2 0.1
v 0.8 2.3 0.1
v -0.9 0.9 0
v -0.9 2.2 0
v -0.8 0.8 0
v -0.8 0.9 0
v -0.7 0.9 0
v -0.7 2.1 0
v -0.7 2.2 0
v -0.7 2.3 0
v -0.6 0.8 0
v -0.6 0.9 0
v 0.6 0.8 0
v 0.6 0.9 0
v 0.7 0.9 0
v 0.7 2.1 0
v 0.7 2.2 0
v 0.7 2.3 0
v 0.8 0.8 0
v 0.8 0.9 0
v 0.9 0.9 0
v 0.9 2.2 0
v -0.7 0.9 -0.5
v -0.7 1 -0.5
v -0.7 2 -0.5
v -0.7 2.1 -0.5
v -0.6 0.9 -0.5
v -0.6 1 -0.5
v -0.6 2 -0.5
v -0.6 2.1 -0.5
v 0.6 0.9 -0.5
v 0.6 1 -0.5
v 0.6 2 -0.5
v 0.6 2.1 -0.5
v 0.7 0.9 -0.5
v 0.7 1 -0.5
v 0.7 2 -0.5
v 0.7 2.1 -0.5
v -0.6 0.6 -0.6
v -0.6 0.9 -0.6
v 0.6 0.6 -0.6
v 0.6 0.9 -0.6
v -0.8 0.3 -0.8
v -0.8 0.6 -0.8
v -0.7 1 -0.8
v -0.7 2 -0.8
v -0.6 0.9 -0.8
v -0.6 1 -0.8
v -0.6 2 -0.8
v -0.6 2.1 -0.8
v 0.6 0.9 -0.8
v 0.6 1 -0.8
v 0.6 2 -0.8
v 0.6 2.1 -0.8
v 0.7 1 -0.8
v 0.7 2 -0.8
v 0.8 0.3 -0.8
v 0.8 0.6 -0.8
v -0.8 0.3 0.8
v 0.8 0.3 0.8
v -0.8 0.3 -0.8
v 0.8 0.3 -0.8
v -0.9 0.8 1.1
v 0.9 0.8 1.1
v -0.9 0.8 0.6
v -0.8 0.8 0.6
v -0.6 0.8 0.6
v 0.6 0.8 0.6
v 0.8 0.8 0.6
v 0.9 0.8 0.6
v -0.8 0.8 0
v -0.6 0.8 0
v 0.6 0.8 0
v 0.8 0.8 0
v -0.9 0.9 0.6
v -0.8 0.9 0.6
v 0.8 0.9 0.6
v 0.9 0.9 0.6
v -0.9 0.9 0
v -0.8 0.9 0
v -0.7 0.9 0
v -0.6 0.9 0
v 0.6 0.9 0
v 0.7 0.9 0
v 0.8 0.9 0
v 0.9 0.9 0
v -0.7 0.9 -0.5
v -0.6 0.9 -0.5
v 0.6 0.9 -0.5
v 0.7 0.9 -0.5
v -0.6 0.9 -0.6
v 0.6 0.9 -0.6
v -0.6 0.9 -0.8
v 0.6 0.9 -0.8
v -0.7 1 -0.5
v -0.6 1 -0.5
v 0.6 1 -0.5
v 0.7 1 -0.5
v -0.7 1 -0.8
v -0.6 1 -0.8
v 0.6 1 -0.8
v 0.7 1 -0.8
v -0.7 2.1 1.1
v 0.7 2.1 1.1
v -0.7 2.1 1
v 0.7 2.1 1
v -0.8 0.6 0.8
v 0.8 0.6 0.8
v -0.6 0.6 0.6
v 0.6 0.6 0.6
v -0.6 0.6 -0.6
v 0.6 0.6 -0.6
v -0.8 0.6 -0.8
v 0.8 0.6 -0.8
v -0.7 1 1.1
v 0.7 1 1.1
v -0.7 1 1
v 0.7 1 1
v -0.7 2 -0.5
v -0.6 2 -0.5
v 0.6 2 -0.5
v 0.7 2 -0.5
v -0.7 2 -0.8
v -0.6 2 -0.8
v 0.6 2 -0.8
v 0.7 2 -0.8
v -0.7 2.1 0
v 0.7 2.1 0
v -0.7 2.1 -0.5
v -0.6 2.1 -0.5
v 0.6 2.1 -0.5
v 0.7 2.1 -0.5
v -0.6 2.1 -0.8
v 0.6 2.1 -0.8
v -0.9 2.2 0.6
v -0.8 2.2 0.6
v 0.8 2.2 0.6
v 0.9 2.2 0.6
v -0.8 2.2 0.1
v -0.7 2.2 0.1
v 0.7 2.2 0.1
v 0.8 2.2 0.1
v -0.9 2.2 0
v -0.7 2.2 0
v 0.7 2.2 0
v 0.9 2.2 0
v -0.9 2.3 1.1
v 0.9 2.3 1.1
v -0.9 2.3 0.6
v -0.8 2.3 0.6
v 0.8 2.3 0.6
v 0.9 2.3 0.6
v -0.8 2.3 0.1
v -0.7 2.3 0.1
v 0.7 2.3 0.1
v 0.8 2.3 0.1
v -0.7 2.3 0
v 0.7 2.3 0

# faces
f 3/1/1 2/1/1 1/1/1
f 5/1/1 3/1/1 1/1/1
f 5/1/1 4/1/1 3/1/1
f 6/1/1 4/1/1 5/1/1
f 7/1/1 5/1/1 1/1/1
f 8/1/1 5/1/1 7/1/1
f 11/1/1 10/1/1 9/1/1
f 12/1/1 10/1/1 11/1/1
f 15/1/1 14/1/1 13/1/1
f 16/1/1 14/1/1 15/1/1
f 19/1/1 18/1/1 17/1/1
f 20/1/1 18/1/1 19/1/1
f 23/1/1 22/1/1 21/1/1
f 25/1/1 23/1/1 21/1/1
f 25/1/1 24/1/1 23/1/1
f 26/1/1 24/1/1 25/1/1
f 27/1/1 25/1/1 21/1/1
f 28/1/1 25/1/1 27/1/1
f 31/1/1 30/1/1 29/1/1
f 32/1/1 30/1/1 31/1/1
f 35/1/1 34/1/1 33/1/1
f 36/1/1 34/1/1 35/1/1
f 37/1/1 34/1/1 36/1/1
f 38/1/1 34/1/1 37/1/1
f 39/1/1 34/1/1 38/1/1
f 41/1/1 40/1/1 39/1/1
f 41/1/1 39/1/1 38/1/1
f 42/1/1 40/1/1 41/1/1
f 45/1/1 44/1/1 43/1/1
f 46/1/1 44/1/1 45/1/1
f 49/1/1 48/1/1 47/1/1
f 50/1/1 48/1/1 49/1/1
f 51/1/2 52/1/2 53/1/2
f 53/1/2 52/1/2 54/1/2
f 55/1/2 56/1/2 57/1/2
f 57/1/2 56/1/2 58/1/2
f 58/1/2 56/1/2 59/1/2
f 59/1/2 56/1/2 60/1/2
f 60/1/2 56/1/2 61/1/2
f 61/1/2 62/1/2 63/1/2
f 60/1/2 61/1/2 63/1/2
f 63/1/2 62/1/2 64/1/2
f 65/1/2 66/1/2 67/1/2
f 67/1/2 66/1/2 68/1/2
f 69/1/2 70/1/2 71/1/2
f 69/1/2 71/1/2 73/1/2
f 71/1/2 72/1/2 73/1/2
f 73/1/2 72/1/2 74/1/2
f 69/1/2 73/1/2 75/1/2
f 75/1/2 73/1/2 76/1/2
f 77/1/2 78/1/2 79/1/2
f 79/1/2 78/1/2 80/1/2
f 81/1/2 82/1/2 83/1/2
f 83/1/2 82/1/2 84/1/2
f 85/1/2 86/1/2 87/1/2
f 87/1/2 86/1/2 88/1/2
f 89/1/2 90/1/2 91/1/2
f 91/1/2 90/1/2 92/1/2
f 93/1/2 94/1/2 95/1/2
f 93/1/2 95/1/2 97/1/2
f 95/1/2 96/1/2 97/1/2
f 97/1/2 96/1/2 98/1/2
f 93/1/2 97/1/2 99/1/2
f 99/1/2 97/1/2 100/1/2
f 103/1/3 102/1/3 101/1/3
f 104/1/3 102/1/3 103/1/3
f 105/1/3 103/1/3 101/1/3
f 106/1/3 102/1/3 104/1/3
f 107/1/3 105/1/3 101/1/3
f 107/1/3 106/1/3 105/1/3
f 108/1/3 102/1/3 106/1/3
f 108/1/3 106/1/3 107/1/3
f 111/2/3 110/2/3 109/2/3
f 112/2/3 110/2/3 111/2/3
f 115/1/3 114/1/3 113/1/3
f 116/1/3 114/1/3 115/1/3
f 119/1/3 118/1/3 117/1/3
f 120/1/3 118/1/3 119/1/3
f 121/1/4 122/1/4 125/1/4
f 125/1/4 122/1/4 126/1/4
f 123/1/4 124/1/4 127/1/4
f 127/1/4 124/1/4 128/1/4
f 129/1/4 130/1/4 133/1/4
f 133/1/4 130/1/4 134/1/4
f 131/1/4 132/1/4 135/1/4
f 135/1/4 132/1/4 136/1/4
f 137/1/4 138/1/4 139/1/4
f 139/1/4 138/1/4 140/1/4
f 141/1/4 142/1/4 143/1/4
f 143/1/4 142/1/4 144/1/4
f 145/1/4 146/1/4 148/1/4
f 148/1/4 146/1/4 149/1/4
f 147/1/4 148/1/4 149/1/4
f 149/1/4 146/1/4 150/1/4
f 150/1/4 146/1/4 151/1/4
f 147/1/4 149/1/4 153/1/4
f 153/1/4 149/1/4 154/1/4
f 155/1/4 156/1/4 157/1/4
f 151/1/4 152/1/4 158/1/4
f 150/1/4 151/1/4 158/1/4
f 158/1/4 152/1/4 159/1/4
f 159/1/4 152/1/4 160/1/4
f 155/1/4 157/1/4 161/1/4
f 157/1/4 158/1/4 161/1/4
f 158/1/4 159/1/4 161/1/4
f 161/1/4 159/1/4 162/1/4
f 162/1/4 159/1/4 163/1/4
f 163/1/4 159/1/4 164/1/4
f 165/1/4 166/1/4 169/1/4
f 169/1/4 166/1/4 170/1/4
f 167/1/4 168/1/4 171/1/4
f 171/1/4 168/1/4 172/1/4
f 173/1/4 174/1/4 177/1/4
f 177/1/4 174/1/4 178/1/4
f 175/1/4 176/1/4 179/1/4
f 179/1/4 176/1/4 180/1/4
f 181/1/4 182/1/4 183/1/4
f 183/1/4 182/1/4 184/1/4
f 187/1/4 188/1/4 190/1/4
f 190/1/4 188/1/4 191/1/4
f 189/1/4 190/1/4 193/1/4
f 191/1/4 192/1/4 193/1/4
f 190/1/4 191/1/4 193/1/4
f 193/1/4 192/1/4 194/1/4
f 194/1/4 192/1/4 195/1/4
f 195/1/4 192/1/4 196/1/4
f 194/1/4 195/1/4 197/1/4
f 197/1/4 195/1/4 198/1/4
f 185/1/4 186/1/4 199/1/4
f 199/1/4 186/1/4 200/1/4
f 203/1/5 202/1/5 201/1/5
f 204/1/5 202/1/5 203/1/5
f 207/1/5 206/1/5 205/1/5
f 208/1/5 206/1/5 207/1/5
f 209/1/5 206/1/5 208/1/5
f 210/1/5 206/1/5 209/1/5
f 211/1/5 206/1/5 210/1/5
f 212/1/5 206/1/5 211/1/5
f 213/1/5 209/1/5 208/1/5
f 214/1/5 209/1/5 213/1/5
f 215/1/5 211/1/5 210/1/5
f 216/1/5 211/1/5 215/1/5
f 221/1/5 218/1/5 217/1/5
f 222/1/5 218/1/5 221/1/5
f 227/1/5 220/1/5 219/1/5
f 228/1/5 220/1/5 227/1/5
f 229/1/5 224/1/5 223/1/5
f 230/1/5 224/1/5 229/1/5
f 231/1/5 226/1/5 225/1/5
f 232/1/5 226/1/5 231/1/5
f 235/1/5 234/1/5 233/1/5
f 236/1/5 234/1/5 235/1/5
f 241/1/5 238/1/5 237/1/5
f 242/1/5 238/1/5 241/1/5
f 243/1/5 240/1/5 239/1/5
f 244/1/5 240/1/5 243/1/5
f 247/1/5 246/1/5 245/1/5
f 248/1/5 246/1/5 247/1/5
f 249/1/6 250/1/6 251/1/6
f 251/1/6 250/1/6 252/1/6
f 249/1/6 251/1/6 253/1/6
f 252/1/6 250/1/6 254/1/6
f 249/1/6 253/1/6 255/1/6
f 253/1/6 254/1/6 255/1/6
f 254/1/6 250/1/6 256/1/6
f 255/1/6 254/1/6 256/1/6
f 257/1/6 258/1/6 259/1/6
f 259/1/6 258/1/6 260/1/6
f 261/1/6 262/1/6 265/1/6
f 265/1/6 262/1/6 266/1/6
f 263/1/6 264/1/6 267/1/6
f 267/1/6 264/1/6 268/1/6
f 269/1/6 270/1/6 271/1/6
f 271/1/6 270/1/6 272/1/6
f 272/1/6 270/1/6 273/1/6
f 273/1/6 270/1/6 274/1/6
f 272/1/6 273/1/6 275/1/6
f 275/1/6 273/1/6 276/1/6
f 277/1/6 278/1/6 281/1/6
f 279/1/6 280/1/6 284/1/6
f 281/1/6 282/1/6 285/1/6
f 277/1/6 281/1/6 285/1/6
f 285/1/6 282/1/6 286/1/6
f 283/1/6 284/1/6 287/1/6
f 284/1/6 280/1/6 288/1/6
f 287/1/6 284/1/6 288/1/6
f 289/1/6 290/1/6 291/1/6
f 291/1/6 290/1/6 292/1/6
f 292/1/6 290/1/6 293/1/6
f 293/1/6 290/1/6 294/1/6
f 292/1/6 293/1/6 295/1/6
f 295/1/6 293/1/6 296/1/6
f 296/1/6 293/1/6 297/1/6
f 297/1/6 293/1/6 298/1/6
f 296/1/6 297/1/6 299/1/6
f 299/1/6 297/1/6 300/1/6
