# MagicaVoxel @ Ephtracy

# group
o 

# material
mtllib Deskone.mtl
usemtl palette

# normals
vn -1 0 0
vn 1 0 0
vn 0 0 1
vn 0 0 -1
vn 0 -1 0
vn 0 1 0

# texcoords
vt 0.306641 0.5
vt 0.591797 0.5

# verts
v -2.5 0 1.4
v -2.5 0 1
v -2.5 0 -1
v -2.5 0 -1.4
v -2.5 0.3 1.4
v -2.5 0.3 1
v -2.5 0.3 -1
v -2.5 0.3 -1.4
v -2.5 2.7 1.5
v -2.5 2.7 -1.5
v -2.5 3 1.5
v -2.5 3 -1.5
v -1.4 2.1 1.4
v -1.4 2.1 1
v -1.4 2.1 -1
v -1.4 2.1 -1.4
v -1.4 2.7 1.4
v -1.4 2.7 1
v -1.4 2.7 -1
v -1.4 2.7 -1.4
v -0.4 0.3 1.3
v -0.4 0.3 1.1
v -0.4 0.3 -1.1
v -0.4 0.3 -1.3
v -0.4 2.1 1.3
v -0.4 2.1 1.1
v -0.4 2.1 -1.1
v -0.4 2.1 -1.3
v 0.8 2.3 1.4
v 0.8 2.3 1
v 0.8 2.3 -1
v 0.8 2.3 -1.4
v 0.8 2.7 1.4
v 0.8 2.7 1
v 0.8 2.7 -1
v 0.8 2.7 -1.4
v -0.8 2.3 1.4
v -0.8 2.3 1
v -0.8 2.3 -1
v -0.8 2.3 -1.4
v -0.8 2.7 1.4
v -0.8 2.7 1
v -0.8 2.7 -1
v -0.8 2.7 -1.4
v 0.4 0.3 1.3
v 0.4 0.3 1.1
v 0.4 0.3 -1.1
v 0.4 0.3 -1.3
v 0.4 2.1 1.3
v 0.4 2.1 1.1
v 0.4 2.1 -1.1
v 0.4 2.1 -1.3
v 1.4 2.1 1.4
v 1.4 2.1 1
v 1.4 2.1 -1
v 1.4 2.1 -1.4
v 1.4 2.7 1.4
v 1.4 2.7 1
v 1.4 2.7 -1
v 1.4 2.7 -1.4
v 2.5 0 1.4
v 2.5 0 1
v 2.5 0 -1
v 2.5 0 -1.4
v 2.5 0.3 1.4
v 2.5 0.3 1
v 2.5 0.3 -1
v 2.5 0.3 -1.4
v 2.5 2.7 1.5
v 2.5 2.7 -1.5
v 2.5 3 1.5
v 2.5 3 -1.5
v -2.5 2.7 1.5
v -2.5 3 1.5
v 2.5 2.7 1.5
v 2.5 3 1.5
v -2.5 0 1.4
v -2.5 0.3 1.4
v -1.4 2.1 1.4
v -1.4 2.7 1.4
v -0.8 2.3 1.4
v -0.8 2.7 1.4
v 0.8 2.3 1.4
v 0.8 2.7 1.4
v 1.4 2.1 1.4
v 1.4 2.7 1.4
v 2.5 0 1.4
v 2.5 0.3 1.4
v -0.4 0.3 1.3
v -0.4 2.1 1.3
v 0.4 0.3 1.3
v 0.4 2.1 1.3
v -2.5 0 -1
v -2.5 0.3 -1
v -1.4 2.1 -1
v -1.4 2.7 -1
v -0.8 2.3 -1
v -0.8 2.7 -1
v 0.8 2.3 -1
v 0.8 2.7 -1
v 1.4 2.1 -1
v 1.4 2.7 -1
v 2.5 0 -1
v 2.5 0.3 -1
v -0.4 0.3 -1.1
v -0.4 2.1 -1.1
v 0.4 0.3 -1.1
v 0.4 2.1 -1.1
v -0.4 0.3 1.1
v -0.4 2.1 1.1
v 0.4 0.3 1.1
v 0.4 2.1 1.1
v -2.5 0 1
v -2.5 0.3 1
v -1.4 2.1 1
v -1.4 2.7 1
v -0.8 2.3 1
v -0.8 2.7 1
v 0.8 2.3 1
v 0.8 2.7 1
v 1.4 2.1 1
v 1.4 2.7 1
v 2.5 0 1
v 2.5 0.3 1
v -0.4 0.3 -1.3
v -0.4 2.1 -1.3
v 0.4 0.3 -1.3
v 0.4 2.1 -1.3
v -2.5 0 -1.4
v -2.5 0.3 -1.4
v -1.4 2.1 -1.4
v -1.4 2.7 -1.4
v -0.8 2.3 -1.4
v -0.8 2.7 -1.4
v 0.8 2.3 -1.4
v 0.8 2.7 -1.4
v 1.4 2.1 -1.4
v 1.4 2.7 -1.4
v 2.5 0 -1.4
v 2.5 0.3 -1.4
v -2.5 2.7 -1.5
v -2.5 3 -1.5
v 2.5 2.7 -1.5
v 2.5 3 -1.5
v -2.5 0 1.4
v 2.5 0 1.4
v -2.5 0 1
v 2.5 0 1
v -2.5 0 -1
v 2.5 0 -1
v -2.5 0 -1.4
v 2.5 0 -1.4
v -1.4 2.1 1.4
v 1.4 2.1 1.4
v -0.4 2.1 1.3
v 0.4 2.1 1.3
v -0.4 2.1 1.1
v 0.4 2.1 1.1
v -1.4 2.1 1
v 1.4 2.1 1
v -1.4 2.1 -1
v 1.4 2.1 -1
v -0.4 2.1 -1.1
v 0.4 2.1 -1.1
v -0.4 2.1 -1.3
v 0.4 2.1 -1.3
v -1.4 2.1 -1.4
v 1.4 2.1 -1.4
v -2.5 2.7 1.5
v 2.5 2.7 1.5
v -1.4 2.7 1.4
v -0.8 2.7 1.4
v 0.8 2.7 1.4
v 1.4 2.7 1.4
v -1.4 2.7 1
v -0.8 2.7 1
v 0.8 2.7 1
v 1.4 2.7 1
v -1.4 2.7 -1
v -0.8 2.7 -1
v 0.8 2.7 -1
v 1.4 2.7 -1
v -1.4 2.7 -1.4
v -0.8 2.7 -1.4
v 0.8 2.7 -1.4
v 1.4 2.7 -1.4
v -2.5 2.7 -1.5
v 2.5 2.7 -1.5
v -2.5 0.3 1.4
v 2.5 0.3 1.4
v -0.4 0.3 1.3
v 0.4 0.3 1.3
v -0.4 0.3 1.1
v 0.4 0.3 1.1
v -2.5 0.3 1
v 2.5 0.3 1
v -2.5 0.3 -1
v 2.5 0.3 -1
v -0.4 0.3 -1.1
v 0.4 0.3 -1.1
v -0.4 0.3 -1.3
v 0.4 0.3 -1.3
v -2.5 0.3 -1.4
v 2.5 0.3 -1.4
v -0.8 2.3 1.4
v 0.8 2.3 1.4
v -0.8 2.3 1
v 0.8 2.3 1
v -0.8 2.3 -1
v 0.8 2.3 -1
v -0.8 2.3 -1.4
v 0.8 2.3 -1.4
v -2.5 3 1.5
v 2.5 3 1.5
v -2.5 3 -1.5
v 2.5 3 -1.5

# faces
f 5/1/1 2/1/1 1/1/1
f 6/1/1 2/1/1 5/1/1
f 7/1/1 4/1/1 3/1/1
f 8/1/1 4/1/1 7/1/1
f 11/2/1 10/2/1 9/2/1
f 12/2/1 10/2/1 11/2/1
f 17/2/1 14/2/1 13/2/1
f 18/2/1 14/2/1 17/2/1
f 19/2/1 16/2/1 15/2/1
f 20/2/1 16/2/1 19/2/1
f 25/1/1 22/1/1 21/1/1
f 26/1/1 22/1/1 25/1/1
f 27/1/1 24/1/1 23/1/1
f 28/1/1 24/1/1 27/1/1
f 33/2/1 30/2/1 29/2/1
f 34/2/1 30/2/1 33/2/1
f 35/2/1 32/2/1 31/2/1
f 36/2/1 32/2/1 35/2/1
f 37/2/2 38/2/2 41/2/2
f 41/2/2 38/2/2 42/2/2
f 39/2/2 40/2/2 43/2/2
f 43/2/2 40/2/2 44/2/2
f 45/1/2 46/1/2 49/1/2
f 49/1/2 46/1/2 50/1/2
f 47/1/2 48/1/2 51/1/2
f 51/1/2 48/1/2 52/1/2
f 53/2/2 54/2/2 57/2/2
f 57/2/2 54/2/2 58/2/2
f 55/2/2 56/2/2 59/2/2
f 59/2/2 56/2/2 60/2/2
f 61/1/2 62/1/2 65/1/2
f 65/1/2 62/1/2 66/1/2
f 63/1/2 64/1/2 67/1/2
f 67/1/2 64/1/2 68/1/2
f 69/2/2 70/2/2 71/2/2
f 71/2/2 70/2/2 72/2/2
f 75/2/3 74/2/3 73/2/3
f 76/2/3 74/2/3 75/2/3
f 81/2/3 80/2/3 79/2/3
f 82/2/3 80/2/3 81/2/3
f 83/2/3 81/2/3 79/2/3
f 85/2/3 83/2/3 79/2/3
f 85/2/3 84/2/3 83/2/3
f 86/2/3 84/2/3 85/2/3
f 87/1/3 78/1/3 77/1/3
f 88/1/3 78/1/3 87/1/3
f 91/1/3 90/1/3 89/1/3
f 92/1/3 90/1/3 91/1/3
f 97/2/3 96/2/3 95/2/3
f 98/2/3 96/2/3 97/2/3
f 99/2/3 97/2/3 95/2/3
f 101/2/3 99/2/3 95/2/3
f 101/2/3 100/2/3 99/2/3
f 102/2/3 100/2/3 101/2/3
f 103/1/3 94/1/3 93/1/3
f 104/1/3 94/1/3 103/1/3
f 107/1/3 106/1/3 105/1/3
f 108/1/3 106/1/3 107/1/3
f 109/1/4 110/1/4 111/1/4
f 111/1/4 110/1/4 112/1/4
f 115/2/4 116/2/4 117/2/4
f 117/2/4 116/2/4 118/2/4
f 115/2/4 117/2/4 119/2/4
f 115/2/4 119/2/4 121/2/4
f 119/2/4 120/2/4 121/2/4
f 121/2/4 120/2/4 122/2/4
f 113/1/4 114/1/4 123/1/4
f 123/1/4 114/1/4 124/1/4
f 125/1/4 126/1/4 127/1/4
f 127/1/4 126/1/4 128/1/4
f 131/2/4 132/2/4 133/2/4
f 133/2/4 132/2/4 134/2/4
f 131/2/4 133/2/4 135/2/4
f 131/2/4 135/2/4 137/2/4
f 135/2/4 136/2/4 137/2/4
f 137/2/4 136/2/4 138/2/4
f 129/1/4 130/1/4 139/1/4
f 139/1/4 130/1/4 140/1/4
f 141/2/4 142/2/4 143/2/4
f 143/2/4 142/2/4 144/2/4
f 147/1/5 146/1/5 145/1/5
f 148/1/5 146/1/5 147/1/5
f 151/1/5 150/1/5 149/1/5
f 152/1/5 150/1/5 151/1/5
f 155/2/5 154/2/5 153/2/5
f 156/2/5 154/2/5 155/2/5
f 157/2/5 155/2/5 153/2/5
f 158/2/5 154/2/5 156/2/5
f 159/2/5 157/2/5 153/2/5
f 159/2/5 158/2/5 157/2/5
f 160/2/5 154/2/5 158/2/5
f 160/2/5 158/2/5 159/2/5
f 163/2/5 162/2/5 161/2/5
f 164/2/5 162/2/5 163/2/5
f 165/2/5 163/2/5 161/2/5
f 166/2/5 162/2/5 164/2/5
f 167/2/5 165/2/5 161/2/5
f 167/2/5 166/2/5 165/2/5
f 168/2/5 162/2/5 166/2/5
f 168/2/5 166/2/5 167/2/5
f 171/2/5 170/2/5 169/2/5
f 172/2/5 170/2/5 171/2/5
f 173/2/5 170/2/5 172/2/5
f 174/2/5 170/2/5 173/2/5
f 175/2/5 171/2/5 169/2/5
f 176/2/5 173/2/5 172/2/5
f 177/2/5 173/2/5 176/2/5
f 178/2/5 170/2/5 174/2/5
f 179/2/5 177/2/5 176/2/5
f 179/2/5 178/2/5 177/2/5
f 179/2/5 175/2/5 169/2/5
f 179/2/5 176/2/5 175/2/5
f 180/2/5 178/2/5 179/2/5
f 181/2/5 178/2/5 180/2/5
f 182/2/5 170/2/5 178/2/5
f 182/2/5 178/2/5 181/2/5
f 183/2/5 179/2/5 169/2/5
f 184/2/5 181/2/5 180/2/5
f 185/2/5 181/2/5 184/2/5
f 186/2/5 170/2/5 182/2/5
f 187/2/5 183/2/5 169/2/5
f 187/2/5 186/2/5 185/2/5
f 187/2/5 185/2/5 184/2/5
f 187/2/5 184/2/5 183/2/5
f 188/2/5 170/2/5 186/2/5
f 188/2/5 186/2/5 187/2/5
f 189/1/6 190/1/6 191/1/6
f 191/1/6 190/1/6 192/1/6
f 189/1/6 191/1/6 193/1/6
f 192/1/6 190/1/6 194/1/6
f 189/1/6 193/1/6 195/1/6
f 193/1/6 194/1/6 195/1/6
f 194/1/6 190/1/6 196/1/6
f 195/1/6 194/1/6 196/1/6
f 197/1/6 198/1/6 199/1/6
f 199/1/6 198/1/6 200/1/6
f 197/1/6 199/1/6 201/1/6
f 200/1/6 198/1/6 202/1/6
f 197/1/6 201/1/6 203/1/6
f 201/1/6 202/1/6 203/1/6
f 202/1/6 198/1/6 204/1/6
f 203/1/6 202/1/6 204/1/6
f 205/2/6 206/2/6 207/2/6
f 207/2/6 206/2/6 208/2/6
f 209/2/6 210/2/6 211/2/6
f 211/2/6 210/2/6 212/2/6
f 213/2/6 214/2/6 215/2/6
f 215/2/6 214/2/6 216/2/6
