# MagicaVoxel @ Ephtracy

# group
o 

# material
mtllib Toilet.mtl
usemtl palette

# normals
vn -1 0 0
vn 1 0 0
vn 0 0 1
vn 0 0 -1
vn 0 -1 0
vn 0 1 0

# texcoords
vt 0.650391 0.5
vt 0.716797 0.5
vt 0.986328 0.5

# verts
v -0.7 0 -0.7
v -0.7 0 -0.8
v -0.7 3 -0.7
v -0.7 3 -0.8
v -0.6 2.4 -0.6
v -0.6 2.4 -0.7
v -0.6 2.5 -0.6
v -0.6 2.5 -0.7
v -0.5 0.8 0.5
v -0.5 0.8 -0.7
v -0.5 1.2 0.5
v -0.5 1.2 -0.5
v -0.5 2.1 -0.5
v -0.5 2.1 -0.7
v -0.4 2.1 -0.5
v -0.4 2.1 -0.7
v -0.4 2.2 -0.5
v -0.4 2.2 -0.7
v -0.4 2.3 -0.6
v -0.4 2.3 -0.7
v -0.4 2.4 -0.6
v -0.4 2.4 -0.7
v -0.3 0.5 0.3
v -0.3 0.5 -0.7
v -0.3 0.8 0.3
v -0.3 0.8 -0.7
v -0.2 0.2 0.2
v -0.2 0.2 -0.7
v -0.2 0.5 0.2
v -0.2 0.5 -0.7
v 0.3 0.6 0.2
v 0.3 0.6 -0.3
v 0.3 0.9 0.2
v 0.3 0.9 -0.3
v 0.4 0.9 0.3
v 0.4 0.9 -0.4
v 0.4 1.1 -0.3
v 0.4 1.1 -0.4
v 0.4 1.2 0.3
v 0.4 1.2 -0.3
v -0.3 0.9 0.3
v -0.3 0.9 -0.4
v -0.3 1.1 -0.3
v -0.3 1.1 -0.4
v -0.3 1.2 0.3
v -0.3 1.2 -0.3
v -0.3 2.3 -0.6
v -0.3 2.3 -0.7
v -0.3 2.5 -0.6
v -0.3 2.5 -0.7
v -0.2 0.6 0.2
v -0.2 0.6 -0.3
v -0.2 0.9 0.2
v -0.2 0.9 -0.3
v 0.3 0.2 0.2
v 0.3 0.2 -0.7
v 0.3 0.5 0.2
v 0.3 0.5 -0.7
v 0.4 0.5 0.3
v 0.4 0.5 -0.7
v 0.4 0.8 0.3
v 0.4 0.8 -0.7
v 0.5 2.1 -0.5
v 0.5 2.1 -0.7
v 0.5 2.2 -0.5
v 0.5 2.2 -0.7
v 0.6 0.8 0.5
v 0.6 0.8 -0.7
v 0.6 1.2 0.5
v 0.6 1.2 -0.5
v 0.6 2.1 -0.5
v 0.6 2.1 -0.7
v 0.8 0 -0.7
v 0.8 0 -0.8
v 0.8 3 -0.7
v 0.8 3 -0.8
v -0.5 0.8 0.5
v -0.5 1.2 0.5
v 0.6 0.8 0.5
v 0.6 1.2 0.5
v -0.3 0.5 0.3
v -0.3 0.8 0.3
v 0.4 0.5 0.3
v 0.4 0.8 0.3
v -0.2 0.2 0.2
v -0.2 0.5 0.2
v 0.3 0.2 0.2
v 0.3 0.5 0.2
v -0.3 1.1 -0.3
v -0.3 1.2 -0.3
v -0.2 0.6 -0.3
v -0.2 0.9 -0.3
v 0.3 0.6 -0.3
v 0.3 0.9 -0.3
v 0.4 1.1 -0.3
v 0.4 1.2 -0.3
v -0.3 0.9 -0.4
v -0.3 1.1 -0.4
v 0.4 0.9 -0.4
v 0.4 1.1 -0.4
v -0.5 1.2 -0.5
v -0.5 2.1 -0.5
v -0.4 2.1 -0.5
v -0.4 2.2 -0.5
v 0.5 2.1 -0.5
v 0.5 2.2 -0.5
v 0.6 1.2 -0.5
v 0.6 2.1 -0.5
v -0.6 2.4 -0.6
v -0.6 2.5 -0.6
v -0.4 2.3 -0.6
v -0.4 2.4 -0.6
v -0.3 2.3 -0.6
v -0.3 2.5 -0.6
v -0.7 0 -0.7
v -0.7 3 -0.7
v -0.6 2.4 -0.7
v -0.6 2.5 -0.7
v -0.5 0.8 -0.7
v -0.5 2.1 -0.7
v -0.4 2.1 -0.7
v -0.4 2.2 -0.7
v -0.4 2.3 -0.7
v -0.4 2.4 -0.7
v -0.3 0.5 -0.7
v -0.3 0.8 -0.7
v -0.3 2.3 -0.7
v -0.3 2.5 -0.7
v -0.2 0.2 -0.7
v -0.2 0.5 -0.7
v 0.3 0.2 -0.7
v 0.3 0.5 -0.7
v 0.4 0.5 -0.7
v 0.4 0.8 -0.7
v 0.5 2.1 -0.7
v 0.5 2.2 -0.7
v 0.6 0.8 -0.7
v 0.6 2.1 -0.7
v 0.8 0 -0.7
v 0.8 3 -0.7
v -0.3 0.9 0.3
v -0.3 1.2 0.3
v 0.4 0.9 0.3
v 0.4 1.2 0.3
v -0.2 0.6 0.2
v -0.2 0.9 0.2
v 0.3 0.6 0.2
v 0.3 0.9 0.2
v -0.7 0 -0.8
v -0.7 3 -0.8
v 0.8 0 -0.8
v 0.8 3 -0.8
v -0.7 0 -0.7
v 0.8 0 -0.7
v -0.7 0 -0.8
v 0.8 0 -0.8
v -0.2 0.2 0.2
v 0.3 0.2 0.2
v -0.2 0.2 -0.7
v 0.3 0.2 -0.7
v -0.3 0.5 0.3
v 0.4 0.5 0.3
v -0.2 0.5 0.2
v 0.3 0.5 0.2
v -0.3 0.5 -0.7
v -0.2 0.5 -0.7
v 0.3 0.5 -0.7
v 0.4 0.5 -0.7
v -0.5 0.8 0.5
v 0.6 0.8 0.5
v -0.3 0.8 0.3
v 0.4 0.8 0.3
v -0.5 0.8 -0.7
v -0.3 0.8 -0.7
v 0.4 0.8 -0.7
v 0.6 0.8 -0.7
v -0.3 1.1 -0.3
v 0.4 1.1 -0.3
v -0.3 1.1 -0.4
v 0.4 1.1 -0.4
v -0.4 2.3 -0.6
v -0.3 2.3 -0.6
v -0.4 2.3 -0.7
v -0.3 2.3 -0.7
v -0.6 2.4 -0.6
v -0.4 2.4 -0.6
v -0.6 2.4 -0.7
v -0.4 2.4 -0.7
v -0.2 0.6 0.2
v 0.3 0.6 0.2
v -0.2 0.6 -0.3
v 0.3 0.6 -0.3
v -0.3 0.9 0.3
v 0.4 0.9 0.3
v -0.2 0.9 0.2
v 0.3 0.9 0.2
v -0.2 0.9 -0.3
v 0.3 0.9 -0.3
v -0.3 0.9 -0.4
v 0.4 0.9 -0.4
v -0.5 1.2 0.5
v 0.6 1.2 0.5
v -0.3 1.2 0.3
v 0.4 1.2 0.3
v -0.3 1.2 -0.3
v 0.4 1.2 -0.3
v -0.5 1.2 -0.5
v 0.6 1.2 -0.5
v -0.5 2.1 -0.5
v -0.4 2.1 -0.5
v 0.5 2.1 -0.5
v 0.6 2.1 -0.5
v -0.5 2.1 -0.7
v -0.4 2.1 -0.7
v 0.5 2.1 -0.7
v 0.6 2.1 -0.7
v -0.4 2.2 -0.5
v 0.5 2.2 -0.5
v -0.4 2.2 -0.7
v 0.5 2.2 -0.7
v -0.6 2.5 -0.6
v -0.3 2.5 -0.6
v -0.6 2.5 -0.7
v -0.3 2.5 -0.7
v -0.7 3 -0.7
v 0.8 3 -0.7
v -0.7 3 -0.8
v 0.8 3 -0.8

# faces
f 3/1/1 2/1/1 1/1/1
f 4/1/1 2/1/1 3/1/1
f 7/3/1 6/3/1 5/3/1
f 8/3/1 6/3/1 7/3/1
f 11/3/1 10/3/1 9/3/1
f 12/3/1 10/3/1 11/3/1
f 13/3/1 10/3/1 12/3/1
f 14/3/1 10/3/1 13/3/1
f 17/3/1 16/3/1 15/3/1
f 18/3/1 16/3/1 17/3/1
f 21/3/1 20/3/1 19/3/1
f 22/3/1 20/3/1 21/3/1
f 25/3/1 24/3/1 23/3/1
f 26/3/1 24/3/1 25/3/1
f 29/3/1 28/3/1 27/3/1
f 30/3/1 28/3/1 29/3/1
f 33/3/1 32/3/1 31/3/1
f 34/3/1 32/3/1 33/3/1
f 37/3/1 36/3/1 35/3/1
f 38/3/1 36/3/1 37/3/1
f 39/3/1 37/3/1 35/3/1
f 40/3/1 37/3/1 39/3/1
f 41/3/2 42/3/2 43/3/2
f 43/3/2 42/3/2 44/3/2
f 41/3/2 43/3/2 45/3/2
f 45/3/2 43/3/2 46/3/2
f 47/3/2 48/3/2 49/3/2
f 49/3/2 48/3/2 50/3/2
f 51/3/2 52/3/2 53/3/2
f 53/3/2 52/3/2 54/3/2
f 55/3/2 56/3/2 57/3/2
f 57/3/2 56/3/2 58/3/2
f 59/3/2 60/3/2 61/3/2
f 61/3/2 60/3/2 62/3/2
f 63/3/2 64/3/2 65/3/2
f 65/3/2 64/3/2 66/3/2
f 67/3/2 68/3/2 69/3/2
f 69/3/2 68/3/2 70/3/2
f 70/3/2 68/3/2 71/3/2
f 71/3/2 68/3/2 72/3/2
f 73/1/2 74/1/2 75/1/2
f 75/1/2 74/1/2 76/1/2
f 79/3/3 78/3/3 77/3/3
f 80/3/3 78/3/3 79/3/3
f 83/3/3 82/3/3 81/3/3
f 84/3/3 82/3/3 83/3/3
f 87/3/3 86/3/3 85/3/3
f 88/3/3 86/3/3 87/3/3
f 93/3/3 92/3/3 91/3/3
f 94/3/3 92/3/3 93/3/3
f 95/3/3 90/3/3 89/3/3
f 96/3/3 90/3/3 95/3/3
f 99/3/3 98/3/3 97/3/3
f 100/3/3 98/3/3 99/3/3
f 103/3/3 102/3/3 101/3/3
f 105/3/3 103/3/3 101/3/3
f 105/3/3 104/3/3 103/3/3
f 106/3/3 104/3/3 105/3/3
f 107/3/3 105/3/3 101/3/3
f 108/3/3 105/3/3 107/3/3
f 112/3/3 110/3/3 109/3/3
f 113/3/3 112/3/3 111/3/3
f 114/3/3 110/3/3 112/3/3
f 114/3/3 112/3/3 113/3/3
f 117/1/3 116/1/3 115/1/3
f 118/1/3 116/1/3 117/1/3
f 119/1/3 117/1/3 115/1/3
f 120/1/3 117/1/3 119/1/3
f 121/1/3 117/1/3 120/1/3
f 122/1/3 117/1/3 121/1/3
f 123/1/3 117/1/3 122/1/3
f 124/1/3 117/1/3 123/1/3
f 125/1/3 119/1/3 115/1/3
f 126/1/3 119/1/3 125/1/3
f 127/1/3 123/1/3 122/1/3
f 128/1/3 116/1/3 118/1/3
f 129/1/3 125/1/3 115/1/3
f 130/1/3 125/1/3 129/1/3
f 131/1/3 129/1/3 115/1/3
f 133/1/3 132/1/3 131/1/3
f 136/1/3 127/1/3 122/1/3
f 136/1/3 128/1/3 127/1/3
f 137/1/3 134/1/3 133/1/3
f 138/1/3 136/1/3 135/1/3
f 139/1/3 137/1/3 133/1/3
f 139/1/3 138/1/3 137/1/3
f 139/1/3 131/1/3 115/1/3
f 139/1/3 133/1/3 131/1/3
f 140/1/3 136/1/3 138/1/3
f 140/1/3 138/1/3 139/1/3
f 140/1/3 116/1/3 128/1/3
f 140/1/3 128/1/3 136/1/3
f 141/3/4 142/3/4 143/3/4
f 143/3/4 142/3/4 144/3/4
f 145/3/4 146/3/4 147/3/4
f 147/3/4 146/3/4 148/3/4
f 149/1/4 150/1/4 151/1/4
f 151/1/4 150/1/4 152/1/4
f 155/1/5 154/1/5 153/1/5
f 156/1/5 154/1/5 155/1/5
f 159/3/5 158/3/5 157/3/5
f 160/3/5 158/3/5 159/3/5
f 163/3/5 162/3/5 161/3/5
f 164/3/5 162/3/5 163/3/5
f 165/3/5 163/3/5 161/3/5
f 166/3/5 163/3/5 165/3/5
f 167/3/5 162/3/5 164/3/5
f 168/3/5 162/3/5 167/3/5
f 171/3/5 170/3/5 169/3/5
f 172/3/5 170/3/5 171/3/5
f 173/3/5 171/3/5 169/3/5
f 174/3/5 171/3/5 173/3/5
f 175/3/5 170/3/5 172/3/5
f 176/3/5 170/3/5 175/3/5
f 179/3/5 178/3/5 177/3/5
f 180/3/5 178/3/5 179/3/5
f 183/3/5 182/3/5 181/3/5
f 184/3/5 182/3/5 183/3/5
f 187/3/5 186/3/5 185/3/5
f 188/3/5 186/3/5 187/3/5
f 189/2/6 190/2/6 191/2/6
f 191/2/6 190/2/6 192/2/6
f 193/3/6 194/3/6 195/3/6
f 195/3/6 194/3/6 196/3/6
f 193/3/6 195/3/6 197/3/6
f 196/3/6 194/3/6 198/3/6
f 193/3/6 197/3/6 199/3/6
f 197/3/6 198/3/6 199/3/6
f 198/3/6 194/3/6 200/3/6
f 199/3/6 198/3/6 200/3/6
f 201/3/6 202/3/6 203/3/6
f 203/3/6 202/3/6 204/3/6
f 201/3/6 203/3/6 205/3/6
f 204/3/6 202/3/6 206/3/6
f 201/3/6 205/3/6 207/3/6
f 205/3/6 206/3/6 207/3/6
f 206/3/6 202/3/6 208/3/6
f 207/3/6 206/3/6 208/3/6
f 209/3/6 210/3/6 213/3/6
f 213/3/6 210/3/6 214/3/6
f 211/3/6 212/3/6 215/3/6
f 215/3/6 212/3/6 216/3/6
f 217/3/6 218/3/6 219/3/6
f 219/3/6 218/3/6 220/3/6
f 221/3/6 222/3/6 223/3/6
f 223/3/6 222/3/6 224/3/6
f 225/1/6 226/1/6 227/1/6
f 227/1/6 226/1/6 228/1/6
