# MagicaVoxel @ Ephtracy

# group
o 

# material
mtllib revolver.mtl
usemtl palette

# normals
vn -1 0 0
vn 1 0 0
vn 0 0 1
vn 0 0 -1
vn 0 -1 0
vn 0 1 0

# texcoords
vt 0.310547 0.5
vt 0.931641 0.5
vt 0.935547 0.5

# verts
v -0.5 1 -0.5
v -0.5 1 -0.7
v -0.5 1.2 -0.3
v -0.5 1.2 -0.4
v -0.5 1.2 -0.5
v -0.5 1.3 -0.2
v -0.5 1.3 -0.3
v -0.5 1.3 -0.4
v -0.5 1.3 -0.6
v -0.5 1.3 -0.7
v -0.5 1.4 0.0999999
v -0.5 1.4 -0.2
v -0.5 1.4 -0.5
v -0.5 1.4 -0.6
v -0.5 1.5 0.0999999
v -0.5 1.5 -0.5
v -0.3 1 -0.5
v -0.3 1 -0.7
v -0.3 1.2 -0.3
v -0.3 1.2 -0.4
v -0.3 1.2 -0.5
v -0.3 1.3 -0.2
v -0.3 1.3 -0.3
v -0.3 1.3 -0.4
v -0.3 1.3 -0.6
v -0.3 1.3 -0.7
v -0.3 1.4 0.0999999
v -0.3 1.4 -0.2
v -0.3 1.4 -0.5
v -0.3 1.4 -0.6
v -0.3 1.5 0.0999999
v -0.3 1.5 -0.5
v -0.5 1.4 0.0999999
v -0.5 1.5 0.0999999
v -0.3 1.4 0.0999999
v -0.3 1.5 0.0999999
v -0.5 1.3 -0.2
v -0.5 1.4 -0.2
v -0.3 1.3 -0.2
v -0.3 1.4 -0.2
v -0.5 1.2 -0.3
v -0.5 1.3 -0.3
v -0.3 1.2 -0.3
v -0.3 1.3 -0.3
v -0.5 1 -0.5
v -0.5 1.2 -0.5
v -0.3 1 -0.5
v -0.3 1.2 -0.5
v -0.5 1.4 -0.5
v -0.5 1.5 -0.5
v -0.3 1.4 -0.5
v -0.3 1.5 -0.5
v -0.5 1.3 -0.6
v -0.5 1.4 -0.6
v -0.3 1.3 -0.6
v -0.3 1.4 -0.6
v -0.5 1 -0.7
v -0.5 1.3 -0.7
v -0.3 1 -0.7
v -0.3 1.3 -0.7
v -0.5 1 -0.5
v -0.3 1 -0.5
v -0.5 1 -0.7
v -0.3 1 -0.7
v -0.5 1.2 -0.3
v -0.3 1.2 -0.3
v -0.5 1.2 -0.4
v -0.3 1.2 -0.4
v -0.5 1.2 -0.5
v -0.3 1.2 -0.5
v -0.5 1.3 -0.2
v -0.3 1.3 -0.2
v -0.5 1.3 -0.3
v -0.3 1.3 -0.3
v -0.5 1.4 0.0999999
v -0.3 1.4 0.0999999
v -0.5 1.4 -0.2
v -0.3 1.4 -0.2
v -0.5 1.3 -0.6
v -0.3 1.3 -0.6
v -0.5 1.3 -0.7
v -0.3 1.3 -0.7
v -0.5 1.4 -0.5
v -0.3 1.4 -0.5
v -0.5 1.4 -0.6
v -0.3 1.4 -0.6
v -0.5 1.5 0.0999999
v -0.3 1.5 0.0999999
v -0.5 1.5 -0.5
v -0.3 1.5 -0.5

# faces
f 5/1/1 2/1/1 1/1/1
f 7/3/1 4/3/1 3/3/1
f 8/1/1 5/1/1 4/1/1
f 8/3/1 4/3/1 7/3/1
f 9/1/1 2/1/1 5/1/1
f 9/1/1 5/1/1 8/1/1
f 10/1/1 2/1/1 9/1/1
f 12/2/1 7/2/1 6/2/1
f 12/2/1 8/2/1 7/2/1
f 12/2/1 9/2/1 8/2/1
f 13/2/1 9/2/1 12/2/1
f 14/2/1 9/2/1 13/2/1
f 15/2/1 12/2/1 11/2/1
f 15/2/1 13/2/1 12/2/1
f 16/2/1 13/2/1 15/2/1
f 17/1/2 18/1/2 21/1/2
f 19/3/2 20/3/2 23/3/2
f 20/1/2 21/1/2 24/1/2
f 23/3/2 20/3/2 24/3/2
f 21/1/2 18/1/2 25/1/2
f 24/1/2 21/1/2 25/1/2
f 25/1/2 18/1/2 26/1/2
f 22/2/2 23/2/2 28/2/2
f 23/2/2 24/2/2 28/2/2
f 24/2/2 25/2/2 28/2/2
f 28/2/2 25/2/2 29/2/2
f 29/2/2 25/2/2 30/2/2
f 27/2/2 28/2/2 31/2/2
f 28/2/2 29/2/2 31/2/2
f 31/2/2 29/2/2 32/2/2
f 35/2/3 34/2/3 33/2/3
f 36/2/3 34/2/3 35/2/3
f 39/2/3 38/2/3 37/2/3
f 40/2/3 38/2/3 39/2/3
f 43/3/3 42/3/3 41/3/3
f 44/3/3 42/3/3 43/3/3
f 47/1/3 46/1/3 45/1/3
f 48/1/3 46/1/3 47/1/3
f 49/2/4 50/2/4 51/2/4
f 51/2/4 50/2/4 52/2/4
f 53/2/4 54/2/4 55/2/4
f 55/2/4 54/2/4 56/2/4
f 57/1/4 58/1/4 59/1/4
f 59/1/4 58/1/4 60/1/4
f 63/1/5 62/1/5 61/1/5
f 64/1/5 62/1/5 63/1/5
f 67/3/5 66/3/5 65/3/5
f 68/3/5 66/3/5 67/3/5
f 69/1/5 68/1/5 67/1/5
f 70/1/5 68/1/5 69/1/5
f 73/2/5 72/2/5 71/2/5
f 74/2/5 72/2/5 73/2/5
f 77/2/5 76/2/5 75/2/5
f 78/2/5 76/2/5 77/2/5
f 79/1/6 80/1/6 81/1/6
f 81/1/6 80/1/6 82/1/6
f 83/2/6 84/2/6 85/2/6
f 85/2/6 84/2/6 86/2/6
f 87/2/6 88/2/6 89/2/6
f 89/2/6 88/2/6 90/2/6
