# MagicaVoxel @ Ephtracy

# group
o 

# material
mtllib Male.mtl
usemtl palette

# normals
vn -1 0 0
vn 1 0 0
vn 0 0 1
vn 0 0 -1
vn 0 -1 0
vn 0 1 0

# texcoords
vt 0.138672 0.5
vt 0.248047 0.5
vt 0.310547 0.5
vt 0.330078 0.5
vt 0.388672 0.5
vt 0.654297 0.5
vt 0.685547 0.5
vt 0.958984 0.5
vt 0.994141 0.5

# verts
v -0.7 3.5 0.4
v -0.7 3.5 -0.4
v -0.7 4.2 0.4
v -0.7 4.2 -0.4
v -0.6 3.4 0.4
v -0.6 3.4 -0.4
v -0.6 3.5 0.4
v -0.6 3.5 -0.4
v -0.6 3.6 0.5
v -0.6 3.6 0.4
v -0.6 3.6 -0.4
v -0.6 3.6 -0.5
v -0.6 4.2 0.5
v -0.6 4.2 0.4
v -0.6 4.2 -0.4
v -0.6 4.3 0.4
v -0.6 4.3 0.3
v -0.6 4.3 -0.4
v -0.6 4.3 -0.5
v -0.6 4.4 0.3
v -0.6 4.4 -0.4
v -0.5 1.4 0.4
v -0.5 1.4 -0.4
v -0.5 1.5 0.5
v -0.5 1.5 0.4
v -0.5 1.5 -0.4
v -0.5 1.5 -0.5
v -0.5 3 0.5
v -0.5 3 0.4
v -0.5 3 -0.4
v -0.5 3 -0.5
v -0.5 3.1 0.4
v -0.5 3.1 -0.4
v -0.5 3.3 0.3
v -0.5 3.3 -0.3
v -0.5 3.4 0.3
v -0.5 3.4 -0.3
v -0.4 1.4 0.5
v -0.4 1.4 0.4
v -0.4 1.4 -0.4
v -0.4 1.4 -0.5
v -0.4 1.5 0.5
v -0.4 1.5 0.4
v -0.4 1.5 -0.4
v -0.4 1.5 -0.5
v -0.4 3 0.5
v -0.4 3 0.4
v -0.4 3 -0.4
v -0.4 3 -0.5
v -0.4 3.1 0.5
v -0.4 3.1 0.4
v -0.4 3.1 -0.4
v -0.4 3.1 -0.5
v -0.4 3.3 0.4
v -0.4 3.3 0.3
v -0.4 3.3 -0.3
v -0.4 3.3 -0.4
v -0.4 3.4 0.4
v -0.4 3.4 0.3
v -0.4 3.4 -0.3
v -0.4 3.4 -0.4
v -0.3 0 0.5
v -0.3 0 0.2
v -0.3 0 -0.2
v -0.3 0 -0.5
v -0.3 0.2 0.5
v -0.3 0.2 0.4
v -0.3 0.2 0.2
v -0.3 0.2 -0.2
v -0.3 0.2 -0.4
v -0.3 0.2 -0.5
v -0.3 1.4 0.4
v -0.3 1.4 0.2
v -0.3 1.4 -0.2
v -0.3 1.4 -0.4
v -0.3 2.8 1.7
v -0.3 2.8 0.5
v -0.3 3 1.7
v -0.3 3 0.5
v -0.3 3.1 0.2
v -0.3 3.1 -0.2
v -0.3 3.3 0.2
v -0.3 3.3 -0.2
v -0.2 2.8 -0.5
v -0.2 2.8 -1.7
v -0.2 3 -0.5
v -0.2 3 -1.7
v -0.1 0.2 0.4
v -0.1 0.2 0.2
v -0.1 0.2 -0.2
v -0.1 0.2 -0.4
v -0.1 1.4 0.4
v -0.1 1.4 0.2
v -0.1 1.4 -0.2
v -0.1 1.4 -0.4
v -0.1 2.8 1.7
v -0.1 2.8 0.5
v -0.1 3 1.7
v -0.1 3 0.5
v -0.1 3.1 0.2
v -0.1 3.1 -0.2
v -0.1 3.3 0.2
v -0.1 3.3 -0.2
v 0 1.4 0.5
v 0 1.4 0.4
v 0 1.4 -0.4
v 0 1.4 -0.5
v 0 1.5 0.5
v 0 1.5 0.4
v 0 1.5 -0.4
v 0 1.5 -0.5
v 0 2.8 -0.5
v 0 2.8 -1.7
v 0 3 0.5
v 0 3 0.4
v 0 3 -0.4
v 0 3 -0.5
v 0 3 -1.7
v 0 3.1 0.5
v 0 3.1 0.4
v 0 3.1 -0.4
v 0 3.1 -0.5
v 0 3.3 0.4
v 0 3.3 0.3
v 0 3.3 -0.3
v 0 3.3 -0.4
v 0 3.4 -0.3
v 0 3.4 -0.4
v 0 3.5 0.4
v 0 3.5 0.3
v 0.1 1.4 0.4
v 0.1 1.4 -0.4
v 0.1 1.5 0.5
v 0.1 1.5 0.4
v 0.1 1.5 -0.4
v 0.1 1.5 -0.5
v 0.1 3 0.5
v 0.1 3 0.4
v 0.1 3 -0.4
v 0.1 3 -0.5
v 0.1 3.1 0.4
v 0.1 3.1 -0.4
v 0.1 3.3 0.3
v 0.1 3.3 0.2
v 0.1 3.3 -0.2
v 0.1 3.3 -0.3
v 0.1 3.4 0.3
v 0.1 3.4 0.2
v 0.1 3.4 -0.2
v 0.1 3.4 -0.3
v 0.1 3.4 -0.4
v 0.1 3.5 0.4
v 0.1 3.5 0.3
v 0.1 3.5 -0.3
v 0.1 3.6 0.4
v 0.1 3.6 0.3
v 0.1 3.6 -0.3
v 0.1 3.6 -0.4
v 0.2 3.3 0.2
v 0.2 3.3 -0.2
v 0.2 3.4 0.3
v 0.2 3.4 0.2
v 0.2 3.4 -0.2
v 0.2 3.4 -0.3
v 0.2 3.5 0.3
v 0.2 3.5 0.2
v 0.2 3.5 -0.2
v 0.2 3.5 -0.3
v 0.2 3.6 0.5
v 0.2 3.6 0.4
v 0.2 3.6 0.3
v 0.2 3.6 0.2
v 0.2 3.6 0.1
v 0.2 3.6 -0.0999999
v 0.2 3.6 -0.2
v 0.2 3.6 -0.3
v 0.2 3.6 -0.4
v 0.2 3.6 -0.5
v 0.2 3.7 0.3
v 0.2 3.7 0.1
v 0.2 3.7 -0.0999999
v 0.2 3.7 -0.3
v 0.2 3.8 0.2
v 0.2 3.8 0.1
v 0.2 3.8 -0.2
v 0.2 3.8 -0.3
v 0.2 3.9 0.3
v 0.2 3.9 0.2
v 0.2 3.9 0.1
v 0.2 3.9 -0.0999999
v 0.2 3.9 -0.2
v 0.2 3.9 -0.3
v 0.2 4 0.5
v 0.2 4 0.4
v 0.2 4 0.3
v 0.2 4 -0.3
v 0.2 4 -0.4
v 0.2 4 -0.5
v 0.2 4.1 0.3
v 0.2 4.1 -0.3
v 0.3 4 0.5
v 0.3 4 0.3
v 0.3 4 -0.3
v 0.3 4 -0.5
v 0.3 4.1 0.3
v 0.3 4.1 -0.3
v 0.3 4.2 0.5
v 0.3 4.2 0.4
v 0.3 4.3 0.4
v 0.3 4.3 0.3
v 0.3 4.3 -0.4
v 0.3 4.3 -0.5
v 0.3 4.4 0.3
v 0.3 4.4 -0.4
v 0.4 0 0.5
v 0.4 0 0.2
v 0.4 0 -0.2
v 0.4 0 -0.5
v 0.4 0.2 0.5
v 0.4 0.2 0.2
v 0.4 0.2 -0.2
v 0.4 0.2 -0.5
v -0.3 2.8 1.7
v -0.3 3 1.7
v -0.1 2.8 1.7
v -0.1 3 1.7
v -0.6 3.6 0.5
v -0.6 4.2 0.5
v -0.5 1.5 0.5
v -0.5 3 0.5
v -0.4 1.4 0.5
v -0.4 1.5 0.5
v -0.4 3 0.5
v -0.4 3.1 0.5
v -0.4 3.7 0.5
v -0.4 3.9 0.5
v -0.3 0 0.5
v -0.3 0.2 0.5
v -0.3 2.8 0.5
v -0.3 3 0.5
v -0.3 3.6 0.5
v -0.3 3.7 0.5
v -0.2 3.6 0.5
v -0.2 3.9 0.5
v -0.1 2.8 0.5
v -0.1 3 0.5
v 0 1.4 0.5
v 0 1.5 0.5
v 0 3 0.5
v 0 3.1 0.5
v 0.1 1.5 0.5
v 0.1 3 0.5
v 0.2 3.6 0.5
v 0.2 4 0.5
v 0.3 4 0.5
v 0.3 4.2 0.5
v 0.4 0 0.5
v 0.4 0.2 0.5
v -0.7 3.5 0.4
v -0.7 4.2 0.4
v -0.6 3.4 0.4
v -0.6 3.5 0.4
v -0.6 3.6 0.4
v -0.6 4.2 0.4
v -0.6 4.3 0.4
v -0.5 1.4 0.4
v -0.5 1.5 0.4
v -0.5 3 0.4
v -0.5 3.1 0.4
v -0.5 3.4 0.4
v -0.5 3.5 0.4
v -0.4 1.4 0.4
v -0.4 1.5 0.4
v -0.4 3 0.4
v -0.4 3.1 0.4
v -0.4 3.3 0.4
v -0.4 3.4 0.4
v -0.3 0.2 0.4
v -0.3 1.4 0.4
v -0.3 3.6 0.4
v -0.2 3.6 0.4
v -0.1 0.2 0.4
v -0.1 1.4 0.4
v 0 1.4 0.4
v 0 1.5 0.4
v 0 3 0.4
v 0 3.1 0.4
v 0 3.3 0.4
v 0 3.5 0.4
v 0.1 1.4 0.4
v 0.1 1.5 0.4
v 0.1 3 0.4
v 0.1 3.1 0.4
v 0.1 3.5 0.4
v 0.1 3.6 0.4
v 0.3 4.2 0.4
v 0.3 4.3 0.4
v -0.6 4.3 0.3
v -0.6 4.4 0.3
v -0.5 3.3 0.3
v -0.5 3.4 0.3
v -0.4 3.3 0.3
v -0.4 3.4 0.3
v 0 3.3 0.3
v 0 3.5 0.3
v 0.1 3.3 0.3
v 0.1 3.4 0.3
v 0.1 3.5 0.3
v 0.1 3.6 0.3
v 0.2 3.4 0.3
v 0.2 3.5 0.3
v 0.2 3.6 0.3
v 0.3 4.3 0.3
v 0.3 4.4 0.3
v -0.3 3.1 0.2
v -0.3 3.3 0.2
v -0.1 3.1 0.2
v -0.1 3.3 0.2
v 0.1 3.3 0.2
v 0.1 3.4 0.2
v 0.2 3.3 0.2
v 0.2 3.4 0.2
v -0.3 0 -0.2
v -0.3 0.2 -0.2
v -0.3 1.4 -0.2
v -0.1 0.2 -0.2
v -0.1 1.4 -0.2
v 0.4 0 -0.2
v 0.4 0.2 -0.2
v 0.2 4 -0.3
v 0.2 4.1 -0.3
v 0.3 4 -0.3
v 0.3 4.1 -0.3
v 0.2 4 0.3
v 0.2 4.1 0.3
v 0.3 4 0.3
v 0.3 4.1 0.3
v -0.3 0 0.2
v -0.3 0.2 0.2
v -0.3 1.4 0.2
v -0.1 0.2 0.2
v -0.1 1.4 0.2
v 0.4 0 0.2
v 0.4 0.2 0.2
v -0.3 3.1 -0.2
v -0.3 3.3 -0.2
v -0.1 3.1 -0.2
v -0.1 3.3 -0.2
v 0.1 3.3 -0.2
v 0.1 3.4 -0.2
v 0.2 3.3 -0.2
v 0.2 3.4 -0.2
v -0.5 3.3 -0.3
v -0.5 3.4 -0.3
v -0.4 3.3 -0.3
v -0.4 3.4 -0.3
v 0 3.3 -0.3
v 0 3.4 -0.3
v 0.1 3.3 -0.3
v 0.1 3.4 -0.3
v 0.1 3.5 -0.3
v 0.1 3.6 -0.3
v 0.2 3.4 -0.3
v 0.2 3.5 -0.3
v 0.2 3.6 -0.3
v -0.7 3.5 -0.4
v -0.7 4.2 -0.4
v -0.6 3.4 -0.4
v -0.6 3.5 -0.4
v -0.6 3.6 -0.4
v -0.6 4.2 -0.4
v -0.6 4.3 -0.4
v -0.6 4.4 -0.4
v -0.5 1.4 -0.4
v -0.5 1.5 -0.4
v -0.5 3 -0.4
v -0.5 3.1 -0.4
v -0.5 3.4 -0.4
v -0.5 3.5 -0.4
v -0.4 1.4 -0.4
v -0.4 1.5 -0.4
v -0.4 3 -0.4
v -0.4 3.1 -0.4
v -0.4 3.3 -0.4
v -0.4 3.4 -0.4
v -0.3 0.2 -0.4
v -0.3 1.4 -0.4
v -0.3 3.6 -0.4
v -0.2 3.6 -0.4
v -0.1 0.2 -0.4
v -0.1 1.4 -0.4
v 0 1.4 -0.4
v 0 1.5 -0.4
v 0 3 -0.4
v 0 3.1 -0.4
v 0 3.3 -0.4
v 0 3.4 -0.4
v 0.1 1.4 -0.4
v 0.1 1.5 -0.4
v 0.1 3 -0.4
v 0.1 3.1 -0.4
v 0.1 3.4 -0.4
v 0.1 3.6 -0.4
v 0.3 4.3 -0.4
v 0.3 4.4 -0.4
v -0.6 3.6 -0.5
v -0.6 4.3 -0.5
v -0.5 1.5 -0.5
v -0.5 3 -0.5
v -0.4 1.4 -0.5
v -0.4 1.5 -0.5
v -0.4 3 -0.5
v -0.4 3.1 -0.5
v -0.4 3.7 -0.5
v -0.4 3.9 -0.5
v -0.3 0 -0.5
v -0.3 0.2 -0.5
v -0.3 3.6 -0.5
v -0.3 3.7 -0.5
v -0.2 2.8 -0.5
v -0.2 3 -0.5
v -0.2 3.6 -0.5
v -0.2 3.9 -0.5
v 0 1.4 -0.5
v 0 1.5 -0.5
v 0 2.8 -0.5
v 0 3 -0.5
v 0 3.1 -0.5
v 0.1 1.5 -0.5
v 0.1 3 -0.5
v 0.2 3.6 -0.5
v 0.2 4 -0.5
v 0.3 4 -0.5
v 0.3 4.3 -0.5
v 0.4 0 -0.5
v 0.4 0.2 -0.5
v -0.2 2.8 -1.7
v -0.2 3 -1.7
v 0 2.8 -1.7
v 0 3 -1.7
v -0.3 0 0.5
v 0.4 0 0.5
v -0.3 0 0.2
v 0.4 0 0.2
v -0.3 0 -0.2
v 0.4 0 -0.2
v -0.3 0 -0.5
v 0.4 0 -0.5
v -0.4 1.4 0.5
v 0 1.4 0.5
v -0.5 1.4 0.4
v -0.4 1.4 0.4
v -0.3 1.4 0.4
v -0.1 1.4 0.4
v 0 1.4 0.4
v 0.1 1.4 0.4
v -0.3 1.4 0.2
v -0.1 1.4 0.2
v -0.3 1.4 -0.2
v -0.1 1.4 -0.2
v -0.5 1.4 -0.4
v -0.4 1.4 -0.4
v -0.3 1.4 -0.4
v -0.1 1.4 -0.4
v 0 1.4 -0.4
v 0.1 1.4 -0.4
v -0.4 1.4 -0.5
v 0 1.4 -0.5
v -0.5 1.5 0.5
v -0.4 1.5 0.5
v 0 1.5 0.5
v 0.1 1.5 0.5
v -0.5 1.5 0.4
v -0.4 1.5 0.4
v 0 1.5 0.4
v 0.1 1.5 0.4
v -0.5 1.5 -0.4
v -0.4 1.5 -0.4
v 0 1.5 -0.4
v 0.1 1.5 -0.4
v -0.5 1.5 -0.5
v -0.4 1.5 -0.5
v 0 1.5 -0.5
v 0.1 1.5 -0.5
v -0.3 2.8 1.7
v -0.1 2.8 1.7
v -0.3 2.8 0.5
v -0.1 2.8 0.5
v -0.2 2.8 -0.5
v 0 2.8 -0.5
v -0.2 2.8 -1.7
v 0 2.8 -1.7
v -0.4 3.3 0.4
v 0 3.3 0.4
v -0.5 3.3 0.3
v -0.4 3.3 0.3
v 0 3.3 0.3
v 0.1 3.3 0.3
v -0.3 3.3 0.2
v -0.1 3.3 0.2
v 0.1 3.3 0.2
v 0.2 3.3 0.2
v -0.3 3.3 -0.2
v -0.1 3.3 -0.2
v 0.1 3.3 -0.2
v 0.2 3.3 -0.2
v -0.5 3.3 -0.3
v -0.4 3.3 -0.3
v 0 3.3 -0.3
v 0.1 3.3 -0.3
v -0.4 3.3 -0.4
v 0 3.3 -0.4
v -0.6 3.4 0.4
v -0.5 3.4 0.4
v -0.4 3.4 0.4
v -0.5 3.4 0.3
v -0.4 3.4 0.3
v 0.1 3.4 0.3
v 0.2 3.4 0.3
v 0.1 3.4 0.2
v 0.2 3.4 0.2
v 0.1 3.4 -0.2
v 0.2 3.4 -0.2
v -0.5 3.4 -0.3
v -0.4 3.4 -0.3
v 0 3.4 -0.3
v 0.1 3.4 -0.3
v 0.2 3.4 -0.3
v -0.6 3.4 -0.4
v -0.5 3.4 -0.4
v -0.4 3.4 -0.4
v 0 3.4 -0.4
v 0.1 3.4 -0.4
v -0.7 3.5 0.4
v -0.6 3.5 0.4
v 0 3.5 0.4
v 0.1 3.5 0.4
v 0 3.5 0.3
v 0.1 3.5 0.3
v -0.7 3.5 -0.4
v -0.6 3.5 -0.4
v -0.6 3.6 0.5
v -0.3 3.6 0.5
v -0.2 3.6 0.5
v 0.2 3.6 0.5
v -0.6 3.6 0.4
v -0.3 3.6 0.4
v -0.2 3.6 0.4
v 0.1 3.6 0.4
v 0.2 3.6 0.4
v 0.1 3.6 0.3
v 0.2 3.6 0.3
v 0.1 3.6 -0.3
v 0.2 3.6 -0.3
v -0.6 3.6 -0.4
v -0.3 3.6 -0.4
v -0.2 3.6 -0.4
v 0.1 3.6 -0.4
v 0.2 3.6 -0.4
v -0.6 3.6 -0.5
v -0.3 3.6 -0.5
v -0.2 3.6 -0.5
v 0.2 3.6 -0.5
v 0.2 4 0.5
v 0.3 4 0.5
v 0.2 4 0.4
v 0.2 4 0.3
v 0.3 4 0.3
v 0.2 4 -0.3
v 0.3 4 -0.3
v 0.2 4 -0.4
v 0.2 4 -0.5
v 0.3 4 -0.5
v 0.2 4.1 0.3
v 0.3 4.1 0.3
v 0.2 4.1 -0.3
v 0.3 4.1 -0.3
v -0.3 0.2 0.5
v 0.4 0.2 0.5
v -0.3 0.2 0.4
v -0.1 0.2 0.4
v -0.1 0.2 0.2
v 0.4 0.2 0.2
v -0.1 0.2 -0.2
v 0.4 0.2 -0.2
v -0.3 0.2 -0.4
v -0.1 0.2 -0.4
v -0.3 0.2 -0.5
v 0.4 0.2 -0.5
v -0.3 3 1.7
v -0.1 3 1.7
v -0.5 3 0.5
v -0.4 3 0.5
v -0.3 3 0.5
v -0.1 3 0.5
v 0 3 0.5
v 0.1 3 0.5
v -0.5 3 0.4
v -0.4 3 0.4
v 0 3 0.4
v 0.1 3 0.4
v -0.5 3 -0.4
v -0.4 3 -0.4
v 0 3 -0.4
v 0.1 3 -0.4
v -0.5 3 -0.5
v -0.4 3 -0.5
v -0.2 3 -0.5
v 0 3 -0.5
v 0.1 3 -0.5
v -0.2 3 -1.7
v 0 3 -1.7
v -0.4 3.1 0.5
v 0 3.1 0.5
v -0.5 3.1 0.4
v -0.4 3.1 0.4
v 0 3.1 0.4
v 0.1 3.1 0.4
v -0.3 3.1 0.2
v -0.1 3.1 0.2
v -0.3 3.1 -0.2
v -0.1 3.1 -0.2
v -0.5 3.1 -0.4
v -0.4 3.1 -0.4
v 0 3.1 -0.4
v 0.1 3.1 -0.4
v -0.4 3.1 -0.5
v 0 3.1 -0.5
v -0.6 4.2 0.5
v 0.3 4.2 0.5
v -0.7 4.2 0.4
v -0.6 4.2 0.4
v 0.3 4.2 0.4
v -0.7 4.2 -0.4
v -0.6 4.2 -0.4
v -0.6 4.3 0.4
v 0.3 4.3 0.4
v -0.6 4.3 0.3
v 0.3 4.3 0.3
v -0.6 4.3 -0.4
v 0.3 4.3 -0.4
v -0.6 4.3 -0.5
v 0.3 4.3 -0.5
v -0.6 4.4 0.3
v 0.3 4.4 0.3
v -0.6 4.4 -0.4
v 0.3 4.4 -0.4

# faces
f 3/3/1 2/3/1 1/3/1
f 4/3/1 2/3/1 3/3/1
f 7/3/1 6/3/1 5/3/1
f 8/3/1 6/3/1 7/3/1
f 13/3/1 10/3/1 9/3/1
f 14/3/1 10/3/1 13/3/1
f 15/3/1 12/3/1 11/3/1
f 16/3/1 15/3/1 14/3/1
f 17/3/1 15/3/1 16/3/1
f 18/3/1 12/3/1 15/3/1
f 18/3/1 15/3/1 17/3/1
f 19/3/1 12/3/1 18/3/1
f 20/3/1 18/3/1 17/3/1
f 21/3/1 18/3/1 20/3/1
f 25/6/1 23/6/1 22/6/1
f 26/6/1 23/6/1 25/6/1
f 28/6/1 25/6/1 24/6/1
f 28/6/1 27/6/1 26/6/1
f 28/6/1 26/6/1 25/6/1
f 29/6/1 27/6/1 28/6/1
f 30/6/1 27/6/1 29/6/1
f 31/6/1 27/6/1 30/6/1
f 32/6/1 30/6/1 29/6/1
f 33/6/1 30/6/1 32/6/1
f 36/2/1 35/2/1 34/2/1
f 37/2/1 35/2/1 36/2/1
f 42/6/1 39/6/1 38/6/1
f 43/6/1 39/6/1 42/6/1
f 44/6/1 41/6/1 40/6/1
f 45/6/1 41/6/1 44/6/1
f 50/6/1 47/6/1 46/6/1
f 51/6/1 47/6/1 50/6/1
f 52/6/1 49/6/1 48/6/1
f 53/6/1 49/6/1 52/6/1
f 58/2/1 55/2/1 54/2/1
f 59/2/1 55/2/1 58/2/1
f 60/2/1 57/2/1 56/2/1
f 61/2/1 57/2/1 60/2/1
f 66/3/1 63/3/1 62/3/1
f 67/3/1 63/3/1 66/3/1
f 68/3/1 63/3/1 67/3/1
f 69/3/1 65/3/1 64/3/1
f 70/3/1 65/3/1 69/3/1
f 71/3/1 65/3/1 70/3/1
f 72/5/1 68/5/1 67/5/1
f 73/5/1 68/5/1 72/5/1
f 74/5/1 70/5/1 69/5/1
f 75/5/1 70/5/1 74/5/1
f 78/7/1 77/7/1 76/7/1
f 79/7/1 77/7/1 78/7/1
f 82/2/1 81/2/1 80/2/1
f 83/2/1 81/2/1 82/2/1
f 86/7/1 85/7/1 84/7/1
f 87/7/1 85/7/1 86/7/1
f 88/5/2 89/5/2 92/5/2
f 92/5/2 89/5/2 93/5/2
f 90/5/2 91/5/2 94/5/2
f 94/5/2 91/5/2 95/5/2
f 96/7/2 97/7/2 98/7/2
f 98/7/2 97/7/2 99/7/2
f 100/2/2 101/2/2 102/2/2
f 102/2/2 101/2/2 103/2/2
f 104/6/2 105/6/2 108/6/2
f 108/6/2 105/6/2 109/6/2
f 106/6/2 107/6/2 110/6/2
f 110/6/2 107/6/2 111/6/2
f 112/7/2 113/7/2 117/7/2
f 117/7/2 113/7/2 118/7/2
f 114/6/2 115/6/2 119/6/2
f 119/6/2 115/6/2 120/6/2
f 116/6/2 117/6/2 121/6/2
f 121/6/2 117/6/2 122/6/2
f 125/2/2 126/2/2 127/2/2
f 127/2/2 126/2/2 128/2/2
f 123/2/2 124/2/2 129/2/2
f 129/2/2 124/2/2 130/2/2
f 131/6/2 132/6/2 134/6/2
f 134/6/2 132/6/2 135/6/2
f 133/6/2 134/6/2 137/6/2
f 135/6/2 136/6/2 137/6/2
f 134/6/2 135/6/2 137/6/2
f 137/6/2 136/6/2 138/6/2
f 138/6/2 136/6/2 139/6/2
f 139/6/2 136/6/2 140/6/2
f 138/6/2 139/6/2 141/6/2
f 141/6/2 139/6/2 142/6/2
f 143/2/2 144/2/2 147/2/2
f 147/2/2 144/2/2 148/2/2
f 145/2/2 146/2/2 149/2/2
f 149/2/2 146/2/2 150/2/2
f 150/2/2 151/2/2 154/2/2
f 152/2/2 153/2/2 155/2/2
f 155/2/2 153/2/2 156/2/2
f 154/2/2 151/2/2 157/2/2
f 157/2/2 151/2/2 158/2/2
f 159/2/2 160/2/2 162/2/2
f 162/2/2 160/2/2 163/2/2
f 161/2/2 162/2/2 165/2/2
f 162/1/2 163/1/2 166/1/2
f 165/2/2 162/2/2 166/2/2
f 163/2/2 164/2/2 167/2/2
f 166/1/2 163/1/2 167/1/2
f 167/2/2 164/2/2 168/2/2
f 165/1/2 166/1/2 171/1/2
f 166/2/2 167/2/2 172/2/2
f 171/1/2 166/1/2 172/1/2
f 172/2/2 167/2/2 173/2/2
f 173/2/2 167/2/2 174/2/2
f 167/1/2 168/1/2 175/1/2
f 174/2/2 167/2/2 175/2/2
f 175/1/2 168/1/2 176/1/2
f 170/2/2 171/2/2 179/2/2
f 171/2/2 172/2/2 179/2/2
f 172/2/2 173/2/2 179/2/2
f 173/9/2 174/9/2 180/9/2
f 179/2/2 173/2/2 180/2/2
f 175/2/2 176/2/2 181/2/2
f 180/9/2 174/9/2 181/9/2
f 176/2/2 177/2/2 181/2/2
f 174/2/2 175/2/2 181/2/2
f 181/2/2 177/2/2 182/2/2
f 179/9/2 180/9/2 183/9/2
f 180/2/2 181/2/2 184/2/2
f 183/9/2 180/9/2 184/9/2
f 181/9/2 182/9/2 185/9/2
f 182/2/2 177/2/2 186/2/2
f 185/9/2 182/9/2 186/9/2
f 170/2/2 179/2/2 187/2/2
f 179/9/2 183/9/2 187/9/2
f 183/8/2 184/8/2 188/8/2
f 187/9/2 183/9/2 188/9/2
f 184/2/2 181/2/2 189/2/2
f 188/8/2 184/8/2 189/8/2
f 181/9/2 185/9/2 190/9/2
f 189/2/2 181/2/2 190/2/2
f 185/8/2 186/8/2 191/8/2
f 190/9/2 185/9/2 191/9/2
f 186/2/2 177/2/2 192/2/2
f 191/8/2 186/8/2 192/8/2
f 169/3/2 170/3/2 193/3/2
f 190/2/2 191/2/2 194/2/2
f 193/3/2 170/3/2 194/3/2
f 188/2/2 189/2/2 194/2/2
f 191/2/2 192/2/2 194/2/2
f 170/2/2 187/2/2 194/2/2
f 187/2/2 188/2/2 194/2/2
f 189/2/2 190/2/2 194/2/2
f 194/2/2 192/2/2 195/2/2
f 192/2/2 177/2/2 196/2/2
f 195/2/2 192/2/2 196/2/2
f 177/3/2 178/3/2 197/3/2
f 196/2/2 177/2/2 197/2/2
f 197/3/2 178/3/2 198/3/2
f 195/2/2 196/2/2 199/2/2
f 199/2/2 196/2/2 200/2/2
f 201/3/2 202/3/2 205/3/2
f 203/3/2 204/3/2 206/3/2
f 201/3/2 205/3/2 207/3/2
f 205/3/2 206/3/2 207/3/2
f 207/3/2 206/3/2 208/3/2
f 208/3/2 206/3/2 209/3/2
f 209/3/2 206/3/2 210/3/2
f 206/3/2 204/3/2 211/3/2
f 210/3/2 206/3/2 211/3/2
f 211/3/2 204/3/2 212/3/2
f 210/3/2 211/3/2 213/3/2
f 213/3/2 211/3/2 214/3/2
f 215/3/2 216/3/2 219/3/2
f 219/3/2 216/3/2 220/3/2
f 217/3/2 218/3/2 221/3/2
f 221/3/2 218/3/2 222/3/2
f 225/7/3 224/7/3 223/7/3
f 226/7/3 224/7/3 225/7/3
f 232/6/3 230/6/3 229/6/3
f 233/6/3 230/6/3 232/6/3
f 235/3/3 228/3/3 227/3/3
f 236/3/3 228/3/3 235/3/3
f 239/6/3 234/6/3 233/6/3
f 239/6/3 232/6/3 231/6/3
f 239/6/3 233/6/3 232/6/3
f 240/6/3 234/6/3 239/6/3
f 241/3/3 235/3/3 227/3/3
f 242/2/3 236/2/3 235/2/3
f 242/3/3 235/3/3 241/3/3
f 243/2/3 242/2/3 241/2/3
f 244/3/3 228/3/3 236/3/3
f 244/2/3 242/2/3 243/2/3
f 244/2/3 236/2/3 242/2/3
f 245/6/3 239/6/3 231/6/3
f 246/6/3 234/6/3 240/6/3
f 247/6/3 245/6/3 231/6/3
f 247/6/3 246/6/3 245/6/3
f 248/6/3 246/6/3 247/6/3
f 249/6/3 234/6/3 246/6/3
f 249/6/3 246/6/3 248/6/3
f 250/6/3 234/6/3 249/6/3
f 251/6/3 249/6/3 248/6/3
f 252/6/3 249/6/3 251/6/3
f 253/3/3 244/3/3 243/3/3
f 254/3/3 228/3/3 244/3/3
f 254/3/3 244/3/3 253/3/3
f 255/3/3 228/3/3 254/3/3
f 256/3/3 228/3/3 255/3/3
f 257/3/3 238/3/3 237/3/3
f 258/3/3 238/3/3 257/3/3
f 262/3/3 260/3/3 259/3/3
f 263/3/3 260/3/3 262/3/3
f 264/3/3 260/3/3 263/3/3
f 270/3/3 262/3/3 261/3/3
f 271/2/3 263/2/3 262/2/3
f 271/3/3 262/3/3 270/3/3
f 272/6/3 267/6/3 266/6/3
f 273/6/3 267/6/3 272/6/3
f 274/6/3 269/6/3 268/6/3
f 275/6/3 269/6/3 274/6/3
f 277/2/3 271/2/3 270/2/3
f 280/2/3 277/2/3 276/2/3
f 280/2/3 263/2/3 271/2/3
f 280/2/3 271/2/3 277/2/3
f 281/2/3 280/2/3 276/2/3
f 282/5/3 279/5/3 278/5/3
f 283/5/3 279/5/3 282/5/3
f 288/2/3 281/2/3 276/2/3
f 289/2/3 281/2/3 288/2/3
f 290/6/3 285/6/3 284/6/3
f 291/6/3 285/6/3 290/6/3
f 292/6/3 287/6/3 286/6/3
f 293/6/3 287/6/3 292/6/3
f 294/2/3 281/2/3 289/2/3
f 295/2/3 281/2/3 294/2/3
f 296/3/3 265/3/3 264/3/3
f 297/3/3 265/3/3 296/3/3
f 302/2/3 301/2/3 300/2/3
f 303/2/3 301/2/3 302/2/3
f 306/2/3 305/2/3 304/2/3
f 307/2/3 305/2/3 306/2/3
f 308/2/3 305/2/3 307/2/3
f 310/2/3 308/2/3 307/2/3
f 311/1/3 309/1/3 308/1/3
f 311/2/3 308/2/3 310/2/3
f 312/1/3 309/1/3 311/1/3
f 313/3/3 299/3/3 298/3/3
f 314/3/3 299/3/3 313/3/3
f 317/2/3 316/2/3 315/2/3
f 318/2/3 316/2/3 317/2/3
f 321/2/3 320/2/3 319/2/3
f 322/2/3 320/2/3 321/2/3
f 326/3/3 324/3/3 323/3/3
f 326/5/3 325/5/3 324/5/3
f 327/5/3 325/5/3 326/5/3
f 328/3/3 326/3/3 323/3/3
f 329/3/3 326/3/3 328/3/3
f 332/3/3 331/3/3 330/3/3
f 333/3/3 331/3/3 332/3/3
f 334/3/4 335/3/4 336/3/4
f 336/3/4 335/3/4 337/3/4
f 338/3/4 339/3/4 341/3/4
f 339/5/4 340/5/4 341/5/4
f 341/5/4 340/5/4 342/5/4
f 338/3/4 341/3/4 343/3/4
f 343/3/4 341/3/4 344/3/4
f 345/2/4 346/2/4 347/2/4
f 347/2/4 346/2/4 348/2/4
f 349/2/4 350/2/4 351/2/4
f 351/2/4 350/2/4 352/2/4
f 353/2/4 354/2/4 355/2/4
f 355/2/4 354/2/4 356/2/4
f 357/2/4 358/2/4 359/2/4
f 359/2/4 358/2/4 360/2/4
f 360/2/4 361/2/4 363/2/4
f 361/1/4 362/1/4 364/1/4
f 363/2/4 361/2/4 364/2/4
f 364/1/4 362/1/4 365/1/4
f 366/3/4 367/3/4 369/3/4
f 369/3/4 367/3/4 370/3/4
f 370/3/4 367/3/4 371/3/4
f 368/3/4 369/3/4 378/3/4
f 369/2/4 370/2/4 379/2/4
f 378/3/4 369/3/4 379/3/4
f 374/6/4 375/6/4 380/6/4
f 380/6/4 375/6/4 381/6/4
f 376/6/4 377/6/4 382/6/4
f 382/6/4 377/6/4 383/6/4
f 378/2/4 379/2/4 385/2/4
f 384/2/4 385/2/4 388/2/4
f 379/2/4 370/2/4 388/2/4
f 385/2/4 379/2/4 388/2/4
f 384/2/4 388/2/4 389/2/4
f 386/5/4 387/5/4 390/5/4
f 390/5/4 387/5/4 391/5/4
f 384/2/4 389/2/4 396/2/4
f 396/2/4 389/2/4 397/2/4
f 392/6/4 393/6/4 398/6/4
f 398/6/4 393/6/4 399/6/4
f 394/6/4 395/6/4 400/6/4
f 400/6/4 395/6/4 401/6/4
f 397/2/4 389/2/4 402/2/4
f 402/2/4 389/2/4 403/2/4
f 372/3/4 373/3/4 404/3/4
f 404/3/4 373/3/4 405/3/4
f 408/6/4 409/6/4 411/6/4
f 411/6/4 409/6/4 412/6/4
f 406/3/4 407/3/4 414/3/4
f 414/3/4 407/3/4 415/3/4
f 406/3/4 414/3/4 418/3/4
f 414/2/4 415/2/4 419/2/4
f 418/3/4 414/3/4 419/3/4
f 412/6/4 413/6/4 420/6/4
f 410/6/4 411/6/4 420/6/4
f 411/6/4 412/6/4 420/6/4
f 420/6/4 413/6/4 421/6/4
f 418/2/4 419/2/4 422/2/4
f 419/2/4 415/2/4 423/2/4
f 422/2/4 419/2/4 423/2/4
f 415/3/4 407/3/4 423/3/4
f 410/6/4 420/6/4 424/6/4
f 424/6/4 420/6/4 425/6/4
f 425/6/4 420/6/4 426/6/4
f 421/6/4 413/6/4 427/6/4
f 427/6/4 413/6/4 428/6/4
f 425/6/4 426/6/4 429/6/4
f 426/6/4 427/6/4 429/6/4
f 429/6/4 427/6/4 430/6/4
f 422/3/4 423/3/4 431/3/4
f 423/3/4 407/3/4 432/3/4
f 431/3/4 423/3/4 432/3/4
f 432/3/4 407/3/4 433/3/4
f 433/3/4 407/3/4 434/3/4
f 416/3/4 417/3/4 435/3/4
f 435/3/4 417/3/4 436/3/4
f 437/7/4 438/7/4 439/7/4
f 439/7/4 438/7/4 440/7/4
f 443/3/5 442/3/5 441/3/5
f 444/3/5 442/3/5 443/3/5
f 447/3/5 446/3/5 445/3/5
f 448/3/5 446/3/5 447/3/5
f 452/6/5 450/6/5 449/6/5
f 453/6/5 450/6/5 452/6/5
f 454/6/5 450/6/5 453/6/5
f 455/6/5 450/6/5 454/6/5
f 457/6/5 452/6/5 451/6/5
f 457/6/5 453/6/5 452/6/5
f 458/6/5 456/6/5 455/6/5
f 458/6/5 455/6/5 454/6/5
f 459/6/5 457/6/5 451/6/5
f 459/6/5 458/6/5 457/6/5
f 460/6/5 456/6/5 458/6/5
f 460/6/5 458/6/5 459/6/5
f 461/6/5 459/6/5 451/6/5
f 462/6/5 459/6/5 461/6/5
f 463/6/5 459/6/5 462/6/5
f 464/6/5 456/6/5 460/6/5
f 465/6/5 456/6/5 464/6/5
f 466/6/5 456/6/5 465/6/5
f 467/6/5 463/6/5 462/6/5
f 467/6/5 465/6/5 464/6/5
f 467/6/5 464/6/5 463/6/5
f 468/6/5 465/6/5 467/6/5
f 473/6/5 470/6/5 469/6/5
f 474/6/5 470/6/5 473/6/5
f 475/6/5 472/6/5 471/6/5
f 476/6/5 472/6/5 475/6/5
f 481/6/5 478/6/5 477/6/5
f 482/6/5 478/6/5 481/6/5
f 483/6/5 480/6/5 479/6/5
f 484/6/5 480/6/5 483/6/5
f 487/7/5 486/7/5 485/7/5
f 488/7/5 486/7/5 487/7/5
f 491/7/5 490/7/5 489/7/5
f 492/7/5 490/7/5 491/7/5
f 496/2/5 494/2/5 493/2/5
f 497/2/5 494/2/5 496/2/5
f 499/2/5 496/2/5 495/2/5
f 499/2/5 498/2/5 497/2/5
f 499/2/5 497/2/5 496/2/5
f 500/2/5 498/2/5 499/2/5
f 501/2/5 498/2/5 500/2/5
f 503/2/5 499/2/5 495/2/5
f 504/2/5 502/2/5 501/2/5
f 504/2/5 501/2/5 500/2/5
f 505/2/5 502/2/5 504/2/5
f 506/2/5 502/2/5 505/2/5
f 507/2/5 503/2/5 495/2/5
f 507/2/5 504/2/5 503/2/5
f 507/2/5 505/2/5 504/2/5
f 508/2/5 505/2/5 507/2/5
f 509/2/5 505/2/5 508/2/5
f 510/2/5 505/2/5 509/2/5
f 511/2/5 509/2/5 508/2/5
f 512/2/5 509/2/5 511/2/5
f 516/3/5 514/3/5 513/3/5
f 516/2/5 515/2/5 514/2/5
f 517/2/5 515/2/5 516/2/5
f 520/2/5 519/2/5 518/2/5
f 521/2/5 519/2/5 520/2/5
f 524/3/5 516/3/5 513/3/5
f 527/2/5 523/2/5 522/2/5
f 528/2/5 523/2/5 527/2/5
f 529/3/5 524/3/5 513/3/5
f 530/2/5 525/2/5 524/2/5
f 530/3/5 524/3/5 529/3/5
f 531/2/5 525/2/5 530/2/5
f 532/2/5 527/2/5 526/2/5
f 533/2/5 527/2/5 532/2/5
f 538/2/5 537/2/5 536/2/5
f 539/2/5 537/2/5 538/2/5
f 540/3/5 535/3/5 534/3/5
f 541/3/5 535/3/5 540/3/5
f 546/3/5 543/3/5 542/3/5
f 547/2/5 544/2/5 543/2/5
f 547/3/5 543/3/5 546/3/5
f 548/3/5 545/3/5 544/3/5
f 548/2/5 544/2/5 547/2/5
f 549/3/5 545/3/5 548/3/5
f 550/3/5 545/3/5 549/3/5
f 551/2/5 550/2/5 549/2/5
f 552/2/5 550/2/5 551/2/5
f 558/2/5 554/2/5 553/2/5
f 559/2/5 554/2/5 558/2/5
f 560/3/5 556/3/5 555/3/5
f 561/2/5 557/2/5 556/2/5
f 561/3/5 556/3/5 560/3/5
f 562/3/5 558/3/5 557/3/5
f 562/2/5 557/2/5 561/2/5
f 562/3/5 559/3/5 558/3/5
f 563/3/5 559/3/5 562/3/5
f 566/3/5 565/3/5 564/3/5
f 567/3/5 565/3/5 566/3/5
f 568/3/5 565/3/5 567/3/5
f 571/3/5 570/3/5 569/3/5
f 572/3/5 570/3/5 571/3/5
f 573/3/5 570/3/5 572/3/5
f 576/3/5 575/3/5 574/3/5
f 577/3/5 575/3/5 576/3/5
f 578/3/6 579/3/6 580/3/6
f 580/3/6 579/3/6 581/3/6
f 581/3/6 579/3/6 582/3/6
f 582/3/6 579/3/6 583/3/6
f 584/3/6 585/3/6 587/3/6
f 586/3/6 587/3/6 588/3/6
f 587/3/6 585/3/6 589/3/6
f 588/3/6 587/3/6 589/3/6
f 590/7/6 591/7/6 594/7/6
f 594/7/6 591/7/6 595/7/6
f 592/6/6 593/6/6 598/6/6
f 598/6/6 593/6/6 599/6/6
f 596/6/6 597/6/6 600/6/6
f 600/6/6 597/6/6 601/6/6
f 602/6/6 603/6/6 606/6/6
f 606/6/6 603/6/6 607/6/6
f 604/6/6 605/6/6 609/6/6
f 609/6/6 605/6/6 610/6/6
f 608/7/6 609/7/6 611/7/6
f 611/7/6 609/7/6 612/7/6
f 613/6/6 614/6/6 616/6/6
f 616/6/6 614/6/6 617/6/6
f 615/6/6 616/6/6 619/6/6
f 617/6/6 618/6/6 619/6/6
f 616/6/6 617/6/6 619/6/6
f 619/6/6 618/6/6 620/6/6
f 615/6/6 619/6/6 621/6/6
f 620/6/6 618/6/6 622/6/6
f 615/6/6 621/6/6 623/6/6
f 621/6/6 622/6/6 623/6/6
f 623/6/6 622/6/6 624/6/6
f 622/6/6 618/6/6 625/6/6
f 624/6/6 622/6/6 625/6/6
f 625/6/6 618/6/6 626/6/6
f 624/6/6 625/6/6 627/6/6
f 627/6/6 625/6/6 628/6/6
f 629/3/6 630/3/6 632/3/6
f 632/3/6 630/3/6 633/3/6
f 631/3/6 632/3/6 634/3/6
f 634/3/6 632/3/6 635/3/6
f 636/3/6 637/3/6 638/3/6
f 638/3/6 637/3/6 639/3/6
f 640/3/6 641/3/6 642/3/6
f 642/3/6 641/3/6 643/3/6
f 644/3/6 645/3/6 646/3/6
f 646/3/6 645/3/6 647/3/6
