# MagicaVoxel @ Ephtracy

# group
o 

# material
mtllib Backmonorail.mtl
usemtl palette

# normals
vn -1 0 0
vn 1 0 0
vn 0 0 1
vn 0 0 -1
vn 0 -1 0
vn 0 1 0

# texcoords
vt 0.146484 0.5
vt 0.650391 0.5
vt 0.677734 0.5
vt 0.931641 0.5
vt 0.951172 0.5
vt 0.982422 0.5
vt 0.990234 0.5

# verts
v -1 0 1
v -1 0 -1
v -1 0.3 1
v -1 0.3 -1
v -0.9 0.3 1
v -0.9 0.3 -1
v -0.9 0.5 1
v -0.9 0.5 -1
v 0.2 0 0.9
v 0.2 0 0.5
v 0.2 0 -0.5
v 0.2 0 -0.9
v 0.2 0.2 0.9
v 0.2 0.2 0.5
v 0.2 0.2 -0.5
v 0.2 0.2 -0.9
v 0.2 0.3 0.9
v 0.2 0.3 0.5
v 0.2 0.3 -0.5
v 0.2 0.3 -0.9
v 0.2 0.4 0.9
v 0.2 0.4 0.5
v 0.2 0.4 -0.5
v 0.2 0.4 -0.9
v 0.3 0 0.4
v 0.3 0 -0.4
v 0.3 0.2 0.4
v 0.3 0.2 -0.4
v 0.3 0.3 0.4
v 0.3 0.3 -0.4
v 0.3 0.4 1
v 0.3 0.4 0.4
v 0.3 0.4 -0.4
v 0.3 0.4 -1
v 0.3 0.5 1
v 0.3 0.5 -1
v 0.8 0.4 0.9
v 0.8 0.4 0.5
v 0.8 0.4 -0.5
v 0.8 0.4 -0.9
v 0.8 0.5 0.9
v 0.8 0.5 0.5
v 0.8 0.5 -0.5
v 0.8 0.5 -0.9
v -0.7 0 0.4
v -0.7 0 -0.4
v -0.7 0.2 0.4
v -0.7 0.2 -0.4
v -0.7 0.3 0.4
v -0.7 0.3 -0.4
v -0.7 0.4 1
v -0.7 0.4 0.4
v -0.7 0.4 -0.4
v -0.7 0.4 -1
v -0.7 0.5 1
v -0.7 0.5 -1
v -0.6 0 0.9
v -0.6 0 0.5
v -0.6 0 -0.5
v -0.6 0 -0.9
v -0.6 0.2 0.9
v -0.6 0.2 0.5
v -0.6 0.2 -0.5
v -0.6 0.2 -0.9
v -0.6 0.3 0.9
v -0.6 0.3 0.5
v -0.6 0.3 -0.5
v -0.6 0.3 -0.9
v -0.6 0.4 0.9
v -0.6 0.4 0.5
v -0.6 0.4 -0.5
v -0.6 0.4 -0.9
v 0.5 0.4 0.4
v 0.5 0.4 -0.4
v 0.5 0.5 0.4
v 0.5 0.5 -0.4
v 0.6 0.4 0.9
v 0.6 0.4 0.5
v 0.6 0.4 -0.5
v 0.6 0.4 -0.9
v 0.6 0.5 0.9
v 0.6 0.5 0.5
v 0.6 0.5 -0.5
v 0.6 0.5 -0.9
v 0.7 0.3 0.4
v 0.7 0.3 -0.4
v 0.7 0.4 0.4
v 0.7 0.4 -0.4
v 0.9 0.3 1
v 0.9 0.3 0.4
v 0.9 0.3 -0.4
v 0.9 0.3 -1
v 0.9 0.5 1
v 0.9 0.5 0.4
v 0.9 0.5 -0.4
v 0.9 0.5 -1
v 1 0 1
v 1 0 -1
v 1 0.3 1
v 1 0.3 -1
v -1 0 1
v -1 0.3 1
v -0.9 0 1
v -0.9 0.3 1
v -0.9 0.5 1
v -0.8 0 1
v -0.8 0.5 1
v -0.7 0 1
v -0.7 0.2 1
v -0.7 0.3 1
v -0.7 0.4 1
v -0.7 0.5 1
v 0.3 0 1
v 0.3 0.2 1
v 0.3 0.3 1
v 0.3 0.4 1
v 0.3 0.5 1
v 0.4 0 1
v 0.4 0.5 1
v 0.5 0 1
v 0.5 0.5 1
v 0.6 0 1
v 0.6 0.1 1
v 0.7 0.1 1
v 0.7 0.2 1
v 0.8 0.2 1
v 0.8 0.3 1
v 0.9 0.3 1
v 0.9 0.5 1
v 1 0 1
v 1 0.3 1
v -0.6 0 0.5
v -0.6 0.2 0.5
v -0.6 0.3 0.5
v -0.6 0.4 0.5
v 0.2 0 0.5
v 0.2 0.2 0.5
v 0.2 0.3 0.5
v 0.2 0.4 0.5
v 0.6 0.4 0.5
v 0.6 0.5 0.5
v 0.8 0.4 0.5
v 0.8 0.5 0.5
v -0.7 0 -0.4
v -0.7 0.2 -0.4
v -0.7 0.3 -0.4
v -0.7 0.4 -0.4
v 0.3 0 -0.4
v 0.3 0.2 -0.4
v 0.3 0.3 -0.4
v 0.3 0.4 -0.4
v 0.5 0.4 -0.4
v 0.5 0.5 -0.4
v 0.7 0.3 -0.4
v 0.7 0.4 -0.4
v 0.9 0.3 -0.4
v 0.9 0.5 -0.4
v -0.6 0 -0.9
v -0.6 0.2 -0.9
v -0.6 0.3 -0.9
v -0.6 0.4 -0.9
v 0.2 0 -0.9
v 0.2 0.2 -0.9
v 0.2 0.3 -0.9
v 0.2 0.4 -0.9
v 0.6 0.4 -0.9
v 0.6 0.5 -0.9
v 0.8 0.4 -0.9
v 0.8 0.5 -0.9
v -0.6 0 0.9
v -0.6 0.2 0.9
v -0.6 0.3 0.9
v -0.6 0.4 0.9
v 0.2 0 0.9
v 0.2 0.2 0.9
v 0.2 0.3 0.9
v 0.2 0.4 0.9
v 0.6 0.4 0.9
v 0.6 0.5 0.9
v 0.8 0.4 0.9
v 0.8 0.5 0.9
v -0.7 0 0.4
v -0.7 0.2 0.4
v -0.7 0.3 0.4
v -0.7 0.4 0.4
v 0.3 0 0.4
v 0.3 0.2 0.4
v 0.3 0.3 0.4
v 0.3 0.4 0.4
v 0.5 0.4 0.4
v 0.5 0.5 0.4
v 0.7 0.3 0.4
v 0.7 0.4 0.4
v 0.9 0.3 0.4
v 0.9 0.5 0.4
v -0.6 0 -0.5
v -0.6 0.2 -0.5
v -0.6 0.3 -0.5
v -0.6 0.4 -0.5
v 0.2 0 -0.5
v 0.2 0.2 -0.5
v 0.2 0.3 -0.5
v 0.2 0.4 -0.5
v 0.6 0.4 -0.5
v 0.6 0.5 -0.5
v 0.8 0.4 -0.5
v 0.8 0.5 -0.5
v -1 0 -1
v -1 0.3 -1
v -0.9 0 -1
v -0.9 0.3 -1
v -0.9 0.5 -1
v -0.8 0 -1
v -0.8 0.5 -1
v -0.7 0 -1
v -0.7 0.2 -1
v -0.7 0.3 -1
v -0.7 0.4 -1
v -0.7 0.5 -1
v 0.3 0 -1
v 0.3 0.2 -1
v 0.3 0.3 -1
v 0.3 0.4 -1
v 0.3 0.5 -1
v 0.4 0 -1
v 0.4 0.5 -1
v 0.5 0 -1
v 0.5 0.5 -1
v 0.6 0 -1
v 0.6 0.1 -1
v 0.7 0.1 -1
v 0.7 0.2 -1
v 0.8 0.2 -1
v 0.8 0.3 -1
v 0.9 0.3 -1
v 0.9 0.5 -1
v 1 0 -1
v 1 0.3 -1
v -1 0 1
v -0.9 0 1
v -0.8 0 1
v -0.7 0 1
v 0.3 0 1
v 0.4 0 1
v 0.5 0 1
v 0.6 0 1
v 1 0 1
v -0.9 0 0.9
v -0.8 0 0.9
v -0.6 0 0.9
v 0.2 0 0.9
v 0.3 0 0.9
v 0.4 0 0.9
v 0.5 0 0.9
v 0.6 0 0.9
v -0.6 0 0.5
v 0.2 0 0.5
v -0.7 0 0.4
v 0.3 0 0.4
v -0.7 0 -0.4
v 0.3 0 -0.4
v -0.6 0 -0.5
v 0.2 0 -0.5
v -0.9 0 -0.9
v -0.8 0 -0.9
v -0.6 0 -0.9
v 0.2 0 -0.9
v 0.3 0 -0.9
v 0.4 0 -0.9
v 0.5 0 -0.9
v 0.6 0 -0.9
v -1 0 -1
v -0.9 0 -1
v -0.8 0 -1
v -0.7 0 -1
v 0.3 0 -1
v 0.4 0 -1
v 0.5 0 -1
v 0.6 0 -1
v 1 0 -1
v -1 0.3 1
v -0.9 0.3 1
v 0.9 0.3 1
v 1 0.3 1
v 0.7 0.3 0.4
v 0.9 0.3 0.4
v 0.7 0.3 -0.4
v 0.9 0.3 -0.4
v -1 0.3 -1
v -0.9 0.3 -1
v 0.9 0.3 -1
v 1 0.3 -1
v -0.7 0.4 1
v 0.3 0.4 1
v -0.6 0.4 0.9
v 0.2 0.4 0.9
v 0.6 0.4 0.9
v 0.8 0.4 0.9
v -0.6 0.4 0.5
v 0.2 0.4 0.5
v 0.6 0.4 0.5
v 0.8 0.4 0.5
v -0.7 0.4 0.4
v 0.3 0.4 0.4
v 0.5 0.4 0.4
v 0.7 0.4 0.4
v -0.7 0.4 -0.4
v 0.3 0.4 -0.4
v 0.5 0.4 -0.4
v 0.7 0.4 -0.4
v -0.6 0.4 -0.5
v 0.2 0.4 -0.5
v 0.6 0.4 -0.5
v 0.8 0.4 -0.5
v -0.6 0.4 -0.9
v 0.2 0.4 -0.9
v 0.6 0.4 -0.9
v 0.8 0.4 -0.9
v -0.7 0.4 -1
v 0.3 0.4 -1
v -0.9 0.5 1
v -0.8 0.5 1
v -0.7 0.5 1
v 0.3 0.5 1
v 0.4 0.5 1
v 0.5 0.5 1
v 0.9 0.5 1
v 0.6 0.5 0.9
v 0.8 0.5 0.9
v 0.6 0.5 0.5
v 0.8 0.5 0.5
v 0.5 0.5 0.4
v 0.9 0.5 0.4
v 0.5 0.5 -0.4
v 0.9 0.5 -0.4
v 0.6 0.5 -0.5
v 0.8 0.5 -0.5
v 0.6 0.5 -0.9
v 0.8 0.5 -0.9
v -0.9 0.5 -1
v -0.8 0.5 -1
v -0.7 0.5 -1
v 0.3 0.5 -1
v 0.4 0.5 -1
v 0.5 0.5 -1
v 0.9 0.5 -1

# faces
f 3/6/1 2/6/1 1/6/1
f 4/6/1 2/6/1 3/6/1
f 7/2/1 6/2/1 5/2/1
f 8/2/1 6/2/1 7/2/1
f 13/6/1 10/6/1 9/6/1
f 14/6/1 10/6/1 13/6/1
f 15/6/1 12/6/1 11/6/1
f 16/6/1 12/6/1 15/6/1
f 17/7/1 14/7/1 13/7/1
f 18/7/1 14/7/1 17/7/1
f 19/7/1 16/7/1 15/7/1
f 20/7/1 16/7/1 19/7/1
f 21/5/1 18/5/1 17/5/1
f 22/5/1 18/5/1 21/5/1
f 23/5/1 20/5/1 19/5/1
f 24/5/1 20/5/1 23/5/1
f 27/6/1 26/6/1 25/6/1
f 28/6/1 26/6/1 27/6/1
f 29/6/1 28/6/1 27/6/1
f 30/6/1 28/6/1 29/6/1
f 32/4/1 30/4/1 29/4/1
f 33/4/1 30/4/1 32/4/1
f 35/4/1 33/4/1 32/4/1
f 35/4/1 34/4/1 33/4/1
f 35/4/1 32/4/1 31/4/1
f 36/4/1 34/4/1 35/4/1
f 41/7/1 38/7/1 37/7/1
f 42/7/1 38/7/1 41/7/1
f 43/7/1 40/7/1 39/7/1
f 44/7/1 40/7/1 43/7/1
f 45/4/2 46/4/2 47/4/2
f 47/4/2 46/4/2 48/4/2
f 47/4/2 48/4/2 49/4/2
f 49/4/2 48/4/2 50/4/2
f 49/4/2 50/4/2 52/4/2
f 52/4/2 50/4/2 53/4/2
f 52/4/2 53/4/2 55/4/2
f 53/4/2 54/4/2 55/4/2
f 51/4/2 52/4/2 55/4/2
f 55/4/2 54/4/2 56/4/2
f 57/6/2 58/6/2 61/6/2
f 61/6/2 58/6/2 62/6/2
f 59/6/2 60/6/2 63/6/2
f 63/6/2 60/6/2 64/6/2
f 61/7/2 62/7/2 65/7/2
f 65/7/2 62/7/2 66/7/2
f 63/7/2 64/7/2 67/7/2
f 67/7/2 64/7/2 68/7/2
f 65/5/2 66/5/2 69/5/2
f 69/5/2 66/5/2 70/5/2
f 67/5/2 68/5/2 71/5/2
f 71/5/2 68/5/2 72/5/2
f 73/2/2 74/2/2 75/2/2
f 75/2/2 74/2/2 76/2/2
f 77/7/2 78/7/2 81/7/2
f 81/7/2 78/7/2 82/7/2
f 79/7/2 80/7/2 83/7/2
f 83/7/2 80/7/2 84/7/2
f 85/2/2 86/2/2 87/2/2
f 87/2/2 86/2/2 88/2/2
f 89/7/2 90/7/2 93/7/2
f 93/7/2 90/7/2 94/7/2
f 91/7/2 92/7/2 95/7/2
f 95/7/2 92/7/2 96/7/2
f 97/6/2 98/6/2 99/6/2
f 99/6/2 98/6/2 100/6/2
f 103/6/3 102/6/3 101/6/3
f 104/6/3 102/6/3 103/6/3
f 106/2/3 104/2/3 103/2/3
f 106/2/3 105/2/3 104/2/3
f 107/2/3 105/2/3 106/2/3
f 108/4/3 107/4/3 106/4/3
f 109/4/3 107/4/3 108/4/3
f 110/4/3 107/4/3 109/4/3
f 111/4/3 107/4/3 110/4/3
f 112/4/3 107/4/3 111/4/3
f 113/6/3 109/6/3 108/6/3
f 114/7/3 110/7/3 109/7/3
f 114/6/3 109/6/3 113/6/3
f 115/5/3 111/5/3 110/5/3
f 115/7/3 110/7/3 114/7/3
f 116/5/3 111/5/3 115/5/3
f 118/4/3 114/4/3 113/4/3
f 118/4/3 117/4/3 116/4/3
f 118/4/3 116/4/3 115/4/3
f 118/4/3 115/4/3 114/4/3
f 119/4/3 117/4/3 118/4/3
f 120/2/3 119/2/3 118/2/3
f 121/2/3 119/2/3 120/2/3
f 122/7/3 121/7/3 120/7/3
f 123/7/3 121/7/3 122/7/3
f 124/6/3 123/6/3 122/6/3
f 124/7/3 121/7/3 123/7/3
f 125/7/3 121/7/3 124/7/3
f 126/6/3 125/6/3 124/6/3
f 126/7/3 121/7/3 125/7/3
f 127/7/3 121/7/3 126/7/3
f 128/6/3 127/6/3 126/6/3
f 128/7/3 121/7/3 127/7/3
f 129/7/3 121/7/3 128/7/3
f 130/6/3 124/6/3 122/6/3
f 130/6/3 126/6/3 124/6/3
f 130/6/3 128/6/3 126/6/3
f 131/6/3 128/6/3 130/6/3
f 136/6/3 133/6/3 132/6/3
f 137/7/3 134/7/3 133/7/3
f 137/6/3 133/6/3 136/6/3
f 138/5/3 135/5/3 134/5/3
f 138/7/3 134/7/3 137/7/3
f 139/5/3 135/5/3 138/5/3
f 142/7/3 141/7/3 140/7/3
f 143/7/3 141/7/3 142/7/3
f 148/6/3 145/6/3 144/6/3
f 149/7/3 146/7/3 145/7/3
f 149/6/3 145/6/3 148/6/3
f 150/5/3 147/5/3 146/5/3
f 150/7/3 146/7/3 149/7/3
f 151/5/3 147/5/3 150/5/3
f 155/7/3 153/7/3 152/7/3
f 156/7/3 155/7/3 154/7/3
f 157/7/3 153/7/3 155/7/3
f 157/7/3 155/7/3 156/7/3
f 162/6/3 159/6/3 158/6/3
f 163/7/3 160/7/3 159/7/3
f 163/6/3 159/6/3 162/6/3
f 164/5/3 161/5/3 160/5/3
f 164/7/3 160/7/3 163/7/3
f 165/5/3 161/5/3 164/5/3
f 168/7/3 167/7/3 166/7/3
f 169/7/3 167/7/3 168/7/3
f 170/6/4 171/6/4 174/6/4
f 171/7/4 172/7/4 175/7/4
f 174/6/4 171/6/4 175/6/4
f 172/5/4 173/5/4 176/5/4
f 175/7/4 172/7/4 176/7/4
f 176/5/4 173/5/4 177/5/4
f 178/7/4 179/7/4 180/7/4
f 180/7/4 179/7/4 181/7/4
f 182/6/4 183/6/4 186/6/4
f 183/7/4 184/7/4 187/7/4
f 186/6/4 183/6/4 187/6/4
f 184/5/4 185/5/4 188/5/4
f 187/7/4 184/7/4 188/7/4
f 188/5/4 185/5/4 189/5/4
f 190/7/4 191/7/4 193/7/4
f 192/7/4 193/7/4 194/7/4
f 193/7/4 191/7/4 195/7/4
f 194/7/4 193/7/4 195/7/4
f 196/6/4 197/6/4 200/6/4
f 197/7/4 198/7/4 201/7/4
f 200/6/4 197/6/4 201/6/4
f 198/5/4 199/5/4 202/5/4
f 201/7/4 198/7/4 202/7/4
f 202/5/4 199/5/4 203/5/4
f 204/7/4 205/7/4 206/7/4
f 206/7/4 205/7/4 207/7/4
f 208/6/4 209/6/4 210/6/4
f 210/6/4 209/6/4 211/6/4
f 210/2/4 211/2/4 213/2/4
f 211/2/4 212/2/4 213/2/4
f 213/2/4 212/2/4 214/2/4
f 213/4/4 214/4/4 215/4/4
f 215/4/4 214/4/4 216/4/4
f 216/4/4 214/4/4 217/4/4
f 217/4/4 214/4/4 218/4/4
f 218/4/4 214/4/4 219/4/4
f 215/6/4 216/6/4 220/6/4
f 216/7/4 217/7/4 221/7/4
f 220/6/4 216/6/4 221/6/4
f 217/5/4 218/5/4 222/5/4
f 221/7/4 217/7/4 222/7/4
f 222/5/4 218/5/4 223/5/4
f 220/4/4 221/4/4 225/4/4
f 223/4/4 224/4/4 225/4/4
f 222/4/4 223/4/4 225/4/4
f 221/4/4 222/4/4 225/4/4
f 225/4/4 224/4/4 226/4/4
f 225/2/4 226/2/4 227/2/4
f 227/2/4 226/2/4 228/2/4
f 227/7/4 228/7/4 229/7/4
f 229/7/4 228/7/4 230/7/4
f 229/6/4 230/6/4 231/6/4
f 230/7/4 228/7/4 231/7/4
f 231/7/4 228/7/4 232/7/4
f 231/6/4 232/6/4 233/6/4
f 232/7/4 228/7/4 233/7/4
f 233/7/4 228/7/4 234/7/4
f 233/6/4 234/6/4 235/6/4
f 234/7/4 228/7/4 235/7/4
f 235/7/4 228/7/4 236/7/4
f 229/6/4 231/6/4 237/6/4
f 231/6/4 233/6/4 237/6/4
f 233/6/4 235/6/4 237/6/4
f 237/6/4 235/6/4 238/6/4
f 248/6/5 240/6/5 239/6/5
f 248/2/5 241/2/5 240/2/5
f 249/4/5 242/4/5 241/4/5
f 249/2/5 241/2/5 248/2/5
f 250/6/5 243/6/5 242/6/5
f 251/6/5 243/6/5 250/6/5
f 252/4/5 244/4/5 243/4/5
f 252/6/5 243/6/5 251/6/5
f 253/2/5 245/2/5 244/2/5
f 253/4/5 244/4/5 252/4/5
f 254/7/5 246/7/5 245/7/5
f 254/2/5 245/2/5 253/2/5
f 255/6/5 247/6/5 246/6/5
f 255/7/5 246/7/5 254/7/5
f 256/6/5 250/6/5 242/6/5
f 257/6/5 254/6/5 253/6/5
f 257/6/5 253/6/5 252/6/5
f 257/6/5 255/6/5 254/6/5
f 257/6/5 252/6/5 251/6/5
f 258/6/5 256/6/5 242/6/5
f 258/6/5 257/6/5 256/6/5
f 258/4/5 242/4/5 249/4/5
f 259/6/5 255/6/5 257/6/5
f 259/6/5 257/6/5 258/6/5
f 260/4/5 258/4/5 249/4/5
f 261/6/5 255/6/5 259/6/5
f 262/6/5 261/6/5 260/6/5
f 263/6/5 261/6/5 262/6/5
f 264/6/5 249/6/5 248/6/5
f 264/6/5 248/6/5 239/6/5
f 265/4/5 260/4/5 249/4/5
f 265/6/5 249/6/5 264/6/5
f 266/6/5 262/6/5 260/6/5
f 267/6/5 261/6/5 263/6/5
f 268/6/5 255/6/5 261/6/5
f 268/6/5 261/6/5 267/6/5
f 269/6/5 255/6/5 268/6/5
f 270/6/5 255/6/5 269/6/5
f 271/6/5 247/6/5 255/6/5
f 271/6/5 255/6/5 270/6/5
f 272/6/5 264/6/5 239/6/5
f 273/2/5 265/2/5 264/2/5
f 273/6/5 264/6/5 272/6/5
f 274/4/5 260/4/5 265/4/5
f 274/2/5 265/2/5 273/2/5
f 275/6/5 266/6/5 260/6/5
f 275/4/5 260/4/5 274/4/5
f 275/6/5 267/6/5 266/6/5
f 275/6/5 268/6/5 267/6/5
f 276/4/5 269/4/5 268/4/5
f 276/6/5 268/6/5 275/6/5
f 277/2/5 270/2/5 269/2/5
f 277/4/5 269/4/5 276/4/5
f 278/7/5 271/7/5 270/7/5
f 278/2/5 270/2/5 277/2/5
f 279/6/5 247/6/5 271/6/5
f 279/7/5 271/7/5 278/7/5
f 280/6/5 247/6/5 279/6/5
f 283/6/6 284/6/6 286/6/6
f 285/6/6 286/6/6 287/6/6
f 286/6/6 284/6/6 288/6/6
f 287/6/6 286/6/6 288/6/6
f 281/6/6 282/6/6 289/6/6
f 289/6/6 282/6/6 290/6/6
f 288/6/6 284/6/6 291/6/6
f 291/6/6 284/6/6 292/6/6
f 293/5/6 294/5/6 295/5/6
f 295/5/6 294/5/6 296/5/6
f 293/5/6 295/5/6 299/5/6
f 296/5/6 294/5/6 300/5/6
f 297/1/6 298/1/6 301/1/6
f 301/1/6 298/1/6 302/1/6
f 299/5/6 300/5/6 303/5/6
f 293/5/6 299/5/6 303/5/6
f 300/5/6 294/5/6 304/5/6
f 303/5/6 300/5/6 304/5/6
f 305/2/6 306/2/6 309/2/6
f 309/2/6 306/2/6 310/2/6
f 307/5/6 308/5/6 311/5/6
f 311/5/6 308/5/6 312/5/6
f 307/5/6 311/5/6 315/5/6
f 312/5/6 308/5/6 316/5/6
f 313/1/6 314/1/6 317/1/6
f 317/1/6 314/1/6 318/1/6
f 307/5/6 315/5/6 319/5/6
f 315/5/6 316/5/6 319/5/6
f 316/5/6 308/5/6 320/5/6
f 319/5/6 316/5/6 320/5/6
f 326/7/6 327/7/6 328/7/6
f 328/7/6 327/7/6 329/7/6
f 326/7/6 328/7/6 330/7/6
f 329/7/6 327/7/6 331/7/6
f 325/2/6 326/2/6 332/2/6
f 330/7/6 331/7/6 332/7/6
f 326/7/6 330/7/6 332/7/6
f 331/7/6 327/7/6 333/7/6
f 332/7/6 331/7/6 333/7/6
f 325/2/6 332/2/6 334/2/6
f 334/7/6 335/7/6 336/7/6
f 336/7/6 335/7/6 337/7/6
f 334/7/6 336/7/6 338/7/6
f 337/7/6 335/7/6 339/7/6
f 321/2/6 322/2/6 340/2/6
f 322/4/6 323/4/6 341/4/6
f 340/2/6 322/2/6 341/2/6
f 341/4/6 323/4/6 342/4/6
f 324/4/6 325/4/6 343/4/6
f 325/2/6 334/2/6 344/2/6
f 343/4/6 325/4/6 344/4/6
f 338/7/6 339/7/6 345/7/6
f 344/2/6 334/2/6 345/2/6
f 334/7/6 338/7/6 345/7/6
f 339/7/6 335/7/6 346/7/6
f 345/7/6 339/7/6 346/7/6
